<?xml version="1.0" encoding="utf-8"?>
<!-- Generator: Adobe Illustrator 16.0.0, SVG Export Plug-In . SVG Version: 6.00 Build 0)  -->
<!DOCTYPE svg PUBLIC "-//W3C//DTD SVG 1.1//EN" "http://www.w3.org/Graphics/SVG/1.1/DTD/svg11.dtd">
<svg version="1.1" id="Layer_1" xmlns="http://www.w3.org/2000/svg" xmlns:xlink="http://www.w3.org/1999/xlink" x="0px" y="0px"
	 width="100px" height="100px" viewBox="0 0 100 100" enable-background="new 0 0 100 100" xml:space="preserve">
<g>
	<g>
		<g>
			<g>
				<path fill="none" stroke="#0069ff" stroke-width="2" stroke-miterlimit="10" d="M24,24.5c0,3.5,1.963,6.5,5,6.5s5-3,5-6.5
					S33,19,29,19S24,21,24,24.5z"/>
				<path fill="none" stroke="#0069ff" stroke-width="2" stroke-miterlimit="10" d="M35,39h2c1,0,2-1.343,2-3c0-1.656,0-2,0-2l-7-4"
					/>
				<path fill="none" stroke="#0069ff" stroke-width="2" stroke-miterlimit="10" d="M26,30l-7,4c0,0,0,0.344,0,2c0,1.657,1,3,2,3h2"
					/>
			</g>
			<g>
				<path fill="none" stroke="#0069ff" stroke-width="2" stroke-miterlimit="10" d="M24,45.5c0,3.5,1.963,6.5,5,6.5s5-3,5-6.5
					S33,40,29,40S24,42,24,45.5z"/>
				<path fill="none" stroke="#0069ff" stroke-width="2" stroke-miterlimit="10" d="M35,60h2c1,0,2-1.343,2-3c0-1.656,0-2,0-2l-7-4"
					/>
				<path fill="none" stroke="#0069ff" stroke-width="2" stroke-miterlimit="10" d="M26,51l-7,4c0,0,0,0.344,0,2c0,1.657,1,3,2,3h2"
					/>
			</g>
			<g>
				<path fill="none" stroke="#0069ff" stroke-width="2" stroke-miterlimit="10" d="M24,66.5c0,3.5,1.963,6.5,5,6.5s5-3,5-6.5
					S33,61,29,61S24,63,24,66.5z"/>
				<path fill="none" stroke="#0069ff" stroke-width="2" stroke-miterlimit="10" d="M26,72l-7,4c0,0,0,0.344,0,2c0,1.657,1,3,2,3h16
					c1,0,2-1.343,2-3c0-1.656,0-2,0-2l-7-4"/>
			</g>
			<polyline fill="none" stroke="#0069ff" stroke-width="2" stroke-miterlimit="10" points="37,67 81,67 81,75 42,75 			"/>
			<polyline fill="none" stroke="#0069ff" stroke-width="2" stroke-miterlimit="10" points="37,46 81,46 81,54 42,54 			"/>
			<polyline fill="none" stroke="#0069ff" stroke-width="2" stroke-miterlimit="10" points="37,25 81,25 81,33 42,33 			"/>
			<line fill="none" stroke="#0069ff" stroke-width="2" stroke-miterlimit="10" x1="42" y1="29" x2="44" y2="29"/>
			<line fill="none" stroke="#0069ff" stroke-width="2" stroke-miterlimit="10" x1="46" y1="29" x2="48" y2="29"/>
			<line fill="none" stroke="#0069ff" stroke-width="2" stroke-miterlimit="10" x1="50" y1="29" x2="52" y2="29"/>
			<line fill="none" stroke="#0069ff" stroke-width="2" stroke-miterlimit="10" x1="54" y1="29" x2="56" y2="29"/>
			<line fill="none" stroke="#0069ff" stroke-width="2" stroke-miterlimit="10" x1="58" y1="29" x2="60" y2="29"/>
			<line fill="none" stroke="#0069ff" stroke-width="2" stroke-miterlimit="10" x1="62" y1="29" x2="64" y2="29"/>
			<line fill="none" stroke="#0069ff" stroke-width="2" stroke-miterlimit="10" x1="42" y1="50" x2="44" y2="50"/>
			<line fill="none" stroke="#0069ff" stroke-width="2" stroke-miterlimit="10" x1="46" y1="50" x2="48" y2="50"/>
			<line fill="none" stroke="#0069ff" stroke-width="2" stroke-miterlimit="10" x1="50" y1="50" x2="52" y2="50"/>
			<line fill="none" stroke="#0069ff" stroke-width="2" stroke-miterlimit="10" x1="54" y1="50" x2="56" y2="50"/>
			<line fill="none" stroke="#0069ff" stroke-width="2" stroke-miterlimit="10" x1="58" y1="50" x2="60" y2="50"/>
			<line fill="none" stroke="#0069ff" stroke-width="2" stroke-miterlimit="10" x1="62" y1="50" x2="64" y2="50"/>
			<line fill="none" stroke="#0069ff" stroke-width="2" stroke-miterlimit="10" x1="66" y1="50" x2="68" y2="50"/>
			<line fill="none" stroke="#0069ff" stroke-width="2" stroke-miterlimit="10" x1="70" y1="50" x2="72" y2="50"/>
			<line fill="none" stroke="#0069ff" stroke-width="2" stroke-miterlimit="10" x1="42" y1="71" x2="44" y2="71"/>
			<line fill="none" stroke="#0069ff" stroke-width="2" stroke-miterlimit="10" x1="46" y1="71" x2="48" y2="71"/>
			<line fill="none" stroke="#0069ff" stroke-width="2" stroke-miterlimit="10" x1="50" y1="71" x2="52" y2="71"/>
			<line fill="none" stroke="#0069ff" stroke-width="2" stroke-miterlimit="10" x1="54" y1="71" x2="56" y2="71"/>
			<line fill="none" stroke="#0069ff" stroke-width="2" stroke-miterlimit="10" x1="58" y1="71" x2="60" y2="71"/>
			<line fill="none" stroke="#0069ff" stroke-width="2" stroke-miterlimit="10" x1="42" y1="79" x2="50" y2="79"/>
			<line fill="none" stroke="#0069ff" stroke-width="2" stroke-miterlimit="10" x1="52" y1="79" x2="72" y2="79"/>
			<line fill="none" stroke="#0069ff" stroke-width="2" stroke-miterlimit="10" x1="42" y1="58" x2="60" y2="58"/>
			<line fill="none" stroke="#0069ff" stroke-width="2" stroke-miterlimit="10" x1="62" y1="58" x2="72" y2="58"/>
			<line fill="none" stroke="#0069ff" stroke-width="2" stroke-miterlimit="10" x1="58" y1="37" x2="62" y2="37"/>
			<line fill="none" stroke="#0069ff" stroke-width="2" stroke-miterlimit="10" x1="42" y1="37" x2="56" y2="37"/>
			<line fill="none" stroke="#0069ff" stroke-width="2" stroke-miterlimit="10" x1="64" y1="37" x2="72" y2="37"/>
		</g>
	</g>
</g>
</svg>
