<?xml version="1.0" encoding="utf-8"?>
<!-- Generator: Adobe Illustrator 19.0.0, SVG Export Plug-In . SVG Version: 6.00 Build 0)  -->
<svg version="1.1" id="Layer_1" xmlns="http://www.w3.org/2000/svg" xmlns:xlink="http://www.w3.org/1999/xlink" x="0px" y="0px"
	 viewBox="254.3 373.3 475.5 95.3" style="enable-background:new 254.3 373.3 475.5 95.3;" xml:space="preserve">
<style type="text/css">
	.st0{fill:#2E3C54;}
	.st1{clip-path:url(#SVGID_2_);fill:url(#SVGID_3_);}
</style>
<g>
	<path class="st0" d="M433.6,445.9c0.3,3.3,2.9,7.4,7.5,7.4h2.7c1,0,1.9-0.8,1.9-1.9v-58.4h0c-0.1-1-0.9-1.8-1.9-1.8h-8.2
		c-1,0-1.8,0.8-1.9,1.8h0v4.7c-5-6.2-13-8.8-21-8.8c-18.1,0-32.8,14.7-32.8,32.8c0,18.1,14.7,32.8,32.8,32.8v0
		C420.5,454.7,429.2,451.6,433.6,445.9L433.6,445.9z M412.6,443.2c-11.5,0-20.9-9.6-20.9-21.3c0-11.8,9.4-21.3,20.9-21.3
		s20.9,9.6,20.9,21.3C433.5,433.7,424.1,443.2,412.6,443.2"/>
	<path class="st0" d="M567.7,445.9c0.3,3.3,2.9,7.4,7.5,7.4h2.7c1,0,1.9-0.8,1.9-1.9v-58.4h0c-0.1-1-0.9-1.8-1.9-1.8h-8.2
		c-1,0-1.8,0.8-1.9,1.8h0v4.7c-5-6.2-13-8.8-21-8.8c-18.1,0-32.8,14.7-32.8,32.8c0,18.1,14.7,32.8,32.8,32.8v0
		C554.7,454.7,563.4,451.6,567.7,445.9L567.7,445.9z M546.8,443.2c-11.5,0-20.9-9.6-20.9-21.3c0-11.8,9.4-21.3,20.9-21.3
		c11.5,0,20.9,9.6,20.9,21.3C567.7,433.7,558.3,443.2,546.8,443.2"/>
	<path class="st0" d="M717.7,445.9c0.3,3.3,2.9,7.4,7.5,7.4h2.7c1,0,1.9-0.8,1.9-1.9v-58.4h0c-0.1-1-0.9-1.8-1.9-1.8h-8.2
		c-1,0-1.8,0.8-1.9,1.8h0v4.7c-5-6.2-13-8.8-21-8.8c-18.1,0-32.8,14.7-32.8,32.8c0,18.1,14.7,32.8,32.8,32.8v0
		C704.7,454.7,713.4,451.6,717.7,445.9L717.7,445.9z M696.8,443.2c-11.5,0-20.9-9.6-20.9-21.3c0-11.8,9.4-21.3,20.9-21.3
		c11.5,0,20.9,9.6,20.9,21.3C717.7,433.7,708.3,443.2,696.8,443.2"/>
	<path class="st0" d="M653.5,448l0-30.2h0c0-17-10.7-28.5-27.9-28.5c-8.2,0-15.7,4.7-17.3,8.8c-0.5-3.2-2.2-6.5-7.4-6.5h-2.7
		c-1,0-1.9,0.8-1.9,1.9v52.7v0v5.6v0.1h0c0.1,1,0.9,1.8,1.9,1.8h5.6h2.7c0.1,0,0.3,0,0.4,0c0.1,0,0.1,0,0.2,0c0.1,0,0.1,0,0.2-0.1
		c0.1,0,0.1-0.1,0.2-0.1c0,0,0.1,0,0.1-0.1c0.1-0.1,0.2-0.1,0.2-0.2c0,0,0,0,0,0c0.1-0.1,0.2-0.2,0.2-0.3l0,0c0.2-0.3,0.3-0.6,0.4-1
		h0v-0.1V448v-1v-29.7c0-9.1,7.4-16.6,16.6-16.6c9.2,0,16.6,7.4,16.6,16.6l0,28.8l0,0c0,0,0,0.1,0,0.1v5.5v0.1h0
		c0.1,1,0.9,1.8,1.9,1.8h5.6h2.7c0.1,0,0.3,0,0.4,0c0,0,0.1,0,0.1,0c0.1,0,0.1,0,0.2-0.1c0.1,0,0.1-0.1,0.2-0.1c0,0,0.1,0,0.1-0.1
		c0.1,0,0.1-0.1,0.2-0.2c0,0,0,0,0.1,0c0.1-0.1,0.1-0.2,0.2-0.2c0,0,0,0,0,0c0.2-0.3,0.3-0.6,0.3-1c0,0,0,0,0,0h0v-0.1L653.5,448
		L653.5,448z"/>
	<path class="st0" d="M465.2,437.6c5.5,3.8,11.5,5.7,17.3,5.7c5.5,0,11.2-2.8,11.2-7.8c0-6.6-12.4-7.6-20.2-10.3
		c-7.8-2.6-14.5-8.1-14.5-17c0-13.5,12.1-19.1,23.3-19.1c7.1,0,14.5,2.4,19.3,5.7c1.6,1.2,0.6,2.7,0.6,2.7l-4.6,6.5
		c-0.5,0.7-1.4,1.4-2.7,0.6c-1.3-0.8-5.8-4-12.7-4c-6.9,0-11,3.2-11,7.1c0,4.7,5.4,6.2,11.7,7.8c11,3,23,6.5,23,20
		c0,11.9-11.2,19.3-23.5,19.3c-9.3,0-17.3-2.7-24-7.6c-1.4-1.4-0.4-2.7-0.4-2.7l4.5-6.5C463.5,436.8,464.7,437.2,465.2,437.6"/>
</g>
<g>
	<g>
		<defs>
			<path id="SVGID_1_" d="M254.3,446.1c0,12.4,10,22.4,22.4,22.4c12.4,0,22.4-10,22.4-22.4c0-12.4-10-22.4-22.4-22.4
				C264.3,423.7,254.3,433.7,254.3,446.1 M312.5,446.1c0,12.4,10,22.4,22.4,22.4c12.4,0,22.4-10,22.4-22.4c0-12.4-10-22.4-22.4-22.4
				C322.5,423.7,312.5,433.7,312.5,446.1 M283.4,395.7c0,12.4,10,22.4,22.4,22.4c12.4,0,22.4-10,22.4-22.4c0-12.4-10-22.4-22.4-22.4
				C293.4,373.3,283.4,383.3,283.4,395.7"/>
		</defs>
		<clipPath id="SVGID_2_">
			<use xlink:href="#SVGID_1_"  style="overflow:visible;"/>
		</clipPath>
		
			<radialGradient id="SVGID_3_" cx="192.2811" cy="243.9245" r="0.9998" gradientTransform="matrix(56.4237 0 0 56.4237 -10543.416 -13334.4014)" gradientUnits="userSpaceOnUse">
			<stop  offset="0" style="stop-color:#FFB900"/>
			<stop  offset="0.6" style="stop-color:#F95D8F"/>
			<stop  offset="0.9991" style="stop-color:#F95353"/>
			<stop  offset="1" style="stop-color:#F95353"/>
		</radialGradient>
		<rect x="254.3" y="373.3" class="st1" width="103.1" height="95.3"/>
	</g>
</g>
</svg>
