<?xml version="1.0" encoding="utf-8"?>
<!-- Generator: Adobe Illustrator 16.0.0, SVG Export Plug-In . SVG Version: 6.00 Build 0)  -->
<!DOCTYPE svg PUBLIC "-//W3C//DTD SVG 1.1//EN" "http://www.w3.org/Graphics/SVG/1.1/DTD/svg11.dtd">
<svg version="1.1" id="Layer_1" xmlns="http://www.w3.org/2000/svg" xmlns:xlink="http://www.w3.org/1999/xlink" x="0px" y="0px"
	 width="100px" height="100px" viewBox="0 0 100 100" enable-background="new 0 0 100 100" xml:space="preserve">
<g>
	<g>
		<path fill="none" stroke="#0069ff" stroke-width="2" stroke-linejoin="round" stroke-miterlimit="10" d="M45,24c0,3.5,1.963,7,5,7
			s5-3.5,5-7s-1-5-5-5S45,20.5,45,24z"/>
		<path fill="none" stroke="#0069ff" stroke-width="2" stroke-linejoin="round" stroke-miterlimit="10" d="M47,30l-7,4
			c0,0,0,0.344,0,2s1,3,2,3h16c1,0,2-1.344,2-3s0-2,0-2l-7-4"/>
	</g>
	<g>
		<path fill="none" stroke="#0069ff" stroke-width="2" stroke-linejoin="round" stroke-miterlimit="10" d="M24,66c0,3.5,1.963,7,5,7
			s5-3.5,5-7s-1-5-5-5S24,62.5,24,66z"/>
		<path fill="none" stroke="#0069ff" stroke-width="2" stroke-linejoin="round" stroke-miterlimit="10" d="M26,72l-7,4
			c0,0,0,0.344,0,2s1,3,2,3h16c1,0,2-1.344,2-3s0-2,0-2l-7-4"/>
	</g>
	<g>
		<path fill="none" stroke="#0069ff" stroke-width="2" stroke-linejoin="round" stroke-miterlimit="10" d="M66,66c0,3.5,1.963,7,5,7
			s5-3.5,5-7s-1-5-5-5S66,62.5,66,66z"/>
		<path fill="none" stroke="#0069ff" stroke-width="2" stroke-linejoin="round" stroke-miterlimit="10" d="M68,72l-7,4
			c0,0,0,0.344,0,2s1,3,2,3h16c1,0,2-1.344,2-3s0-2,0-2l-7-4"/>
	</g>
	<g>
		<polyline fill="none" stroke="#0069ff" stroke-width="2" stroke-linejoin="round" stroke-miterlimit="10" points="75,51 71,55
			67,51 		"/>
		<polyline fill="none" stroke="#0069ff" stroke-width="2" stroke-miterlimit="10" points="71,55 71,28 60,28 		"/>
	</g>
	<g>
		<polyline fill="none" stroke="#0069ff" stroke-width="2" stroke-linejoin="round" stroke-miterlimit="10" points="25,51 29,55
			33,51 		"/>
		<polyline fill="none" stroke="#0069ff" stroke-width="2" stroke-miterlimit="10" points="29,55 29,28 40,28 		"/>
	</g>
	<g>
		<polyline fill="none" stroke="#0069ff" stroke-width="2" stroke-linejoin="round" stroke-miterlimit="10" points="58,51 50,59
			46,55 		"/>

			<line fill="none" stroke="#0069ff" stroke-width="2" stroke-linejoin="round" stroke-miterlimit="10" x1="52" y1="48" x2="54" y2="48"/>
		<path fill="none" stroke="#0069ff" stroke-width="2" stroke-linejoin="round" stroke-miterlimit="10" d="M59,57
			c0,4.971-4.029,9-9,9s-9-4.029-9-9s4.029-9,9-9"/>
	</g>
</g>
</svg>
