<?xml version="1.0" encoding="utf-8"?>
<!-- Generator: Adobe Illustrator 16.0.0, SVG Export Plug-In . SVG Version: 6.00 Build 0)  -->
<!DOCTYPE svg PUBLIC "-//W3C//DTD SVG 1.1//EN" "http://www.w3.org/Graphics/SVG/1.1/DTD/svg11.dtd">
<svg version="1.1" id="Layer_1" xmlns="http://www.w3.org/2000/svg" xmlns:xlink="http://www.w3.org/1999/xlink" x="0px" y="0px"
	 width="100px" height="100px" viewBox="0 0 100 100" enable-background="new 0 0 100 100" xml:space="preserve">
<g>
	<g>
		<g>
			<polyline fill="none" stroke="#0069ff" stroke-width="2" stroke-linejoin="round" stroke-miterlimit="10" points="50,73 19,73
				19,29 81,29 81,54 			"/>
			<rect x="40" y="37" fill="none" stroke="#0069ff" stroke-width="2" stroke-miterlimit="10" width="4" height="4"/>
			<rect x="48" y="37" fill="none" stroke="#0069ff" stroke-width="2" stroke-miterlimit="10" width="4" height="4"/>
			<rect x="56" y="37" fill="none" stroke="#0069ff" stroke-width="2" stroke-miterlimit="10" width="4" height="4"/>
			<rect x="64" y="37" fill="none" stroke="#0069ff" stroke-width="2" stroke-miterlimit="10" width="4" height="4"/>
			<rect x="72" y="37" fill="none" stroke="#0069ff" stroke-width="2" stroke-miterlimit="10" width="4" height="4"/>
			<rect x="40" y="45" fill="none" stroke="#0069ff" stroke-width="2" stroke-miterlimit="10" width="4" height="4"/>
			<rect x="32" y="45" fill="none" stroke="#0069ff" stroke-width="2" stroke-miterlimit="10" width="4" height="4"/>
			<rect x="24" y="45" fill="none" stroke="#0069ff" stroke-width="2" stroke-miterlimit="10" width="4" height="4"/>
			<rect x="48" y="45" fill="none" stroke="#0069ff" stroke-width="2" stroke-miterlimit="10" width="4" height="4"/>
			<rect x="56" y="45" fill="none" stroke="#0069ff" stroke-width="2" stroke-miterlimit="10" width="4" height="4"/>
			<rect x="64" y="45" fill="none" stroke="#0069ff" stroke-width="2" stroke-miterlimit="10" width="4" height="4"/>
			<rect x="72" y="45" fill="none" stroke="#0069ff" stroke-width="2" stroke-miterlimit="10" width="4" height="4"/>
			<rect x="40" y="53" fill="none" stroke="#0069ff" stroke-width="2" stroke-miterlimit="10" width="4" height="4"/>
			<rect x="32" y="53" fill="none" stroke="#0069ff" stroke-width="2" stroke-miterlimit="10" width="4" height="4"/>
			<rect x="24" y="53" fill="none" stroke="#0069ff" stroke-width="2" stroke-miterlimit="10" width="4" height="4"/>
			<rect x="48" y="53" fill="none" stroke="#0069ff" stroke-width="2" stroke-miterlimit="10" width="4" height="4"/>
			<rect x="40" y="61" fill="none" stroke="#0069ff" stroke-width="2" stroke-miterlimit="10" width="4" height="4"/>
			<rect x="32" y="61" fill="none" stroke="#0069ff" stroke-width="2" stroke-miterlimit="10" width="4" height="4"/>
			<rect x="24" y="61" fill="none" stroke="#0069ff" stroke-width="2" stroke-miterlimit="10" width="4" height="4"/>
			<polyline fill="none" stroke="#0069ff" stroke-width="2" stroke-linejoin="round" stroke-miterlimit="10" points="19,26 19,19
				81,19 81,26 			"/>

				<line fill="none" stroke="#0069ff" stroke-width="2" stroke-linejoin="round" stroke-miterlimit="10" x1="25" y1="23" x2="75" y2="23"/>

				<line fill="none" stroke="#0069ff" stroke-width="2" stroke-linejoin="round" stroke-miterlimit="10" x1="35" y1="39" x2="33" y2="39"/>

				<line fill="none" stroke="#0069ff" stroke-width="2" stroke-linejoin="round" stroke-miterlimit="10" x1="27" y1="39" x2="25" y2="39"/>
			<polyline fill="none" stroke="#0069ff" stroke-width="2" stroke-linejoin="round" stroke-miterlimit="10" points="73,63 65,71
				61,67 			"/>
			<circle fill="none" stroke="#0069ff" stroke-width="2" stroke-linejoin="round" stroke-miterlimit="10" cx="67" cy="67" r="14"/>
		</g>
	</g>
</g>
</svg>
