<?xml version="1.0" encoding="utf-8"?>
<!-- Generator: Adobe Illustrator 16.0.0, SVG Export Plug-In . SVG Version: 6.00 Build 0)  -->
<!DOCTYPE svg PUBLIC "-//W3C//DTD SVG 1.1//EN" "http://www.w3.org/Graphics/SVG/1.1/DTD/svg11.dtd">
<svg version="1.1" id="Layer_1" xmlns="http://www.w3.org/2000/svg" xmlns:xlink="http://www.w3.org/1999/xlink" x="0px" y="0px"
	 width="100px" height="100px" viewBox="0 0 100 100" enable-background="new 0 0 100 100" xml:space="preserve">
<g>
	<g>
		<g>
			<g>
				<rect x="19" y="19" fill="none" stroke="#0069ff" stroke-width="2" stroke-miterlimit="10" width="8" height="8"/>
				<rect x="73" y="19" fill="none" stroke="#0069ff" stroke-width="2" stroke-miterlimit="10" width="8" height="8"/>
				<rect x="19" y="73" fill="none" stroke="#0069ff" stroke-width="2" stroke-miterlimit="10" width="8" height="8"/>
				<rect x="73" y="73" fill="none" stroke="#0069ff" stroke-width="2" stroke-miterlimit="10" width="8" height="8"/>
				<line fill="none" stroke="#0069ff" stroke-width="2" stroke-miterlimit="10" x1="30" y1="23" x2="34" y2="23"/>
				<line fill="none" stroke="#0069ff" stroke-width="2" stroke-miterlimit="10" x1="36" y1="23" x2="40" y2="23"/>
				<line fill="none" stroke="#0069ff" stroke-width="2" stroke-miterlimit="10" x1="42" y1="23" x2="46" y2="23"/>
				<line fill="none" stroke="#0069ff" stroke-width="2" stroke-miterlimit="10" x1="48" y1="23" x2="52" y2="23"/>
				<line fill="none" stroke="#0069ff" stroke-width="2" stroke-miterlimit="10" x1="54" y1="23" x2="58" y2="23"/>
				<line fill="none" stroke="#0069ff" stroke-width="2" stroke-miterlimit="10" x1="60" y1="23" x2="64" y2="23"/>
				<line fill="none" stroke="#0069ff" stroke-width="2" stroke-miterlimit="10" x1="66" y1="23" x2="70" y2="23"/>
				<line fill="none" stroke="#0069ff" stroke-width="2" stroke-miterlimit="10" x1="30" y1="77" x2="34" y2="77"/>
				<line fill="none" stroke="#0069ff" stroke-width="2" stroke-miterlimit="10" x1="36" y1="77" x2="40" y2="77"/>
				<line fill="none" stroke="#0069ff" stroke-width="2" stroke-miterlimit="10" x1="42" y1="77" x2="46" y2="77"/>
				<line fill="none" stroke="#0069ff" stroke-width="2" stroke-miterlimit="10" x1="48" y1="77" x2="52" y2="77"/>
				<line fill="none" stroke="#0069ff" stroke-width="2" stroke-miterlimit="10" x1="54" y1="77" x2="58" y2="77"/>
				<line fill="none" stroke="#0069ff" stroke-width="2" stroke-miterlimit="10" x1="60" y1="77" x2="64" y2="77"/>
				<line fill="none" stroke="#0069ff" stroke-width="2" stroke-miterlimit="10" x1="66" y1="77" x2="70" y2="77"/>
				<line fill="none" stroke="#0069ff" stroke-width="2" stroke-miterlimit="10" x1="77" y1="30" x2="77" y2="34"/>
				<line fill="none" stroke="#0069ff" stroke-width="2" stroke-miterlimit="10" x1="77" y1="36" x2="77" y2="40"/>
				<line fill="none" stroke="#0069ff" stroke-width="2" stroke-miterlimit="10" x1="77" y1="42" x2="77" y2="46"/>
				<line fill="none" stroke="#0069ff" stroke-width="2" stroke-miterlimit="10" x1="77" y1="48" x2="77" y2="52"/>
				<line fill="none" stroke="#0069ff" stroke-width="2" stroke-miterlimit="10" x1="77" y1="54" x2="77" y2="58"/>
				<line fill="none" stroke="#0069ff" stroke-width="2" stroke-miterlimit="10" x1="77" y1="60" x2="77" y2="64"/>
				<line fill="none" stroke="#0069ff" stroke-width="2" stroke-miterlimit="10" x1="77" y1="66" x2="77" y2="70"/>
				<line fill="none" stroke="#0069ff" stroke-width="2" stroke-miterlimit="10" x1="23" y1="30" x2="23" y2="34"/>
				<line fill="none" stroke="#0069ff" stroke-width="2" stroke-miterlimit="10" x1="23" y1="36" x2="23" y2="40"/>
				<line fill="none" stroke="#0069ff" stroke-width="2" stroke-miterlimit="10" x1="23" y1="42" x2="23" y2="46"/>
				<line fill="none" stroke="#0069ff" stroke-width="2" stroke-miterlimit="10" x1="23" y1="48" x2="23" y2="52"/>
				<line fill="none" stroke="#0069ff" stroke-width="2" stroke-miterlimit="10" x1="23" y1="54" x2="23" y2="58"/>
				<line fill="none" stroke="#0069ff" stroke-width="2" stroke-miterlimit="10" x1="23" y1="60" x2="23" y2="64"/>
				<line fill="none" stroke="#0069ff" stroke-width="2" stroke-miterlimit="10" x1="23" y1="66" x2="23" y2="70"/>
			</g>
		</g>
	</g>
</g>
<g>
	<g>
		<g>
			<g>
				<rect x="69" y="46" fill="none" stroke="#0069ff" stroke-width="2" stroke-miterlimit="10" width="3" height="3"/>
			</g>
			<g>
				<rect x="59" y="57" fill="none" stroke="#0069ff" stroke-width="2" stroke-miterlimit="10" width="3" height="3"/>
			</g>
			<g>
				<rect x="40" y="34" fill="none" stroke="#0069ff" stroke-width="2" stroke-miterlimit="10" width="3" height="3"/>
			</g>
			<g>
				<rect x="49" y="46" fill="none" stroke="#0069ff" stroke-width="2" stroke-miterlimit="10" width="3" height="3"/>
			</g>
			<g>
				<rect x="30" y="46" fill="none" stroke="#0069ff" stroke-width="2" stroke-miterlimit="10" width="3" height="3"/>
			</g>
			<g>
				<g>
					<polygon fill="none" stroke="#0069ff" stroke-width="1.6172" stroke-miterlimit="10" points="43.598,59.254 49.258,58.445
						50.066,57.637 37.129,52.785 41.98,65.723 42.789,64.914 					"/>
				</g>
			</g>
			<line fill="none" stroke="#0069ff" stroke-width="2" stroke-miterlimit="10" x1="40" y1="47" x2="42" y2="47"/>
			<line fill="none" stroke="#0069ff" stroke-width="2" stroke-miterlimit="10" x1="44" y1="47" x2="45" y2="47"/>
			<line fill="none" stroke="#0069ff" stroke-width="2" stroke-miterlimit="10" x1="37" y1="47" x2="39" y2="47"/>
			<line fill="none" stroke="#0069ff" stroke-width="2" stroke-miterlimit="10" x1="60" y1="47" x2="61" y2="47"/>
			<line fill="none" stroke="#0069ff" stroke-width="2" stroke-miterlimit="10" x1="63" y1="47" x2="65" y2="47"/>
			<line fill="none" stroke="#0069ff" stroke-width="2" stroke-miterlimit="10" x1="57" y1="47" x2="58" y2="47"/>
			<path fill="none" stroke="#0069ff" stroke-width="1.6172" stroke-miterlimit="10" d="M42.789,35.939
				c4.589,0.77,8.086,4.761,8.086,9.568"/>
			<path fill="none" stroke="#0069ff" stroke-width="1.6172" stroke-miterlimit="10" d="M31.469,45.508
				c0-4.808,3.497-8.799,8.086-9.568"/>
			<path fill="none" stroke="#0069ff" stroke-width="1.6172" stroke-miterlimit="10" d="M58.961,58.312
				c-4.59-0.771-8.086-4.762-8.086-9.569"/>
			<path fill="none" stroke="#0069ff" stroke-width="1.6172" stroke-miterlimit="10" d="M70.281,48.742
				c0,4.808-3.496,8.799-8.086,9.569"/>
			<line fill="none" stroke="#0069ff" stroke-width="2" stroke-miterlimit="10" x1="40" y1="36" x2="31" y2="36"/>
			<line fill="none" stroke="#0069ff" stroke-width="2" stroke-miterlimit="10" x1="51" y1="36" x2="43" y2="36"/>
		</g>
	</g>
</g>
</svg>
