<?xml version="1.0" encoding="utf-8"?>
<!-- Generator: Adobe Illustrator 16.0.0, SVG Export Plug-In . SVG Version: 6.00 Build 0)  -->
<!DOCTYPE svg PUBLIC "-//W3C//DTD SVG 1.1//EN" "http://www.w3.org/Graphics/SVG/1.1/DTD/svg11.dtd">
<svg version="1.1" id="Layer_1" xmlns="http://www.w3.org/2000/svg" xmlns:xlink="http://www.w3.org/1999/xlink" x="0px" y="0px"
	 width="100px" height="100px" viewBox="0 0 100 100" enable-background="new 0 0 100 100" xml:space="preserve">
<g>
	<g>
		<g>
			<rect x="19" y="19" fill="none" stroke="#0069ff" stroke-width="2" stroke-miterlimit="10" width="62" height="62"/>
			<line fill="none" stroke="#0069ff" stroke-width="2" stroke-miterlimit="10" x1="19" y1="27" x2="81" y2="27"/>
			<line fill="none" stroke="#0069ff" stroke-width="2" stroke-miterlimit="10" x1="22" y1="23" x2="24" y2="23"/>
			<line fill="none" stroke="#0069ff" stroke-width="2" stroke-miterlimit="10" x1="26" y1="23" x2="28" y2="23"/>
			<line fill="none" stroke="#0069ff" stroke-width="2" stroke-miterlimit="10" x1="30" y1="23" x2="32" y2="23"/>
			<line fill="none" stroke="#0069ff" stroke-width="2" stroke-miterlimit="10" x1="35" y1="19" x2="35" y2="27"/>
			<line fill="none" stroke="#0069ff" stroke-width="2" stroke-miterlimit="10" x1="38" y1="23" x2="78" y2="23"/>
			<line fill="none" stroke="#0069ff" stroke-width="2" stroke-miterlimit="10" x1="45" y1="41" x2="47" y2="41"/>
			<line fill="none" stroke="#0069ff" stroke-width="2" stroke-miterlimit="10" x1="49" y1="41" x2="51" y2="41"/>
			<line fill="none" stroke="#0069ff" stroke-width="2" stroke-miterlimit="10" x1="53" y1="41" x2="55" y2="41"/>
			<line fill="none" stroke="#0069ff" stroke-width="2" stroke-miterlimit="10" x1="45" y1="67" x2="47" y2="67"/>
			<line fill="none" stroke="#0069ff" stroke-width="2" stroke-miterlimit="10" x1="49" y1="67" x2="51" y2="67"/>
			<line fill="none" stroke="#0069ff" stroke-width="2" stroke-miterlimit="10" x1="53" y1="67" x2="55" y2="67"/>
		</g>
	</g>
	<g>
		<path fill="#0069ff" d="M46.844,59.23l-8.235-3.581v-1.983l8.235-3.564v2.336L41.1,54.633l5.744,2.279V59.23z"/>
		<path fill="#0069ff" d="M47.606,60.805l2.975-12.424h1.729l-3.007,12.424H47.606z"/>
		<path fill="#0069ff" d="M53.072,59.238V56.92l5.753-2.262l-5.753-2.237v-2.303l8.244,3.564v1.967L53.072,59.238z"/>
	</g>
</g>
</svg>
