<?xml version="1.0" encoding="utf-8"?>
<svg version="1.1" id="Layer_1" xmlns="http://www.w3.org/2000/svg" xmlns:xlink="http://www.w3.org/1999/xlink" x="0px" y="0px"
	 viewBox="0 0 254.9 77.9" style="enable-background:new 0 0 254.9 77.9;" xml:space="preserve">
<style type="text/css">
	.st0{fill:#4E8EF7;}
	.st1{fill:#4FD696;}
	.st2{fill:#3A405B;}
</style>
<g>
	<path class="st0" d="M27.7,77.9c-1.2,0-2.3-0.4-3.2-1.3c-1.8-1.8-1.8-4.6,0-6.4l45.2-45.2c1.8-1.8,4.6-1.8,6.4,0
		c1.8,1.8,1.8,4.6,0,6.4L30.9,76.6C30,77.5,28.9,77.9,27.7,77.9z"/>
	<path class="st0" d="M50.4,77.8c-0.9,0-1.7-0.2-2.5-0.8l-0.3-0.2c-2.1-1.4-2.6-4.2-1.2-6.2c1.4-2.1,4.2-2.6,6.2-1.3l0.3,0.2
		c2.1,1.4,2.6,4.2,1.2,6.2C53.2,77.1,51.8,77.8,50.4,77.8z"/>
	<path class="st1" d="M13.8,69.4c-1.2,0-2.3-0.4-3.2-1.3c-1.8-1.8-1.8-4.6,0-6.4l12.4-12.4c1.8-1.8,4.6-1.8,6.4,0
		c1.8,1.8,1.8,4.6,0,6.3L17,68C16.1,68.9,15,69.4,13.8,69.4z"/>
	<path class="st0" d="M66.7,61.4c-1.2,0-2.3-0.4-3.2-1.3c-1.8-1.8-1.8-4.6,0-6.4l6.1-6.1c1.8-1.8,4.6-1.8,6.4,0
		c1.8,1.8,1.8,4.6,0,6.4l-6.1,6.1C69,61,67.9,61.4,66.7,61.4z"/>
	<path class="st1" d="M5,55.7c-1.1,0-2.3-0.4-3.2-1.3c-1.8-1.8-1.8-4.6,0-6.4l0.1-0.1c1.8-1.8,4.6-1.8,6.4,0c1.8,1.8,1.8,4.6,0,6.4
		l-0.1,0.1C7.3,55.2,6.2,55.7,5,55.7z"/>
	<path class="st0" d="M38.4,44.8c-1.2,0-2.3-0.4-3.2-1.3c-1.8-1.8-1.8-4.6,0-6.4l26-26c1.8-1.8,4.6-1.8,6.4,0
		c1.8,1.8,1.8,4.6,0,6.4l-26,26C40.7,44.4,39.5,44.8,38.4,44.8z"/>
	<path class="st1" d="M17.3,43.5c-1.2,0-2.3-0.4-3.2-1.3c-1.8-1.8-1.8-4.6,0-6.4L47.5,2.3c1.8-1.8,4.6-1.8,6.4,0
		c1.8,1.8,1.8,4.6,0,6.4L20.4,42.1C19.6,43,18.4,43.5,17.3,43.5z"/>
	<path class="st1" d="M4.5,33.7c-1.2,0-2.3-0.4-3.2-1.3c-1.8-1.8-1.8-4.6,0-6.4L14.4,13c1.8-1.8,4.6-1.8,6.4,0
		c1.8,1.8,1.8,4.6,0,6.4L7.7,32.4C6.8,33.3,5.6,33.7,4.5,33.7z"/>
	<path class="st1" d="M28.8,9.4c-2.5,0-4.5-2-4.5-4.5V4.5c0-2.5,2-4.5,4.5-4.5c2.5,0,4.5,2,4.5,4.5v0.4C33.3,7.4,31.3,9.4,28.8,9.4
		z"/>
</g>
<g>
	<path class="st2" d="M111.4,16.6c7.4,0,13.5,2.2,18.3,6.5c4.8,4.3,7.1,9.9,7.1,16.7c0,6.9-2.4,12.5-7.1,16.8
		c-4.8,4.3-10.9,6.5-18.3,6.5H95.1V16.6H111.4z M106.4,54.4h5c4.3,0,7.7-1.3,10.2-4c2.5-2.6,3.7-6.2,3.7-10.7c0-4.5-1.2-8-3.7-10.7
		c-2.5-2.6-5.9-4-10.2-4h-5V54.4z"/>
	<path class="st2" d="M154,26.1V33c2.6-4.9,6.2-7.3,10.6-7.3v11.5h-2.8c-2.6,0-4.6,0.6-5.9,1.9c-1.3,1.2-2,3.4-2,6.5V63h-11.3V26.1
		H154z"/>
	<path class="st2" d="M171.6,58.2c-3.3-3.5-4.9-8-4.9-13.6c0-5.5,1.6-10,4.9-13.6c3.3-3.5,7.3-5.3,11.9-5.3c4.7,0,8.3,1.7,10.8,5.2
		v-4.8h11.3V63h-11.3v-5.4c-2.7,3.9-6.4,5.8-11,5.8C178.8,63.5,174.8,61.7,171.6,58.2z M191.9,51.3c1.6-1.6,2.4-3.8,2.4-6.7
		c0-2.9-0.8-5.2-2.4-6.7c-1.6-1.6-3.5-2.3-5.6-2.3c-2.1,0-4,0.8-5.6,2.4c-1.6,1.6-2.4,3.8-2.4,6.7c0,2.9,0.8,5.2,2.4,6.7
		c1.6,1.6,3.5,2.3,5.6,2.3C188.4,53.7,190.2,52.9,191.9,51.3z"/>
	<path class="st2" d="M230.4,26.1v9.4h-4.7V63h-11.3V35.5h-3.4v-9.4h3.4v-1.4c0-4.7,1.2-8.1,3.7-10.3c2.5-2.2,6.4-3.2,11.7-3.2v9.6
		c-1.5,0-2.6,0.3-3.2,0.9c-0.6,0.6-1,1.6-1,3v1.4H230.4z"/>
	<path class="st2" d="M250.8,53.4h4V63h-5.8c-4.1,0-7.4-0.9-9.6-2.7c-2.3-1.8-3.4-5-3.4-9.4V35.5h-3.4v-9.4h3.4v-9h11.3v9h7.4v9.4
		h-7.4v15.3C247.4,52.6,248.5,53.4,250.8,53.4z"/>
</g>
</svg>
