<?xml version="1.0" encoding="utf-8"?>
<!-- Generator: Adobe Illustrator 19.0.0, SVG Export Plug-In . SVG Version: 6.00 Build 0)  -->
<svg version="1.1" id="Layer_1" xmlns="http://www.w3.org/2000/svg" xmlns:xlink="http://www.w3.org/1999/xlink" x="0px" y="0px"
	 viewBox="124.1 325.7 839.5 190.7" style="enable-background:new 124.1 325.7 839.5 190.7;" xml:space="preserve">
<style type="text/css">
	.st0{fill:#007EE5;}
</style>
<g id="XMLID_12_">
	<path id="XMLID_29_" class="st0" d="M359.3,365.1h40.6c34.8,0,56.8,22.5,56.8,57.5c0,35-21.9,57.5-56.8,57.5h-40.6V365.1z
		 M399,459.1c21.9,0,33.9-14,33.9-36.4c0-22.5-12-36.5-33.9-36.5h-15.9v72.9L399,459.1L399,459.1z"/>
	<path id="XMLID_27_" class="st0" d="M518.4,419.3c-3.1-1.9-7.3-2.8-11.7-2.8c-7.9,0-14.3,4.2-15.9,11.8v51.9h-23.1v-83.7h23.2v8.2
		c3.6-5.9,10.4-10.1,18.7-10.1c3.9,0,7.5,0.8,8.8,1.5L518.4,419.3L518.4,419.3z"/>
	<path id="XMLID_24_" class="st0" d="M564.7,482.1c-24.4,0-41.1-18-41.1-43.7c0-25.8,16.7-43.9,41.1-43.9s41,18,41,43.9
		C605.7,464.1,589.1,482.1,564.7,482.1z M564.7,414.3c-11.7,0-18,10.1-18,24.1c0,13.8,6.4,24,18,24c11.6,0,18-10.1,18-24
		C582.7,424.4,576.3,414.3,564.7,414.3z"/>
	<path id="XMLID_21_" class="st0" d="M638.9,511.2h-23.2V396.4h23.2v7c3.7-4.5,12-8.8,21-8.8c24.4,0,38.2,20.2,38.2,43.9
		c0,23.6-13.8,43.7-38.2,43.7c-9,0-17.3-4.3-21-8.8V511.2z M638.9,452.1c2.8,5.8,9,9.8,15.7,9.8c12.6,0,20.1-10.1,20.1-23.5
		c0-13.5-7.5-23.6-20.1-23.6c-7,0-12.9,4.2-15.7,9.8V452.1z"/>
	<path id="XMLID_18_" class="st0" d="M731.5,480.2h-23.5V358.4h23.5v45c3.7-4.5,12-8.8,21-8.8c24.4,0,38.1,19.9,38.1,43.9
		c0,24-13.7,43.7-38.1,43.7c-9,0-17.3-4.3-21-8.8V480.2z M731.5,452.1c2.6,5.8,8.8,9.8,15.7,9.8c12.6,0,20.1-10.1,20.1-23.5
		c0-13.5-7.5-23.6-20.1-23.6c-6.7,0-13.1,4.2-15.7,9.8V452.1z"/>
	<path id="XMLID_15_" class="st0" d="M840,482.3c-24.4,0-41.1-18-41.1-43.7c0-25.8,16.7-43.9,41.1-43.9c24.4,0,41,18,41,43.9
		C880.9,464.4,864.2,482.3,840,482.3z M840,414.5c-11.7,0-18,10.1-18,24.1c0,13.8,6.4,24,18,24c11.6,0,18-10.1,18-24
		C857.9,424.6,851.5,414.5,840,414.5z"/>
	<path id="XMLID_13_" class="st0" d="M933.1,437l30.5,43.3h-25.7L920,454l-18.2,26.3h-24.4l30.2-42.8l-28.4-41h25.7l16.2,23.8
		l16.4-23.8h24.4L933.1,437z"/>
</g>
<g id="XMLID_6_">
	<polygon id="XMLID_11_" class="st0" points="184.6,325.7 124.1,364.7 166,398.5 226.8,360.9 	"/>
	<polygon id="XMLID_10_" class="st0" points="124.1,431.5 184.6,471.2 226.8,436.1 166,398.5 	"/>
	<polygon id="XMLID_9_" class="st0" points="226.8,436.1 269,471.2 329.3,431.9 287.6,398.5 	"/>
	<polygon id="XMLID_8_" class="st0" points="329.3,365 269,325.7 226.8,360.9 287.6,398.5 	"/>
	<polygon id="XMLID_7_" class="st0" points="226.9,443.6 184.6,478.7 166.4,466.9 166.4,480.2 226.9,516.4 287.3,480.2 287.3,466.9 
		269.3,478.7 	"/>
</g>
</svg>
