<?xml version="1.0" encoding="utf-8"?>
<!-- Generator: Adobe Illustrator 19.0.0, SVG Export Plug-In . SVG Version: 6.00 Build 0)  -->
<svg version="1.1" id="Layer_1" xmlns="http://www.w3.org/2000/svg" xmlns:xlink="http://www.w3.org/1999/xlink" x="0px" y="0px"
	 viewBox="0 0 3848 2806.2" style="enable-background:new 0 0 3848 2806.2;" xml:space="preserve">
<style type="text/css">
	.st0{fill:#4FD696;}
	.st1{fill:#4E8EF7;}
	.st2{fill:#C5EDF9;}
	.st3{fill:#130000;}
	.st4{fill:#FFFFFF;}
	.st5{fill:#231F20;}
	.st6{fill:#4E8EF7;stroke:#231F20;stroke-miterlimit:10;}
	.st7{fill:#DEF6FC;}
	.st8{fill:#231F20;stroke:#4E8EF7;stroke-miterlimit:10;}
	.st9{fill:#A2DFFF;}
	.st10{fill:#939598;}
</style>
<g>
	<g>
		<g>
			<path class="st0" d="M3298.4,1034.8c-4.1,0-7.5,3.4-7.5,7.5c0,18.4-14.9,33.3-33.3,33.3c-4.1,0-7.5,3.4-7.5,7.5s3.4,7.5,7.5,7.5
				c26.6,0,48.3-21.7,48.3-48.3C3305.9,1038.2,3302.5,1034.8,3298.4,1034.8z"/>
			<path class="st0" d="M3339.2,1075.6c-18.4,0-33.3-14.9-33.3-33.3c0-4.1-3.4-7.5-7.5-7.5s-7.5,3.4-7.5,7.5
				c0,26.6,21.7,48.3,48.3,48.3c4.1,0,7.5-3.4,7.5-7.5S3343.3,1075.6,3339.2,1075.6z"/>
		</g>
		<g>
			<path class="st0" d="M3257.5,1075.6c-4.1,0-7.5,3.4-7.5,7.5s3.4,7.5,7.5,7.5c18.4,0,33.3,14.9,33.3,33.3c0,4.1,3.4,7.5,7.5,7.5
				s7.5-3.4,7.5-7.5C3305.9,1097.3,3284.2,1075.6,3257.5,1075.6z"/>
			<path class="st0" d="M3339.2,1075.6c-26.6,0-48.3,21.7-48.3,48.3c0,4.1,3.4,7.5,7.5,7.5s7.5-3.4,7.5-7.5
				c0-18.4,14.9-33.3,33.3-33.3c4.1,0,7.5-3.4,7.5-7.5S3343.3,1075.6,3339.2,1075.6z"/>
		</g>
	</g>
	<g>
		<g>
			<path class="st0" d="M1198.8,518.9c-4.1,0-7.5,3.4-7.5,7.5c0,18.4-14.9,33.3-33.3,33.3c-4.1,0-7.5,3.4-7.5,7.5
				c0,4.1,3.4,7.5,7.5,7.5c26.6,0,48.3-21.7,48.3-48.3C1206.3,522.3,1202.9,518.9,1198.8,518.9z"/>
			<path class="st0" d="M1239.6,559.7c-18.4,0-33.3-14.9-33.3-33.3c0-4.1-3.4-7.5-7.5-7.5s-7.5,3.4-7.5,7.5
				c0,26.6,21.7,48.3,48.3,48.3c4.1,0,7.5-3.4,7.5-7.5C1247.1,563.1,1243.7,559.7,1239.6,559.7z"/>
		</g>
		<g>
			<path class="st0" d="M1158,559.7c-4.1,0-7.5,3.4-7.5,7.5c0,4.1,3.4,7.5,7.5,7.5c18.4,0,33.3,14.9,33.3,33.3
				c0,4.1,3.4,7.5,7.5,7.5s7.5-3.4,7.5-7.5C1206.3,581.4,1184.6,559.7,1158,559.7z"/>
			<path class="st0" d="M1239.6,559.7c-26.6,0-48.3,21.7-48.3,48.3c0,4.1,3.4,7.5,7.5,7.5s7.5-3.4,7.5-7.5
				c0-18.4,14.9-33.3,33.3-33.3c4.1,0,7.5-3.4,7.5-7.5C1247.1,563.1,1243.7,559.7,1239.6,559.7z"/>
		</g>
	</g>
	<g>
		<g>
			<path class="st0" d="M1486.5,631.7c-4.1,0-7.5,3.4-7.5,7.5c0,18.4-14.9,33.3-33.3,33.3c-4.1,0-7.5,3.4-7.5,7.5
				c0,4.1,3.4,7.5,7.5,7.5c26.6,0,48.3-21.7,48.3-48.3C1494,635,1490.6,631.7,1486.5,631.7z"/>
			<path class="st0" d="M1527.3,672.5c-18.4,0-33.3-14.9-33.3-33.3c0-4.1-3.4-7.5-7.5-7.5c-4.1,0-7.5,3.4-7.5,7.5
				c0,26.6,21.7,48.3,48.3,48.3c4.1,0,7.5-3.4,7.5-7.5C1534.8,675.8,1531.5,672.5,1527.3,672.5z"/>
		</g>
		<g>
			<path class="st0" d="M1445.7,672.5c-4.1,0-7.5,3.4-7.5,7.5c0,4.1,3.4,7.5,7.5,7.5c18.4,0,33.3,14.9,33.3,33.3
				c0,4.1,3.4,7.5,7.5,7.5c4.1,0,7.5-3.4,7.5-7.5C1494,694.1,1472.3,672.5,1445.7,672.5z"/>
			<path class="st0" d="M1527.3,672.5c-26.6,0-48.3,21.7-48.3,48.3c0,4.1,3.4,7.5,7.5,7.5c4.1,0,7.5-3.4,7.5-7.5
				c0-18.4,14.9-33.3,33.3-33.3c4.1,0,7.5-3.4,7.5-7.5C1534.8,675.8,1531.5,672.5,1527.3,672.5z"/>
		</g>
	</g>
	<g>
		<g>
			<path class="st1" d="M2849.4,367.4c-4.1,0-7.5,3.4-7.5,7.5c0,18.4-14.9,33.3-33.3,33.3c-4.1,0-7.5,3.4-7.5,7.5
				c0,4.1,3.4,7.5,7.5,7.5c26.6,0,48.3-21.7,48.3-48.3C2856.9,370.7,2853.5,367.4,2849.4,367.4z"/>
			<path class="st1" d="M2890.2,408.2c-18.4,0-33.3-14.9-33.3-33.3c0-4.1-3.4-7.5-7.5-7.5s-7.5,3.4-7.5,7.5
				c0,26.6,21.7,48.3,48.3,48.3c4.1,0,7.5-3.4,7.5-7.5C2897.7,411.5,2894.3,408.2,2890.2,408.2z"/>
		</g>
		<g>
			<path class="st1" d="M2808.6,408.2c-4.1,0-7.5,3.4-7.5,7.5c0,4.1,3.4,7.5,7.5,7.5c18.4,0,33.3,14.9,33.3,33.3
				c0,4.1,3.4,7.5,7.5,7.5s7.5-3.4,7.5-7.5C2856.9,429.8,2835.2,408.2,2808.6,408.2z"/>
			<path class="st1" d="M2890.2,408.2c-26.6,0-48.3,21.7-48.3,48.3c0,4.1,3.4,7.5,7.5,7.5s7.5-3.4,7.5-7.5
				c0-18.4,14.9-33.3,33.3-33.3c4.1,0,7.5-3.4,7.5-7.5C2897.7,411.5,2894.3,408.2,2890.2,408.2z"/>
		</g>
	</g>
	<g>
		<g>
			<path class="st1" d="M1187.7,835.3c-4.1,0-7.5,3.4-7.5,7.5c0,18.4-14.9,33.3-33.3,33.3c-4.1,0-7.5,3.4-7.5,7.5
				c0,4.1,3.4,7.5,7.5,7.5c26.6,0,48.3-21.7,48.3-48.3C1195.2,838.6,1191.9,835.3,1187.7,835.3z"/>
			<path class="st1" d="M1228.5,876.1c-18.4,0-33.3-14.9-33.3-33.3c0-4.1-3.4-7.5-7.5-7.5s-7.5,3.4-7.5,7.5
				c0,26.6,21.7,48.3,48.3,48.3c4.1,0,7.5-3.4,7.5-7.5C1236,879.4,1232.7,876.1,1228.5,876.1z"/>
		</g>
		<g>
			<path class="st1" d="M1146.9,876.1c-4.1,0-7.5,3.4-7.5,7.5c0,4.1,3.4,7.5,7.5,7.5c18.4,0,33.3,14.9,33.3,33.3
				c0,4.1,3.4,7.5,7.5,7.5s7.5-3.4,7.5-7.5C1195.2,897.7,1173.5,876.1,1146.9,876.1z"/>
			<path class="st1" d="M1228.5,876.1c-26.6,0-48.3,21.7-48.3,48.3c0,4.1,3.4,7.5,7.5,7.5s7.5-3.4,7.5-7.5
				c0-18.4,14.9-33.3,33.3-33.3c4.1,0,7.5-3.4,7.5-7.5C1236,879.4,1232.7,876.1,1228.5,876.1z"/>
		</g>
	</g>
	<g>
		<g>
			<path class="st1" d="M229.9,2125.9c-15.9,15.9-41.7,15.9-57.6,0c-2.9-2.9-7.7-2.9-10.6,0c-2.9,2.9-2.9,7.7,0,10.6
				c10.9,10.9,25.1,16.3,39.4,16.3s28.5-5.4,39.4-16.3c2.9-2.9,2.9-7.7,0-10.6C237.6,2123,232.8,2123,229.9,2125.9z"/>
			<path class="st1" d="M240.5,2125.9c-2.9-2.9-7.7-2.9-10.6,0c-10.5,10.5-16.3,24.5-16.3,39.4c0,14.9,5.8,28.9,16.3,39.4
				c1.5,1.5,3.4,2.2,5.3,2.2c1.9,0,3.8-0.7,5.3-2.2c2.9-2.9,2.9-7.7,0-10.6c-7.7-7.7-11.9-17.9-11.9-28.8c0-10.9,4.2-21.1,11.9-28.8
				C243.4,2133.6,243.4,2128.9,240.5,2125.9z"/>
		</g>
		<g>
			<path class="st1" d="M161.7,2125.9c-2.9,2.9-2.9,7.7,0,10.6c7.7,7.7,11.9,17.9,11.9,28.8c0,10.9-4.2,21.1-11.9,28.8
				c-2.9,2.9-2.9,7.7,0,10.6c1.5,1.5,3.4,2.2,5.3,2.2s3.8-0.7,5.3-2.2c10.5-10.5,16.3-24.5,16.3-39.4c0-14.9-5.8-28.9-16.3-39.4
				C169.4,2123,164.6,2123,161.7,2125.9z"/>
			<path class="st1" d="M201.1,2177.8c-14.9,0-28.9,5.8-39.4,16.3c-2.9,2.9-2.9,7.7,0,10.6c2.9,2.9,7.7,2.9,10.6,0
				c7.7-7.7,17.9-11.9,28.8-11.9c10.9,0,21.1,4.2,28.8,11.9c1.5,1.5,3.4,2.2,5.3,2.2c1.9,0,3.8-0.7,5.3-2.2c2.9-2.9,2.9-7.7,0-10.6
				C230,2183.6,216,2177.8,201.1,2177.8z"/>
		</g>
	</g>
	<g>
		<g>
			<path class="st1" d="M1768.4,2.2c-15.9,15.9-41.7,15.9-57.6,0c-2.9-2.9-7.7-2.9-10.6,0c-2.9,2.9-2.9,7.7,0,10.6
				c10.5,10.5,24.5,16.3,39.4,16.3c14.9,0,28.9-5.8,39.4-16.3c2.9-2.9,2.9-7.7,0-10.6C1776.1-0.7,1771.4-0.7,1768.4,2.2z"/>
			<path class="st1" d="M1779,2.2c-2.9-2.9-7.7-2.9-10.6,0c-10.5,10.5-16.3,24.5-16.3,39.4c0,14.9,5.8,28.9,16.3,39.4
				c1.5,1.5,3.4,2.2,5.3,2.2s3.8-0.7,5.3-2.2c2.9-2.9,2.9-7.7,0-10.6c-7.7-7.7-11.9-17.9-11.9-28.8c0-10.9,4.2-21.1,11.9-28.8
				C1782,9.9,1782,5.1,1779,2.2z"/>
		</g>
		<g>
			<path class="st1" d="M1700.2,2.2c-2.9,2.9-2.9,7.7,0,10.6c15.9,15.9,15.9,41.7,0,57.6c-2.9,2.9-2.9,7.7,0,10.6
				c1.5,1.5,3.4,2.2,5.3,2.2s3.8-0.7,5.3-2.2c21.7-21.7,21.7-57.1,0-78.8C1707.9-0.7,1703.2-0.7,1700.2,2.2z"/>
			<path class="st1" d="M1700.2,70.4c-2.9,2.9-2.9,7.7,0,10.6c2.9,2.9,7.7,2.9,10.6,0c15.9-15.9,41.7-15.9,57.6,0
				c1.5,1.5,3.4,2.2,5.3,2.2s3.8-0.7,5.3-2.2c2.9-2.9,2.9-7.7,0-10.6C1757.3,48.7,1722,48.7,1700.2,70.4z"/>
		</g>
	</g>
	<g>
		<path class="st1" d="M3460.7,536.1l-50.5-29.2c-2.3-1.3-5.2-1.3-7.5,0l-50.5,29.2c-2.3,1.3-3.8,3.8-3.8,6.5v58.4
			c0,2.7,1.4,5.2,3.8,6.5l50.5,29.2c1.2,0.7,2.5,1,3.8,1s2.6-0.3,3.8-1l50.5-29.2c2.3-1.3,3.8-3.8,3.8-6.5v-58.4
			C3464.4,539.9,3463,537.4,3460.7,536.1z M3449.4,596.6l-43,24.8l-43-24.8v-49.7l43-24.8l43,24.8V596.6z"/>
		<path class="st1" d="M3460.7,536.1l-50.5-29.2c-2.3-1.3-5.2-1.3-7.5,0l-50.5,29.2c-2.3,1.3-3.8,3.8-3.8,6.5s1.4,5.2,3.8,6.5
			l50.5,29.2c1.2,0.7,2.5,1,3.8,1s2.6-0.3,3.8-1l50.5-29.2c2.3-1.3,3.8-3.8,3.8-6.5S3463,537.4,3460.7,536.1z M3406.4,563.1
			l-35.5-20.5l35.5-20.5l35.5,20.5L3406.4,563.1z"/>
		<path class="st1" d="M3410.1,565.2l-50.5-29.2c-2.3-1.3-5.2-1.3-7.5,0c-2.3,1.3-3.8,3.8-3.8,6.5v58.4c0,2.7,1.4,5.2,3.8,6.5
			l50.5,29.2c1.2,0.7,2.5,1,3.8,1s2.6-0.3,3.8-1c2.3-1.3,3.8-3.8,3.8-6.5v-58.4C3413.9,569,3412.5,566.6,3410.1,565.2z
			 M3398.9,617.1l-35.5-20.5v-41l35.5,20.5V617.1z"/>
	</g>
	<g>
		<path class="st1" d="M2212.2,608.1l-50.5-29.2c-2.3-1.3-5.2-1.3-7.5,0l-50.5,29.2c-2.3,1.3-3.8,3.8-3.8,6.5v58.4
			c0,2.7,1.4,5.2,3.8,6.5l50.5,29.2c1.2,0.7,2.5,1,3.8,1s2.6-0.3,3.8-1l50.5-29.2c2.3-1.3,3.8-3.8,3.8-6.5v-58.4
			C2215.9,611.9,2214.5,609.4,2212.2,608.1z M2200.9,668.6l-43,24.8l-43-24.8v-49.7l43-24.8l43,24.8V668.6z"/>
		<path class="st1" d="M2212.2,666.4l-50.5-29.2c-2.3-1.3-5.2-1.3-7.5,0l-50.5,29.2c-2.3,1.3-3.8,3.8-3.8,6.5c0,2.7,1.4,5.2,3.8,6.5
			l50.5,29.2c1.2,0.7,2.5,1,3.8,1s2.6-0.3,3.8-1l50.5-29.2c2.3-1.3,3.8-3.8,3.8-6.5C2215.9,670.3,2214.5,667.8,2212.2,666.4z
			 M2157.9,693.5l-35.5-20.5l35.5-20.5l35.5,20.5L2157.9,693.5z"/>
		<path class="st1" d="M2212.2,608.1l-50.5-29.2c-2.3-1.3-5.2-1.3-7.5,0c-2.3,1.3-3.8,3.8-3.8,6.5v58.4c0,2.7,1.4,5.2,3.8,6.5
			l50.5,29.2c1.2,0.7,2.5,1,3.8,1s2.6-0.3,3.8-1c2.3-1.3,3.8-3.8,3.8-6.5v-58.4C2215.9,611.9,2214.5,609.4,2212.2,608.1z
			 M2200.9,659.9l-35.5-20.5v-41l35.5,20.5V659.9z"/>
	</g>
	<g>
		<g>
			<g>
				<path class="st1" d="M1185.3,766.2c0,0-0.1,0-0.2-0.1C1185.2,766.1,1185.2,766.1,1185.3,766.2z M1200.5,808
					C1200.5,808,1200.5,808,1200.5,808C1200.5,808,1200.5,808,1200.5,808z"/>
				<path class="st1" d="M1313.5,774.9C1313.5,774.9,1313.5,774.9,1313.5,774.9C1313.5,774.9,1313.5,774.9,1313.5,774.9z"/>
				<path class="st1" d="M1072.1,768.5C1072.1,768.5,1072.1,768.5,1072.1,768.5C1072.1,768.5,1072.1,768.5,1072.1,768.5z
					 M1122.9,819.9C1122.9,819.9,1122.9,819.9,1122.9,819.9C1122.9,819.9,1122.9,819.9,1122.9,819.9z M1099.1,793.9
					C1099.1,793.9,1099.1,793.9,1099.1,793.9C1099.1,793.9,1099.1,793.9,1099.1,793.9z"/>
			</g>
		</g>
	</g>
	<g>
		<path class="st1" d="M3556.5,1284.9h-49.3c-4.1,0-7.5,3.4-7.5,7.5s3.4,7.5,7.5,7.5h49.3c8.1,0,14.6,6.6,14.6,14.6v291.4
			c0,8.1-6.6,14.6-14.6,14.6h-239.8c-8.1,0-14.6-6.6-14.6-14.6v-291.4c0-8.1,6.6-14.6,14.6-14.6h45.4c4.1,0,7.5-3.4,7.5-7.5
			s-3.4-7.5-7.5-7.5h-45.4c-16.3,0-29.6,13.3-29.6,29.6v291.4c0,16.3,13.3,29.6,29.6,29.6h239.8c16.3,0,29.6-13.3,29.6-29.6v-291.4
			C3586.1,1298.2,3572.8,1284.9,3556.5,1284.9z"/>
		<path class="st1" d="M3534.4,1307h-20.9c-4.1,0-7.5,3.4-7.5,7.5s3.4,7.5,7.5,7.5h20.9c2,0,3.6,1.6,3.6,3.6v258.2
			c0,2-1.6,3.6-3.6,3.6h-195.5c-2,0-3.6-1.6-3.6-3.6v-258.2c0-2,1.6-3.6,3.6-3.6h18c4.1,0,7.5-3.4,7.5-7.5s-3.4-7.5-7.5-7.5h-18
			c-10.2,0-18.6,8.3-18.6,18.6v258.2c0,10.2,8.3,18.6,18.6,18.6h195.5c10.2,0,18.6-8.3,18.6-18.6v-258.2
			C3552.9,1315.3,3544.6,1307,3534.4,1307z"/>
		<g>
			<path class="st1" d="M3485.3,1273.8h-101c-19,0-34.5,15.6-34.5,34.7v13.3c0,4.1,3.4,7.5,7.5,7.5h154.9c4.1,0,7.5-3.4,7.5-7.5
				v-13.3C3519.7,1289.4,3504.3,1273.8,3485.3,1273.8z M3504.7,1314.4h-139.9v-5.8c0-10.9,8.7-19.7,19.5-19.7h101
				c10.7,0,19.5,8.9,19.5,19.7V1314.4z"/>
			<path class="st1" d="M3452.1,1246h-34.6c-19,0-34.5,15.6-34.5,34.7c0,4.1,3.4,7.5,7.5,7.5s7.5-3.4,7.5-7.5
				c0-10.9,8.7-19.7,19.5-19.7h34.6c10.7,0,19.5,8.9,19.5,19.7c0,4.1,3.4,7.5,7.5,7.5s7.5-3.4,7.5-7.5
				C3486.5,1261.6,3471.1,1246,3452.1,1246z"/>
		</g>
		<g>
			<g>
				<g>
					<path class="st1" d="M3514.1,1377.1h-112.6c-4.1,0-7.5,3.4-7.5,7.5s3.4,7.5,7.5,7.5h112.6c4.1,0,7.5-3.4,7.5-7.5
						S3518.3,1377.1,3514.1,1377.1z"/>
				</g>
				<g>
					<g>
						<path class="st1" d="M3377.9,1369.7h-18.8c-4.1,0-7.5,3.4-7.5,7.5v14.8c0,4.1,3.4,7.5,7.5,7.5h18.8c4.1,0,7.5-3.4,7.5-7.5
							v-14.8C3385.4,1373.1,3382.1,1369.7,3377.9,1369.7z"/>
					</g>
				</g>
			</g>
			<g>
				<g>
					<path class="st1" d="M3514.1,1422.3h-112.6c-4.1,0-7.5,3.4-7.5,7.5s3.4,7.5,7.5,7.5h112.6c4.1,0,7.5-3.4,7.5-7.5
						S3518.3,1422.3,3514.1,1422.3z"/>
				</g>
				<g>
					<g>
						<path class="st1" d="M3377.9,1415h-18.8c-4.1,0-7.5,3.4-7.5,7.5v14.8c0,4.1,3.4,7.5,7.5,7.5h18.8c4.1,0,7.5-3.4,7.5-7.5v-14.8
							C3385.4,1418.3,3382.1,1415,3377.9,1415z"/>
					</g>
				</g>
			</g>
			<g>
				<g>
					<path class="st1" d="M3514.1,1467.6h-112.6c-4.1,0-7.5,3.4-7.5,7.5s3.4,7.5,7.5,7.5h112.6c4.1,0,7.5-3.4,7.5-7.5
						S3518.3,1467.6,3514.1,1467.6z"/>
				</g>
				<g>
					<g>
						<path class="st1" d="M3377.9,1460.2h-18.8c-4.1,0-7.5,3.4-7.5,7.5v14.8c0,4.1,3.4,7.5,7.5,7.5h18.8c4.1,0,7.5-3.4,7.5-7.5
							v-14.8C3385.4,1463.6,3382.1,1460.2,3377.9,1460.2z"/>
					</g>
				</g>
			</g>
			<g>
				<g>
					<path class="st1" d="M3476.5,1512.9h-74.9c-4.1,0-7.5,3.4-7.5,7.5c0,4.1,3.4,7.5,7.5,7.5h74.9c4.1,0,7.5-3.4,7.5-7.5
						C3484,1516.2,3480.6,1512.9,3476.5,1512.9z"/>
				</g>
				<g>
					<g>
						<path class="st1" d="M3377.9,1505.5h-18.8c-4.1,0-7.5,3.4-7.5,7.5v14.8c0,4.1,3.4,7.5,7.5,7.5h18.8c4.1,0,7.5-3.4,7.5-7.5
							V1513C3385.4,1508.8,3382.1,1505.5,3377.9,1505.5z"/>
					</g>
				</g>
			</g>
		</g>
	</g>
	<g>
		<path class="st1" d="M342.3,1905.7c-34.8,0-63.1,28.3-63.1,63.1s28.3,63.1,63.1,63.1s63.1-28.3,63.1-63.1
			S377.1,1905.7,342.3,1905.7z M342.3,2016.9c-26.5,0-48.1-21.6-48.1-48.1s21.6-48.1,48.1-48.1c26.5,0,48.1,21.6,48.1,48.1
			S368.8,2016.9,342.3,2016.9z"/>
		<path class="st1" d="M342.3,1945.1c-13.1,0-23.7,10.6-23.7,23.7s10.6,23.7,23.7,23.7c13.1,0,23.7-10.6,23.7-23.7
			S355.4,1945.1,342.3,1945.1z M342.3,1977.5c-4.8,0-8.7-3.9-8.7-8.7s3.9-8.7,8.7-8.7s8.7,3.9,8.7,8.7S347.1,1977.5,342.3,1977.5z"
			/>
	</g>
	<g>
		<path class="st1" d="M1365.5,224.7c-26,0-47.2,21.2-47.2,47.2s21.2,47.2,47.2,47.2s47.2-21.2,47.2-47.2S1391.6,224.7,1365.5,224.7
			z M1365.5,304.1c-17.8,0-32.2-14.5-32.2-32.2s14.5-32.2,32.2-32.2c17.8,0,32.2,14.5,32.2,32.2S1383.3,304.1,1365.5,304.1z"/>
		<path class="st1" d="M1365.5,252.8c-10.5,0-19.1,8.6-19.1,19.1c0,10.5,8.6,19.1,19.1,19.1s19.1-8.6,19.1-19.1
			C1384.6,261.4,1376,252.8,1365.5,252.8z M1365.5,276c-2.2,0-4.1-1.8-4.1-4.1c0-2.2,1.8-4.1,4.1-4.1s4.1,1.8,4.1,4.1
			C1369.6,274.1,1367.8,276,1365.5,276z"/>
	</g>
	<g>
		<path class="st1" d="M3238.5,781.1c-50,0-90.7,40.7-90.7,90.7s40.7,90.7,90.7,90.7c50,0,90.7-40.7,90.7-90.7
			S3288.6,781.1,3238.5,781.1z M3238.5,947.6c-41.8,0-75.7-34-75.7-75.7s34-75.7,75.7-75.7c41.8,0,75.7,34,75.7,75.7
			S3280.3,947.6,3238.5,947.6z"/>
		<path class="st1" d="M3238.5,840.1c-17.5,0-31.7,14.2-31.7,31.7c0,17.5,14.2,31.7,31.7,31.7s31.7-14.2,31.7-31.7
			C3270.3,854.3,3256,840.1,3238.5,840.1z M3238.5,888.6c-9.2,0-16.7-7.5-16.7-16.7c0-9.2,7.5-16.7,16.7-16.7
			c9.2,0,16.7,7.5,16.7,16.7C3255.3,881.1,3247.8,888.6,3238.5,888.6z"/>
	</g>
	<g>
		<path class="st0" d="M3470.7,1702.1c-50,0-90.7,40.7-90.7,90.7c0,50,40.7,90.7,90.7,90.7c50,0,90.7-40.7,90.7-90.7
			C3561.5,1742.8,3520.8,1702.1,3470.7,1702.1z M3470.7,1868.5c-41.8,0-75.7-34-75.7-75.7c0-41.8,34-75.7,75.7-75.7
			c41.8,0,75.7,34,75.7,75.7C3546.5,1834.5,3512.5,1868.5,3470.7,1868.5z"/>
		<path class="st0" d="M3470.7,1761c-17.5,0-31.7,14.2-31.7,31.7s14.2,31.7,31.7,31.7s31.7-14.2,31.7-31.7S3488.2,1761,3470.7,1761z
			 M3470.7,1809.5c-9.2,0-16.7-7.5-16.7-16.7c0-9.2,7.5-16.7,16.7-16.7c9.2,0,16.7,7.5,16.7,16.7
			C3487.5,1802,3480,1809.5,3470.7,1809.5z"/>
	</g>
	<g>
		<g>
			<path class="st1" d="M2712.8,224h-72.9c-4.1,0-7.5,3.4-7.5,7.5c0,4.1,3.4,7.5,7.5,7.5h72.9c4.1,0,7.5-3.4,7.5-7.5
				C2720.3,227.3,2716.9,224,2712.8,224z"/>
			<path class="st1" d="M2611.2,224h-27.6c-4.1,0-7.5,3.4-7.5,7.5c0,4.1,3.4,7.5,7.5,7.5h27.6c4.1,0,7.5-3.4,7.5-7.5
				C2618.7,227.3,2615.4,224,2611.2,224z"/>
			<path class="st1" d="M2554.9,224h-42.5c-4.1,0-7.5,3.4-7.5,7.5c0,4.1,3.4,7.5,7.5,7.5h42.5c4.1,0,7.5-3.4,7.5-7.5
				C2562.4,227.3,2559.1,224,2554.9,224z"/>
		</g>
		<g>
			<path class="st1" d="M2699.6,279.8H2608c-4.1,0-7.5,3.4-7.5,7.5s3.4,7.5,7.5,7.5h91.6c4.1,0,7.5-3.4,7.5-7.5
				S2703.8,279.8,2699.6,279.8z"/>
			<path class="st1" d="M2579.3,279.8h-42.5c-4.1,0-7.5,3.4-7.5,7.5s3.4,7.5,7.5,7.5h42.5c4.1,0,7.5-3.4,7.5-7.5
				S2583.5,279.8,2579.3,279.8z"/>
		</g>
		<g>
			<path class="st1" d="M2706.6,168.1h-80.5c-4.1,0-7.5,3.4-7.5,7.5c0,4.1,3.4,7.5,7.5,7.5h80.5c4.1,0,7.5-3.4,7.5-7.5
				C2714.1,171.4,2710.7,168.1,2706.6,168.1z"/>
			<path class="st1" d="M2626.1,168.1h-56.3c-4.1,0-7.5,3.4-7.5,7.5c0,4.1,3.4,7.5,7.5,7.5h56.3c4.1,0,7.5-3.4,7.5-7.5
				C2633.6,171.4,2630.2,168.1,2626.1,168.1z"/>
			<path class="st1" d="M2541.1,168.1h-74.3c-4.1,0-7.5,3.4-7.5,7.5c0,4.1,3.4,7.5,7.5,7.5h74.3c4.1,0,7.5-3.4,7.5-7.5
				C2548.6,171.4,2545.3,168.1,2541.1,168.1z"/>
		</g>
	</g>
	<g>
		<g>
			<path class="st1" d="M3503.6,1049.2c-4.1,0-7.5,3.4-7.5,7.5v62.7c0,4.1,3.4,7.5,7.5,7.5s7.5-3.4,7.5-7.5v-62.7
				C3511.1,1052.6,3507.8,1049.2,3503.6,1049.2z"/>
			<path class="st1" d="M3503.6,1003.6c-4.1,0-7.5,3.4-7.5,7.5v15.4c0,4.1,3.4,7.5,7.5,7.5s7.5-3.4,7.5-7.5v-15.4
				C3511.1,1007,3507.8,1003.6,3503.6,1003.6z"/>
			<path class="st1" d="M3503.6,938c-4.1,0-7.5,3.4-7.5,7.5v37.1c0,4.1,3.4,7.5,7.5,7.5s7.5-3.4,7.5-7.5v-37.1
				C3511.1,941.4,3507.8,938,3503.6,938z"/>
		</g>
		<g>
			<path class="st1" d="M3430.4,1021.4c-4.1,0-7.5,3.4-7.5,7.5v79.9c0,4.1,3.4,7.5,7.5,7.5s7.5-3.4,7.5-7.5v-79.9
				C3437.9,1024.8,3434.5,1021.4,3430.4,1021.4z"/>
			<path class="st1" d="M3430.4,959.3c-4.1,0-7.5,3.4-7.5,7.5v37.1c0,4.1,3.4,7.5,7.5,7.5s7.5-3.4,7.5-7.5v-37.1
				C3437.9,962.7,3434.5,959.3,3430.4,959.3z"/>
		</g>
		<g>
			<path class="st1" d="M3576.8,1037.2c-4.1,0-7.5,3.4-7.5,7.5v70.3c0,4.1,3.4,7.5,7.5,7.5s7.5-3.4,7.5-7.5v-70.3
				C3584.3,1040.5,3581,1037.2,3576.8,1037.2z"/>
			<path class="st1" d="M3576.8,995c-4.1,0-7.5,3.4-7.5,7.5v42.1c0,4.1,3.4,7.5,7.5,7.5s7.5-3.4,7.5-7.5v-42.1
				C3584.3,998.4,3581,995,3576.8,995z"/>
			<path class="st1" d="M3576.8,898.2c-4.1,0-7.5,3.4-7.5,7.5v64.9c0,4.1,3.4,7.5,7.5,7.5s7.5-3.4,7.5-7.5v-64.9
				C3584.3,901.5,3581,898.2,3576.8,898.2z"/>
		</g>
	</g>
	<g>
		<g>
			<path class="st1" d="M555.9,1292.3H483c-4.1,0-7.5,3.4-7.5,7.5s3.4,7.5,7.5,7.5h72.9c4.1,0,7.5-3.4,7.5-7.5
				S560,1292.3,555.9,1292.3z"/>
			<path class="st1" d="M454.4,1292.3h-27.6c-4.1,0-7.5,3.4-7.5,7.5s3.4,7.5,7.5,7.5h27.6c4.1,0,7.5-3.4,7.5-7.5
				S458.5,1292.3,454.4,1292.3z"/>
			<path class="st1" d="M398.1,1292.3h-42.5c-4.1,0-7.5,3.4-7.5,7.5s3.4,7.5,7.5,7.5h42.5c4.1,0,7.5-3.4,7.5-7.5
				S402.2,1292.3,398.1,1292.3z"/>
		</g>
		<g>
			<path class="st1" d="M542.8,1353.3h-91.6c-4.1,0-7.5,3.4-7.5,7.5c0,4.1,3.4,7.5,7.5,7.5h91.6c4.1,0,7.5-3.4,7.5-7.5
				C550.3,1356.6,546.9,1353.3,542.8,1353.3z"/>
			<path class="st1" d="M422.5,1353.3H380c-4.1,0-7.5,3.4-7.5,7.5c0,4.1,3.4,7.5,7.5,7.5h42.5c4.1,0,7.5-3.4,7.5-7.5
				C430,1356.6,426.6,1353.3,422.5,1353.3z"/>
		</g>
		<g>
			<path class="st1" d="M549.8,1231.3h-80.5c-4.1,0-7.5,3.4-7.5,7.5c0,4.1,3.4,7.5,7.5,7.5h80.5c4.1,0,7.5-3.4,7.5-7.5
				C557.3,1234.7,553.9,1231.3,549.8,1231.3z"/>
			<path class="st1" d="M469.2,1231.3h-56.3c-4.1,0-7.5,3.4-7.5,7.5c0,4.1,3.4,7.5,7.5,7.5h56.3c4.1,0,7.5-3.4,7.5-7.5
				C476.7,1234.7,473.4,1231.3,469.2,1231.3z"/>
			<path class="st1" d="M384.3,1231.3h-74.3c-4.1,0-7.5,3.4-7.5,7.5c0,4.1,3.4,7.5,7.5,7.5h74.3c4.1,0,7.5-3.4,7.5-7.5
				C391.8,1234.7,388.4,1231.3,384.3,1231.3z"/>
		</g>
	</g>
	<g>
		<g>
			<g>
				<path class="st1" d="M3697,1605.1c-12.7,0-22.9,10.3-22.9,22.9s10.3,22.9,22.9,22.9s22.9-10.3,22.9-22.9
					S3709.7,1605.1,3697,1605.1z M3697,1636c-4.4,0-7.9-3.6-7.9-7.9s3.6-7.9,7.9-7.9s7.9,3.6,7.9,7.9S3701.4,1636,3697,1636z"/>
			</g>
		</g>
		<g>
			<g>
				<path class="st1" d="M3697,1665.6c-12.7,0-22.9,10.3-22.9,22.9c0,12.7,10.3,22.9,22.9,22.9s22.9-10.3,22.9-22.9
					C3720,1675.9,3709.7,1665.6,3697,1665.6z M3697,1696.5c-4.4,0-7.9-3.6-7.9-7.9s3.6-7.9,7.9-7.9s7.9,3.6,7.9,7.9
					S3701.4,1696.5,3697,1696.5z"/>
				<path class="st1" d="M3697,1726.1c-12.7,0-22.9,10.3-22.9,22.9c0,12.7,10.3,22.9,22.9,22.9s22.9-10.3,22.9-22.9
					C3720,1736.4,3709.7,1726.1,3697,1726.1z M3697,1757c-4.4,0-7.9-3.6-7.9-7.9s3.6-7.9,7.9-7.9s7.9,3.6,7.9,7.9
					S3701.4,1757,3697,1757z"/>
			</g>
		</g>
	</g>
	<g>
		<g>
			<g>
				<path class="st1" d="M465.2,935.9c-12.7,0-22.9,10.3-22.9,22.9c0,12.7,10.3,22.9,22.9,22.9c12.7,0,22.9-10.3,22.9-22.9
					C488.2,946.2,477.9,935.9,465.2,935.9z M465.2,966.8c-4.4,0-7.9-3.6-7.9-7.9c0-4.4,3.6-7.9,7.9-7.9c4.4,0,7.9,3.6,7.9,7.9
					C473.2,963.2,469.6,966.8,465.2,966.8z"/>
			</g>
		</g>
		<g>
			<g>
				<path class="st1" d="M465.2,996.4c-12.7,0-22.9,10.3-22.9,22.9c0,12.7,10.3,22.9,22.9,22.9c12.7,0,22.9-10.3,22.9-22.9
					C488.2,1006.7,477.9,996.4,465.2,996.4z M465.2,1027.3c-4.4,0-7.9-3.6-7.9-7.9c0-4.4,3.6-7.9,7.9-7.9c4.4,0,7.9,3.6,7.9,7.9
					C473.2,1023.7,469.6,1027.3,465.2,1027.3z"/>
				<path class="st1" d="M465.2,1056.9c-12.7,0-22.9,10.3-22.9,22.9c0,12.7,10.3,22.9,22.9,22.9c12.7,0,22.9-10.3,22.9-22.9
					C488.2,1067.2,477.9,1056.9,465.2,1056.9z M465.2,1087.8c-4.4,0-7.9-3.6-7.9-7.9c0-4.4,3.6-7.9,7.9-7.9c4.4,0,7.9,3.6,7.9,7.9
					C473.2,1084.2,469.6,1087.8,465.2,1087.8z"/>
			</g>
		</g>
	</g>
	<g>
		<g>
			<path class="st1" d="M443,1795.6c-83.4,27.5-173.6-17.9-201.2-101.3c-1.3-3.9-5.5-6.1-9.5-4.8c-3.9,1.3-6.1,5.5-4.8,9.5
				c24.2,73.2,92.4,119.6,165.6,119.6c18.1,0,36.4-2.8,54.5-8.8c3.9-1.3,6.1-5.5,4.8-9.5C451.2,1796.5,446.9,1794.3,443,1795.6z"/>
			<g>
				<path class="st0" d="M559.9,1638.2C559.9,1638.2,559.9,1638.2,559.9,1638.2c-4.2,0-7.5,3.3-7.6,7.4
					c-0.5,68.3-44.5,128.5-109.4,150c-73.4,24.2-153.3-7.4-190-75.3c-2-3.6-6.5-5-10.2-3c-3.6,2-5,6.5-3,10.2
					c19.2,35.5,50.5,63.4,88.2,78.6c20.8,8.4,42.9,12.6,65,12.6c18.4,0,36.9-2.9,54.7-8.8c71-23.4,119.1-89.4,119.7-164.1
					C567.4,1641.7,564.1,1638.3,559.9,1638.2z"/>
				<path class="st0" d="M566.2,1641.8c-1.2-2-3.3-3.2-5.6-3.5c-2.3-0.2-4.6,0.6-6.2,2.3l-22.4,23.7c-2.8,3-2.7,7.8,0.3,10.6
					c3,2.8,7.8,2.7,10.6-0.3l15.7-16.7l11.8,18.7c1.4,2.3,3.9,3.5,6.4,3.5c1.4,0,2.7-0.4,4-1.2c3.5-2.2,4.6-6.8,2.4-10.3
					L566.2,1641.8z"/>
			</g>
		</g>
		<g>
			<path class="st1" d="M393.1,1600.1c-24.6,0-44.6,20-44.6,44.6s20,44.6,44.6,44.6c24.6,0,44.6-20,44.6-44.6
				S417.6,1600.1,393.1,1600.1z M393.1,1674.3c-16.3,0-29.6-13.3-29.6-29.6c0-16.3,13.3-29.6,29.6-29.6c16.3,0,29.6,13.3,29.6,29.6
				C422.6,1661,409.4,1674.3,393.1,1674.3z"/>
			<path class="st1" d="M498.4,1615h-25.1c-0.8-2.2-1.7-4.4-2.7-6.6l17.8-17.8c8.1-8.1,8.1-21.3,0-29.4l-12.2-12.2
				c-8.1-8.1-21.3-8.1-29.4,0l-17.8,17.8c-2.2-1-4.4-1.9-6.6-2.7V1539c0-11.4-9.3-20.8-20.8-20.8h-17.2c-11.4,0-20.8,9.3-20.8,20.8
				v25.1c-2.2,0.8-4.4,1.7-6.6,2.7l-17.8-17.8c-8.1-8.1-21.3-8.1-29.4,0l-12.2,12.2c-8.1,8.1-8.1,21.3,0,29.4l17.8,17.8
				c-1,2.2-1.9,4.4-2.7,6.6h-25.1c-11.4,0-20.8,9.3-20.8,20.8v17.2c0,11.4,9.3,20.8,20.8,20.8h25.1c0.8,2.2,1.7,4.4,2.7,6.6
				l-17.8,17.8c-8.1,8.1-8.1,21.3,0,29.4l12.2,12.2c8.1,8.1,21.3,8.1,29.4,0l17.8-17.8c2.2,1,4.4,1.9,6.6,2.7v25.1
				c0,11.4,9.3,20.8,20.8,20.8h17.2c11.4,0,20.8-9.3,20.8-20.8v-25.1c2.2-0.8,4.4-1.7,6.6-2.7l17.8,17.8c8.1,8.1,21.3,8.1,29.4,0
				l12.2-12.2c8.1-8.1,8.1-21.3,0-29.4l-17.8-17.8c1-2.2,1.9-4.4,2.7-6.6h25.1c11.4,0,20.8-9.3,20.8-20.8v-17.2
				C519.2,1624.4,509.9,1615,498.4,1615z M504.2,1653c0,3.2-2.6,5.8-5.8,5.8h-30.6c-3.3,0-6.3,2.2-7.2,5.4
				c-1.4,4.9-3.4,9.6-5.8,14.1c-1.6,2.9-1.1,6.6,1.3,8.9l21.6,21.6c2.2,2.2,2.2,5.9,0,8.2l-12.2,12.2c-1.1,1.1-2.5,1.7-4.1,1.7
				c-1.5,0-3-0.6-4.1-1.7l-21.6-21.6c-2.4-2.4-6-2.9-8.9-1.3c-4.4,2.4-9.1,4.4-14.1,5.8c-3.2,0.9-5.4,3.9-5.4,7.2v30.6
				c0,3.2-2.6,5.8-5.8,5.8h-17.2c-3.2,0-5.8-2.6-5.8-5.8v-30.6c0-3.3-2.2-6.3-5.4-7.2c-4.9-1.4-9.6-3.4-14.1-5.8
				c-1.1-0.6-2.4-0.9-3.6-0.9c-1.9,0-3.9,0.8-5.3,2.2l-21.6,21.6c-2.2,2.2-5.9,2.2-8.2,0l-12.2-12.2c-2.2-2.2-2.2-5.9,0-8.2
				l21.6-21.6c2.4-2.4,2.9-6,1.3-8.9c-2.4-4.4-4.4-9.1-5.8-14.1c-0.9-3.2-3.9-5.4-7.2-5.4h-30.6c-3.2,0-5.8-2.6-5.8-5.8v-17.2
				c0-3.2,2.6-5.8,5.8-5.8h30.6c3.3,0,6.3-2.2,7.2-5.4c1.4-4.9,3.4-9.6,5.8-14.1c1.6-2.9,1.1-6.6-1.3-8.9l-21.6-21.6
				c-2.2-2.2-2.2-5.9,0-8.2l12.2-12.2c2.2-2.2,5.9-2.2,8.2,0l21.6,21.6c2.4,2.4,6,2.9,8.9,1.3c4.4-2.4,9.1-4.4,14.1-5.8
				c3.2-0.9,5.4-3.9,5.4-7.2V1539c0-3.2,2.6-5.8,5.8-5.8h17.2c3.2,0,5.8,2.6,5.8,5.8v30.6c0,3.3,2.2,6.3,5.4,7.2
				c4.9,1.4,9.6,3.4,14.1,5.8c2.9,1.6,6.6,1.1,8.9-1.3l21.6-21.6c1.1-1.1,2.5-1.7,4.1-1.7c1.5,0,3,0.6,4.1,1.7l12.2,12.2
				c2.2,2.2,2.2,5.9,0,8.2l-21.6,21.6c-2.4,2.4-2.9,6-1.3,8.9c2.4,4.4,4.4,9.1,5.8,14.1c0.9,3.2,3.9,5.4,7.2,5.4h30.6
				c3.2,0,5.8,2.6,5.8,5.8V1653z"/>
			<path class="st1" d="M393.1,1600.1c-24.6,0-44.6,20-44.6,44.6s20,44.6,44.6,44.6c24.6,0,44.6-20,44.6-44.6
				S417.6,1600.1,393.1,1600.1z M393.1,1674.3c-16.3,0-29.6-13.3-29.6-29.6c0-16.3,13.3-29.6,29.6-29.6c16.3,0,29.6,13.3,29.6,29.6
				C422.6,1661,409.4,1674.3,393.1,1674.3z"/>
		</g>
		<path class="st0" d="M555.6,1682.4c-4-1.1-8.1,1.2-9.3,5.2c-14.4,51.1-53.1,91.5-103.4,108.1c-83.4,27.5-173.6-17.9-201.2-101.3
			c-1.3-3.9-5.5-6.1-9.5-4.8c-3.9,1.3-6.1,5.5-4.8,9.5c24.2,73.2,92.4,119.6,165.6,119.6c18.1,0,36.4-2.8,54.5-8.8
			c55.1-18.2,97.3-62.4,113.1-118.3C561.9,1687.6,559.6,1683.5,555.6,1682.4z"/>
		<g>
			<path class="st0" d="M471.4,1488.8c-41.6-20.9-88.8-24.4-133-9.8c-3.9,1.3-6.1,5.5-4.8,9.5c1.3,3.9,5.5,6.1,9.5,4.8
				c40.4-13.3,83.6-10.1,121.6,9c38,19.1,66.3,51.9,79.6,92.3c1,3.2,4,5.2,7.1,5.2c0.8,0,1.6-0.1,2.4-0.4c3.9-1.3,6.1-5.5,4.8-9.5
				C543.9,1545.6,513,1509.7,471.4,1488.8z"/>
			<g>
				<path class="st0" d="M458.1,1482.7c-38.1-15.4-80.6-16.7-119.7-3.8c-71,23.4-119.1,89.4-119.7,164.1c0,4.1,3.3,7.5,7.4,7.6
					c0,0,0,0,0.1,0c4.1,0,7.5-3.3,7.5-7.4c0.5-68.3,44.5-128.5,109.4-150c73.4-24.2,153.3,7.4,190,75.3c2,3.6,6.5,5,10.2,3
					c3.6-2,5-6.5,3-10.2C527.1,1525.8,495.8,1497.9,458.1,1482.7z"/>
				<path class="st0" d="M243.2,1614.2l-15.7,16.7l-11.8-18.7c-2.2-3.5-6.8-4.6-10.3-2.4c-3.5,2.2-4.6,6.8-2.4,10.3l16.9,26.9
					c1.2,2,3.3,3.2,5.6,3.5c0.2,0,0.5,0,0.7,0c2.1,0,4-0.8,5.5-2.4l22.4-23.7c2.8-3,2.7-7.8-0.3-10.6
					C250.8,1611,246,1611.2,243.2,1614.2z"/>
			</g>
		</g>
	</g>
	<g>
		<g>
			<path class="st1" d="M1005.4,930l-66-48.3c-3.3-2.4-8-1.7-10.5,1.6c-2.4,3.3-1.7,8,1.6,10.5l57.4,42l-57.2,38.4
				c-3.4,2.3-4.4,7-2,10.4c1.4,2.2,3.8,3.3,6.2,3.3c1.4,0,2.9-0.4,4.2-1.3l66-44.4c2-1.4,3.3-3.6,3.3-6.1
				C1008.5,933.8,1007.4,931.5,1005.4,930z"/>
			<path class="st1" d="M1005.4,930l-37-27.1c-3.3-2.4-8-1.7-10.5,1.6c-2.4,3.3-1.7,8,1.6,10.5l28.4,20.7l-28.1,18.9
				c-3.4,2.3-4.4,7-2,10.4c1.4,2.2,3.8,3.3,6.2,3.3c1.4,0,2.9-0.4,4.2-1.3l37-24.9c2-1.4,3.3-3.6,3.3-6.1
				C1008.5,933.8,1007.4,931.5,1005.4,930z"/>
			<path class="st1" d="M935,880.1l-334.1,0c0,0,0,0,0,0c-5.6,0-10.8,3.3-14.3,9.1c-2.8,4.7-4.3,10.7-4.3,17l0,55.7
				c0,6.3,1.5,12.3,4.3,17c3.5,5.8,8.7,9.1,14.3,9.1c0,0,0,0,0,0l334.1,0c4.1,0,7.5-3.4,7.5-7.5v-92.9c0-2-0.8-3.9-2.2-5.3
				C938.9,880.9,937,880.1,935,880.1z M600.9,895.1L600.9,895.1L600.9,895.1z M601.1,973L601.1,973L601.1,973z M927.5,973L601,973
				c-1.1-0.5-3.8-4.4-3.8-11.1l0-55.7c0-6.7,2.6-10.5,3.7-11.1l326.4,0V973z"/>
			<path class="st1" d="M935,880.1l-334.1,0c0,0,0,0,0,0c-5.6,0-10.8,3.3-14.3,9.1c-2.8,4.7-4.3,10.7-4.3,17l0,55.7
				c0,6.3,1.5,12.3,4.3,17c3.5,5.8,8.7,9.1,14.3,9.1c0,0,0,0,0,0l334.1,0c4.1,0,7.5-3.4,7.5-7.5v-92.9c0-2-0.8-3.9-2.2-5.3
				C938.9,880.9,937,880.1,935,880.1z M600.9,895.1L600.9,895.1L600.9,895.1z M601.1,973L601.1,973L601.1,973z M927.5,973L601,973
				c-1.1-0.5-3.8-4.4-3.8-11.1l0-55.7c0-6.7,2.6-10.5,3.7-11.1l326.4,0V973z"/>
			<path class="st1" d="M935,942l-315.5,0c-4.1,0-7.5,3.4-7.5,7.5c0,4.1,3.4,7.5,7.5,7.5l308,0l0,16h-308c-4.1,0-7.5,3.4-7.5,7.5
				c0,4.1,3.4,7.5,7.5,7.5H935c4.1,0,7.5-3.4,7.5-7.5l0-31c0-2-0.8-3.9-2.2-5.3C938.9,942.8,937,942,935,942z"/>
			<path class="st1" d="M935,880.1l-315.7,0c-4.1,0-7.5,3.4-7.5,7.5c0,4.1,3.4,7.5,7.5,7.5l308.2,0v16l-307.7,0
				c-4.1,0-7.5,3.4-7.5,7.5s3.4,7.5,7.5,7.5l315.2,0c4.1,0,7.5-3.4,7.5-7.5v-31c0-2-0.8-3.9-2.2-5.3
				C938.9,880.9,937,880.1,935,880.1z"/>
			<path class="st1" d="M619.5,880.1l-18.5,0c0,0,0,0,0,0c-5.6,0-10.8,3.3-14.3,9.1c-2.8,4.7-4.3,10.7-4.3,17l0,55.7
				c0,6.3,1.5,12.3,4.3,17c3.5,5.8,8.7,9.1,14.3,9.1c0,0,0,0,0,0l18.6,0c0,0,0,0,0,0c2,0,3.9-0.8,5.3-2.2c1.4-1.4,2.2-3.3,2.2-5.3
				l0-92.9c0-2-0.8-3.9-2.2-5.3C623.4,880.9,621.4,880.1,619.5,880.1z M600.9,895.1L600.9,895.1L600.9,895.1L600.9,895.1
				L600.9,895.1z M601.1,973L601.1,973L601.1,973z M612,973l-10.9,0c-1.1-0.5-3.8-4.4-3.8-11.1l0-55.7c0-6.7,2.6-10.5,3.7-11.1
				l10.9,0L612,973z"/>
			<path class="st1" d="M967.5,905c-4.1,0-7.5,3.4-7.5,7.5l0,43.2c0,4.1,3.4,7.5,7.5,7.5s7.5-3.4,7.5-7.5l0-43.2
				C975,908.4,971.6,905,967.5,905z"/>
		</g>
	</g>
	<g>
		<path class="st1" d="M3043.1,672.5h-180c-13.2,0-23.9,10.7-23.9,23.9v127.4c0,13.2,10.7,23.9,23.9,23.9h44.6v50.3
			c0,3,1.8,5.8,4.6,6.9c0.9,0.4,1.9,0.6,2.9,0.6c2,0,3.9-0.8,5.3-2.2l55.6-55.6h67c13.2,0,24-10.7,24-23.9V696.5
			C3067.1,683.3,3056.3,672.5,3043.1,672.5z M3052.1,823.9c0,4.9-4,8.9-9,8.9H2973c-2,0-3.9,0.8-5.3,2.2l-45,45v-39.7
			c0-4.1-3.4-7.5-7.5-7.5h-52.1c-4.9,0-8.9-4-8.9-8.9V696.5c0-4.9,4-8.9,8.9-8.9h180c4.9,0,9,4,9,8.9V823.9z"/>
		<g>
			<g>
				<path class="st1" d="M3010.4,717.9h-114.6c-4.1,0-7.5,3.4-7.5,7.5s3.4,7.5,7.5,7.5h114.6c4.1,0,7.5-3.4,7.5-7.5
					S3014.6,717.9,3010.4,717.9z"/>
				<path class="st1" d="M3010.4,755.6h-114.6c-4.1,0-7.5,3.4-7.5,7.5s3.4,7.5,7.5,7.5h114.6c4.1,0,7.5-3.4,7.5-7.5
					S3014.6,755.6,3010.4,755.6z"/>
			</g>
			<g>
				<path class="st1" d="M3010.4,755.6h-114.6c-4.1,0-7.5,3.4-7.5,7.5s3.4,7.5,7.5,7.5h114.6c4.1,0,7.5-3.4,7.5-7.5
					S3014.6,755.6,3010.4,755.6z"/>
			</g>
			<g>
				<path class="st1" d="M2958.5,793.3h-62.7c-4.1,0-7.5,3.4-7.5,7.5c0,4.1,3.4,7.5,7.5,7.5h62.7c4.1,0,7.5-3.4,7.5-7.5
					C2966,796.6,2962.6,793.3,2958.5,793.3z"/>
			</g>
		</g>
		<path class="st0" d="M3139,535H3019c-10.2,0-18.5,8.3-18.5,18.5v85c0,10.2,8.3,18.5,18.5,18.5h43.7l36.4,36.4
			c1.4,1.4,3.4,2.2,5.3,2.2c1,0,1.9-0.2,2.9-0.6c2.8-1.2,4.6-3.9,4.6-6.9v-31.1h27.2c10.2,0,18.5-8.3,18.5-18.5v-85
			C3157.5,543.3,3149.2,535,3139,535z M3142.5,638.4c0,1.9-1.6,3.5-3.5,3.5h-34.7c-4.1,0-7.5,3.4-7.5,7.5v20.5l-25.8-25.8
			c-1.4-1.4-3.3-2.2-5.3-2.2H3019c-1.9,0-3.5-1.6-3.5-3.5v-85c0-1.9,1.6-3.5,3.5-3.5H3139c1.9,0,3.5,1.6,3.5,3.5V638.4z"/>
		<path class="st0" d="M3119.1,572.6h-80.2c-4.1,0-7.5,3.4-7.5,7.5c0,4.1,3.4,7.5,7.5,7.5h80.2c4.1,0,7.5-3.4,7.5-7.5
			C3126.6,575.9,3123.2,572.6,3119.1,572.6z"/>
		<path class="st0" d="M3088.6,606.5h-49.7c-4.1,0-7.5,3.4-7.5,7.5s3.4,7.5,7.5,7.5h49.7c4.1,0,7.5-3.4,7.5-7.5
			S3092.8,606.5,3088.6,606.5z"/>
	</g>
	<g>
		<g>
			<g>
				<g>
					<path class="st1" d="M3527.4,2070.4c-0.3,66.1,65.2,83.3,65.2,83.3s65.6-16.7,65.9-82.8s-64.9-156.6-64.9-156.6
						S3527.6,2004.3,3527.4,2070.4z"/>
					<path class="st1" d="M3593.6,1904.8C3593.6,1904.8,3593.6,1904.8,3593.6,1904.8c-3.1,0-5.9,1.4-7.7,3.9
						c-2.8,3.8-67.7,93.2-68,161.6c-0.1,30.1,12.4,55.7,36.2,74c17.6,13.6,35.3,18.3,36.1,18.5c0.8,0.2,1.6,0.3,2.4,0.3
						c0.8,0,1.6-0.1,2.3-0.3c0.7-0.2,18.5-4.8,36.2-18.2c24-18.1,36.7-43.6,36.8-73.7c0.3-68.4-63.9-158.4-66.6-162.2
						C3599.5,1906.3,3596.6,1904.8,3593.6,1904.8z M3620.2,2129.2c-11.3,8.7-22.8,13-27.6,14.6c-4.7-1.6-15.8-5.9-26.9-14.5
						c-19.2-14.8-28.9-34.6-28.8-58.9c0.2-49,39.6-113.6,56.6-139.3c16.8,25.8,55.6,90.7,55.4,139.7
						C3648.8,2095,3639.1,2114.6,3620.2,2129.2z"/>
				</g>
				<path class="st1" d="M3592.9,2076.5C3592.9,2076.5,3592.8,2076.5,3592.9,2076.5c-5.3,0-9.5,4.2-9.5,9.5l-1.2,288.9
					c0,5.2,4.2,9.5,9.5,9.5c0,0,0,0,0,0c5.2,0,9.5-4.2,9.5-9.5l1.2-288.9C3602.3,2080.8,3598.1,2076.5,3592.9,2076.5z"/>
				<g>
					<g>
						<g>
							<path class="st1" d="M3385.8,2120.8c0,0,13.3,86.2,49.7,122.9c36.4,36.7,82.1,10,82.1,10s27.1-45.5-9.3-82.2
								C3471.9,2134.9,3385.8,2120.8,3385.8,2120.8z"/>
							<path class="st1" d="M3387.4,2111.5c-3-0.5-6.1,0.5-8.2,2.6c-2.2,2.1-3.2,5.2-2.7,8.2c0.6,3.6,14.2,89.7,52.3,128.2
								c14.5,14.6,32.4,22.2,52.2,22.2c3.4,0,7-0.2,10.5-0.7c17.7-2.3,30.4-9.6,31-10c1.4-0.8,2.6-2,3.4-3.3
								c0.3-0.5,7.8-13.2,10.2-30.9c3.3-23.9-3.9-45.7-21-62.9C3476.9,2126.4,3391,2112,3387.4,2111.5z M3510.7,2246.7
								c-8.8,4.3-41.6,17.4-68.4-9.7c-13.8-13.9-26.2-38.4-36.1-71c-3.9-12.8-6.6-24.6-8.4-33.2c8.5,1.9,20.3,4.7,33.1,8.7
								c32.5,10.1,57,22.8,70.7,36.7C3528.4,2205.3,3515,2238,3510.7,2246.7z"/>
						</g>
						<path class="st1" d="M3524.4,2247.1c-3.7-3.7-9.7-3.8-13.4-0.1c-3.7,3.7-3.8,9.7-0.1,13.4l74.1,74.8c1.9,1.9,4.3,2.8,6.7,2.8
							c2.4,0,4.8-0.9,6.7-2.8c3.7-3.7,3.8-9.7,0.1-13.4L3524.4,2247.1z"/>
					</g>
					<g>
						<g>
							<path class="st1" d="M3666.6,2254.4c0,0,45.5,27.1,82.2-9.3s50.8-122.5,50.8-122.5s-86.2,13.3-122.9,49.7
								C3639.9,2208.7,3666.6,2254.4,3666.6,2254.4z"/>
							<path class="st1" d="M3798.1,2113.2c-3.6,0.6-89.7,14.2-128.2,52.3c-17.2,17-24.6,38.7-21.5,62.7c2.3,17.7,9.6,30.4,10,31
								c0.8,1.4,2,2.6,3.3,3.4c0.5,0.3,13.2,7.8,30.9,10.2c3.8,0.5,7.5,0.8,11.2,0.8c19.5,0,37.2-7.4,51.7-21.8
								c38.5-38.1,52.8-124.1,53.4-127.7c0.5-3-0.5-6.1-2.6-8.2C3804.1,2113.8,3801.1,2112.7,3798.1,2113.2z M3748.8,2245.1
								L3748.8,2245.1L3748.8,2245.1z M3778.8,2167.6c-10.1,32.5-22.8,57-36.7,70.7c-27,26.8-59.7,13.5-68.5,9.1
								c-4.2-8.7-17.2-41.7,9.7-68.4c13.9-13.8,38.4-26.2,71-36.1c12.8-3.9,24.6-6.6,33.2-8.4
								C3785.6,2143,3782.8,2154.8,3778.8,2167.6z"/>
						</g>
						<path class="st1" d="M3659.9,2247.7l-74.8,74.1c-3.7,3.7-3.8,9.7-0.1,13.4c1.9,1.9,4.3,2.8,6.7,2.8c2.4,0,4.8-0.9,6.7-2.8
							l74.8-74.1c3.7-3.7,3.8-9.7,0.1-13.4C3669.6,2244,3663.6,2244,3659.9,2247.7z"/>
					</g>
				</g>
			</g>
			<g>
				<g>
					<g>
						<polygon class="st1" points="3539.9,2364.7 3433.9,2364.2 3478.2,2623.1 3539,2623.4 3642,2624 3702.8,2624.3 3748.9,2365.8 
							3643,2365.2 						"/>
						<path class="st1" d="M3749,2356.3l-315-1.6c0,0,0,0,0,0c-2.8,0-5.4,1.2-7.2,3.4c-1.8,2.1-2.6,5-2.1,7.7l44.3,259
							c0.8,4.5,4.7,7.9,9.3,7.9l224.6,1.1c0,0,0,0,0,0c4.6,0,8.5-3.3,9.4-7.8l46.1-258.5c0.5-2.8-0.3-5.6-2.1-7.7
							C3754.4,2357.5,3751.8,2356.3,3749,2356.3z M3694.9,2614.7l-208.6-1.1l-41-240l292.4,1.5L3694.9,2614.7z"/>
					</g>
				</g>
			</g>
		</g>
	</g>
	<g>
		<g>
			<g>
				<g>
					<path class="st2" d="M1997.4,816h-371.9c-77.5,0-140.4,62.8-140.4,140.4v1018.4h652.7V956.3
						C2137.7,878.8,2074.9,816,1997.4,816z"/>
					<path class="st3" d="M1997.4,806.5h-371.9c-82.6,0-149.9,67.2-149.9,149.9v1018.4c0,5.2,4.3,9.5,9.5,9.5h652.7
						c5.2,0,9.5-4.3,9.5-9.5V956.3C2147.2,873.7,2080,806.5,1997.4,806.5z M2128.2,1965.2h-633.7V956.3
						c0-72.2,58.7-130.9,130.9-130.9h371.9c72.2,0,130.9,58.7,130.9,130.9V1965.2z"/>
				</g>
				<g>
					<rect x="1724.8" y="663.7" class="st4" width="169.5" height="152.3"/>
					<path d="M1894.3,654.2h-169.5c-5.2,0-9.5,4.3-9.5,9.5V816c0,5.2,4.3,9.5,9.5,9.5h169.5c5.2,0,9.5-4.3,9.5-9.5V663.7
						C1903.8,658.4,1899.5,654.2,1894.3,654.2z M1884.8,806.5h-150.5V673.2h150.5V806.5z"/>
				</g>
				<g>
					<g>
						<path class="st4" d="M1323.9,1869.2c0,0,6.3,106.7,6.3,154.6l0,0c0,30.5,23.9,55.2,53.5,55.2h40.1c32.1,0,58-26.8,58-59.9
							v-151.9l0,0L1323.9,1869.2z"/>
						<path class="st1" d="M1481.8,1857.7c0,0-0.1,0-0.1,0l-158,2c-2.6,0-5.1,1.1-6.8,3c-1.8,1.9-2.7,4.4-2.5,7
							c0.1,1.1,6.3,107,6.3,154.1c0,35.7,28.3,64.7,63,64.7h40.1c37.2,0,67.5-31.2,67.5-69.4v-151.9c0-2.5-1-5-2.8-6.8
							C1486.7,1858.7,1484.3,1857.7,1481.8,1857.7z M1472.3,2019.1c0,27.8-21.8,50.4-48.5,50.4h-40.1c-24.3,0-44-20.5-44-45.7
							c0-39.1-4.2-117.6-5.7-145.3l138.4-1.7V2019.1z"/>
					</g>
					<g>
						<path class="st4" d="M1379.3,1866.5L1379.3,1866.5c-27.1,0-49.1,22.7-49.1,50.7v118l94.7-28.6v-92.9
							C1424.9,1887.6,1404.5,1866.5,1379.3,1866.5z"/>
						<path class="st1" d="M1379.3,1857c-32.3,0-58.6,27-58.6,60.2v118c0,5.2,4.3,9.5,9.5,9.5s9.5-4.3,9.5-9.5v-118
							c0-22.7,17.8-41.2,39.6-41.2c19.9,0,36.2,16.9,36.2,37.7v92.9c0,5.2,4.3,9.5,9.5,9.5s9.5-4.3,9.5-9.5v-92.9
							C1434.4,1882.4,1409.7,1857,1379.3,1857z"/>
					</g>
				</g>
				<g>
					<path class="st2" d="M1406,930.3l-293.7,425.5c-31.5,45.5-29.3,100.5-4.9,141.8l169.8,368.9h204.7l-183.6-429.9l211.5-306.3
						L1727,816h-105.9C1535.8,816,1455.6,858.6,1406,930.3z"/>
					<path d="M1727,806.5h-105.9c-88.3,0-171.7,44.3-223,118.5l-293.7,425.5c-16,23.2-24.7,50-25.1,77.7
						c-0.4,25.9,6.4,51.4,19.5,73.8l169.6,368.5c1.6,3.4,4.9,5.5,8.6,5.5h204.7c3.2,0,6.2-1.6,7.9-4.3c1.8-2.7,2.1-6,0.8-9
						L1309,1437.7l208.5-302c3-4.3,1.9-10.2-2.4-13.2c-4.3-3-10.2-1.9-13.2,2.4l-211.5,306.3c-1.9,2.7-2.2,6.1-0.9,9.1l177.9,416.7
						h-184.3L1116,1493.7c-0.1-0.3-0.3-0.6-0.4-0.9c-11.5-19.6-17.5-41.8-17.1-64.4c0.3-23.9,7.8-47.1,21.7-67.2l293.7-425.5
						c47.7-69,125.3-110.3,207.3-110.3H1727c5.2,0,9.5-4.3,9.5-9.5C1736.5,810.7,1732.3,806.5,1727,806.5z"/>
				</g>
				<g>
					<g>
						<path class="st4" d="M2152.8,1866.5v151.9c0,33.1,26,59.9,58,59.9h40.1c29.5,0,53.5-24.7,53.5-55.2l0,0
							c0-47.9,6.3-154.6,6.3-154.6L2152.8,1866.5L2152.8,1866.5z"/>
						<path class="st1" d="M2310.8,1859l-158-2c-2.5-0.1-5,1-6.8,2.7c-1.8,1.8-2.8,4.2-2.8,6.8v151.9c0,38.3,30.3,69.4,67.5,69.4
							h40.1c34.7,0,63-29,63-64.7c0-47.1,6.2-153,6.3-154.1c0.2-2.6-0.8-5.1-2.5-7C2315.9,1860.1,2313.4,1859,2310.8,1859z
							 M2294.9,2023.1c0,25.2-19.7,45.7-44,45.7h-40.1c-26.8,0-48.5-22.6-48.5-50.4v-142.3l138.4,1.7
							C2299.1,1905.6,2294.9,1984.1,2294.9,2023.1z"/>
					</g>
					<g>
						<path class="st4" d="M2255.4,1865.8L2255.4,1865.8c-25.2,0-45.7,21.1-45.7,47.2v92.9l94.7,28.6v-118
							C2304.4,1888.5,2282.5,1865.8,2255.4,1865.8z"/>
						<path class="st1" d="M2255.4,1856.3c-30.4,0-55.2,25.4-55.2,56.7v92.9c0,5.2,4.3,9.5,9.5,9.5s9.5-4.3,9.5-9.5V1913
							c0-20.8,16.2-37.7,36.2-37.7c21.8,0,39.6,18.5,39.6,41.2v118c0,5.2,4.3,9.5,9.5,9.5s9.5-4.3,9.5-9.5v-118
							C2313.9,1883.3,2287.7,1856.3,2255.4,1856.3z"/>
					</g>
				</g>
				<g>
					<path class="st2" d="M2199.4,930.3c-49.6-71.8-129.8-114.4-215.1-114.4h-105.9l254.1,378.3l174.6,242.3l-154.4,429.9h175.5
						l169.8-368.9c24.3-41.3,26.5-96.3-4.9-141.8L2199.4,930.3z"/>
					<path d="M2207.2,924.9c-51.3-74.2-134.6-118.4-223-118.4h-105.9c-5.2,0-9.5,4.3-9.5,9.5c0,5.2,4.3,9.5,9.5,9.5h105.9
						c82.1,0,159.6,41.2,207.3,110.2l293.7,425.5c13.9,20.1,21.4,43.3,21.7,67.2c0.3,22.5-5.6,44.8-17.1,64.4
						c-0.2,0.3-0.3,0.6-0.4,0.9L2322.2,1857h-155.9l149.8-417.2c1.1-2.9,0.6-6.2-1.2-8.8l-174.6-242.3c-3.1-4.3-9-5.2-13.3-2.2
						c-4.3,3.1-5.2,9-2.2,13.3l171.7,238.3l-152.7,425.2c-1,2.9-0.6,6.1,1.2,8.7s4.7,4,7.8,4h175.5c3.7,0,7.1-2.2,8.6-5.5
						l169.6-368.5c13.1-22.5,19.9-48,19.5-73.8c-0.4-27.7-9.1-54.6-25.1-77.7L2207.2,924.9z"/>
				</g>
				<g>
					<path class="st1" d="M1809.5,159.5c2,0,3.9,0,5.9,0.1c14.7-0.1,39.4-0.1,41.5-0.1H1809.5z"/>
					<path class="st1" d="M1815.4,159.6c-5.7,0-9.9,0-10.7,0.1c-161.1,5.6-283.9,174.8-229.6,331.5l26.3,108
						c6.1,25.2,28,42.8,53.2,42.8H1975l54.6-185.7c21.8-74,6.7-154.8-41.5-214.1C1947.5,192.2,1887.2,161.2,1815.4,159.6z"/>
					<path class="st5" d="M1995.5,236.2c-33.4-41.1-78.3-68.6-129.7-80.1c-1.4-3.6-4.8-6.1-8.9-6.1h-47.3c-0.5,0-1,0-1.5,0.1
						c-1.9,0-3.2,0-3.6,0c-40.7,1.4-81.3,13.3-117.3,34.2c-34.4,20-64.7,48.2-87.6,81.6c-22.4,32.7-37.6,70.1-43.7,108.1
						c-6.6,40.7-3.2,81,10.2,119.7l26.2,107.6c7.2,29.5,32.8,50,62.4,50H1975c4.2,0,7.9-2.8,9.1-6.8l54.6-185.7
						c11.1-37.9,13.1-78.4,5.7-117.1C2036.9,302.9,2020,266.4,1995.5,236.2z M2020.5,453.6l-52.6,178.9h-313.3
						c-20.8,0-38.8-14.6-43.9-35.5l-26.3-108c-0.1-0.3-0.2-0.6-0.3-0.9c-24.3-70.1-13-147.1,31.1-211.3
						c44.4-64.8,115.4-105,189.9-107.6c0.8,0,5,0,10.7-0.1c66.4,1.6,124.8,29.6,165,79.1c22.6,27.8,38.1,61.4,45,97.3
						C2032.6,381.2,2030.8,418.6,2020.5,453.6z"/>
				</g>
				<g>
					<path class="st4" d="M1891.2,265.2h-240l-11.8,167.4V553c0,103.2,81,186.8,180.9,186.8h0c99.9,0,180.9-83.6,180.9-186.8V378.8
						l0,0C2001.2,316,1952,265.2,1891.2,265.2z"/>
					<path class="st5" d="M1891.2,255.7h-240c-5.2,0-9.5,4.3-9.5,9.5s4.3,9.5,9.5,9.5h240c55.4,0,100.5,46.7,100.5,104.1V553
						c0,97.8-76.9,177.3-171.4,177.3s-171.4-79.5-171.4-177.3V432.5c0-5.2-4.3-9.5-9.5-9.5c-5.2,0-9.5,4.3-9.5,9.5V553
						c0,108.3,85.4,196.3,190.4,196.3s190.4-88.1,190.4-196.3V378.8C2010.7,310.9,1957.1,255.7,1891.2,255.7z"/>
				</g>
				<g>
					<path class="st4" d="M1624.6,525.3L1624.6,525.3c0,22.2,17.4,40.2,38.9,40.2v-80.3C1642,485.2,1624.6,503.1,1624.6,525.3z"/>
					<path class="st5" d="M1663.5,494.7c5.2,0,9.5-4.3,9.5-9.5c0-5.2-4.3-9.5-9.5-9.5c-26.7,0-48.4,22.3-48.4,49.7
						c0,27.4,21.7,49.7,48.4,49.7c5.2,0,9.5-4.3,9.5-9.5c0-5.2-4.3-9.5-9.5-9.5c-16.2,0-29.4-13.8-29.4-30.7
						C1634.1,508.4,1647.3,494.7,1663.5,494.7z"/>
				</g>
				<g>
					<path class="st1" d="M1930.1,159.5h-137c-89.3,0-196,75.1-215.3,171l61.6,102.1c-1.7-36.7,17.5-61.6,39-78
						c23.3-17.7,51.7-26.9,80.6-26.9h86.3c77,0,117.9-31,139.5-66.4C2011.8,217.1,1980.6,159.5,1930.1,159.5z"/>
					<path class="st5" d="M1930.1,150h-137c-45.9,0-96.8,18.8-139.6,51.5c-45.2,34.6-75.4,79.7-84.9,127.1c-1,5.1,2.3,10.2,7.4,11.2
						c5.1,1,10.2-2.3,11.2-7.4c8.6-42.9,36.3-84,77.9-115.8c39.6-30.2,86.3-47.6,128.1-47.6h137c19.8,0,37.6,10.6,47.6,28.4
						c10.5,18.7,10.1,40.7-1,58.9c-25.1,41.1-69.3,61.9-131.4,61.9H1759c-31.3,0-61.9,10.2-86.3,28.8c-29.5,22.4-44.3,52.2-42.7,86
						c0.2,5.1,4.4,9.1,9.5,9.1c0.1,0,0.3,0,0.4,0c5.2-0.2,9.3-4.7,9.1-9.9c-1.3-27.7,10.6-51.2,35.2-70
						c21.1-16.1,47.7-24.9,74.8-24.9h86.3c37.2,0,69.2-7.1,95.1-21.1c21.9-11.8,39.6-28.6,52.6-49.9c14.7-24.1,15.2-53.3,1.3-78.1
						C1980.8,164.3,1956.9,150,1930.1,150z"/>
				</g>
				<g>
					<polygon class="st1" points="1485.1,2490.7 1687.6,2490.7 1786,1974.7 1485.1,1974.7 					"/>
					<path class="st5" d="M1786,1965.2h-300.9c-5.2,0-9.5,4.3-9.5,9.5v516c0,5.2,4.3,9.5,9.5,9.5h202.5c4.6,0,8.5-3.2,9.3-7.7
						l98.4-516c0.5-2.8-0.2-5.7-2-7.8C1791.5,1966.5,1788.8,1965.2,1786,1965.2z M1679.7,2481.2h-185.1v-497h279.9L1679.7,2481.2z"
						/>
				</g>
				<g>
					<g>
						<polygon class="st1" points="1916.8,2490.7 2119.2,2490.7 2119.2,1974.7 1818.3,1974.7 						"/>
						<path class="st1" d="M2119.2,1965.2h-300.9c-2.8,0-5.5,1.3-7.3,3.4s-2.5,5.1-2,7.8l98.4,516c0.9,4.5,4.8,7.7,9.3,7.7h202.5
							c5.2,0,9.5-4.3,9.5-9.5v-516C2128.7,1969.5,2124.5,1965.2,2119.2,1965.2z M2109.7,2481.2h-185.1l-94.8-497h279.9V2481.2z"/>
					</g>
				</g>
				<g>
					<polygon class="st1" points="1485.1,2490.7 1687.6,2490.7 1773.9,2154.2 1906.8,2154.2 2119.2,1974.7 1485.1,1974.7 					"/>
					<path class="st1" d="M2119.2,1965.2h-634.2c-5.2,0-9.5,4.3-9.5,9.5v516c0,5.2,4.3,9.5,9.5,9.5h202.5c4.3,0,8.1-2.9,9.2-7.1
						l84.5-329.4h125.5c5.2,0,9.5-4.3,9.5-9.5s-4.3-9.5-9.5-9.5h-132.8c-4.3,0-8.1,2.9-9.2,7.1l-84.5,329.4h-185.6v-497h624.7
						c5.2,0,9.5-4.3,9.5-9.5S2124.5,1965.2,2119.2,1965.2z"/>
				</g>
			</g>
			<g>
				<path class="st1" d="M1834.6,841.9c-11.1-11.4-29-11.4-40.1,0l-30.2,31.2c-11.1,11.4-11.1,30,0,41.4l30.2,31.2
					c11.1,11.4,29,11.4,40.1,0l30.2-31.2c11.1-11.4,11.1-30,0-41.4L1834.6,841.9z"/>
				<path class="st1" d="M1834.6,962.5c-11.1-11.4-29-11.4-40.1,0l-30.2,31.2c-11.1,11.4,30.2,443,30.2,443
					c11.1,11.4,29,11.4,40.1,0c0,0,41.3-431.6,30.2-443L1834.6,962.5z"/>
			</g>
		</g>
		<g>
			<g>
				<path class="st4" d="M1827.8,649.8h4.4c15,0,29.4-0.9,42.5-2.5l-94.4-0.7C1794.7,648.6,1810.9,649.8,1827.8,649.8z"/>
				<path class="st5" d="M1873.6,637.8c-13.2,1.6-27.1,2.5-41.3,2.5h-4.4c-16.1,0-31.6-1-46.1-3.1c-5.2-0.7-10,2.9-10.7,8.1
					c-0.7,5.2,2.9,10,8.1,10.7c15.4,2.2,31.9,3.3,48.8,3.3h4.4c15,0,29.7-0.9,43.7-2.6c5.2-0.6,8.9-5.4,8.3-10.6
					C1883.5,640.8,1878.8,637.1,1873.6,637.8z"/>
			</g>
			<g>
				<path class="st5" d="M1740.8,466.5h-0.5c-8.9,0-16.1,7.3-16.1,16.1v1.5c0,8.9,7.3,16.1,16.1,16.1h0.5c8.9,0,16.1-7.3,16.1-16.1
					v-1.5C1756.9,473.8,1749.6,466.5,1740.8,466.5z"/>
				<path class="st5" d="M1919.8,466.5h-0.5c-8.9,0-16.1,7.3-16.1,16.1v1.5c0,8.9,7.3,16.1,16.1,16.1h0.5c8.9,0,16.1-7.3,16.1-16.1
					v-1.5C1935.9,473.8,1928.6,466.5,1919.8,466.5z"/>
			</g>
			<g>
				<path class="st4" d="M1830,580.2L1830,580.2c13.5,0,24.5-11.3,24.5-25.3V430.8l-49,124.1C1805.5,568.9,1816.5,580.2,1830,580.2z
					"/>
				<path class="st5" d="M1854.6,421.3c-5.2,0-9.5,4.3-9.5,9.5v124.1c0,8.7-6.7,15.8-15,15.8s-15-7.1-15-15.8c0-5.2-4.3-9.5-9.5-9.5
					s-9.5,4.3-9.5,9.5c0,19.2,15.3,34.8,34,34.8c18.8,0,34-15.6,34-34.8V430.8C1864.1,425.6,1859.8,421.3,1854.6,421.3z"/>
			</g>
			<g>
				<path class="st2" d="M1766.1,405.8h-59.5c-5.2,0-9.5,4.3-9.5,9.5s4.3,9.5,9.5,9.5h59.5c5.2,0,9.5-4.3,9.5-9.5
					S1771.4,405.8,1766.1,405.8z"/>
				<path class="st2" d="M1953.5,405.8H1894c-5.2,0-9.5,4.3-9.5,9.5s4.3,9.5,9.5,9.5h59.5c5.2,0,9.5-4.3,9.5-9.5
					S1958.7,405.8,1953.5,405.8z"/>
			</g>
		</g>
	</g>
	<g>
		<g>
			<path class="st4" d="M2585.2,949.4v-107H2497h-88.2v107c0,43.5-44.3,78.7-99,78.7H2497h187.2
				C2629.6,1028.1,2585.2,992.9,2585.2,949.4z"/>
			<path class="st1" d="M2684.3,1018.6c-49.4,0-89.5-31-89.5-69.2v-107c0-5.2-4.3-9.5-9.5-9.5h-176.3c-5.2,0-9.5,4.3-9.5,9.5v107
				c0,38.2-40.2,69.2-89.5,69.2c-5.2,0-9.5,4.3-9.5,9.5c0,5.2,4.3,9.5,9.5,9.5h374.4c5.2,0,9.5-4.3,9.5-9.5
				C2693.8,1022.9,2689.5,1018.6,2684.3,1018.6z M2377.2,1018.6c3-1.9,5.8-3.9,8.5-6.1c21-16.7,32.6-39.1,32.6-63.1v-97.5h157.3
				v97.5c0,24,11.6,46.4,32.6,63.1c2.7,2.2,5.6,4.2,8.5,6.1H2377.2z"/>
		</g>
		<g>
			<path class="st6" d="M2682,989.8h-369.9c-83.3,0-152.6,56.7-166.9,131.5c-1.8,9.3-2.7,18.9-2.7,28.6v815.2h362.1h346.9V1150
				C2851.6,1061.5,2775.7,989.8,2682,989.8z"/>
			<path class="st5" d="M2682,980.3h-369.9c-86.7,0-160.8,58.6-176.2,139.2c-1.9,10-2.9,20.2-2.9,30.4v815.2c0,5.2,4.3,9.5,9.5,9.5
				h709.1c5.2,0,9.5-4.3,9.5-9.5V1150C2861.1,1056.4,2780.7,980.3,2682,980.3z M2842.1,1955.7H2152V1150c0-9,0.9-18.1,2.5-26.9
				c13.7-71.7,80-123.8,157.5-123.8H2682c88.3,0,160.1,67.6,160.1,150.7V1955.7z"/>
		</g>
		<g>
			<path class="st1" d="M2849.1,1121.3l-183.9,544.2c20,45.3,46.6,117.4,97.2,137.7c25.3,10.1,65.5,20,104.4,5h0
				c70-27.5,84.5-104.8,68.6-181.5L2849.1,1121.3z"/>
			<path class="st1" d="M2858.5,1119.8c-0.9-5.2-5.8-8.7-11-7.8c-5.2,0.9-8.6,5.8-7.8,11l86.3,505.5c0,0.1,0,0.2,0.1,0.3
				c8.1,39.2,7.5,75.3-1.8,104.4c-10.3,32.2-30.9,54.5-60.9,66.3c-37.8,14.5-77.3,3.1-97.5-5c-42.1-16.9-67.5-75.8-86-118.8
				c-2.1-4.9-4.1-9.5-6-13.9c-2.1-4.8-7.7-7-12.5-4.9c-4.8,2.1-7,7.7-4.9,12.5c1.9,4.3,3.9,8.9,6,13.7c19.8,46.1,47,109.2,96.4,129
				c14.7,5.9,38.5,13.3,65.3,13.3c14.8,0,30.5-2.2,46.1-8.2c35.1-13.8,60.1-40.9,72.1-78.2c10.3-32.1,11.2-71.5,2.4-113.9
				L2858.5,1119.8z"/>
		</g>
		<g>
			<path class="st4" d="M2502.4,398.3L2502.4,398.3c-107.6,0-194.9,59.9-194.9,161.5v350.4c0,56.1,48.2,115.2,107.6,115.2h0
				c155.8,0,282.1-79.9,282.1-227.1V559.8C2697.3,458.2,2610,398.3,2502.4,398.3z"/>
			<path class="st5" d="M2646.1,433.5c-36.7-28.8-87.7-44.7-143.6-44.7s-106.9,15.9-143.6,44.7c-39.7,31.2-60.7,74.9-60.7,126.3
				v350.4c0,29.9,12.4,60.9,33.9,85c22.9,25.6,52.4,39.7,83.2,39.7c39.9,0,77.8-5.1,112.5-15.2c35.4-10.3,66.6-25.4,92.7-45.1
				c56.5-42.5,86.4-103.5,86.4-176.3V559.8C2706.8,508.3,2685.8,464.7,2646.1,433.5z M2687.8,798.4c0,66.6-27.3,122.4-78.8,161.1
				c-48.4,36.4-117.2,56.4-193.8,56.4c-25.3,0-49.8-11.9-69-33.4c-18.5-20.7-29.1-47-29.1-72.3V559.8c0-45.4,18.5-84,53.4-111.4
				c33.4-26.2,80.2-40.6,131.9-40.6s98.5,14.4,131.9,40.6c35,27.4,53.4,66,53.4,111.4V798.4z"/>
		</g>
		<path class="st7" d="M2446.6,829.6h-43.4c-52.8,0-95.6-42.2-95.6-92v172.7c0,56.1,48.2,115.2,107.6,115.2
			c155.8,0,282.1-79.9,282.1-227.1V591.1C2697.3,721.8,2650.4,829.6,2446.6,829.6z"/>
		<path class="st5" d="M2697.3,581.6c-5.2,0-9.5,4.3-9.5,9.5v207.3c0,66.6-27.3,122.4-78.8,161.1c-48.4,36.4-117.2,56.4-193.8,56.4
			c-25.3,0-49.8-11.9-69-33.4c-18.5-20.7-29.1-47-29.1-72.3V737.5c0-5.2-4.3-9.5-9.5-9.5s-9.5,4.3-9.5,9.5v172.7
			c0,29.9,12.4,60.9,33.9,85c22.9,25.6,52.4,39.7,83.2,39.7c39.9,0,77.8-5.1,112.5-15.2c35.4-10.3,66.6-25.4,92.7-45.1
			c56.5-42.5,86.4-103.5,86.4-176.3V591.1C2706.8,585.8,2702.5,581.6,2697.3,581.6z"/>
		<g>
			<path class="st4" d="M2677.1,657.3l-14.9,0l-8.8,92l23.7,0c26.9,0,48.7-20.6,48.7-46l0,0C2725.8,677.9,2704,657.3,2677.1,657.3z"
				/>
			<path class="st5" d="M2718,663.9c-11-10.4-25.5-16.1-41-16.1l-14.9,0c-5.2,0-9.5,4.3-9.5,9.5c0,5.2,4.3,9.5,9.5,9.5l14.9,0
				c10.6,0,20.5,3.9,27.9,10.9c7.3,6.9,11.3,16,11.3,25.6c0,20.1-17.6,36.5-39.2,36.5l-23.7,0c-5.2,0-9.5,4.3-9.5,9.5
				c0,5.2,4.3,9.5,9.5,9.5l23.7,0c0,0,0,0,0,0c32.1,0,58.2-24.9,58.2-55.5C2735.3,688.4,2729.2,674.4,2718,663.9z"/>
		</g>
		<path class="st5" d="M2499.6,830.5c-11,6.2-25.3,10-40.3,10.6c-11.1,0.5-22.1-0.8-31.8-3.7c-5-1.5-10.3,1.4-11.8,6.4
			c-1.5,5,1.4,10.3,6.4,11.8c10.1,3,21.3,4.6,32.7,4.6c1.8,0,3.6,0,5.3-0.1c18.1-0.8,35-5.3,48.8-13c4.6-2.6,6.2-8.4,3.6-12.9
			C2510,829.6,2504.2,828,2499.6,830.5z"/>
		<g>
			<g>
				<path class="st4" d="M2900.7,1395.4h-91c-35.8,0-202.1,98.6-202.1,98.6l125.2,85.3l79.7-28.2H2925l-3.7-142.5L2900.7,1395.4z"/>
				<path class="st1" d="M2926.5,1400.7l-20.6-13.2c-1.5-1-3.3-1.5-5.1-1.5h-91c-6.1,0-24.7,0-119,50.4
					c-45.7,24.5-87.6,49.2-88,49.5c-4.5,2.7-6,8.5-3.3,13s8.5,6,13,3.3c63.5-37.6,173.1-97.2,197.3-97.2h88.2l14,9l3.3,127.7h-102.7
					c-1.1,0-2.1,0.2-3.2,0.5l-79.7,28.2c-4.9,1.7-7.5,7.2-5.8,12.1c1.4,3.9,5,6.3,9,6.3c1,0,2.1-0.2,3.2-0.5l78.2-27.6H2925
					c2.6,0,5-1,6.8-2.9c1.8-1.8,2.8-4.3,2.7-6.9l-3.7-142.5C2930.8,1405.3,2929.1,1402.4,2926.5,1400.7z"/>
			</g>
			<g>
				<g>
					<path class="st4" d="M2936.1,1395.4h-84.4l48.2,38.9h36.2c11.4,0,20.6-8.7,20.6-19.5v0
						C2956.7,1404.2,2947.5,1395.4,2936.1,1395.4z"/>
					<path class="st1" d="M2936.1,1385.9h-84.4c-5.2,0-9.5,4.3-9.5,9.5s4.3,9.5,9.5,9.5h84.4c6.1,0,11.1,4.5,11.1,10s-5,10-11.1,10
						h-36.2c-5.2,0-9.5,4.3-9.5,9.5s4.3,9.5,9.5,9.5h36.2c16.6,0,30.1-13,30.1-29S2952.7,1385.9,2936.1,1385.9z"/>
				</g>
				<g>
					<path class="st4" d="M2936.1,1473.3h-65.9v38.9h65.9c11.4,0,20.6-8.7,20.6-19.5C2956.7,1482,2947.5,1473.3,2936.1,1473.3z"/>
					<path class="st1" d="M2936.1,1463.8h-65.9c-5.2,0-9.5,4.3-9.5,9.5c0,5.2,4.3,9.5,9.5,9.5h65.9c6.1,0,11.1,4.5,11.1,10
						c0,5.5-5,10-11.1,10h-65.9c-5.2,0-9.5,4.3-9.5,9.5s4.3,9.5,9.5,9.5h65.9c16.6,0,30.1-13,30.1-29
						C2966.2,1476.8,2952.7,1463.8,2936.1,1463.8z"/>
				</g>
				<g>
					<path class="st4" d="M2925,1512.2h-54.8l-57.7,38.9H2925c11.4,0,20.6-8.7,20.6-19.5l0,0
						C2945.6,1520.9,2936.4,1512.2,2925,1512.2z"/>
					<path class="st1" d="M2925,1502.7h-54.8c-5.2,0-9.5,4.3-9.5,9.5s4.3,9.5,9.5,9.5h54.8c6.1,0,11.1,4.5,11.1,10
						c0,5.5-5,10-11.1,10h-112.5c-5.2,0-9.5,4.3-9.5,9.5c0,5.2,4.3,9.5,9.5,9.5H2925c16.6,0,30.1-13,30.1-29
						C2955.1,1515.7,2941.6,1502.7,2925,1502.7z"/>
				</g>
				<g>
					<path class="st4" d="M2946.4,1434.4h-76.2v38.9h76.2c9.6,0,17.4-8.7,17.4-19.5C2963.8,1443.1,2956,1434.4,2946.4,1434.4z"/>
					<path class="st1" d="M2946.4,1424.9h-76.2c-5.2,0-9.5,4.3-9.5,9.5s4.3,9.5,9.5,9.5h76.2c4.3,0,7.9,4.6,7.9,10s-3.6,10-7.9,10
						h-76.2c-5.2,0-9.5,4.3-9.5,9.5c0,5.2,4.3,9.5,9.5,9.5h76.2c14.8,0,26.9-13,26.9-29S2961.3,1424.9,2946.4,1424.9z"/>
				</g>
			</g>
		</g>
		<g>
			<path class="st1" d="M2059,1626.8c-15.9,76.7-1.4,154,68.6,181.5h0c38.9,14.9,79.1,5.1,104.4-5c50.6-20.3,77.2-92.4,97.2-137.7
				l-183.9-544.2L2059,1626.8z"/>
			<path class="st8" d="M2333,1656.9c-4.8-2.1-10.4,0.1-12.5,4.9c-1.9,4.4-3.9,9-6,13.9c-18.5,43-43.9,102-86,118.8
				c-20.2,8.1-59.7,19.5-97.4,5c-30.1-11.8-50.6-34.2-60.9-66.4c-9.3-29.1-10-65.1-1.8-104.4c0-0.1,0-0.2,0.1-0.3l86.3-505.5
				c0.9-5.2-2.6-10.1-7.8-11c-5.2-0.9-10.1,2.6-11,7.8l-86.2,505.3c-8.8,42.4-8,81.7,2.4,113.9c12,37.3,36.9,64.4,72.2,78.3
				c15.6,6,31.2,8.2,46,8.2c26.8,0,50.7-7.4,65.4-13.3c49.4-19.8,76.5-82.9,96.4-128.9c2.1-4.8,4-9.4,6-13.7
				C2340,1664.6,2337.8,1659,2333,1656.9z"/>
		</g>
		<g>
			<polygon class="st1" points="2225.6,1616.7 2232,1803.3 2796.8,1568.8 2716.5,1416.8 			"/>
			<path class="st1" d="M2724.9,1412.3c-2.3-4.3-7.5-6.2-12-4.4l-490.8,199.9c-4.9,2-7.2,7.5-5.2,12.4c2,4.9,7.5,7.2,12.4,5.2
				l482.9-196.7l71.5,135.2l-555.2,230.5c-4.8,2-7.1,7.6-5.1,12.4c1.5,3.7,5.1,5.9,8.8,5.9c1.2,0,2.4-0.2,3.6-0.7l564.8-234.5
				c2.5-1,4.4-3,5.3-5.6c0.9-2.5,0.7-5.3-0.5-7.7L2724.9,1412.3z"/>
		</g>
		<g>
			<g>
				<path class="st4" d="M2122.2,1395.4l-20.6,13.2l-3.7,142.5h112.5l79.7,28.2l125.2-85.3c0,0-166.4-98.6-202.1-98.6H2122.2z"/>
				<path class="st5" d="M2420.2,1485.8c-0.4-0.2-42.3-25-88-49.5c-94.2-50.4-112.8-50.4-119-50.4h-91c-1.8,0-3.6,0.5-5.1,1.5
					l-20.6,13.2c-2.6,1.7-4.3,4.6-4.4,7.7l-3.7,142.5c-0.1,2.6,0.9,5,2.7,6.9c1.8,1.8,4.2,2.9,6.8,2.9h110.8l78.2,27.6
					c1,0.4,2.1,0.5,3.2,0.5c3.9,0,7.6-2.4,9-6.3c1.7-4.9-0.8-10.4-5.8-12.1l-79.7-28.2c-1-0.4-2.1-0.5-3.2-0.5h-102.7l3.3-127.7
					l14-9h88.2c24.2,0,133.8,59.6,197.3,97.2c4.5,2.7,10.3,1.2,13-3.3C2426.2,1494.3,2424.7,1488.5,2420.2,1485.8z"/>
			</g>
			<g>
				<g>
					<path class="st4" d="M2066.2,1414.9L2066.2,1414.9c0,10.8,9.2,19.5,20.6,19.5h36.2l48.2-38.9h-84.4
						C2075.5,1395.4,2066.2,1404.2,2066.2,1414.9z"/>
					<path class="st5" d="M2171.3,1385.9h-84.4c-16.6,0-30.1,13-30.1,29s13.5,29,30.1,29h36.2c5.2,0,9.5-4.3,9.5-9.5
						s-4.3-9.5-9.5-9.5h-36.2c-6.1,0-11.1-4.5-11.1-10s5-10,11.1-10h84.4c5.2,0,9.5-4.3,9.5-9.5S2176.5,1385.9,2171.3,1385.9z"/>
				</g>
				<g>
					<path class="st4" d="M2066.2,1492.8c0,10.8,9.2,19.5,20.6,19.5h65.9v-38.9h-65.9C2075.5,1473.3,2066.2,1482,2066.2,1492.8z"/>
					<path class="st5" d="M2086.8,1482.8h65.9c5.2,0,9.5-4.3,9.5-9.5c0-5.2-4.3-9.5-9.5-9.5h-65.9c-16.6,0-30.1,13-30.1,29
						c0,16,13.5,29,30.1,29h65.9c5.2,0,9.5-4.3,9.5-9.5s-4.3-9.5-9.5-9.5h-65.9c-6.1,0-11.1-4.5-11.1-10
						C2075.7,1487.3,2080.7,1482.8,2086.8,1482.8z"/>
				</g>
				<g>
					<path class="st4" d="M2098,1512.2c-11.4,0-20.6,8.7-20.6,19.5l0,0c0,10.8,9.2,19.5,20.6,19.5h112.5l-57.7-38.9H2098z"/>
					<path class="st5" d="M2210.4,1541.7H2098c-6.1,0-11.1-4.5-11.1-10c0-5.5,5-10,11.1-10h54.8c5.2,0,9.5-4.3,9.5-9.5
						s-4.3-9.5-9.5-9.5H2098c-16.6,0-30.1,13-30.1,29c0,16,13.5,29,30.1,29h112.5c5.2,0,9.5-4.3,9.5-9.5
						C2219.9,1545.9,2215.7,1541.7,2210.4,1541.7z"/>
				</g>
				<g>
					<path class="st4" d="M2059.2,1453.8c0,10.8,7.8,19.5,17.4,19.5h76.2v-38.9h-76.2C2066.9,1434.4,2059.2,1443.1,2059.2,1453.8z"
						/>
					<path class="st5" d="M2076.5,1443.9h76.2c5.2,0,9.5-4.3,9.5-9.5s-4.3-9.5-9.5-9.5h-76.2c-14.8,0-26.9,13-26.9,29
						s12.1,29,26.9,29h76.2c5.2,0,9.5-4.3,9.5-9.5c0-5.2-4.3-9.5-9.5-9.5h-76.2c-4.3,0-7.9-4.6-7.9-10S2072.3,1443.9,2076.5,1443.9z
						"/>
				</g>
			</g>
		</g>
		<g>
			<polygon class="st1" points="2252.3,1584.7 2762.3,1803.3 2768.7,1616.7 2332.6,1432.7 			"/>
			<path class="st5" d="M2772.4,1607.9l-436-184c-4.5-1.9-9.8,0-12.1,4.3l-80.4,152c-1.2,2.3-1.4,5.1-0.6,7.6
				c0.9,2.5,2.8,4.5,5.2,5.6l510.1,218.6c1.2,0.5,2.5,0.8,3.7,0.8c3.7,0,7.2-2.2,8.7-5.8c2.1-4.8-0.2-10.4-5-12.5L2265.5,1580
				l71.5-135.2l428,180.6c4.8,2,10.4-0.2,12.4-5.1C2779.5,1615.5,2777.2,1610,2772.4,1607.9z"/>
		</g>
		<path class="st5" d="M2298.2,1263c-5.1-1-10.1,2.4-11.1,7.5l-26.8,137.9c-1,5.1,2.4,10.1,7.5,11.1c0.6,0.1,1.2,0.2,1.8,0.2
			c4.5,0,8.4-3.1,9.3-7.7l26.8-137.9C2306.8,1269,2303.4,1264,2298.2,1263z"/>
		<path class="st1" d="M2724.1,1272.5c-1-5.2-6-8.5-11.1-7.5c-5.2,1-8.5,6-7.5,11.1l26.8,137.9c0.9,4.5,4.9,7.7,9.3,7.7
			c0.6,0,1.2-0.1,1.8-0.2c5.2-1,8.5-6,7.5-11.1L2724.1,1272.5z"/>
		<g>
			<g>
				<path class="st5" d="M2360.5,655.5h-0.9c-9,0-16.4,7.4-16.4,16.4c0,9,7.4,16.4,16.4,16.4h0.9c9,0,16.4-7.4,16.4-16.4
					C2376.9,662.8,2369.5,655.5,2360.5,655.5z"/>
				<path class="st5" d="M2545.2,655.5h-0.9c-9,0-16.4,7.4-16.4,16.4c0,9,7.4,16.4,16.4,16.4h0.9c9,0,16.4-7.4,16.4-16.4
					C2561.5,662.8,2554.2,655.5,2545.2,655.5z"/>
			</g>
			<g>
				<path class="st9" d="M2409.3,607h-61.7c-5.2,0-9.5,4.3-9.5,9.5c0,5.2,4.3,9.5,9.5,9.5h61.7c5.2,0,9.5-4.3,9.5-9.5
					C2418.8,611.2,2414.5,607,2409.3,607z"/>
				<path class="st9" d="M2590.2,607h-61.4c-5.2,0-9.5,4.3-9.5,9.5c0,5.2,4.3,9.5,9.5,9.5h61.4c5.2,0,9.5-4.3,9.5-9.5
					C2599.7,611.2,2595.5,607,2590.2,607z"/>
			</g>
		</g>
		<path class="st5" d="M2463.5,767.5h-19.8c-13.8,0-25-10.3-25-23v-128c0-5.2-4.3-9.5-9.5-9.5s-9.5,4.3-9.5,9.5v128
			c0,23.2,19.7,42,44,42h19.8c5.2,0,9.5-4.3,9.5-9.5C2473,771.7,2468.7,767.5,2463.5,767.5z"/>
	</g>
	<g>
		<g>
			<path class="st0" d="M959.5,1059.3L959.5,1059.3c-156.7,0-283.8,127.1-283.8,283.8v479.5h567.6v-479.5
				C1243.3,1186.4,1116.3,1059.3,959.5,1059.3z"/>
			<path class="st5" d="M959.5,1049.8c-78.3,0-152,30.5-207.4,85.9c-55.4,55.4-85.9,129.1-85.9,207.4v479.5c0,5.2,4.3,9.5,9.5,9.5
				h567.6c5.2,0,9.5-4.3,9.5-9.5v-479.5c0-78.3-30.5-152-85.9-207.4C1111.5,1080.3,1037.9,1049.8,959.5,1049.8z M1233.8,1813.2
				H685.2v-470c0-73.3,28.5-142.2,80.3-194s120.7-80.3,194-80.3s142.2,28.5,194,80.3s80.3,120.7,80.3,194V1813.2z"/>
		</g>
		<g>
			<path class="st1" d="M1144.8,1757.2H776.7c-77.7,0-140.8,63-140.8,140.8V2624h649.6V1898
				C1285.6,1820.2,1222.5,1757.2,1144.8,1757.2z"/>
			<path class="st5" d="M1144.8,1747.7H776.7c-82.9,0-150.3,67.4-150.3,150.3V2624c0,5.2,4.3,9.5,9.5,9.5h649.6
				c5.2,0,9.5-4.3,9.5-9.5V1898C1295.1,1815.1,1227.7,1747.7,1144.8,1747.7z M1276.1,2614.5H645.5V1898
				c0-72.4,58.9-131.3,131.3-131.3h368.1c72.4,0,131.3,58.9,131.3,131.3V2614.5z"/>
		</g>
		<g>
			<rect x="874.5" y="1603.3" class="st4" width="168.7" height="153.9"/>
			<path class="st5" d="M1043.2,1593.8H874.5c-5.2,0-9.5,4.3-9.5,9.5v153.9c0,5.2,4.3,9.5,9.5,9.5h168.7c5.2,0,9.5-4.3,9.5-9.5
				v-153.9C1052.7,1598.1,1048.5,1593.8,1043.2,1593.8z M1033.7,1747.7H884v-134.9h149.7V1747.7z"/>
		</g>
		<g>
			<path class="st1" d="M557.2,1872.8l-371.8,545.8c-58.6,86,0,205.5,100.8,205.5h0L723,1982.9l153.7-225.7H771.4
				C686.4,1757.2,606.6,1800.2,557.2,1872.8z"/>
			<path class="st5" d="M876.8,1747.7H771.4c-87.9,0-170.9,44.8-222,119.7l-371.8,545.8c-30,44.1-33.1,101-8,148.4
				c23.8,45,67.4,71.9,116.7,71.9c3.1,0,6.1-1.6,7.9-4.2l436.7-641.1c3-4.3,1.8-10.2-2.5-13.2c-4.3-3-10.2-1.8-13.2,2.5
				l-433.8,636.9c-40.1-1.7-75.3-24.5-95-61.7c-21.8-41.2-19.1-90.6,6.9-128.8l371.8-545.8c47.5-69.8,124.6-111.4,206.3-111.4h105.4
				c5.2,0,9.5-4.3,9.5-9.5S882,1747.7,876.8,1747.7z"/>
		</g>
		<path class="st1" d="M978.3,1383.3h-14.6c-5.2,0-9.5,4.3-9.5,9.5s4.3,9.5,9.5,9.5h14.6c5.2,0,9.5-4.3,9.5-9.5
			S983.6,1383.3,978.3,1383.3z"/>
		<path class="st1" d="M1106.4,1383.3h-14.6c-5.2,0-9.5,4.3-9.5,9.5s4.3,9.5,9.5,9.5h14.6c5.2,0,9.5-4.3,9.5-9.5
			S1111.7,1383.3,1106.4,1383.3z"/>
		<path class="st1" d="M1059.9,1625.4h-68.7c-5.2,0-9.5,4.3-9.5,9.5c0,5.2,4.3,9.5,9.5,9.5h68.7c5.2,0,9.5-4.3,9.5-9.5
			C1069.4,1629.6,1065.1,1625.4,1059.9,1625.4z"/>
		<g>
			<path class="st4" d="M786.5,1492.8c0,104.3,80.6,188.8,180.1,188.8h0c99.4,0,180.1-84.5,180.1-188.8v-176.1L786.5,1371V1492.8z"
				/>
			<path class="st5" d="M1146.6,1307.2c-5.2,0-9.5,4.3-9.5,9.5v176.1c0,98.9-76.5,179.3-170.6,179.3S796,1591.6,796,1492.8V1371
				c0-5.2-4.3-9.5-9.5-9.5c-5.2,0-9.5,4.3-9.5,9.5v121.7c0,109.3,85,198.3,189.6,198.3c104.5,0,189.6-89,189.6-198.3v-176.1
				C1156.1,1311.5,1151.8,1307.2,1146.6,1307.2z"/>
		</g>
		<polygon class="st4" points="1000.5,1244.1 973.6,1288.5 885.1,1349 786.5,1371 1146.6,1316.7 1037.3,1275.3 		"/>
		<g>
			<path class="st0" d="M793.9,1371L793.9,1371c95.7,0,177.2-63.3,208.7-152.1l-239.7,149.8C773,1370.2,783.3,1371,793.9,1371z"/>
			<path class="st5" d="M1005.7,1209.9c-4.9-1.8-10.4,0.8-12.1,5.8c-15,42.4-41.6,78.7-77,104.9c-36,26.7-78.5,40.9-122.8,40.9
				c-9.6,0-19.6-0.7-29.6-2.2c-5.2-0.8-10,2.8-10.8,8c-0.8,5.2,2.8,10,8,10.8c10.9,1.6,21.8,2.4,32.3,2.4
				c48.4,0,94.8-15.4,134.1-44.6c38.4-28.5,67.3-67.9,83.6-113.8C1013.3,1217.1,1010.7,1211.7,1005.7,1209.9z"/>
		</g>
		<g>
			<path class="st0" d="M1162,1315.9l-181.7-147.7C1001.6,1255.6,1077.2,1316,1162,1315.9z"/>
			<path class="st5" d="M1162,1306.4c-0.1,0-0.2,0-0.3,0c-38.9,0-77.4-13.8-108.4-38.9c-31.3-25.4-54-61.4-63.8-101.6
				c-1.2-5.1-6.4-8.2-11.5-7c-5.1,1.2-8.2,6.4-7,11.5c10.8,44.2,35.8,83.9,70.3,111.9c34.4,27.8,77.1,43.1,120.3,43.1
				c0.1,0,0.2,0,0.3,0c5.2,0,9.5-4.3,9.5-9.5C1171.4,1310.6,1167.2,1306.4,1162,1306.4z"/>
		</g>
		<g>
			<path class="st1" d="M1362.7,1872.8c-49.4-72.5-129.2-115.6-214.1-115.6h-105.4l241.3,354.3l349.1,512.6l0,0
				c100.8,0,159.4-119.5,100.8-205.5L1362.7,1872.8z"/>
			<path class="st5" d="M1370.6,1867.4c-51.1-75-134-119.7-222-119.7h-105.4c-5.2,0-9.5,4.3-9.5,9.5s4.3,9.5,9.5,9.5h105.4
				c81.7,0,158.8,41.6,206.3,111.4l371.8,545.8c26.1,38.3,28.7,87.6,6.9,128.8c-19.7,37.2-54.9,59.9-95,61.7l-346.2-508.3
				l-15.7,10.7l349.1,512.6c1.8,2.6,4.7,4.2,7.9,4.2c49.3,0,92.9-26.9,116.7-71.9c25.1-47.4,22-104.3-8-148.4L1370.6,1867.4z"/>
		</g>
		<g>
			<polygon class="st1" points="1382.2,2418.8 1382.2,2624 1641.5,2624 1533.1,2419.7 			"/>
			<path class="st5" d="M1641.5,2614.5h-249.8v-186.2l141.3,0.9c0,0,0,0,0.1,0c5.2,0,9.5-4.2,9.5-9.4c0-5.2-4.2-9.5-9.4-9.6
				l-150.9-1c-2.5,0-5,1-6.8,2.8s-2.8,4.2-2.8,6.7V2624c0,5.2,4.3,9.5,9.5,9.5h259.3c5.2,0,9.5-4.3,9.5-9.5
				S1646.8,2614.5,1641.5,2614.5z"/>
		</g>
		<g>
			<g>
				<path class="st5" d="M994.7,1418.9c-1.6-5-7-7.7-12-6.1c-5,1.6-7.7,7-6.1,12l31.5,96.1c1.9,5.9,0.4,11.9-1.8,15
					c-0.5,0.7-1.7,2.2-3,2.2h-17.6c-5.2,0-9.5,4.3-9.5,9.5s4.3,9.5,9.5,9.5h17.6c7.1,0,13.8-3.7,18.4-10c6.3-8.6,8-21.2,4.5-32
					L994.7,1418.9z"/>
			</g>
			<path class="st5" d="M996.4,1590.6c-8.6,3.1-18.4,4.8-28.4,4.8c-13.4,0-26.4-3-36.6-8.4c-4.6-2.5-10.4-0.7-12.9,3.9
				c-2.5,4.6-0.7,10.4,3.9,12.9c13.1,7,28.8,10.7,45.6,10.7c12.2,0,24.3-2.1,35-6c4.9-1.8,7.5-7.3,5.7-12.2
				C1006.8,1591.3,1001.3,1588.8,996.4,1590.6z"/>
		</g>
		<path class="st5" d="M1070.5,1378.4c-31.6,0-57.4,25.7-57.4,57.4s25.7,57.4,57.4,57.4s57.4-25.7,57.4-57.4
			S1102.1,1378.4,1070.5,1378.4z M1070.5,1474.2c-21.2,0-38.4-17.2-38.4-38.4s17.2-38.4,38.4-38.4s38.4,17.2,38.4,38.4
			S1091.7,1474.2,1070.5,1474.2z"/>
		<path class="st5" d="M895.5,1378.4c-31.6,0-57.4,25.7-57.4,57.4s25.7,57.4,57.4,57.4c31.6,0,57.4-25.7,57.4-57.4
			S927.1,1378.4,895.5,1378.4z M895.5,1474.2c-21.2,0-38.4-17.2-38.4-38.4s17.2-38.4,38.4-38.4c21.2,0,38.4,17.2,38.4,38.4
			S916.7,1474.2,895.5,1474.2z"/>
		<path class="st5" d="M847.6,1426.3h-62.1c-5.2,0-9.5,4.3-9.5,9.5s4.3,9.5,9.5,9.5h62.1c5.2,0,9.5-4.3,9.5-9.5
			S852.9,1426.3,847.6,1426.3z"/>
		<path class="st5" d="M1024.5,1411.3h-81c-5.2,0-9.5,4.3-9.5,9.5s4.3,9.5,9.5,9.5h81c5.2,0,9.5-4.3,9.5-9.5
			S1029.7,1411.3,1024.5,1411.3z"/>
		<g>
			<path class="st5" d="M916.9,1427c-16.6-8.1-36.1-0.7-38.3,0.2c-4.9,2-7.2,7.5-5.2,12.4c1.5,3.7,5.1,5.9,8.8,5.9
				c1.2,0,2.4-0.2,3.6-0.7c3.5-1.4,15-4.5,22.7-0.8c4.7,2.3,10.4,0.4,12.7-4.4C923.6,1435,921.6,1429.3,916.9,1427z"/>
			<path class="st5" d="M1094.8,1427.2c-2.2-0.9-21.7-8.4-38.3-0.2c-4.7,2.3-6.7,8-4.4,12.7c2.3,4.7,8,6.7,12.7,4.4
				c7.6-3.7,19-0.7,22.8,0.8c1.2,0.5,2.4,0.7,3.5,0.7c3.8,0,7.3-2.2,8.8-5.9C1102,1434.7,1099.7,1429.2,1094.8,1427.2z"/>
		</g>
		<g>
			<g>
				<polygon class="st4" points="802.2,2624 968.3,2624 998.7,2298 771.9,2298 				"/>
				<path class="st5" d="M998.7,2288.5H771.9c-2.7,0-5.2,1.1-7,3.1c-1.8,2-2.7,4.6-2.4,7.3l30.3,326c0.5,4.9,4.6,8.6,9.5,8.6h166.1
					c4.9,0,9-3.7,9.5-8.6l30.3-326c0.2-2.7-0.6-5.3-2.4-7.3C1003.9,2289.7,1001.3,2288.5,998.7,2288.5z M959.7,2614.5H810.9
					l-28.6-307h205.9L959.7,2614.5z"/>
			</g>
			<g>
				<polygon class="st4" points="801.3,2256.9 771.9,2298 998.7,2298 973.7,2256.9 				"/>
				<path class="st5" d="M981.8,2252c-1.7-2.8-4.8-4.6-8.1-4.6H801.3c-3.1,0-5.9,1.5-7.7,4l-29.4,41.1c-2.1,2.9-2.3,6.7-0.7,9.9
					c1.6,3.2,4.9,5.2,8.4,5.2h226.8c3.4,0,6.6-1.9,8.3-4.8c1.7-3,1.6-6.7-0.2-9.6L981.8,2252z M790.4,2288.5l15.8-22.1h162.2
					l13.4,22.1H790.4z"/>
			</g>
			<path class="st1" d="M885.3,2372.5c-40.1,0-72.6,32.6-72.6,72.6s32.6,72.6,72.6,72.6c40.1,0,72.6-32.6,72.6-72.6
				S925.3,2372.5,885.3,2372.5z M885.3,2498.8c-29.6,0-53.6-24.1-53.6-53.6s24.1-53.6,53.6-53.6c29.6,0,53.6,24.1,53.6,53.6
				S914.9,2498.8,885.3,2498.8z"/>
		</g>
		<g>
			<g>
				<path class="st4" d="M847.8,2441.8H741.3c-41.9,0-150.8,13.8-150.8,13.8l53.8,168.4h100.2h131.6l-4.3-166.7L847.8,2441.8z"/>
				<path class="st5" d="M877,2449.3l-24.1-15.5c-1.5-1-3.3-1.5-5.1-1.5H741.3c-42,0-147.5,13.3-152,13.9c-5.2,0.7-8.9,5.4-8.2,10.6
					c0.7,5.2,5.4,8.9,10.6,8.2c1.1-0.1,108.8-13.7,149.6-13.7H845l17.5,11.3l3.9,152H644.3c-5.2,0-9.5,4.3-9.5,9.5s4.3,9.5,9.5,9.5
					h231.8c2.6,0,5-1,6.8-2.9c1.8-1.8,2.8-4.3,2.7-6.9l-4.3-166.7C881.3,2453.9,879.7,2451,877,2449.3z"/>
			</g>
			<g>
				<g>
					<path class="st4" d="M889.2,2441.8h-98.8l56.4,45.6h42.4c13.3,0,24.1-10.2,24.1-22.8l0,0C913.3,2452,902.5,2441.8,889.2,2441.8
						z"/>
					<path class="st5" d="M889.2,2432.3h-98.8c-5.2,0-9.5,4.3-9.5,9.5s4.3,9.5,9.5,9.5h98.8c8.1,0,14.6,6,14.6,13.3
						s-6.6,13.3-14.6,13.3h-42.4c-5.2,0-9.5,4.3-9.5,9.5s4.3,9.5,9.5,9.5h42.4c18.5,0,33.6-14.5,33.6-32.3
						S907.7,2432.3,889.2,2432.3z"/>
				</g>
				<g>
					<path class="st4" d="M889.2,2532.9h-77.1v45.6h77.1c13.3,0,24.1-10.2,24.1-22.8l0,0C913.3,2543.1,902.5,2532.9,889.2,2532.9z"
						/>
					<path class="st5" d="M889.2,2523.4h-77.1c-5.2,0-9.5,4.3-9.5,9.5s4.3,9.5,9.5,9.5h77.1c8.1,0,14.6,6,14.6,13.3
						s-6.6,13.3-14.6,13.3h-77.1c-5.2,0-9.5,4.3-9.5,9.5s4.3,9.5,9.5,9.5h77.1c18.5,0,33.6-14.5,33.6-32.3
						S907.7,2523.4,889.2,2523.4z"/>
				</g>
				<g>
					<path class="st4" d="M876.2,2578.5h-64.1l-67.5,45.6h131.6c13.3,0,24.1-10.2,24.1-22.8C900.3,2588.7,889.5,2578.5,876.2,2578.5
						z"/>
					<path class="st5" d="M876.2,2569h-64.1c-5.2,0-9.5,4.3-9.5,9.5s4.3,9.5,9.5,9.5h64.1c8.1,0,14.6,6,14.6,13.3
						s-6.6,13.3-14.6,13.3H744.5c-5.2,0-9.5,4.3-9.5,9.5s4.3,9.5,9.5,9.5h131.6c18.5,0,33.6-14.5,33.6-32.3
						C909.8,2583.5,894.7,2569,876.2,2569z"/>
				</g>
				<g>
					<path class="st4" d="M901.2,2487.4h-89.2v45.6h89.2c11.2,0,20.4-10.2,20.4-22.8l0,0C921.6,2497.6,912.5,2487.4,901.2,2487.4z"
						/>
					<path class="st5" d="M901.2,2477.9h-89.2c-5.2,0-9.5,4.3-9.5,9.5s4.3,9.5,9.5,9.5h89.2c6,0,10.9,6,10.9,13.3
						s-4.9,13.3-10.9,13.3h-89.2c-5.2,0-9.5,4.3-9.5,9.5s4.3,9.5,9.5,9.5h89.2c16.5,0,29.9-14.5,29.9-32.3
						S917.7,2477.9,901.2,2477.9z"/>
				</g>
			</g>
		</g>
		<g>
			<polygon class="st1" points="257,2624 723.6,2624 723.6,2418.8 386.9,2419.7 			"/>
			<path class="st5" d="M723.6,2409.3C723.6,2409.3,723.6,2409.3,723.6,2409.3l-336.8,1c-5.2,0-9.5,4.3-9.5,9.5
				c0,5.2,4.3,9.5,9.5,9.5c0,0,0,0,0,0l327.2-0.9v186.3H257c-5.2,0-9.5,4.3-9.5,9.5s4.3,9.5,9.5,9.5h466.7c5.2,0,9.5-4.3,9.5-9.5
				v-205.3c0-2.5-1-4.9-2.8-6.7C728.6,2410.2,726.2,2409.3,723.6,2409.3z"/>
		</g>
	</g>
	<path class="st5" d="M3838.5,2614.5H9.5c-5.2,0-9.5,4.3-9.5,9.5s4.3,9.5,9.5,9.5h3829c5.2,0,9.5-4.3,9.5-9.5
		S3843.7,2614.5,3838.5,2614.5z"/>
	<g>
		<g>
			<path class="st4" d="M1879.2,1642v-120.6h-93.9h-93.9V1642c0,49-47.2,88.8-105.5,88.8h199.4h199.4
				C1926.4,1730.7,1879.2,1691,1879.2,1642z"/>
			<path class="st5" d="M1984.7,1721.2c-52.9,0-96-35.6-96-79.3v-120.6c0-5.2-4.3-9.5-9.5-9.5h-187.8c-5.2,0-9.5,4.3-9.5,9.5V1642
				c0,43.7-43.1,79.3-96,79.3c-5.2,0-9.5,4.3-9.5,9.5c0,5.2,4.3,9.5,9.5,9.5h398.8c5.2,0,9.5-4.3,9.5-9.5
				C1994.2,1725.5,1989.9,1721.2,1984.7,1721.2z M1653.8,1721.2c28.5-17.9,47.1-46.8,47.1-79.3v-111.1h168.8V1642
				c0,32.5,18.6,61.4,47.1,79.3H1653.8z"/>
		</g>
		<g>
			<g>
				<path class="st2" d="M1982.3,1687.6h-394c-70.8,0-132,40.7-161.7,100c-12.1,24.3-19,51.7-19,80.6V2624h755.2v-755.9
					c0-30.1-7.4-58.6-20.4-83.6C2112.3,1726.9,2051.9,1687.6,1982.3,1687.6z"/>
				<path class="st5" d="M1982.3,1678.1h-394c-36,0-71,10.1-101.3,29.2c-29.5,18.6-53.3,44.9-68.8,76c-13.2,26.5-20,55.1-20,84.9
					V2624c0,5.2,4.3,9.5,9.5,9.5h755.2c5.2,0,9.5-4.3,9.5-9.5v-755.9c0-30.6-7.4-61-21.5-88
					C2117.9,1717.2,2053.3,1678.1,1982.3,1678.1z M2153.4,2614.5h-736.2v-746.4c0-26.9,6-52.6,18-76.4c14-28,35.4-51.7,62-68.4
					c27.3-17.2,58.8-26.3,91.2-26.3h394c63.9,0,122.1,35.2,151.7,92c12.7,24.2,19.4,51.6,19.4,79.2V2614.5z"/>
			</g>
		</g>
		<g>
			<path class="st0" d="M1927.8,998.9h-284.5c-50.8,0-91.9,41.2-91.9,91.9v286.2h468.4v-286.2
				C2019.8,1040.1,1978.6,998.9,1927.8,998.9z"/>
			<path class="st5" d="M1927.8,989.4h-284.5c-55.9,0-101.4,45.5-101.4,101.4v286.2c0,5.2,4.3,9.5,9.5,9.5h468.4
				c5.2,0,9.5-4.3,9.5-9.5v-286.2C2029.3,1034.9,1983.8,989.4,1927.8,989.4z M2010.3,1367.6h-449.4v-276.7c0-45.5,37-82.4,82.4-82.4
				h284.5c45.5,0,82.4,37,82.4,82.4V1367.6z"/>
		</g>
		<g>
			<g>
				<path class="st4" d="M1632.4,1259h-59.1c-23.6,0-46,19.2-42.7,44l11.5,69.1c3.7,25.6,19.1,44,42.7,44h59.1
					c2.5,0,4.6-2.1,4.6-4.8l-11.5-147.7C1637,1261.2,1634.9,1259,1632.4,1259z"/>
				<path class="st5" d="M1646.5,1263.3c-0.2-7.6-6.5-13.8-14.1-13.8h-59.1c-15.5,0-30.8,6.9-40.9,18.4c-9,10.3-13,23.2-11.2,36.4
					c0,0.1,0,0.2,0,0.3l11.5,69c4.6,31.6,25.1,52.1,52.1,52.1h59.1c7.8,0,14.1-6.4,14.1-14.3c0-0.2,0-0.5,0-0.7L1646.5,1263.3z
					 M1584.8,1406.7c-17.6,0-30-13.4-33.3-35.9c0-0.1,0-0.1,0-0.2l-11.5-68.9c-1.3-9.8,3-17,6.7-21.2c6.5-7.5,16.5-11.9,26.6-11.9
					h54.6l10.8,138.2H1584.8z"/>
			</g>
			<g>
				<path class="st4" d="M1997.9,1259h-59.1c-2.5,0-4.6,2.1-4.6,4.8l-11.5,147.7c0,2.6,2.1,4.8,4.6,4.8h59.1c23.6,0,39-18.4,42.7-44
					l11.5-69.1C2043.9,1278.2,2021.5,1259,1997.9,1259z"/>
				<path class="st5" d="M1997.9,1249.5h-59.1c-7.6,0-13.9,6.1-14.1,13.8l-11.5,147.4c0,0.2,0,0.5,0,0.7c0,7.9,6.3,14.3,14.1,14.3
					h59.1c27,0,47.5-20.4,52.1-52.1l11.5-69c0-0.1,0-0.2,0-0.3c1.8-13.2-2.2-26.1-11.2-36.4
					C2028.8,1256.4,2013.5,1249.5,1997.9,1249.5z M2031.3,1301.7l-11.5,68.9c0,0.1,0,0.1,0,0.2c-3.3,22.5-15.7,35.9-33.3,35.9h-53.8
					l10.8-138.2h54.6c10.1,0,20.1,4.4,26.6,11.9C2028.3,1284.7,2032.5,1291.9,2031.3,1301.7z"/>
			</g>
		</g>
		<g>
			<path class="st4" d="M1892.1,1091.8h-133.4h-79.5c-50,0-90.6,40.6-90.6,90.6v205.8c0,120.3,86.9,229.3,193.2,229.3h7.8
				c106.2,0,193.2-109,193.2-229.3v-205.8l0,0C1982.6,1132.3,1942.1,1091.8,1892.1,1091.8z"/>
			<path class="st5" d="M1892.1,1082.3h-213c-55.2,0-100.1,44.9-100.1,100.1v205.8c0,60.2,21.5,120.6,58.9,165.8
				c18.7,22.6,40.3,40.4,64.3,53c25.3,13.3,52,20,79.4,20h7.8c27.4,0,54.1-6.7,79.4-20c24-12.6,45.6-30.4,64.3-53
				c37.4-45.2,58.9-105.7,58.9-165.8v-205.8C1992.1,1127.2,1947.2,1082.3,1892.1,1082.3z M1973.1,1388.2
				c0,55.8-19.9,111.8-54.6,153.7c-35.3,42.6-81.1,66.1-129.1,66.1h-7.8c-48,0-93.8-23.5-129.1-66.1
				c-34.7-41.9-54.6-97.9-54.6-153.7v-205.8c0-44.7,36.4-81.1,81.1-81.1h213c44.7,0,81.1,36.4,81.1,81.1V1388.2z"/>
		</g>
		<path class="st5" d="M1831.6,1504.7c-13.9,7.3-28.6,11-43.5,11h-5c-16.9,0-33.2-4.7-48.7-13.9c-4.5-2.7-10.3-1.2-13,3.3
			c-2.7,4.5-1.2,10.3,3.3,13c18.4,11,38.1,16.6,58.4,16.6h5c18,0,35.7-4.4,52.3-13.2c4.6-2.4,6.4-8.2,4-12.8
			C1842,1504.1,1836.2,1502.3,1831.6,1504.7z"/>
		<g>
			<path class="st5" d="M1684.6,1330c-10.1,0-18.4,8.3-18.4,18.4c0,10.1,8.3,18.4,18.4,18.4c10.1,0,18.4-8.3,18.4-18.4
				C1703.1,1338.3,1694.8,1330,1684.6,1330z"/>
			<path class="st5" d="M1886.6,1330L1886.6,1330c-10.1,0-18.4,8.3-18.4,18.4c0,10.1,8.3,18.4,18.4,18.4l0,0
				c10.1,0,18.4-8.3,18.4-18.4C1905,1338.3,1896.7,1330,1886.6,1330z"/>
		</g>
		<path class="st5" d="M1813.2,1281.5c-5.2,0-9.5,4.3-9.5,9.5v135.5c0,10-8.1,18.2-18.2,18.2c-10,0-18.2-8.1-18.2-18.2
			c0-5.2-4.3-9.5-9.5-9.5s-9.5,4.3-9.5,9.5c0,20.5,16.7,37.2,37.2,37.2s37.2-16.7,37.2-37.2V1291
			C1822.7,1285.7,1818.5,1281.5,1813.2,1281.5z"/>
		<g>
			<path class="st2" d="M1713.5,1264.5h-67.2c-5.2,0-9.5,4.3-9.5,9.5c0,5.2,4.3,9.5,9.5,9.5h67.2c5.2,0,9.5-4.3,9.5-9.5
				C1723,1268.8,1718.7,1264.5,1713.5,1264.5z"/>
			<path class="st2" d="M1924.9,1264.5h-67.2c-5.2,0-9.5,4.3-9.5,9.5c0,5.2,4.3,9.5,9.5,9.5h67.2c5.2,0,9.5-4.3,9.5-9.5
				C1934.3,1268.8,1930.1,1264.5,1924.9,1264.5z"/>
		</g>
		<g>
			<path class="st0" d="M1900.7,970.1h-234.8c0,0-9.4,121.7,92.5,121.7H1864c69.8,0,118.6,55.9,118.6,90.6l37.1,0.9v-92.4
				C2020.3,1015.5,1951.5,970.1,1900.7,970.1z"/>
			<path class="st5" d="M1900.7,960.6h-234.8c-5,0-9.1,3.8-9.5,8.8c-0.2,2.6-4.6,65.1,30.9,103.4c17.5,18.9,41.4,28.5,71.2,28.5
				H1864c29,0,57.2,10.6,79.2,29.9c18.2,15.9,29.9,36,29.9,51.1c0,5.2,4.3,9.5,9.5,9.5s9.5-4.3,9.5-9.5
				c0-40.3-53.8-100.1-128.1-100.1h-105.6c-24.2,0-43.4-7.5-57.2-22.3c-22.7-24.5-25.9-63.1-26.1-80.3h225.5c26.7,0,56.6,13.4,78,35
				c14.5,14.6,31.7,39.7,31.5,76.2v92.4c0,5.2,4.3,9.5,9.5,9.5s9.5-4.3,9.5-9.5v-92.3c0.3-43-20-72.5-37-89.7
				C1967.3,976.2,1932.3,960.6,1900.7,960.6z"/>
		</g>
		<g>
			<circle class="st2" cx="1664.9" cy="1437.2" r="25.7"/>
			<circle class="st2" cx="1906.3" cy="1437.2" r="25.7"/>
		</g>
		<g>
			<polygon class="st4" points="1651.5,2451.3 1510,2452.7 1595.9,2622.3 1780.6,2622.3 1699,2525.7 			"/>
			<path class="st5" d="M1706.6,2520.1l-47.1-73.9c-1.8-2.8-4.8-4.5-8.1-4.4l-141.6,1.4c-3.3,0-6.3,1.8-8,4.6
				c-1.7,2.8-1.8,6.3-0.4,9.2l85.9,169.6c1.6,3.2,4.9,5.2,8.5,5.2h184.7c3.7,0,7.1-2.1,8.6-5.5c1.6-3.4,1-7.3-1.4-10.1
				L1706.6,2520.1z M1601.7,2612.8l-76.4-150.7l121-1.2l44.6,70c0.2,0.4,0.5,0.7,0.8,1l68.4,80.9H1601.7z"/>
		</g>
		<g>
			<path class="st4" d="M1669.5,2467c0,0,56.4,125,77.4,132.7s41-14.5,32.1-36.5C1766.9,2533.3,1669.5,2467,1669.5,2467z"/>
			<path class="st5" d="M1674.9,2459.1c-3.5-2.4-8.2-2.2-11.5,0.6c-3.3,2.7-4.3,7.3-2.6,11.2c0.1,0.3,14.4,31.9,31.1,63.9
				c31,59.6,43.5,70.8,51.7,73.8c3.9,1.4,7.9,2.1,11.9,2.1c9.1,0,18-3.7,24.7-10.7c10.4-10.8,13.3-26.3,7.6-40.4
				C1774.9,2528,1685.1,2466.1,1674.9,2459.1z M1766.6,2586.8c-4.4,4.6-10.6,6.1-16.3,4c-1.1-0.5-11.3-6.5-42-65.6
				c-5.3-10.1-10.3-20.2-14.6-29.2c6.3,4.7,13.2,9.9,20.1,15.4c43.3,34,53.9,49.3,56.4,55.4
				C1773.7,2575.2,1770.6,2582.7,1766.6,2586.8z"/>
		</g>
		<g>
			<path class="st4" d="M1730.5,2573.9h-60.1c-27.7,0-50.1,22.4-50.1,50.1l0,0h160.4l0,0C1780.6,2596.4,1758.1,2573.9,1730.5,2573.9
				z"/>
			<path class="st5" d="M1730.5,2564.4h-60.1c-32.9,0-59.6,26.7-59.6,59.6c0,5.2,4.3,9.5,9.5,9.5h160.4c5.2,0,9.5-4.3,9.5-9.5
				C1790.1,2591.2,1763.3,2564.4,1730.5,2564.4z M1630.8,2614.5c4.3-17.8,20.4-31.1,39.5-31.1h60.1c19.1,0,35.2,13.3,39.5,31.1
				H1630.8z"/>
		</g>
		<g>
			<path class="st4" d="M1681.3,2466.5c-6.9-9.6-18-15.3-29.8-15.3h-100l118.8,77.3l51.6,61.2c5.8,6.9,15.6,8.9,23.7,4.9l0,0
				c10.8-5.4,14.2-19.2,7.1-29L1681.3,2466.5z"/>
			<path class="st5" d="M1689,2461c-8.7-12-22.7-19.2-37.5-19.2h-100c-5.2,0-9.5,4.3-9.5,9.5s4.3,9.5,9.5,9.5h100
				c8.7,0,17,4.2,22.1,11.3l71.5,99.2c1.8,2.4,2.3,5.4,1.6,8.3c-0.7,2.9-2.6,5.3-5.3,6.6c-4.2,2.1-9.2,1.1-12.2-2.5l-51.6-61.2
				c-3.4-4-9.4-4.5-13.4-1.1s-4.5,9.4-1.1,13.4l51.6,61.2c5.7,6.7,13.9,10.4,22.2,10.4c4.4,0,8.9-1,13-3.1
				c7.6-3.8,13.2-10.8,15.2-19.1s0.3-17-4.6-23.9L1689,2461z"/>
		</g>
		<g>
			<path class="st4" d="M1652.9,2501.2l-33.2,26.5l45.8,62.1c5.8,6.9,15.6,8.9,23.7,4.9l0,0c10.8-5.4,14.2-19.2,7.1-29
				L1652.9,2501.2z"/>
			<path class="st5" d="M1660.8,2495.9c-2.9-4.4-8.8-5.5-13.2-2.6c-4.4,2.9-5.5,8.8-2.6,13.2l43.5,64.5c0.1,0.1,0.1,0.2,0.2,0.2
				c1.8,2.4,2.3,5.4,1.6,8.3c-0.7,2.9-2.6,5.3-5.3,6.6c-4.1,2-9,1.1-12-2.3l-45.6-61.8c-3.1-4.2-9.1-5.1-13.3-2
				c-4.2,3.1-5.1,9.1-2,13.3l45.8,62.1c0.1,0.2,0.2,0.3,0.4,0.5c5.7,6.7,13.9,10.4,22.2,10.4c4.4,0,8.9-1,13-3.1
				c7.6-3.8,13.2-10.8,15.2-19.1c2-8.2,0.4-16.9-4.5-23.8L1660.8,2495.9z"/>
		</g>
		<g>
			<g>
				<path class="st2" d="M1213.3,2614.5L1213.3,2614.5c74.5,31,165.2-16.4,202.5-105.9l10.8-719.8L1146,2396.1
					C1108.7,2485.7,1138.8,2583.5,1213.3,2614.5z"/>
				<path class="st5" d="M1430.6,1780.2c-4.8-2.2-10.4-0.1-12.6,4.6l-280.6,607.4c-0.1,0.1-0.1,0.2-0.1,0.3
					c-18.9,45.4-22,94.2-8.6,137.6c13.6,44,42.3,77.1,81,93.2c16.5,6.9,34,10.3,51.7,10.3c23.8,0,48.2-6.2,71.6-18.4
					c40.2-21,72.8-57.6,91.7-103c2-4.8-0.3-10.4-5.1-12.4c-4.8-2-10.4,0.3-12.4,5.1c-17.2,41.3-46.7,74.5-82.9,93.4
					c-35.7,18.7-73.7,21.3-107.1,7.4c-69.5-29-97.4-121.3-62.3-205.8l280.6-607.2C1437.5,1788,1435.4,1782.4,1430.6,1780.2z"/>
			</g>
			<g>
				<polygon class="st2" points="1311.5,2432.4 1242.2,2624 1595.9,2622.3 1594.9,2430.7 				"/>
				<path class="st5" d="M1601.6,2423.9c-1.8-1.8-4.2-2.7-6.7-2.7c0,0,0,0-0.1,0l-283.4,1.8c-5.2,0-9.5,4.3-9.4,9.6
					c0,5.2,4.3,9.4,9.5,9.4c0,0,0,0,0.1,0l273.9-1.7l0.9,172.6l-344.2,1.7c-5.2,0-9.5,4.3-9.5,9.5c0,5.2,4.3,9.5,9.5,9.5
					c0,0,0,0,0,0l353.7-1.8c2.5,0,4.9-1,6.7-2.8c1.8-1.8,2.8-4.2,2.7-6.7l-1-191.6C1604.4,2428.1,1603.4,2425.7,1601.6,2423.9z"/>
			</g>
		</g>
		<path class="st5" d="M1545.3,2061.9c-4.8-2-10.4,0.2-12.4,5.1l-151.1,360c-2,4.8,0.2,10.4,5.1,12.4c1.2,0.5,2.4,0.7,3.7,0.7
			c3.7,0,7.2-2.2,8.8-5.8l151.1-360C1552.5,2069.5,1550.2,2064,1545.3,2061.9z"/>
		<g>
			<g>
				<path class="st4" d="M2179.2,2484.9c-9.2-10.8-22.7-17-36.9-17h-86.1l-19.5,13.3l-3.5,142.8h106.5h123.1l54-99.5l-117.1-15.7
					L2179.2,2484.9z"/>
				<path class="st5" d="M2318,2515.1l-113.5-15.2l-18.1-21.1c-11.1-12.9-27.1-20.3-44.1-20.3h-86.1c-1.9,0-3.8,0.6-5.3,1.6
					l-19.5,13.3c-2.5,1.7-4.1,4.6-4.2,7.6l-3.5,142.8c-0.1,2.6,0.9,5,2.7,6.9c1.8,1.8,4.2,2.9,6.8,2.9h229.5c5.2,0,9.5-4.3,9.5-9.5
					s-4.3-9.5-9.5-9.5h-219.8l3.1-128.2l13.1-8.9h83.2c11.4,0,22.3,5,29.7,13.7l20.4,23.8c1.5,1.8,3.6,2.9,5.9,3.2l117.1,15.7
					c5.2,0.7,10-3,10.7-8.2C2326.9,2520.6,2323.2,2515.8,2318,2515.1z"/>
			</g>
			<g>
				<g>
					<path class="st4" d="M2003.2,2487.5L2003.2,2487.5c0,10.8,8.7,19.5,19.5,19.5h34.3l45.7-39h-79.9
						C2011.9,2468,2003.2,2476.7,2003.2,2487.5z"/>
					<path class="st5" d="M2102.6,2458.5h-79.9c-16,0-29,13-29,29s13,29,29,29h34.3c5.2,0,9.5-4.3,9.5-9.5s-4.3-9.5-9.5-9.5h-34.3
						c-5.5,0-10-4.5-10-10s4.5-10,10-10h79.9c5.2,0,9.5-4.3,9.5-9.5S2107.9,2458.5,2102.6,2458.5z"/>
				</g>
				<g>
					<path class="st4" d="M2003.2,2565.5L2003.2,2565.5c0,10.8,8.7,19.5,19.5,19.5h62.4v-39h-62.4
						C2011.9,2546,2003.2,2554.7,2003.2,2565.5z"/>
					<path class="st5" d="M2022.7,2555.5h62.4c5.2,0,9.5-4.3,9.5-9.5s-4.3-9.5-9.5-9.5h-62.4c-16,0-29,13-29,29s13,29,29,29h62.4
						c5.2,0,9.5-4.3,9.5-9.5s-4.3-9.5-9.5-9.5h-62.4c-5.5,0-10-4.5-10-10S2017.2,2555.5,2022.7,2555.5z"/>
				</g>
				<g>
					<path class="st4" d="M2033.2,2585c-10.8,0-19.5,8.7-19.5,19.5l0,0c0,10.8,8.7,19.5,19.5,19.5h106.5l-54.6-39H2033.2z"/>
					<path class="st5" d="M2139.7,2614.5h-106.5c-5.5,0-10-4.5-10-10s4.5-10,10-10h51.8c5.2,0,9.5-4.3,9.5-9.5s-4.3-9.5-9.5-9.5
						h-51.8c-16,0-29,13-29,29s13,29,29,29h106.5c5.2,0,9.5-4.3,9.5-9.5S2144.9,2614.5,2139.7,2614.5z"/>
				</g>
				<g>
					<path class="st4" d="M1996.5,2526.5L1996.5,2526.5c0,10.8,7.4,19.5,16.5,19.5h72.1v-39h-72.1
						C2003.8,2507,1996.5,2515.7,1996.5,2526.5z"/>
					<path class="st5" d="M2012.9,2516.5h72.1c5.2,0,9.5-4.3,9.5-9.5s-4.3-9.5-9.5-9.5h-72.1c-14.3,0-26,13-26,29s11.6,29,26,29
						h72.1c5.2,0,9.5-4.3,9.5-9.5s-4.3-9.5-9.5-9.5h-72.1c-3.7,0-7-4.7-7-10S2009.2,2516.5,2012.9,2516.5z"/>
				</g>
			</g>
		</g>
		<g>
			<g>
				<g>
					<path class="st2" d="M2143.8,1788.8l10.8,719.8c37.3,89.6,128,137,202.5,105.9l0,0c74.5-31,104.7-128.8,67.3-218.4
						L2143.8,1788.8z"/>
					<path class="st5" d="M2433.1,2392.2l-280.6-607.4c-2.2-4.8-7.8-6.8-12.6-4.6c-4.8,2.2-6.8,7.8-4.6,12.6l280.6,607.2
						c17.1,41.2,19.9,85.4,7.9,124.5c-11.9,38.5-36.8,67.4-70.2,81.3c-33.4,13.9-71.4,11.3-107.1-7.4c-36.3-19-65.7-52.2-82.9-93.4
						c-2-4.8-7.6-7.1-12.4-5.1c-4.8,2-7.1,7.6-5.1,12.4c18.9,45.4,51.5,81.9,91.7,103c23.4,12.2,47.7,18.4,71.6,18.4
						c17.7,0,35.2-3.4,51.7-10.3c38.7-16.1,67.5-49.2,81-93.2c13.4-43.4,10.3-92.2-8.6-137.6
						C2433.2,2392.4,2433.1,2392.3,2433.1,2392.2z"/>
				</g>
				<g>
					<polygon class="st2" points="2106.5,2430.7 2105.5,2622.3 2328.3,2624 2259,2432.4 					"/>
					<path class="st5" d="M2328.3,2614.5l-213.3-1.7l0.9-172.6l142.9,1.7c0,0,0.1,0,0.1,0c5.2,0,9.4-4.2,9.5-9.4
						c0.1-5.2-4.1-9.5-9.4-9.6l-152.5-1.8c-2.5-0.1-5,1-6.8,2.7c-1.8,1.8-2.8,4.2-2.8,6.7l-1,191.6c0,5.2,4.2,9.5,9.4,9.5l222.8,1.8
						c0,0,0.1,0,0.1,0c5.2,0,9.5-4.2,9.5-9.4C2337.8,2618.9,2333.6,2614.6,2328.3,2614.5z"/>
				</g>
			</g>
			<path class="st5" d="M2037.5,2067c-2-4.8-7.6-7.1-12.4-5.1c-4.8,2-7.1,7.6-5.1,12.4l151.1,360c1.5,3.6,5.1,5.8,8.8,5.8
				c1.2,0,2.5-0.2,3.7-0.7c4.8-2,7.1-7.6,5.1-12.4L2037.5,2067z"/>
		</g>
	</g>
	<g>
		<g>
			<g>
				<path class="st4" d="M3015.3,1637v-121.6h-94.7h-94.7V1637c0,49.4-47.6,89.5-106.4,89.5h201h201
					C3062.9,1726.5,3015.3,1686.5,3015.3,1637z"/>
				<path class="st5" d="M3121.6,1717c-53.4,0-96.9-35.9-96.9-80v-121.6c0-5.2-4.3-9.5-9.5-9.5h-189.4c-5.2,0-9.5,4.3-9.5,9.5V1637
					c0,44.1-43.5,80-96.9,80c-5.2,0-9.5,4.3-9.5,9.5s4.3,9.5,9.5,9.5h402.1c5.2,0,9.5-4.3,9.5-9.5S3126.9,1717,3121.6,1717z
					 M2787.7,1717c28.9-18,47.7-47.2,47.7-80v-112.1h170.4V1637c0,32.8,18.8,62,47.7,80H2787.7z"/>
			</g>
			<g>
				<path class="st0" d="M3119.2,1683H2722c-100.6,0-182.1,81.5-182.1,182.1V2624h761.5v-758.9
					C3301.3,1764.6,3219.8,1683,3119.2,1683z"/>
				<path class="st5" d="M3119.2,1673.5H2722c-105.7,0-191.6,86-191.6,191.6V2624c0,5.2,4.3,9.5,9.5,9.5h761.5
					c5.2,0,9.5-4.3,9.5-9.5v-758.9C3310.8,1759.5,3224.8,1673.5,3119.2,1673.5z M3291.8,2614.5h-742.5v-749.4
					c0-95.2,77.4-172.6,172.6-172.6h397.2c95.2,0,172.6,77.4,172.6,172.6V2614.5z"/>
			</g>
			<g>
				<polygon class="st0" points="2401.5,2624 2577.5,2624 2554.9,1794 				"/>
				<path class="st5" d="M2577.5,2614.5h-164.6l151.4-818.9c1-5.2-2.5-10.1-7.6-11.1c-5.2-1-10.1,2.5-11.1,7.6l-153.4,830.1
					c-0.5,2.8,0.2,5.6,2,7.8s4.5,3.4,7.3,3.4h176c5.2,0,9.5-4.3,9.5-9.5S2582.7,2614.5,2577.5,2614.5z"/>
			</g>
			<g>
				<path class="st0" d="M3285.6,1794l-16.5,726.7c34.4,82.7,123.3,124.3,198.4,93h0c75.1-31.3,108.1-123.7,73.7-206.4L3285.6,1794z
					"/>
				<path class="st5" d="M3294.3,1790.3c-2-4.8-7.6-7.1-12.4-5.1c-4.8,2-7.1,7.6-5.1,12.4l255.6,613.3
					c32.4,77.7,1.6,164.7-68.5,193.9c-33.8,14.1-71.7,12.8-106.8-3.6c-35.3-16.6-63.5-46.5-79.2-84.3c-2-4.8-7.6-7.1-12.4-5.1
					c-4.8,2-7.1,7.6-5.1,12.4c17.6,42.2,49.1,75.6,88.7,94.2c21.5,10.1,44,15.1,66.2,15.1c19.1,0,38-3.7,55.9-11.2
					c79.8-33.3,115.2-131.4,78.8-218.8L3294.3,1790.3z"/>
			</g>
			<g>
				<g>
					<g>
						<path class="st4" d="M3107.8,2466.2c-10.5-12.2-25.8-19.3-41.9-19.3h-97.7l-22.1,15l-58.6,162H3139l-8.1-130.8L3107.8,2466.2z
							"/>
						<path class="st5" d="M3139,2614.5h-238l52.9-146.4l17.2-11.7h94.8c13.3,0,26,5.8,34.6,15.9l23.2,27c3.4,4,9.4,4.4,13.4,1
							s4.4-9.4,1-13.4l-23.2-27c-12.3-14.3-30.2-22.6-49.1-22.6h-97.7c-1.9,0-3.8,0.6-5.3,1.6l-22.1,15c-1.7,1.1-2.9,2.7-3.6,4.6
							l-58.6,162c-1.1,2.9-0.6,6.2,1.2,8.7s4.7,4,7.8,4H3139c5.2,0,9.5-4.3,9.5-9.5S3144.3,2614.5,3139,2614.5z"/>
					</g>
					<g>
						<g>
							<path class="st4" d="M2803.6,2469.1c0,12.2,9.9,22.1,22.1,22.1h143.4l51.8-44.3h-195.2
								C2813.5,2447,2803.6,2456.9,2803.6,2469.1z"/>
							<path class="st5" d="M3020.9,2437.5h-195.2c-17.4,0-31.6,14.2-31.6,31.6s14.2,31.6,31.6,31.6h143.4c5.2,0,9.5-4.3,9.5-9.5
								s-4.3-9.5-9.5-9.5h-143.4c-7,0-12.6-5.7-12.6-12.6s5.7-12.6,12.6-12.6h195.2c5.2,0,9.5-4.3,9.5-9.5
								S3026.2,2437.5,3020.9,2437.5z"/>
						</g>
						<g>
							<path class="st4" d="M2803.6,2557.7c0,12.2,9.9,22.1,22.1,22.1H3001v-44.3h-175.3C2813.5,2535.5,2803.6,2545.4,2803.6,2557.7
								z"/>
							<path class="st5" d="M2825.7,2545H3001c5.2,0,9.5-4.3,9.5-9.5s-4.3-9.5-9.5-9.5h-175.3c-17.4,0-31.6,14.2-31.6,31.6
								s14.2,31.6,31.6,31.6H3001c5.2,0,9.5-4.3,9.5-9.5s-4.3-9.5-9.5-9.5h-175.3c-7,0-12.6-5.7-12.6-12.6S2818.8,2545,2825.7,2545z
								"/>
						</g>
						<g>
							<path class="st4" d="M2887.5,2579.8c-12.2,0-22.1,9.9-22.1,22.1s9.9,22.1,22.1,22.1H3063l-62-44.3H2887.5z"/>
							<path class="st5" d="M3063,2614.5h-175.4c-7,0-12.6-5.7-12.6-12.6s5.7-12.6,12.6-12.6H3001c5.2,0,9.5-4.3,9.5-9.5
								s-4.3-9.5-9.5-9.5h-113.5c-17.4,0-31.6,14.2-31.6,31.6s14.2,31.6,31.6,31.6H3063c5.2,0,9.5-4.3,9.5-9.5
								S3068.2,2614.5,3063,2614.5z"/>
						</g>
						<g>
							<path class="st4" d="M2777.4,2513.4c0,12.2,9.9,22.1,22.1,22.1H3001v-44.3h-201.5C2787.3,2491.3,2777.4,2501.2,2777.4,2513.4
								z"/>
							<path class="st5" d="M2799.5,2500.8H3001c5.2,0,9.5-4.3,9.5-9.5s-4.3-9.5-9.5-9.5h-201.5c-17.4,0-31.6,14.2-31.6,31.6
								s14.2,31.6,31.6,31.6H3001c5.2,0,9.5-4.3,9.5-9.5s-4.3-9.5-9.5-9.5h-201.5c-7,0-12.6-5.7-12.6-12.6
								S2792.6,2500.8,2799.5,2500.8z"/>
						</g>
					</g>
				</g>
				<g>
					<polygon class="st0" points="3068.5,2434.9 3070.7,2624 3415.3,2624 3413,2430.9 					"/>
					<path class="st5" d="M3415.3,2614.5h-335.2l-2-170.2l335-3.9c5.2-0.1,9.4-4.4,9.4-9.6c-0.1-5.2-4.3-9.4-9.5-9.4
						c0,0-0.1,0-0.1,0l-344.5,4.1c-2.5,0-4.9,1.1-6.7,2.9c-1.8,1.8-2.7,4.2-2.7,6.8l2.3,189.1c0.1,5.2,4.3,9.4,9.5,9.4h344.5
						c5.2,0,9.5-4.3,9.5-9.5S3420.5,2614.5,3415.3,2614.5z"/>
				</g>
			</g>
			<g>
				<g>
					<g>
						<g>
							<path class="st10" d="M2919.3,970.5c0.6,0,1.3,0,1.9,0c0.9,0,1.7,0,2.6,0H2919.3z"/>
							<path class="st10" d="M2929.5,970.7c-2.8-0.1-5.5-0.1-8.3-0.2c-133.2,0.7-238,52.7-255.1,175.8
								c-5.9,42.7,0.2,86.2,16.5,126.1l104.2,254h321.3c29.9,0,55.9-20.3,63.2-49.3l31.3-124.5
								C3267.2,1172.1,3121.1,977.2,2929.5,970.7z"/>
							<path class="st5" d="M2929.8,961.2c-1.7-0.1-3.4-0.1-5-0.1c-0.3,0-0.6,0-1,0h-4.5c-0.2,0-0.5,0-0.7,0
								c-70.2,0.7-128.3,15.1-172.7,42.9c-50.6,31.7-80.7,79.2-89.3,141.1c-6.1,43.5-0.1,88.8,17.2,131l104.2,254
								c1.5,3.6,4.9,5.9,8.8,5.9h321.3c34.3,0,64.1-23.2,72.5-56.5l31.2-124c30.2-84.7,17-178.1-36.1-256.3
								C3119.2,1016,3027.3,964.5,2929.8,961.2z M3193.7,1349.4c-0.1,0.3-0.2,0.6-0.3,0.9l-31.3,124.5c-6.2,24.8-28.5,42.1-54,42.1
								h-314.9l-101.8-248.1c-16-39-21.5-80.9-15.9-121.1c8.7-62.3,52.2-166.7,245.7-167.6c2.7,0,5.3,0.1,8,0.2
								c91.5,3.1,177.7,51.5,230.7,129.5C3209.7,1183,3222,1270.3,3193.7,1349.4z"/>
						</g>
						<g>
							<path class="st4" d="M2670.1,1380.5L2670.1,1380.5c0,23.5,19.1,42.6,42.6,42.6h8.2v-85.2h-8.2
								C2689.2,1337.9,2670.1,1357,2670.1,1380.5z"/>
							<path class="st5" d="M2712.7,1347.4h8.2c5.2,0,9.5-4.3,9.5-9.5s-4.3-9.5-9.5-9.5h-8.2c-28.7,0-52.1,23.4-52.1,52.1
								s23.4,52.1,52.1,52.1h8.2c5.2,0,9.5-4.3,9.5-9.5s-4.3-9.5-9.5-9.5h-8.2c-18.2,0-33.1-14.8-33.1-33.1
								S2694.4,1347.4,2712.7,1347.4z"/>
						</g>
						<g>
							<path class="st4" d="M2836.6,1104.7c-66.5,0-120.4,53.9-120.4,120.4l0,0v184.7c0,109.4,88.7,198,198,198l0,0
								c109.4,0,198-88.7,198-198v-127.7l-12.9-177.4H2836.6z"/>
							<path class="st5" d="M3112.3,1272.6c-5.2,0-9.5,4.3-9.5,9.5v127.7c0,104-84.6,188.5-188.5,188.5s-188.5-84.6-188.5-188.5
								v-184.7c0-61.2,49.8-110.9,110.9-110.9h262.8c5.2,0,9.5-4.3,9.5-9.5c0-5.2-4.3-9.5-9.5-9.5h-262.8
								c-71.6,0-129.9,58.3-129.9,129.9v184.7c0,114.4,93.1,207.5,207.5,207.5s207.5-93.1,207.5-207.5v-127.7
								C3121.8,1276.9,3117.5,1272.6,3112.3,1272.6z"/>
						</g>
						<g>
							<path class="st4" d="M3085.9,1337.9h-8.2v85.2h8.2c23.5,0,42.6-19.1,42.6-42.6l0,0C3128.5,1357,3109.4,1337.9,3085.9,1337.9z
								"/>
							<path class="st5" d="M3085.9,1328.4h-8.2c-5.2,0-9.5,4.3-9.5,9.5s4.3,9.5,9.5,9.5h8.2c18.2,0,33.1,14.8,33.1,33.1
								s-14.8,33.1-33.1,33.1h-8.2c-5.2,0-9.5,4.3-9.5,9.5s4.3,9.5,9.5,9.5h8.2c28.7,0,52.1-23.4,52.1-52.1
								S3114.6,1328.4,3085.9,1328.4z"/>
						</g>
						<g>
							<path class="st10" d="M2943.3,970.5h-255.9c0,0-19.6,193.8,193.8,193.8h101.6c35,0,69.4,10.5,97.4,31.3
								c25.3,18.8,32.7,58.6,32,86.5l87.2-114.7C3176.5,1057,3049.6,970.5,2943.3,970.5z"/>
							<path class="st5" d="M3108.3,1019.9c-50.6-37.4-110.7-58.9-164.9-58.9h-255.9c-4.9,0-9,3.7-9.5,8.5
								c-0.4,3.5-8,85.8,45.9,145.4c35.2,39,88.2,58.8,157.3,58.8h101.6c33.6,0,66.2,10.5,91.8,29.5c21.9,16.3,28.9,52.5,28.2,78.6
								c-0.1,5.2,4,9.6,9.2,9.8c0.1,0,0.2,0,0.3,0c5.1,0,9.4-4.1,9.5-9.2c0.9-32.1-8.1-73.8-35.8-94.4
								c-28.8-21.4-65.4-33.2-103.1-33.2h-101.6c-63.4,0-111.6-17.6-143.1-52.4c-38.8-42.8-41.9-100.8-41.6-122.4h246.8
								c50.2,0,106.2,20.1,153.6,55.2c49.8,36.8,82.8,84.5,93.2,134.2c1.1,5.1,6.1,8.4,11.2,7.4c5.1-1.1,8.4-6.1,7.4-11.2
								C3197.5,1111.2,3161.8,1059.5,3108.3,1019.9z"/>
						</g>
					</g>
				</g>
			</g>
			<g>
				<g>
					<path class="st5" d="M2998.8,1322.5L2998.8,1322.5c-10.2,0-18.6,8.4-18.6,18.6c0,10.2,8.4,18.6,18.6,18.6l0,0
						c10.2,0,18.6-8.4,18.6-18.6C3017.4,1330.9,3009,1322.5,2998.8,1322.5z"/>
					<path class="st5" d="M2795.2,1322.5L2795.2,1322.5c-10.2,0-18.6,8.4-18.6,18.6c0,10.2,8.4,18.6,18.6,18.6l0,0
						c10.2,0,18.6-8.4,18.6-18.6C2813.8,1330.9,2805.4,1322.5,2795.2,1322.5z"/>
				</g>
				<path class="st5" d="M2924.9,1410.3c-5.2,0-9.5,4.3-9.5,9.5c0,10.1-8.2,18.4-18.4,18.4s-18.4-8.2-18.4-18.4v-136.6
					c0-5.2-4.3-9.5-9.5-9.5s-9.5,4.3-9.5,9.5v136.6c0,20.6,16.8,37.4,37.4,37.4s37.4-16.8,37.4-37.4
					C2934.4,1414.6,2930.1,1410.3,2924.9,1410.3z"/>
				<g>
					<path class="st2" d="M3040.8,1257.2c-1.6-0.6-39.8-14.7-74.8,0.1c-4.8,2.1-7.1,7.6-5,12.5c2.1,4.8,7.6,7.1,12.5,5
						c27.8-11.8,60.3,0,60.7,0.1c1.1,0.4,2.2,0.6,3.3,0.6c3.8,0,7.4-2.3,8.9-6.1C3048.2,1264.5,3045.7,1259,3040.8,1257.2z"/>
					<path class="st2" d="M2828.7,1257.6c-40.5-21-75.5-0.6-77,0.3c-4.5,2.7-6,8.5-3.3,13s8.5,6,13,3.3c0.3-0.2,27.3-15.9,58.5,0.3
						c1.4,0.7,2.9,1.1,4.4,1.1c3.4,0,6.8-1.9,8.4-5.1C2835.1,1265.8,2833.3,1260,2828.7,1257.6z"/>
				</g>
				<path class="st5" d="M2953.6,1496.5h-93.6c-3.3,0-6.4,1.7-8.1,4.5c-1.7,2.8-1.9,6.3-0.4,9.3c10.6,20.7,31.8,33.5,55.3,33.5
					c23.5,0,44.7-12.8,55.3-33.5c1.5-2.9,1.4-6.5-0.4-9.3C2959.9,1498.2,2956.9,1496.5,2953.6,1496.5z M2906.8,1524.9
					c-9.9,0-19.4-3.4-26.9-9.4h53.8C2926.1,1521.4,2916.6,1524.9,2906.8,1524.9z"/>
			</g>
		</g>
		<path class="st5" d="M3208.8,2106.9c-1.2-5.1-6.4-8.2-11.5-7c-5.1,1.2-8.2,6.4-7,11.5l78,321.7c1.1,4.3,4.9,7.3,9.2,7.3
			c0.7,0,1.5-0.1,2.2-0.3c5.1-1.2,8.2-6.4,7-11.5L3208.8,2106.9z"/>
	</g>
	<g>
		<g>
			<g>
				<path class="st2" d="M2639.5,1739.2H1749c-46.7,0-84.6,37.9-84.6,84.6V2360c0,46.7,37.9,84.6,84.6,84.6h890.6
					c46.7,0,84.6-37.9,84.6-84.6v-536.1C2724.1,1777.1,2686.2,1739.2,2639.5,1739.2z"/>
				<path class="st5" d="M2639.5,1729.7H1749c-51.9,0-94.1,42.2-94.1,94.1V2360c0,51.9,42.2,94.1,94.1,94.1h890.6
					c51.9,0,94.1-42.2,94.1-94.1v-536.1C2733.6,1772,2691.4,1729.7,2639.5,1729.7z M2714.6,2360c0,41.4-33.7,75.1-75.1,75.1H1749
					c-41.4,0-75.1-33.7-75.1-75.1v-536.1c0-41.4,33.7-75.1,75.1-75.1h890.6c41.4,0,75.1,33.7,75.1,75.1V2360z"/>
			</g>
			<g>
				<path class="st4" d="M2675.9,1739.2h-890.6c-46.7,0-84.6,37.9-84.6,84.6V2360c0,46.7,37.9,84.6,84.6,84.6h890.6
					c46.7,0,84.6-37.9,84.6-84.6v-536.1C2760.5,1777.1,2722.6,1739.2,2675.9,1739.2z"/>
				<path class="st5" d="M2675.9,1729.7h-890.6c-51.9,0-94.1,42.2-94.1,94.1V2360c0,51.9,42.2,94.1,94.1,94.1h890.6
					c51.9,0,94.1-42.2,94.1-94.1v-536.1C2770,1772,2727.8,1729.7,2675.9,1729.7z M2751,2360c0,41.4-33.7,75.1-75.1,75.1h-890.6
					c-41.4,0-75.1-33.7-75.1-75.1v-536.1c0-41.4,33.7-75.1,75.1-75.1h890.6c41.4,0,75.1,33.7,75.1,75.1V2360z"/>
			</g>
			<g>
				<path class="st4" d="M2404.4,2539.4h-477.5c-46.7,0-84.6,37.9-84.6,84.6H2489C2489,2577.3,2451.2,2539.4,2404.4,2539.4z"/>
				<path class="st5" d="M2404.4,2529.9h-477.5c-51.9,0-94.1,42.2-94.1,94.1c0,5.2,4.3,9.5,9.5,9.5H2489c5.2,0,9.5-4.3,9.5-9.5
					C2498.5,2572.2,2456.3,2529.9,2404.4,2529.9z M1852.4,2614.5c4.7-36.9,36.3-65.6,74.5-65.6h477.5c38.2,0,69.8,28.7,74.5,65.6
					H1852.4z"/>
			</g>
			<g>
				<rect x="1994.6" y="2444.6" class="st4" width="342.2" height="94.9"/>
				<path class="st5" d="M2336.8,2435.1h-342.2c-5.2,0-9.5,4.3-9.5,9.5v94.9c0,5.2,4.3,9.5,9.5,9.5h342.2c5.2,0,9.5-4.3,9.5-9.5
					v-94.9C2346.3,2439.3,2342,2435.1,2336.8,2435.1z M2327.3,2529.9h-323.2v-75.9h323.2V2529.9z"/>
			</g>
		</g>
		<path class="st1" d="M2212.4,2009.3c-41.6,0-75.5,33.9-75.5,75.5s33.9,75.5,75.5,75.5s75.5-33.9,75.5-75.5
			S2254,2009.3,2212.4,2009.3z M2212.4,2141.3c-31.2,0-56.5-25.3-56.5-56.5s25.3-56.5,56.5-56.5s56.5,25.3,56.5,56.5
			S2243.6,2141.3,2212.4,2141.3z"/>
	</g>
	<g>
		<path class="st1" d="M3552.7,2703.9H3259c-4.1,0-7.5,3.4-7.5,7.5s3.4,7.5,7.5,7.5h293.7c4.1,0,7.5-3.4,7.5-7.5
			S3556.9,2703.9,3552.7,2703.9z"/>
		<path class="st1" d="M3155.8,2703.9h-107.2c-4.1,0-7.5,3.4-7.5,7.5s3.4,7.5,7.5,7.5h107.2c4.1,0,7.5-3.4,7.5-7.5
			S3159.9,2703.9,3155.8,2703.9z"/>
		<path class="st1" d="M2937.5,2703.9h-714.5c-4.1,0-7.5,3.4-7.5,7.5s3.4,7.5,7.5,7.5h714.5c4.1,0,7.5-3.4,7.5-7.5
			S2941.6,2703.9,2937.5,2703.9z"/>
		<path class="st1" d="M2119.7,2703.9h-789.9c-4.1,0-7.5,3.4-7.5,7.5s3.4,7.5,7.5,7.5h789.9c4.1,0,7.5-3.4,7.5-7.5
			S2123.9,2703.9,2119.7,2703.9z"/>
		<g>
			<path class="st1" d="M3104.2,2791.2h-329.5c-4.1,0-7.5,3.4-7.5,7.5s3.4,7.5,7.5,7.5h329.5c4.1,0,7.5-3.4,7.5-7.5
				S3108.3,2791.2,3104.2,2791.2z"/>
			<path class="st1" d="M2651.7,2791.2H1826c-4.1,0-7.5,3.4-7.5,7.5s3.4,7.5,7.5,7.5h825.7c4.1,0,7.5-3.4,7.5-7.5
				S2655.8,2791.2,2651.7,2791.2z"/>
			<path class="st1" d="M1726.8,2791.2h-107.2c-4.1,0-7.5,3.4-7.5,7.5s3.4,7.5,7.5,7.5h107.2c4.1,0,7.5-3.4,7.5-7.5
				S1730.9,2791.2,1726.8,2791.2z"/>
		</g>
		<path class="st1" d="M2083.3,2703.9h-175.9c-4.1,0-7.5,3.4-7.5,7.5s3.4,7.5,7.5,7.5h175.9c4.1,0,7.5-3.4,7.5-7.5
			S2087.5,2703.9,2083.3,2703.9z"/>
		<path class="st1" d="M1804.2,2703.9h-107.2c-4.1,0-7.5,3.4-7.5,7.5s3.4,7.5,7.5,7.5h107.2c4.1,0,7.5-3.4,7.5-7.5
			S1808.4,2703.9,1804.2,2703.9z"/>
		<path class="st1" d="M1585.9,2703.9H871.4c-4.1,0-7.5,3.4-7.5,7.5s3.4,7.5,7.5,7.5h714.5c4.1,0,7.5-3.4,7.5-7.5
			S1590.1,2703.9,1585.9,2703.9z"/>
		<path class="st1" d="M768.2,2703.9h-532c-4.1,0-7.5,3.4-7.5,7.5s3.4,7.5,7.5,7.5h532c4.1,0,7.5-3.4,7.5-7.5
			S772.3,2703.9,768.2,2703.9z"/>
		<g>
			<path class="st1" d="M1752.6,2791.2h-329.5c-4.1,0-7.5,3.4-7.5,7.5s3.4,7.5,7.5,7.5h329.5c4.1,0,7.5-3.4,7.5-7.5
				S1756.8,2791.2,1752.6,2791.2z"/>
			<path class="st1" d="M1300.1,2791.2H474.5c-4.1,0-7.5,3.4-7.5,7.5s3.4,7.5,7.5,7.5h825.7c4.1,0,7.5-3.4,7.5-7.5
				S1304.3,2791.2,1300.1,2791.2z"/>
			<path class="st1" d="M375.2,2791.2H268c-4.1,0-7.5,3.4-7.5,7.5s3.4,7.5,7.5,7.5h107.2c4.1,0,7.5-3.4,7.5-7.5
				S379.4,2791.2,375.2,2791.2z"/>
		</g>
	</g>
</g>
</svg>
