<?xml version="1.0" encoding="utf-8"?>
<!DOCTYPE svg PUBLIC "-//W3C//DTD SVG 1.1//EN" "http://www.w3.org/Graphics/SVG/1.1/DTD/svg11.dtd">
<svg version="1.1" xmlns="http://www.w3.org/2000/svg" xmlns:xlink="http://www.w3.org/1999/xlink" x="0px" y="0px"  width="32px" height="32px" viewBox="0 0 32 32" enable-background="new 0 0 32 32" xml:space="preserve">
	<path fill="#dbdde7" d="M11.738,29.064c-0.383,0-0.765-0.146-1.058-0.438c-0.584-0.584-0.584-1.531,0-2.115L25.711,11.48 c0.585-0.584,1.531-0.584,2.115,0c0.587,0.584,0.587,1.531,0.001,2.115L12.796,28.627C12.504,28.918,12.122,29.064,11.738,29.064z" />
	<path fill="#dbdde7" d="M19.26,29.027c-0.283,0-0.574-0.082-0.828-0.248l-0.09-0.064c-0.688-0.457-0.873-1.387-0.414-2.07 c0.458-0.688,1.387-0.875,2.076-0.418l0.089,0.062c0.685,0.457,0.872,1.385,0.413,2.074C20.218,28.793,19.745,29.027,19.26,29.027z" />
	<path fill="#dbdde7" d="M7.109,26.217c-0.383,0-0.766-0.146-1.059-0.439c-0.583-0.584-0.583-1.533,0.001-2.117l4.135-4.125 c0.586-0.584,1.533-0.584,2.117,0c0.583,0.586,0.583,1.533-0.002,2.113l-4.137,4.131C7.874,26.07,7.492,26.217,7.109,26.217z"/>
	<path fill="#dbdde7" d="M24.706,23.584c-0.383,0-0.767-0.146-1.058-0.438c-0.584-0.584-0.584-1.535,0-2.117l2.025-2.025 c0.585-0.584,1.532-0.584,2.117,0c0.583,0.584,0.583,1.529,0,2.115l-2.027,2.027C25.472,23.438,25.089,23.584,24.706,23.584z"/>
	<path fill="#dbdde7" d="M4.185,21.67c-0.381,0-0.765-0.146-1.055-0.438c-0.585-0.584-0.586-1.531-0.002-2.113l0.028-0.031 c0.584-0.586,1.531-0.588,2.116-0.004c0.585,0.582,0.586,1.531,0.003,2.117l-0.031,0.027C4.95,21.521,4.568,21.67,4.185,21.67z"/>
	<path fill="#dbdde7" d="M15.284,18.049c-0.384,0-0.768-0.145-1.058-0.436c-0.584-0.586-0.584-1.532,0-2.118l8.646-8.645 c0.584-0.584,1.53-0.584,2.114,0c0.585,0.583,0.585,1.529,0,2.114l-8.644,8.648C16.048,17.904,15.666,18.049,15.284,18.049z"/>
	<path fill="#dbdde7" d="M8.254,17.6c-0.384,0-0.767-0.145-1.058-0.438c-0.583-0.582-0.585-1.53,0-2.114L18.315,3.92 c0.585-0.586,1.53-0.586,2.116-0.002c0.584,0.583,0.586,1.53,0.002,2.116L9.311,17.162C9.019,17.455,8.636,17.6,8.254,17.6z"/>
	<path fill="#dbdde7" d="M4.007,14.369c-0.384,0-0.767-0.146-1.059-0.438c-0.583-0.584-0.583-1.53,0-2.114l4.345-4.346 c0.583-0.585,1.532-0.585,2.116,0c0.584,0.584,0.584,1.531-0.001,2.115l-4.344,4.345C4.771,14.223,4.39,14.369,4.007,14.369z"/>
	<path fill="#dbdde7" d="M12.083,6.286c-0.827,0-1.496-0.67-1.496-1.497V4.641c0-0.827,0.669-1.496,1.496-1.496c0.825,0,1.495,0.669,1.495,1.496 v0.147C13.577,5.616,12.908,6.286,12.083,6.286z"/>
</svg>
