<?xml version="1.0" encoding="utf-8"?>
<!-- Generator: Adobe Illustrator 19.0.0, SVG Export Plug-In . SVG Version: 6.00 Build 0)  -->
<svg version="1.1" id="Layer_1" xmlns="http://www.w3.org/2000/svg" xmlns:xlink="http://www.w3.org/1999/xlink" x="0px" y="0px"
	 viewBox="0 0 3491.7 2962.6" style="enable-background:new 0 0 3491.7 2962.6;" xml:space="preserve">
<style type="text/css">
	.st0{fill:#4FD696;}
	.st1{fill:#130000;}
	.st2{fill:#FFFFFF;}
	.st3{fill:#4E8EF7;}
	.st4{fill:#939598;}
	.st5{fill:#231F20;}
	.st6{fill:#C5EDF9;}
	.st7{fill:#4E8EF7;stroke:#231F20;stroke-miterlimit:10;}
	.st8{fill:#231F20;stroke:#4E8EF7;stroke-miterlimit:10;}
	.st9{fill:#A2DFFF;}
	.st10{fill:#4E8EF7;stroke:#000000;stroke-miterlimit:10;}
</style>
<g>
	<g>
		<g>
			<g>
				<path class="st0" d="M1844.7,946.7h-371.9c-77.5,0-140.4,62.8-140.4,140.4v1018.4H1985V1087
					C1985,1009.5,1922.2,946.7,1844.7,946.7z"/>
				<path class="st1" d="M1844.7,937.2h-371.9c-82.6,0-149.9,67.2-149.9,149.9v1018.4c0,5.2,4.3,9.5,9.5,9.5H1985
					c5.2,0,9.5-4.3,9.5-9.5V1087C1994.5,1004.4,1927.3,937.2,1844.7,937.2z M1975.5,2095.9h-633.7V1087
					c0-72.2,58.7-130.9,130.9-130.9h371.9c72.2,0,130.9,58.7,130.9,130.9V2095.9z"/>
			</g>
			<g>
				<rect x="1572.1" y="794.4" class="st2" width="169.5" height="152.3"/>
				<path d="M1741.6,784.9h-169.5c-5.2,0-9.5,4.3-9.5,9.5v152.3c0,5.2,4.3,9.5,9.5,9.5h169.5c5.2,0,9.5-4.3,9.5-9.5V794.4
					C1751.1,789.1,1746.8,784.9,1741.6,784.9z M1732.1,937.2h-150.5V803.9h150.5V937.2z"/>
			</g>
			<g>
				<g>
					<path class="st2" d="M1171.2,1999.9c0,0,6.3,106.7,6.3,154.6l0,0c0,30.5,23.9,55.2,53.5,55.2h40.1c32.1,0,58-26.8,58-59.9
						v-151.9l0,0L1171.2,1999.9z"/>
					<path class="st3" d="M1329.1,1988.4c0,0-0.1,0-0.1,0l-158,2c-2.6,0-5.1,1.1-6.8,3c-1.8,1.9-2.7,4.4-2.5,7
						c0.1,1.1,6.3,107,6.3,154.1c0,35.7,28.3,64.7,63,64.7h40.1c37.2,0,67.5-31.2,67.5-69.4v-151.9c0-2.5-1-5-2.8-6.8
						C1334,1989.4,1331.6,1988.4,1329.1,1988.4z M1319.6,2149.8c0,27.8-21.8,50.4-48.5,50.4H1231c-24.3,0-44-20.5-44-45.7
						c0-39.1-4.2-117.6-5.7-145.3l138.4-1.7V2149.8z"/>
				</g>
				<g>
					<path class="st2" d="M1226.6,1997.2L1226.6,1997.2c-27.1,0-49.1,22.7-49.1,50.7v118l94.7-28.6v-92.9
						C1272.2,2018.3,1251.8,1997.2,1226.6,1997.2z"/>
					<path class="st3" d="M1226.6,1987.7c-32.3,0-58.6,27-58.6,60.2v118c0,5.2,4.3,9.5,9.5,9.5c5.2,0,9.5-4.3,9.5-9.5v-118
						c0-22.7,17.8-41.2,39.6-41.2c19.9,0,36.2,16.9,36.2,37.7v92.9c0,5.2,4.3,9.5,9.5,9.5c5.2,0,9.5-4.3,9.5-9.5v-92.9
						C1281.7,2013.1,1257,1987.7,1226.6,1987.7z"/>
				</g>
			</g>
			<g>
				<path class="st0" d="M1253.3,1061l-293.7,425.5c-31.5,45.5-29.3,100.5-4.9,141.8l169.8,368.9h204.7l-183.6-429.9l211.5-306.3
					l217.2-314.3h-105.9C1383.1,946.7,1302.9,989.3,1253.3,1061z"/>
				<path d="M1574.3,937.2h-105.9c-88.3,0-171.7,44.3-223,118.5l-293.7,425.5c-16,23.2-24.7,50-25.1,77.7
					c-0.4,25.9,6.4,51.4,19.5,73.8l169.6,368.5c1.6,3.4,4.9,5.5,8.6,5.5h204.7c3.2,0,6.2-1.6,7.9-4.3c1.8-2.7,2.1-6,0.8-9
					l-181.5-425.1l208.5-302c3-4.3,1.9-10.2-2.4-13.2c-4.3-3-10.2-1.9-13.2,2.4l-211.5,306.3c-1.9,2.7-2.2,6.1-0.9,9.1l177.9,416.7
					h-184.3l-167.2-363.4c-0.1-0.3-0.3-0.6-0.4-0.9c-11.5-19.6-17.5-41.8-17.1-64.4c0.3-23.9,7.8-47.1,21.7-67.2l293.7-425.5
					c47.7-69,125.3-110.3,207.3-110.3h105.9c5.2,0,9.5-4.3,9.5-9.5C1583.8,941.4,1579.6,937.2,1574.3,937.2z"/>
			</g>
			<g>
				<g>
					<path class="st2" d="M2000.1,1997.2v151.9c0,33.1,26,59.9,58,59.9h40.1c29.5,0,53.5-24.7,53.5-55.2l0,0
						c0-47.9,6.3-154.6,6.3-154.6L2000.1,1997.2L2000.1,1997.2z"/>
					<path class="st3" d="M2158.1,1989.7l-158-2c-2.5-0.1-5,1-6.8,2.7c-1.8,1.8-2.8,4.2-2.8,6.8v151.9c0,38.3,30.3,69.4,67.5,69.4
						h40.1c34.7,0,63-29,63-64.7c0-47.1,6.2-153,6.3-154.1c0.2-2.6-0.8-5.1-2.5-7C2163.2,1990.8,2160.7,1989.8,2158.1,1989.7z
						 M2142.2,2153.8c0,25.2-19.7,45.7-44,45.7h-40.1c-26.8,0-48.5-22.6-48.5-50.4v-142.3l138.4,1.7
						C2146.4,2036.3,2142.2,2114.8,2142.2,2153.8z"/>
				</g>
				<g>
					<path class="st2" d="M2102.7,1996.6L2102.7,1996.6c-25.2,0-45.7,21.1-45.7,47.2v92.9l94.7,28.6v-118
						C2151.7,2019.2,2129.8,1996.6,2102.7,1996.6z"/>
					<path class="st3" d="M2102.7,1987.1c-30.4,0-55.2,25.4-55.2,56.7v92.9c0,5.2,4.3,9.5,9.5,9.5s9.5-4.3,9.5-9.5v-92.9
						c0-20.8,16.2-37.7,36.2-37.7c21.8,0,39.6,18.5,39.6,41.2v118c0,5.2,4.3,9.5,9.5,9.5c5.2,0,9.5-4.3,9.5-9.5v-118
						C2161.2,2014.1,2135,1987.1,2102.7,1987.1z"/>
				</g>
			</g>
			<g>
				<path class="st0" d="M2046.7,1061c-49.6-71.8-129.8-114.4-215.1-114.4h-105.9l254.1,378.3l174.6,242.3l-154.4,429.9h175.5
					l169.8-368.9c24.3-41.3,26.5-96.3-4.9-141.8L2046.7,1061z"/>
				<path d="M2054.5,1055.6c-51.3-74.2-134.6-118.4-223-118.4h-105.9c-5.2,0-9.5,4.3-9.5,9.5c0,5.2,4.3,9.5,9.5,9.5h105.9
					c82.1,0,159.6,41.2,207.3,110.2l293.7,425.5c13.9,20.1,21.4,43.3,21.7,67.2c0.3,22.5-5.6,44.8-17.1,64.4
					c-0.2,0.3-0.3,0.6-0.4,0.9l-167.2,363.4h-155.9l149.8-417.2c1.1-2.9,0.6-6.2-1.2-8.8l-174.6-242.3c-3.1-4.3-9-5.2-13.3-2.2
					c-4.3,3.1-5.2,9-2.2,13.3l171.7,238.3L1991.1,1994c-1,2.9-0.6,6.1,1.2,8.7s4.7,4,7.8,4h175.5c3.7,0,7.1-2.2,8.6-5.5l169.6-368.5
					c13.1-22.5,19.9-48,19.5-73.8c-0.4-27.7-9.1-54.6-25.1-77.7L2054.5,1055.6z"/>
			</g>
			<g>
				<path class="st3" d="M1656.8,290.2c2,0,3.9,0,5.9,0.1c14.7-0.1,39.4-0.1,41.5-0.1H1656.8z"/>
				<path class="st4" d="M1662.7,290.3c-5.7,0-9.9,0-10.7,0.1c-161.1,5.6-283.9,174.8-229.6,331.5l26.3,108
					c6.1,25.2,28,42.8,53.2,42.8h320.4l54.6-185.7c21.8-74,6.7-154.8-41.5-214.1C1794.8,322.9,1734.5,291.9,1662.7,290.3z"/>
				<path class="st5" d="M1842.8,366.9c-33.4-41.1-78.3-68.6-129.7-80.1c-1.4-3.6-4.8-6.1-8.9-6.1h-47.3c-0.5,0-1,0-1.5,0.1
					c-1.9,0-3.2,0-3.6,0c-40.7,1.4-81.3,13.3-117.3,34.2c-34.4,20-64.7,48.2-87.6,81.6c-22.4,32.7-37.6,70.1-43.7,108.1
					c-6.6,40.7-3.2,81,10.2,119.7l26.2,107.6c7.2,29.5,32.8,50,62.4,50h320.4c4.2,0,7.9-2.8,9.1-6.8l54.6-185.7
					c11.1-37.9,13.1-78.4,5.7-117.1C1884.2,433.6,1867.3,397.1,1842.8,366.9z M1867.8,584.3l-52.6,178.9h-313.3
					c-20.8,0-38.8-14.6-43.9-35.5l-26.3-108c-0.1-0.3-0.2-0.6-0.3-0.9c-24.3-70.1-13-147.1,31.1-211.3
					c44.4-64.8,115.4-105,189.9-107.6c0.8,0,5,0,10.7-0.1c66.4,1.6,124.8,29.6,165,79.1c22.6,27.8,38.1,61.4,45,97.3
					C1879.9,511.9,1878.1,549.3,1867.8,584.3z"/>
			</g>
			<g>
				<path class="st2" d="M1738.5,395.9h-240l-11.8,167.4v120.5c0,103.2,81,186.8,180.9,186.8h0c99.9,0,180.9-83.6,180.9-186.8V509.5
					l0,0C1848.5,446.7,1799.3,395.9,1738.5,395.9z"/>
				<path class="st5" d="M1738.5,386.4h-240c-5.2,0-9.5,4.3-9.5,9.5c0,5.2,4.3,9.5,9.5,9.5h240c55.4,0,100.5,46.7,100.5,104.1v174.2
					c0,97.8-76.9,177.3-171.4,177.3c-94.5,0-171.4-79.5-171.4-177.3V563.3c0-5.2-4.3-9.5-9.5-9.5c-5.2,0-9.5,4.3-9.5,9.5v120.5
					c0,108.3,85.4,196.3,190.4,196.3c105,0,190.4-88.1,190.4-196.3V509.5C1858,441.6,1804.4,386.4,1738.5,386.4z"/>
			</g>
			<g>
				<path class="st2" d="M1471.9,656L1471.9,656c0,22.2,17.4,40.2,38.9,40.2v-80.3C1489.3,615.9,1471.9,633.9,1471.9,656z"/>
				<path class="st5" d="M1510.8,625.4c5.2,0,9.5-4.3,9.5-9.5c0-5.2-4.3-9.5-9.5-9.5c-26.7,0-48.4,22.3-48.4,49.7
					c0,27.4,21.7,49.7,48.4,49.7c5.2,0,9.5-4.3,9.5-9.5c0-5.2-4.3-9.5-9.5-9.5c-16.2,0-29.4-13.8-29.4-30.7
					C1481.4,639.1,1494.6,625.4,1510.8,625.4z"/>
			</g>
			<g>
				<path class="st4" d="M1777.4,290.2h-137c-89.3,0-196,75.1-215.3,171l61.6,102.1c-1.7-36.7,17.5-61.6,39-78
					c23.3-17.7,51.7-26.9,80.6-26.9h86.3c77,0,117.9-31,139.5-66.4C1859.1,347.8,1827.9,290.2,1777.4,290.2z"/>
				<path class="st5" d="M1777.4,280.7h-137c-45.9,0-96.8,18.8-139.6,51.5c-45.2,34.6-75.4,79.7-84.9,127.1
					c-1,5.1,2.3,10.2,7.4,11.2c5.1,1,10.2-2.3,11.2-7.4c8.6-42.9,36.3-84,77.9-115.8c39.6-30.2,86.3-47.6,128.1-47.6h137
					c19.8,0,37.6,10.6,47.6,28.4c10.5,18.7,10.1,40.7-1,58.9c-25.1,41.1-69.3,61.9-131.4,61.9h-86.3c-31.3,0-61.9,10.2-86.3,28.8
					c-29.5,22.4-44.3,52.2-42.7,86c0.2,5.1,4.4,9.1,9.5,9.1c0.1,0,0.3,0,0.4,0c5.2-0.2,9.3-4.7,9.1-9.9c-1.3-27.7,10.6-51.2,35.2-70
					c21.1-16.1,47.7-24.9,74.8-24.9h86.3c37.2,0,69.2-7.1,95.1-21.1c21.9-11.8,39.6-28.6,52.6-49.9c14.7-24.1,15.2-53.3,1.3-78.1
					C1828.1,295,1804.2,280.7,1777.4,280.7z"/>
			</g>
			<g>
				<polygon class="st3" points="1332.4,2621.5 1534.9,2621.5 1633.3,2105.4 1332.4,2105.4 				"/>
				<path class="st5" d="M1633.3,2095.9h-300.9c-5.2,0-9.5,4.3-9.5,9.5v516c0,5.2,4.3,9.5,9.5,9.5h202.5c4.6,0,8.5-3.2,9.3-7.7
					l98.4-516c0.5-2.8-0.2-5.7-2-7.8C1638.8,2097.2,1636.1,2095.9,1633.3,2095.9z M1527,2612h-185.1v-497h279.9L1527,2612z"/>
			</g>
			<g>
				<g>
					<polygon class="st3" points="1764.1,2621.5 1966.5,2621.5 1966.5,2105.4 1665.6,2105.4 					"/>
					<path class="st3" d="M1966.5,2095.9h-300.9c-2.8,0-5.5,1.3-7.3,3.4s-2.5,5.1-2,7.8l98.4,516c0.9,4.5,4.8,7.7,9.3,7.7h202.5
						c5.2,0,9.5-4.3,9.5-9.5v-516C1976,2100.2,1971.8,2095.9,1966.5,2095.9z M1957,2612h-185.1l-94.8-497H1957V2612z"/>
				</g>
			</g>
			<g>
				<polygon class="st3" points="1332.4,2621.5 1534.9,2621.5 1621.2,2284.9 1754.1,2284.9 1966.5,2105.4 1332.4,2105.4 				"/>
				<path class="st3" d="M1966.5,2095.9h-634.2c-5.2,0-9.5,4.3-9.5,9.5v516c0,5.2,4.3,9.5,9.5,9.5h202.5c4.3,0,8.1-2.9,9.2-7.1
					l84.5-329.4h125.5c5.2,0,9.5-4.3,9.5-9.5s-4.3-9.5-9.5-9.5h-132.8c-4.3,0-8.1,2.9-9.2,7.1l-84.5,329.4h-185.6v-497h624.7
					c5.2,0,9.5-4.3,9.5-9.5S1971.8,2095.9,1966.5,2095.9z"/>
			</g>
		</g>
		<g>
			<path class="st0" d="M1681.9,972.6c-11.1-11.4-29-11.4-40.1,0l-30.2,31.2c-11.1,11.4-11.1,30,0,41.4l30.2,31.2
				c11.1,11.4,29,11.4,40.1,0l30.2-31.2c11.1-11.4,11.1-30,0-41.4L1681.9,972.6z"/>
			<path class="st3" d="M1681.9,1093.2c-11.1-11.4-29-11.4-40.1,0l-30.2,31.2c-11.1,11.4,30.2,443,30.2,443
				c11.1,11.4,29,11.4,40.1,0c0,0,41.3-431.6,30.2-443L1681.9,1093.2z"/>
		</g>
	</g>
	<g>
		<g>
			<path class="st2" d="M1675.1,780.5h4.4c15,0,29.4-0.9,42.5-2.5l-94.4-0.7C1642,779.3,1658.2,780.5,1675.1,780.5z"/>
			<path class="st5" d="M1720.9,768.5c-13.2,1.6-27.1,2.5-41.3,2.5h-4.4c-16.1,0-31.6-1-46.1-3.1c-5.2-0.7-10,2.9-10.7,8.1
				c-0.7,5.2,2.9,10,8.1,10.7c15.4,2.2,31.9,3.3,48.8,3.3h4.4c15,0,29.7-0.9,43.7-2.6c5.2-0.6,8.9-5.4,8.3-10.6
				C1730.8,771.5,1726.1,767.8,1720.9,768.5z"/>
		</g>
		<g>
			<path class="st5" d="M1588.1,597.3h-0.5c-8.9,0-16.1,7.3-16.1,16.1v1.5c0,8.9,7.3,16.1,16.1,16.1h0.5c8.9,0,16.1-7.3,16.1-16.1
				v-1.5C1604.2,604.5,1596.9,597.3,1588.1,597.3z"/>
			<path class="st5" d="M1767.1,597.3h-0.5c-8.9,0-16.1,7.3-16.1,16.1v1.5c0,8.9,7.3,16.1,16.1,16.1h0.5c8.9,0,16.1-7.3,16.1-16.1
				v-1.5C1783.2,604.5,1775.9,597.3,1767.1,597.3z"/>
		</g>
		<g>
			<path class="st2" d="M1677.3,710.9L1677.3,710.9c13.5,0,24.5-11.3,24.5-25.3V561.5l-49,124.1
				C1652.8,699.6,1663.8,710.9,1677.3,710.9z"/>
			<path class="st5" d="M1701.9,552c-5.2,0-9.5,4.3-9.5,9.5v124.1c0,8.7-6.7,15.8-15,15.8s-15-7.1-15-15.8c0-5.2-4.3-9.5-9.5-9.5
				c-5.2,0-9.5,4.3-9.5,9.5c0,19.2,15.3,34.8,34,34.8c18.8,0,34-15.6,34-34.8V561.5C1711.4,556.3,1707.1,552,1701.9,552z"/>
		</g>
		<g>
			<path class="st6" d="M1613.4,536.5h-59.5c-5.2,0-9.5,4.3-9.5,9.5c0,5.2,4.3,9.5,9.5,9.5h59.5c5.2,0,9.5-4.3,9.5-9.5
				C1622.9,540.8,1618.7,536.5,1613.4,536.5z"/>
			<path class="st6" d="M1800.8,536.5h-59.5c-5.2,0-9.5,4.3-9.5,9.5c0,5.2,4.3,9.5,9.5,9.5h59.5c5.2,0,9.5-4.3,9.5-9.5
				C1810.3,540.8,1806,536.5,1800.8,536.5z"/>
		</g>
	</g>
</g>
<g>
	<g>
		<path class="st2" d="M2432.5,1080.1v-107h-88.2h-88.2v107c0,43.5-44.3,78.7-99,78.7h187.2h187.2
			C2476.9,1158.8,2432.5,1123.6,2432.5,1080.1z"/>
		<path class="st3" d="M2531.6,1149.3c-49.4,0-89.5-31-89.5-69.2v-107c0-5.2-4.3-9.5-9.5-9.5h-176.3c-5.2,0-9.5,4.3-9.5,9.5v107
			c0,38.2-40.2,69.2-89.5,69.2c-5.2,0-9.5,4.3-9.5,9.5c0,5.2,4.3,9.5,9.5,9.5h374.4c5.2,0,9.5-4.3,9.5-9.5
			C2541.1,1153.6,2536.8,1149.3,2531.6,1149.3z M2224.5,1149.3c3-1.9,5.8-3.9,8.5-6.1c21-16.7,32.6-39.1,32.6-63.1v-97.5H2423v97.5
			c0,24,11.6,46.4,32.6,63.1c2.7,2.2,5.6,4.2,8.5,6.1H2224.5z"/>
	</g>
	<g>
		<path class="st7" d="M2529.3,1120.5h-369.9c-83.3,0-152.6,56.7-166.9,131.5c-1.8,9.3-2.7,18.9-2.7,28.6v815.2h362.1h346.9v-815.2
			C2698.9,1192.2,2623,1120.5,2529.3,1120.5z"/>
		<path class="st5" d="M2529.3,1111h-369.9c-86.7,0-160.8,58.6-176.2,139.2c-1.9,10-2.9,20.2-2.9,30.4v815.2c0,5.2,4.3,9.5,9.5,9.5
			h709.1c5.2,0,9.5-4.3,9.5-9.5v-815.2C2708.4,1187.2,2628,1111,2529.3,1111z M2689.4,2086.4h-690.1v-805.7c0-9,0.9-18.1,2.5-26.9
			c13.7-71.7,80-123.8,157.5-123.8h369.9c88.3,0,160.1,67.6,160.1,150.7V2086.4z"/>
	</g>
	<g>
		<path class="st3" d="M2696.4,1252.1l-183.9,544.2c20,45.3,46.6,117.4,97.2,137.7c25.3,10.1,65.5,20,104.4,5h0
			c70-27.5,84.5-104.8,68.6-181.5L2696.4,1252.1z"/>
		<path class="st3" d="M2705.8,1250.5c-0.9-5.2-5.8-8.7-11-7.8c-5.2,0.9-8.6,5.8-7.8,11l86.3,505.5c0,0.1,0,0.2,0.1,0.3
			c8.1,39.2,7.5,75.3-1.8,104.4c-10.3,32.2-30.9,54.5-60.9,66.3c-37.8,14.5-77.3,3.1-97.5-5c-42.1-16.9-67.5-75.8-86-118.8
			c-2.1-4.9-4.1-9.5-6-13.9c-2.1-4.8-7.7-7-12.5-4.9c-4.8,2.1-7,7.7-4.9,12.5c1.9,4.3,3.9,8.9,6,13.7c19.8,46.1,47,109.2,96.4,129
			c14.7,5.9,38.5,13.3,65.3,13.3c14.8,0,30.5-2.2,46.1-8.2c35.1-13.8,60.1-40.9,72.1-78.2c10.3-32.1,11.2-71.5,2.4-113.9
			L2705.8,1250.5z"/>
	</g>
	<g>
		<path class="st2" d="M2349.7,529L2349.7,529c-107.6,0-194.9,59.9-194.9,161.5v350.4c0,56.1,48.2,115.2,107.6,115.2h0
			c155.8,0,282.1-79.9,282.1-227.1V690.5C2544.6,588.9,2457.3,529,2349.7,529z"/>
		<path class="st5" d="M2493.4,564.2c-36.7-28.8-87.7-44.7-143.6-44.7c-55.9,0-106.9,15.9-143.6,44.7
			c-39.7,31.2-60.7,74.9-60.7,126.3v350.4c0,29.9,12.4,60.9,33.9,85c22.9,25.6,52.4,39.7,83.2,39.7c39.9,0,77.8-5.1,112.5-15.2
			c35.4-10.3,66.6-25.4,92.7-45.1c56.5-42.5,86.4-103.5,86.4-176.3V690.5C2554.1,639.1,2533.1,595.4,2493.4,564.2z M2535.1,929.1
			c0,66.6-27.3,122.4-78.8,161.1c-48.4,36.4-117.2,56.4-193.8,56.4c-25.3,0-49.8-11.9-69-33.4c-18.5-20.7-29.1-47-29.1-72.3V690.5
			c0-45.4,18.5-84,53.4-111.4c33.4-26.2,80.2-40.6,131.9-40.6c51.7,0,98.5,14.4,131.9,40.6c35,27.4,53.4,66,53.4,111.4V929.1z"/>
	</g>
	<path class="st4" d="M2293.9,960.3h-43.4c-52.8,0-95.6-42.2-95.6-92v172.7c0,56.1,48.2,115.2,107.6,115.2
		c155.8,0,282.1-79.9,282.1-227.1V721.8C2544.6,852.6,2497.7,960.3,2293.9,960.3z"/>
	<path class="st5" d="M2544.6,712.3c-5.2,0-9.5,4.3-9.5,9.5v207.3c0,66.6-27.3,122.4-78.8,161.1c-48.4,36.4-117.2,56.4-193.8,56.4
		c-25.3,0-49.8-11.9-69-33.4c-18.5-20.7-29.1-47-29.1-72.3V868.2c0-5.2-4.3-9.5-9.5-9.5c-5.2,0-9.5,4.3-9.5,9.5v172.7
		c0,29.9,12.4,60.9,33.9,85c22.9,25.6,52.4,39.7,83.2,39.7c39.9,0,77.8-5.1,112.5-15.2c35.4-10.3,66.6-25.4,92.7-45.1
		c56.5-42.5,86.4-103.5,86.4-176.3V721.8C2554.1,716.6,2549.8,712.3,2544.6,712.3z"/>
	<g>
		<path class="st2" d="M2524.4,788l-14.9,0l-8.8,92l23.7,0c26.9,0,48.7-20.6,48.7-46l0,0C2573.1,808.6,2551.3,788,2524.4,788z"/>
		<path class="st5" d="M2565.3,794.6c-11-10.4-25.5-16.1-41-16.1l-14.9,0c-5.2,0-9.5,4.3-9.5,9.5c0,5.2,4.3,9.5,9.5,9.5l14.9,0
			c10.6,0,20.5,3.9,27.9,10.9c7.3,6.9,11.3,16,11.3,25.6c0,20.1-17.6,36.5-39.2,36.5l-23.7,0c-5.2,0-9.5,4.3-9.5,9.5
			c0,5.2,4.3,9.5,9.5,9.5l23.7,0h0c32.1,0,58.2-24.9,58.2-55.5C2582.6,819.1,2576.5,805.1,2565.3,794.6z"/>
	</g>
	<path class="st5" d="M2346.9,961.3c-11,6.2-25.3,10-40.3,10.6c-11.1,0.5-22.1-0.8-31.8-3.7c-5-1.5-10.3,1.4-11.8,6.4
		c-1.5,5,1.4,10.3,6.4,11.8c10.1,3,21.3,4.6,32.7,4.6c1.8,0,3.6,0,5.3-0.1c18.1-0.8,35-5.3,48.8-13c4.6-2.6,6.2-8.4,3.6-12.9
		C2357.3,960.3,2351.5,958.7,2346.9,961.3z"/>
	<g>
		<g>
			<path class="st2" d="M2748,1526.2h-91c-35.8,0-202.1,98.6-202.1,98.6l125.2,85.3l79.7-28.2h112.5l-3.7-142.5L2748,1526.2z"/>
			<path class="st3" d="M2773.8,1531.4l-20.6-13.2c-1.5-1-3.3-1.5-5.1-1.5h-91c-6.1,0-24.7,0-119,50.4c-45.7,24.5-87.6,49.2-88,49.5
				c-4.5,2.7-6,8.5-3.3,13c2.7,4.5,8.5,6,13,3.3c63.5-37.6,173.1-97.2,197.3-97.2h88.2l14,9l3.3,127.7h-102.7
				c-1.1,0-2.1,0.2-3.2,0.5l-79.7,28.2c-4.9,1.7-7.5,7.2-5.8,12.1c1.4,3.9,5,6.3,9,6.3c1,0,2.1-0.2,3.2-0.5l78.2-27.6h110.8
				c2.6,0,5-1,6.8-2.9c1.8-1.8,2.8-4.3,2.7-6.9l-3.7-142.5C2778.1,1536,2776.4,1533.1,2773.8,1531.4z"/>
		</g>
		<g>
			<g>
				<path class="st2" d="M2783.4,1526.2H2699l48.2,38.9h36.2c11.4,0,20.6-8.7,20.6-19.5v0C2804,1534.9,2794.8,1526.2,2783.4,1526.2z
					"/>
				<path class="st3" d="M2783.4,1516.7H2699c-5.2,0-9.5,4.3-9.5,9.5c0,5.2,4.3,9.5,9.5,9.5h84.4c6.1,0,11.1,4.5,11.1,10
					c0,5.5-5,10-11.1,10h-36.2c-5.2,0-9.5,4.3-9.5,9.5s4.3,9.5,9.5,9.5h36.2c16.6,0,30.1-13,30.1-29
					C2813.5,1529.7,2800,1516.7,2783.4,1516.7z"/>
			</g>
			<g>
				<path class="st2" d="M2783.4,1604h-65.9v38.9h65.9c11.4,0,20.6-8.7,20.6-19.5C2804,1612.7,2794.8,1604,2783.4,1604z"/>
				<path class="st3" d="M2783.4,1594.5h-65.9c-5.2,0-9.5,4.3-9.5,9.5c0,5.2,4.3,9.5,9.5,9.5h65.9c6.1,0,11.1,4.5,11.1,10
					c0,5.5-5,10-11.1,10h-65.9c-5.2,0-9.5,4.3-9.5,9.5c0,5.2,4.3,9.5,9.5,9.5h65.9c16.6,0,30.1-13,30.1-29
					C2813.5,1607.5,2800,1594.5,2783.4,1594.5z"/>
			</g>
			<g>
				<path class="st2" d="M2772.3,1642.9h-54.8l-57.7,38.9h112.5c11.4,0,20.6-8.7,20.6-19.5l0,0
					C2792.9,1651.7,2783.7,1642.9,2772.3,1642.9z"/>
				<path class="st3" d="M2772.3,1633.4h-54.8c-5.2,0-9.5,4.3-9.5,9.5c0,5.2,4.3,9.5,9.5,9.5h54.8c6.1,0,11.1,4.5,11.1,10
					s-5,10-11.1,10h-112.5c-5.2,0-9.5,4.3-9.5,9.5c0,5.2,4.3,9.5,9.5,9.5h112.5c16.6,0,30.1-13,30.1-29
					C2802.4,1646.4,2788.9,1633.4,2772.3,1633.4z"/>
			</g>
			<g>
				<path class="st2" d="M2793.7,1565.1h-76.2v38.9h76.2c9.6,0,17.4-8.7,17.4-19.5S2803.3,1565.1,2793.7,1565.1z"/>
				<path class="st3" d="M2793.7,1555.6h-76.2c-5.2,0-9.5,4.3-9.5,9.5s4.3,9.5,9.5,9.5h76.2c4.3,0,7.9,4.6,7.9,10
					c0,5.4-3.6,10-7.9,10h-76.2c-5.2,0-9.5,4.3-9.5,9.5c0,5.2,4.3,9.5,9.5,9.5h76.2c14.8,0,26.9-13,26.9-29
					C2820.6,1568.6,2808.6,1555.6,2793.7,1555.6z"/>
			</g>
		</g>
	</g>
	<g>
		<path class="st3" d="M1906.3,1757.5c-15.9,76.7-1.4,154,68.6,181.5h0c38.9,14.9,79.1,5.1,104.4-5c50.6-20.3,77.2-92.4,97.2-137.7
			l-183.9-544.2L1906.3,1757.5z"/>
		<path class="st8" d="M2180.3,1787.6c-4.8-2.1-10.4,0.1-12.5,4.9c-1.9,4.4-3.9,9-6,13.9c-18.5,43-43.9,102-86,118.8
			c-20.2,8.1-59.7,19.5-97.4,5c-30.1-11.8-50.6-34.2-60.9-66.4c-9.3-29.1-10-65.1-1.8-104.4c0-0.1,0-0.2,0.1-0.3l86.3-505.5
			c0.9-5.2-2.6-10.1-7.8-11c-5.2-0.9-10.1,2.6-11,7.8l-86.2,505.3c-8.8,42.4-8,81.7,2.4,113.9c12,37.3,36.9,64.4,72.2,78.3
			c15.6,6,31.2,8.2,46,8.2c26.8,0,50.7-7.4,65.4-13.3c49.4-19.8,76.5-82.9,96.4-128.9c2.1-4.8,4-9.4,6-13.7
			C2187.3,1795.3,2185.1,1789.7,2180.3,1787.6z"/>
	</g>
	<g>
		<polygon class="st3" points="2072.9,1747.4 2079.3,1934 2644.1,1699.5 2563.8,1547.5 		"/>
		<path class="st3" d="M2572.2,1543c-2.3-4.3-7.5-6.2-12-4.4l-490.8,199.9c-4.9,2-7.2,7.5-5.2,12.4c2,4.9,7.5,7.2,12.4,5.2
			l482.9-196.7l71.5,135.2l-555.2,230.5c-4.8,2-7.1,7.6-5.1,12.4c1.5,3.7,5.1,5.9,8.8,5.9c1.2,0,2.4-0.2,3.6-0.7l564.8-234.5
			c2.5-1,4.4-3,5.3-5.6c0.9-2.5,0.7-5.3-0.5-7.7L2572.2,1543z"/>
	</g>
	<g>
		<g>
			<path class="st2" d="M1969.5,1526.2l-20.6,13.2l-3.7,142.5h112.5l79.7,28.2l125.2-85.3c0,0-166.4-98.6-202.1-98.6H1969.5z"/>
			<path class="st5" d="M2267.5,1616.6c-0.4-0.2-42.3-25-88-49.5c-94.2-50.4-112.8-50.4-119-50.4h-91c-1.8,0-3.6,0.5-5.1,1.5
				l-20.6,13.2c-2.6,1.7-4.3,4.6-4.4,7.7l-3.7,142.5c-0.1,2.6,0.9,5,2.7,6.9c1.8,1.8,4.2,2.9,6.8,2.9h110.8l78.2,27.6
				c1,0.4,2.1,0.5,3.2,0.5c3.9,0,7.6-2.4,9-6.3c1.7-4.9-0.8-10.4-5.8-12.1l-79.7-28.2c-1-0.4-2.1-0.5-3.2-0.5H1955l3.3-127.7l14-9
				h88.2c24.2,0,133.8,59.6,197.3,97.2c4.5,2.7,10.3,1.2,13-3.3C2273.5,1625.1,2272,1619.2,2267.5,1616.6z"/>
		</g>
		<g>
			<g>
				<path class="st2" d="M1913.5,1545.6L1913.5,1545.6c0,10.8,9.2,19.5,20.6,19.5h36.2l48.2-38.9h-84.4
					C1922.8,1526.2,1913.5,1534.9,1913.5,1545.6z"/>
				<path class="st5" d="M2018.6,1516.7h-84.4c-16.6,0-30.1,13-30.1,29c0,16,13.5,29,30.1,29h36.2c5.2,0,9.5-4.3,9.5-9.5
					s-4.3-9.5-9.5-9.5h-36.2c-6.1,0-11.1-4.5-11.1-10c0-5.5,5-10,11.1-10h84.4c5.2,0,9.5-4.3,9.5-9.5
					C2028.1,1520.9,2023.8,1516.7,2018.6,1516.7z"/>
			</g>
			<g>
				<path class="st2" d="M1913.5,1623.5c0,10.8,9.2,19.5,20.6,19.5h65.9V1604h-65.9C1922.8,1604,1913.5,1612.7,1913.5,1623.5z"/>
				<path class="st5" d="M1934.1,1613.5h65.9c5.2,0,9.5-4.3,9.5-9.5c0-5.2-4.3-9.5-9.5-9.5h-65.9c-16.6,0-30.1,13-30.1,29
					c0,16,13.5,29,30.1,29h65.9c5.2,0,9.5-4.3,9.5-9.5c0-5.2-4.3-9.5-9.5-9.5h-65.9c-6.1,0-11.1-4.5-11.1-10
					C1923,1618,1928,1613.5,1934.1,1613.5z"/>
			</g>
			<g>
				<path class="st2" d="M1945.3,1642.9c-11.4,0-20.6,8.7-20.6,19.5l0,0c0,10.8,9.2,19.5,20.6,19.5h112.5l-57.7-38.9H1945.3z"/>
				<path class="st5" d="M2057.7,1672.4h-112.5c-6.1,0-11.1-4.5-11.1-10s5-10,11.1-10h54.8c5.2,0,9.5-4.3,9.5-9.5
					c0-5.2-4.3-9.5-9.5-9.5h-54.8c-16.6,0-30.1,13-30.1,29c0,16,13.5,29,30.1,29h112.5c5.2,0,9.5-4.3,9.5-9.5
					C2067.2,1676.6,2063,1672.4,2057.7,1672.4z"/>
			</g>
			<g>
				<path class="st2" d="M1906.5,1584.6c0,10.8,7.8,19.5,17.4,19.5h76.2v-38.9h-76.2C1914.2,1565.1,1906.5,1573.8,1906.5,1584.6z"/>
				<path class="st5" d="M1923.8,1574.6h76.2c5.2,0,9.5-4.3,9.5-9.5s-4.3-9.5-9.5-9.5h-76.2c-14.8,0-26.9,13-26.9,29
					c0,16,12.1,29,26.9,29h76.2c5.2,0,9.5-4.3,9.5-9.5c0-5.2-4.3-9.5-9.5-9.5h-76.2c-4.3,0-7.9-4.6-7.9-10
					C1916,1579.1,1919.6,1574.6,1923.8,1574.6z"/>
			</g>
		</g>
	</g>
	<g>
		<polygon class="st3" points="2099.6,1715.4 2609.6,1934 2616,1747.4 2179.9,1563.4 		"/>
		<path class="st5" d="M2619.7,1738.6l-436-184c-4.5-1.9-9.8,0-12.1,4.3l-80.4,152c-1.2,2.3-1.4,5.1-0.6,7.6
			c0.9,2.5,2.8,4.5,5.2,5.6l510.1,218.6c1.2,0.5,2.5,0.8,3.7,0.8c3.7,0,7.2-2.2,8.7-5.8c2.1-4.8-0.2-10.4-5-12.5l-500.6-214.5
			l71.5-135.2l428,180.6c4.8,2,10.4-0.2,12.4-5.1C2626.8,1746.3,2624.5,1740.7,2619.7,1738.6z"/>
	</g>
	<path class="st5" d="M2145.5,1393.7c-5.1-1-10.1,2.4-11.1,7.5l-26.8,137.9c-1,5.2,2.4,10.1,7.5,11.1c0.6,0.1,1.2,0.2,1.8,0.2
		c4.5,0,8.4-3.1,9.3-7.7l26.8-137.9C2154.1,1399.7,2150.7,1394.7,2145.5,1393.7z"/>
	<path class="st3" d="M2571.4,1403.2c-1-5.2-6-8.5-11.1-7.5c-5.2,1-8.5,6-7.5,11.1l26.8,137.9c0.9,4.5,4.9,7.7,9.3,7.7
		c0.6,0,1.2-0.1,1.8-0.2c5.2-1,8.5-6,7.5-11.1L2571.4,1403.2z"/>
	<g>
		<g>
			<path class="st5" d="M2207.8,786.2h-0.9c-9,0-16.4,7.4-16.4,16.4c0,9,7.4,16.4,16.4,16.4h0.9c9,0,16.4-7.4,16.4-16.4
				C2224.2,793.6,2216.8,786.2,2207.8,786.2z"/>
			<path class="st5" d="M2392.5,786.2h-0.9c-9,0-16.4,7.4-16.4,16.4c0,9,7.4,16.4,16.4,16.4h0.9c9,0,16.4-7.4,16.4-16.4
				C2408.8,793.6,2401.5,786.2,2392.5,786.2z"/>
		</g>
		<g>
			<path class="st9" d="M2256.6,737.7h-61.7c-5.2,0-9.5,4.3-9.5,9.5c0,5.2,4.3,9.5,9.5,9.5h61.7c5.2,0,9.5-4.3,9.5-9.5
				C2266.1,741.9,2261.8,737.7,2256.6,737.7z"/>
			<path class="st9" d="M2437.5,737.7h-61.4c-5.2,0-9.5,4.3-9.5,9.5c0,5.2,4.3,9.5,9.5,9.5h61.4c5.2,0,9.5-4.3,9.5-9.5
				C2447,741.9,2442.8,737.7,2437.5,737.7z"/>
		</g>
	</g>
	<path class="st5" d="M2310.8,898.2H2291c-13.8,0-25-10.3-25-23v-128c0-5.2-4.3-9.5-9.5-9.5s-9.5,4.3-9.5,9.5v128
		c0,23.2,19.7,42,44,42h19.8c5.2,0,9.5-4.3,9.5-9.5C2320.3,902.5,2316,898.2,2310.8,898.2z"/>
</g>
<g>
	<g>
		<path class="st4" d="M806.8,1200.1L806.8,1200.1c-156.7,0-283.8,127.1-283.8,283.8v479.5h567.6v-479.5
			C1090.6,1327.2,963.6,1200.1,806.8,1200.1z"/>
		<path class="st5" d="M806.8,1190.6c-78.3,0-152,30.5-207.4,85.9c-55.4,55.4-85.9,129.1-85.9,207.4v479.5c0,5.2,4.3,9.5,9.5,9.5
			h567.6c5.2,0,9.5-4.3,9.5-9.5v-479.5c0-78.3-30.5-152-85.9-207.4C958.8,1221.1,885.2,1190.6,806.8,1190.6z M1081.1,1953.9H532.5
			v-470c0-73.3,28.5-142.2,80.3-194c51.8-51.8,120.7-80.3,194-80.3s142.2,28.5,194,80.3c51.8,51.8,80.3,120.7,80.3,194V1953.9z"/>
	</g>
	<g>
		<path class="st0" d="M992.1,1898H624c-77.7,0-140.8,63-140.8,140.8v726.1h649.6v-726.1C1132.9,1961,1069.8,1898,992.1,1898z"/>
		<path class="st5" d="M992.1,1888.5H624c-82.9,0-150.3,67.4-150.3,150.3v726.1c0,5.2,4.3,9.5,9.5,9.5h649.6c5.2,0,9.5-4.3,9.5-9.5
			v-726.1C1142.4,1955.9,1075,1888.5,992.1,1888.5z M1123.4,2755.3H492.8v-716.6c0-72.4,58.9-131.3,131.3-131.3h368.1
			c72.4,0,131.3,58.9,131.3,131.3V2755.3z"/>
	</g>
	<g>
		<rect x="721.8" y="1744.1" class="st2" width="168.7" height="153.9"/>
		<path class="st5" d="M890.5,1734.6H721.8c-5.2,0-9.5,4.3-9.5,9.5V1898c0,5.2,4.3,9.5,9.5,9.5h168.7c5.2,0,9.5-4.3,9.5-9.5v-153.9
			C900,1738.8,895.8,1734.6,890.5,1734.6z M881,1888.5H731.3v-134.9H881V1888.5z"/>
	</g>
	<g>
		<path class="st0" d="M404.5,2013.5L32.8,2559.3c-58.6,86,0,205.5,100.8,205.5h0l436.7-641.1L724.1,1898H618.7
			C533.7,1898,453.9,1941,404.5,2013.5z"/>
		<path class="st5" d="M724.1,1888.5H618.7c-87.9,0-170.9,44.8-222,119.7L24.9,2554c-30,44.1-33.1,101-8,148.4
			c23.8,45,67.4,71.9,116.7,71.9c3.1,0,6.1-1.6,7.9-4.2L578.2,2129c3-4.3,1.8-10.2-2.5-13.2c-4.3-3-10.2-1.8-13.2,2.5l-433.8,636.9
			c-40.1-1.7-75.3-24.5-95-61.7c-21.8-41.2-19.1-90.6,6.9-128.8l371.8-545.8c47.5-69.8,124.6-111.4,206.3-111.4h105.4
			c5.2,0,9.5-4.3,9.5-9.5C733.6,1892.7,729.3,1888.5,724.1,1888.5z"/>
	</g>
	<path class="st3" d="M825.6,1524.1H811c-5.2,0-9.5,4.3-9.5,9.5c0,5.2,4.3,9.5,9.5,9.5h14.6c5.2,0,9.5-4.3,9.5-9.5
		C835.1,1528.3,830.9,1524.1,825.6,1524.1z"/>
	<path class="st3" d="M953.8,1524.1h-14.6c-5.2,0-9.5,4.3-9.5,9.5c0,5.2,4.3,9.5,9.5,9.5h14.6c5.2,0,9.5-4.3,9.5-9.5
		C963.3,1528.3,959,1524.1,953.8,1524.1z"/>
	<path class="st3" d="M907.2,1766.1h-68.7c-5.2,0-9.5,4.3-9.5,9.5c0,5.2,4.3,9.5,9.5,9.5h68.7c5.2,0,9.5-4.3,9.5-9.5
		C916.7,1770.4,912.4,1766.1,907.2,1766.1z"/>
	<g>
		<path class="st2" d="M633.8,1633.5c0,104.3,80.6,188.8,180.1,188.8h0c99.4,0,180.1-84.5,180.1-188.8v-176.1l-360.1,54.3V1633.5z"
			/>
		<path class="st5" d="M993.9,1448c-5.2,0-9.5,4.3-9.5,9.5v176.1c0,98.9-76.5,179.3-170.6,179.3c-94,0-170.6-80.4-170.6-179.3
			v-121.7c0-5.2-4.3-9.5-9.5-9.5c-5.2,0-9.5,4.3-9.5,9.5v121.7c0,109.3,85,198.3,189.6,198.3c104.5,0,189.5-89,189.5-198.3v-176.1
			C1003.4,1452.2,999.1,1448,993.9,1448z"/>
	</g>
	<polygon class="st2" points="847.8,1384.9 820.9,1429.2 732.4,1489.7 633.8,1511.8 993.9,1457.5 884.6,1416 	"/>
	<g>
		<path class="st4" d="M641.2,1511.8L641.2,1511.8c95.7,0,177.2-63.3,208.7-152.1l-239.7,149.8
			C620.3,1511,630.6,1511.8,641.2,1511.8z"/>
		<path class="st5" d="M853,1350.7c-4.9-1.8-10.4,0.8-12.1,5.8c-15,42.4-41.6,78.7-77,104.9c-36,26.7-78.5,40.9-122.8,40.9
			c-9.6,0-19.6-0.7-29.6-2.2c-5.2-0.8-10,2.8-10.8,8c-0.8,5.2,2.8,10,8,10.8c10.9,1.6,21.8,2.4,32.3,2.4
			c48.4,0,94.8-15.4,134.1-44.6c38.4-28.5,67.3-67.9,83.6-113.8C860.6,1357.9,858,1352.5,853,1350.7z"/>
	</g>
	<g>
		<path class="st4" d="M1009.3,1456.6l-181.7-147.7C848.9,1396.4,924.5,1456.8,1009.3,1456.6z"/>
		<path class="st5" d="M1009.3,1447.1c-0.1,0-0.2,0-0.3,0c-38.9,0-77.4-13.8-108.4-38.9c-31.3-25.4-54-61.4-63.8-101.6
			c-1.2-5.1-6.4-8.2-11.5-7c-5.1,1.2-8.2,6.4-7,11.5c10.8,44.2,35.8,83.9,70.3,111.9c34.4,27.8,77.1,43.1,120.3,43.1
			c0.1,0,0.2,0,0.3,0c5.2,0,9.5-4.3,9.5-9.5C1018.7,1451.4,1014.5,1447.1,1009.3,1447.1z"/>
	</g>
	<g>
		<path class="st0" d="M1210,2013.5c-49.4-72.5-129.2-115.6-214.1-115.6H890.5l241.3,354.3l349.1,512.6l0,0
			c100.8,0,159.4-119.5,100.8-205.5L1210,2013.5z"/>
		<path class="st5" d="M1217.9,2008.2c-51.1-75-134-119.7-222-119.7H890.5c-5.2,0-9.5,4.3-9.5,9.5c0,5.2,4.3,9.5,9.5,9.5h105.4
			c81.7,0,158.8,41.6,206.3,111.4l371.8,545.8c26.1,38.3,28.7,87.6,6.9,128.8c-19.7,37.2-54.9,59.9-95,61.7l-346.2-508.3l-15.7,10.7
			l349.1,512.6c1.8,2.6,4.7,4.2,7.9,4.2c49.3,0,92.9-26.9,116.7-71.9c25.1-47.4,22-104.3-8-148.4L1217.9,2008.2z"/>
	</g>
	<g>
		<polygon class="st3" points="1229.5,2559.5 1229.5,2764.8 1488.8,2764.8 1380.4,2560.5 		"/>
		<path class="st5" d="M1488.8,2755.3H1239v-186.2l141.3,0.9c0,0,0,0,0.1,0c5.2,0,9.5-4.2,9.5-9.4c0-5.2-4.2-9.5-9.4-9.6l-150.9-1
			c-2.5,0-5,1-6.8,2.8c-1.8,1.8-2.8,4.2-2.8,6.7v205.3c0,5.2,4.3,9.5,9.5,9.5h259.3c5.2,0,9.5-4.3,9.5-9.5
			S1494.1,2755.3,1488.8,2755.3z"/>
	</g>
	<g>
		<g>
			<path class="st5" d="M842,1559.6c-1.6-5-7-7.7-12-6.1c-5,1.6-7.7,7-6.1,12l31.5,96.1c1.9,5.9,0.4,11.9-1.8,15
				c-0.5,0.7-1.7,2.2-3,2.2H833c-5.2,0-9.5,4.3-9.5,9.5c0,5.2,4.3,9.5,9.5,9.5h17.6c7.1,0,13.8-3.7,18.4-10c6.3-8.6,8-21.2,4.5-32
				L842,1559.6z"/>
		</g>
		<path class="st5" d="M843.7,1731.4c-8.6,3.1-18.4,4.8-28.4,4.8c-13.4,0-26.4-3-36.6-8.4c-4.6-2.5-10.4-0.7-12.9,3.9
			c-2.5,4.6-0.7,10.4,3.9,12.9c13.1,7,28.8,10.7,45.6,10.7c12.2,0,24.3-2.1,35-6c4.9-1.8,7.5-7.3,5.7-12.2
			C854.1,1732.1,848.6,1729.6,843.7,1731.4z"/>
	</g>
	<path class="st5" d="M917.8,1519.2c-31.6,0-57.4,25.7-57.4,57.4c0,31.6,25.7,57.4,57.4,57.4c31.6,0,57.4-25.7,57.4-57.4
		C975.2,1544.9,949.4,1519.2,917.8,1519.2z M917.8,1614.9c-21.2,0-38.4-17.2-38.4-38.4s17.2-38.4,38.4-38.4
		c21.2,0,38.4,17.2,38.4,38.4S939,1614.9,917.8,1614.9z"/>
	<path class="st5" d="M742.8,1519.2c-31.6,0-57.4,25.7-57.4,57.4c0,31.6,25.7,57.4,57.4,57.4c31.6,0,57.4-25.7,57.4-57.4
		C800.2,1544.9,774.4,1519.2,742.8,1519.2z M742.8,1614.9c-21.2,0-38.4-17.2-38.4-38.4s17.2-38.4,38.4-38.4
		c21.2,0,38.4,17.2,38.4,38.4S764,1614.9,742.8,1614.9z"/>
	<path class="st5" d="M694.9,1567h-62.1c-5.2,0-9.5,4.3-9.5,9.5c0,5.2,4.3,9.5,9.5,9.5h62.1c5.2,0,9.5-4.3,9.5-9.5
		C704.4,1571.3,700.2,1567,694.9,1567z"/>
	<path class="st5" d="M871.8,1552h-81c-5.2,0-9.5,4.3-9.5,9.5c0,5.2,4.3,9.5,9.5,9.5h81c5.2,0,9.5-4.3,9.5-9.5
		C881.3,1556.3,877,1552,871.8,1552z"/>
	<g>
		<path class="st5" d="M764.2,1567.8c-16.6-8.1-36.1-0.7-38.3,0.2c-4.9,2-7.2,7.5-5.2,12.4c1.5,3.7,5.1,5.9,8.8,5.9
			c1.2,0,2.4-0.2,3.6-0.7c3.5-1.4,15-4.5,22.7-0.8c4.7,2.3,10.4,0.4,12.7-4.4C770.9,1575.8,768.9,1570.1,764.2,1567.8z"/>
		<path class="st5" d="M942.1,1568c-2.2-0.9-21.7-8.4-38.3-0.2c-4.7,2.3-6.7,8-4.3,12.7c2.3,4.7,8,6.7,12.7,4.4
			c7.6-3.7,19-0.7,22.8,0.8c1.2,0.5,2.4,0.7,3.5,0.7c3.8,0,7.3-2.2,8.8-5.9C949.3,1575.5,947,1570,942.1,1568z"/>
	</g>
	<g>
		<g>
			<polygon class="st2" points="649.5,2764.8 815.6,2764.8 846,2438.8 619.2,2438.8 			"/>
			<path class="st5" d="M846,2429.3H619.2c-2.7,0-5.2,1.1-7,3.1c-1.8,2-2.7,4.6-2.4,7.3l30.3,326c0.5,4.9,4.6,8.6,9.5,8.6h166.1
				c4.9,0,9-3.7,9.5-8.6l30.3-326c0.2-2.7-0.6-5.3-2.4-7.3C851.2,2430.4,848.6,2429.3,846,2429.3z M807,2755.3H658.2l-28.6-307
				h205.9L807,2755.3z"/>
		</g>
		<g>
			<polygon class="st2" points="648.6,2397.7 619.2,2438.8 846,2438.8 821,2397.7 			"/>
			<path class="st5" d="M829.1,2392.8c-1.7-2.8-4.8-4.6-8.1-4.6H648.6c-3.1,0-5.9,1.5-7.7,4l-29.4,41.1c-2.1,2.9-2.3,6.7-0.7,9.9
				s4.9,5.2,8.4,5.2H846c3.4,0,6.6-1.9,8.3-4.8c1.7-3,1.6-6.7-0.2-9.6L829.1,2392.8z M637.7,2429.3l15.8-22.1h162.2l13.4,22.1H637.7
				z"/>
		</g>
		<path class="st3" d="M732.6,2513.3c-40.1,0-72.6,32.6-72.6,72.6s32.6,72.6,72.6,72.6c40.1,0,72.6-32.6,72.6-72.6
			S772.6,2513.3,732.6,2513.3z M732.6,2639.5c-29.6,0-53.6-24.1-53.6-53.6s24.1-53.6,53.6-53.6c29.6,0,53.6,24.1,53.6,53.6
			S762.2,2639.5,732.6,2639.5z"/>
	</g>
	<g>
		<g>
			<path class="st2" d="M695.1,2582.6H588.6c-41.9,0-150.8,13.8-150.8,13.8l53.8,168.4h100.2h131.6l-4.3-166.7L695.1,2582.6z"/>
			<path class="st5" d="M724.3,2590.1l-24.1-15.5c-1.5-1-3.3-1.5-5.1-1.5H588.6c-42,0-147.5,13.3-152,13.9
				c-5.2,0.7-8.9,5.4-8.2,10.6c0.7,5.2,5.4,8.9,10.6,8.2c1.1-0.1,108.8-13.7,149.6-13.7h103.7l17.5,11.3l3.9,152H491.6
				c-5.2,0-9.5,4.3-9.5,9.5s4.3,9.5,9.5,9.5h231.8c2.6,0,5-1,6.8-2.9c1.8-1.8,2.8-4.3,2.7-6.9l-4.3-166.7
				C728.6,2594.7,727,2591.8,724.3,2590.1z"/>
		</g>
		<g>
			<g>
				<path class="st2" d="M736.5,2582.6h-98.8l56.4,45.6h42.4c13.3,0,24.1-10.2,24.1-22.8l0,0
					C760.6,2592.8,749.8,2582.6,736.5,2582.6z"/>
				<path class="st5" d="M736.5,2573.1h-98.8c-5.2,0-9.5,4.3-9.5,9.5c0,5.2,4.3,9.5,9.5,9.5h98.8c8.1,0,14.6,6,14.6,13.3
					c0,7.3-6.6,13.3-14.6,13.3h-42.4c-5.2,0-9.5,4.3-9.5,9.5s4.3,9.5,9.5,9.5h42.4c18.5,0,33.6-14.5,33.6-32.3
					S755,2573.1,736.5,2573.1z"/>
			</g>
			<g>
				<path class="st2" d="M736.5,2673.7h-77.1v45.6h77.1c13.3,0,24.1-10.2,24.1-22.8l0,0C760.6,2683.9,749.8,2673.7,736.5,2673.7z"/>
				<path class="st5" d="M736.5,2664.2h-77.1c-5.2,0-9.5,4.3-9.5,9.5c0,5.2,4.3,9.5,9.5,9.5h77.1c8.1,0,14.6,6,14.6,13.3
					s-6.6,13.3-14.6,13.3h-77.1c-5.2,0-9.5,4.3-9.5,9.5s4.3,9.5,9.5,9.5h77.1c18.5,0,33.6-14.5,33.6-32.3S755,2664.2,736.5,2664.2z"
					/>
			</g>
			<g>
				<path class="st2" d="M723.5,2719.3h-64.1l-67.5,45.6h131.6c13.3,0,24.1-10.2,24.1-22.8C747.6,2729.5,736.8,2719.3,723.5,2719.3z
					"/>
				<path class="st5" d="M723.5,2709.8h-64.1c-5.2,0-9.5,4.3-9.5,9.5s4.3,9.5,9.5,9.5h64.1c8.1,0,14.6,6,14.6,13.3
					s-6.6,13.3-14.6,13.3H591.8c-5.2,0-9.5,4.3-9.5,9.5s4.3,9.5,9.5,9.5h131.6c18.5,0,33.6-14.5,33.6-32.3
					C757.1,2724.2,742,2709.8,723.5,2709.8z"/>
			</g>
			<g>
				<path class="st2" d="M748.5,2628.1h-89.2v45.6h89.2c11.2,0,20.4-10.2,20.4-22.8l0,0C768.9,2638.3,759.8,2628.1,748.5,2628.1z"/>
				<path class="st5" d="M748.5,2618.6h-89.2c-5.2,0-9.5,4.3-9.5,9.5s4.3,9.5,9.5,9.5h89.2c6,0,10.9,6,10.9,13.3
					s-4.9,13.3-10.9,13.3h-89.2c-5.2,0-9.5,4.3-9.5,9.5c0,5.2,4.3,9.5,9.5,9.5h89.2c16.5,0,29.9-14.5,29.9-32.3
					C778.4,2633.1,765,2618.6,748.5,2618.6z"/>
			</g>
		</g>
	</g>
	<g>
		<polygon class="st0" points="104.3,2764.8 570.9,2764.8 570.9,2559.5 234.2,2560.5 		"/>
		<path class="st5" d="M570.9,2550C570.9,2550,570.9,2550,570.9,2550l-336.8,1c-5.2,0-9.5,4.3-9.5,9.5c0,5.2,4.3,9.5,9.5,9.5
			c0,0,0,0,0,0l327.2-0.9v186.3H104.3c-5.2,0-9.5,4.3-9.5,9.5s4.3,9.5,9.5,9.5h466.7c5.2,0,9.5-4.3,9.5-9.5v-205.3
			c0-2.5-1-4.9-2.8-6.7C575.9,2551,573.5,2550,570.9,2550z"/>
	</g>
</g>
<g>
	<g>
		<g>
			<path class="st2" d="M2862.6,1777.8v-121.6h-94.7h-94.7v121.6c0,49.4-47.6,89.5-106.4,89.5h201h201
				C2910.2,1867.3,2862.6,1827.2,2862.6,1777.8z"/>
			<path class="st5" d="M2968.9,1857.8c-53.4,0-96.9-35.9-96.9-80v-121.6c0-5.2-4.3-9.5-9.5-9.5h-189.4c-5.2,0-9.5,4.3-9.5,9.5
				v121.6c0,44.1-43.5,80-96.9,80c-5.2,0-9.5,4.3-9.5,9.5c0,5.2,4.3,9.5,9.5,9.5h402.1c5.2,0,9.5-4.3,9.5-9.5
				C2978.4,1862,2974.2,1857.8,2968.9,1857.8z M2635,1857.8c28.9-18,47.7-47.2,47.7-80v-112.1h170.4v112.1c0,32.8,18.8,62,47.7,80
				H2635z"/>
		</g>
		<g>
			<path class="st0" d="M2966.5,1823.7h-397.2c-100.6,0-182.1,81.5-182.1,182.1v758.9h761.5v-758.9
				C3148.6,1905.3,3067.1,1823.7,2966.5,1823.7z"/>
			<path class="st5" d="M2966.5,1814.2h-397.2c-105.7,0-191.6,86-191.6,191.6v758.9c0,5.2,4.3,9.5,9.5,9.5h761.5
				c5.2,0,9.5-4.3,9.5-9.5v-758.9C3158.1,1900.2,3072.1,1814.2,2966.5,1814.2z M3139.1,2755.3h-742.5v-749.4
				c0-95.2,77.4-172.6,172.6-172.6h397.2c95.2,0,172.6,77.4,172.6,172.6V2755.3z"/>
		</g>
		<g>
			<polygon class="st0" points="2248.8,2764.8 2424.8,2764.8 2402.2,1934.7 			"/>
			<path class="st5" d="M2424.8,2755.3h-164.6l151.4-818.9c1-5.2-2.5-10.1-7.6-11.1c-5.2-1-10.1,2.5-11.1,7.6L2239.5,2763
				c-0.5,2.8,0.2,5.6,2,7.8c1.8,2.2,4.5,3.4,7.3,3.4h176c5.2,0,9.5-4.3,9.5-9.5S2430,2755.3,2424.8,2755.3z"/>
		</g>
		<g>
			<path class="st0" d="M3132.9,1934.7l-16.5,726.7c34.4,82.7,123.3,124.3,198.4,93h0c75.1-31.3,108.1-123.7,73.7-206.4
				L3132.9,1934.7z"/>
			<path class="st5" d="M3141.6,1931c-2-4.8-7.6-7.1-12.4-5.1c-4.8,2-7.1,7.6-5.1,12.4l255.6,613.3c32.4,77.7,1.6,164.7-68.5,193.9
				c-33.8,14.1-71.7,12.8-106.8-3.6c-35.3-16.6-63.5-46.5-79.2-84.3c-2-4.8-7.6-7.1-12.4-5.1c-4.8,2-7.1,7.6-5.1,12.4
				c17.6,42.2,49.1,75.6,88.7,94.2c21.5,10.1,44,15.1,66.2,15.1c19.1,0,38-3.7,55.9-11.2c79.8-33.3,115.2-131.4,78.8-218.8
				L3141.6,1931z"/>
		</g>
		<g>
			<g>
				<g>
					<path class="st2" d="M2955.1,2607c-10.5-12.2-25.8-19.3-41.9-19.3h-97.7l-22.1,15l-58.6,162h251.5l-8.1-130.8L2955.1,2607z"/>
					<path class="st5" d="M2986.3,2755.3h-238l52.9-146.4l17.2-11.7h94.8c13.3,0,26,5.8,34.6,15.9l23.2,27c3.4,4,9.4,4.4,13.4,1
						s4.4-9.4,1-13.4l-23.2-27c-12.3-14.3-30.2-22.6-49.1-22.6h-97.7c-1.9,0-3.8,0.6-5.3,1.6l-22.1,15c-1.7,1.1-2.9,2.7-3.6,4.6
						l-58.6,162c-1.1,2.9-0.6,6.2,1.2,8.7c1.8,2.5,4.7,4,7.8,4h251.5c5.2,0,9.5-4.3,9.5-9.5S2991.6,2755.3,2986.3,2755.3z"/>
				</g>
				<g>
					<g>
						<path class="st2" d="M2650.9,2609.8c0,12.2,9.9,22.1,22.1,22.1h143.4l51.8-44.3H2673
							C2660.8,2587.7,2650.9,2597.6,2650.9,2609.8z"/>
						<path class="st5" d="M2868.2,2578.2H2673c-17.4,0-31.6,14.2-31.6,31.6s14.2,31.6,31.6,31.6h143.4c5.2,0,9.5-4.3,9.5-9.5
							s-4.3-9.5-9.5-9.5H2673c-7,0-12.6-5.7-12.6-12.6s5.7-12.6,12.6-12.6h195.2c5.2,0,9.5-4.3,9.5-9.5S2873.5,2578.2,2868.2,2578.2
							z"/>
					</g>
					<g>
						<path class="st2" d="M2650.9,2698.4c0,12.2,9.9,22.1,22.1,22.1h175.3v-44.3H2673C2660.8,2676.2,2650.9,2686.1,2650.9,2698.4z"
							/>
						<path class="st5" d="M2673,2685.7h175.3c5.2,0,9.5-4.3,9.5-9.5s-4.3-9.5-9.5-9.5H2673c-17.4,0-31.6,14.2-31.6,31.6
							s14.2,31.6,31.6,31.6h175.3c5.2,0,9.5-4.3,9.5-9.5c0-5.2-4.3-9.5-9.5-9.5H2673c-7,0-12.6-5.7-12.6-12.6
							S2666.1,2685.7,2673,2685.7z"/>
					</g>
					<g>
						<path class="st2" d="M2734.8,2720.5c-12.2,0-22.1,9.9-22.1,22.1s9.9,22.1,22.1,22.1h175.4l-62-44.3H2734.8z"/>
						<path class="st5" d="M2910.3,2755.3h-175.4c-7,0-12.6-5.7-12.6-12.6s5.7-12.6,12.6-12.6h113.5c5.2,0,9.5-4.3,9.5-9.5
							c0-5.2-4.3-9.5-9.5-9.5h-113.5c-17.4,0-31.6,14.2-31.6,31.6s14.2,31.6,31.6,31.6h175.4c5.2,0,9.5-4.3,9.5-9.5
							S2915.5,2755.3,2910.3,2755.3z"/>
					</g>
					<g>
						<path class="st2" d="M2624.7,2654.1c0,12.2,9.9,22.1,22.1,22.1h201.5V2632h-201.5C2634.6,2632,2624.7,2641.9,2624.7,2654.1z"
							/>
						<path class="st5" d="M2646.8,2641.5h201.5c5.2,0,9.5-4.3,9.5-9.5s-4.3-9.5-9.5-9.5h-201.5c-17.4,0-31.6,14.2-31.6,31.6
							s14.2,31.6,31.6,31.6h201.5c5.2,0,9.5-4.3,9.5-9.5s-4.3-9.5-9.5-9.5h-201.5c-7,0-12.6-5.7-12.6-12.6
							S2639.9,2641.5,2646.8,2641.5z"/>
					</g>
				</g>
			</g>
			<g>
				<polygon class="st0" points="2915.8,2575.6 2918,2764.8 3262.6,2764.8 3260.3,2571.6 				"/>
				<path class="st5" d="M3262.6,2755.3h-335.2l-2-170.2l335-3.9c5.2-0.1,9.4-4.4,9.4-9.6c-0.1-5.2-4.3-9.4-9.5-9.4c0,0-0.1,0-0.1,0
					l-344.5,4.1c-2.5,0-4.9,1.1-6.7,2.9c-1.8,1.8-2.7,4.2-2.7,6.8l2.3,189.1c0.1,5.2,4.3,9.4,9.5,9.4h344.5c5.2,0,9.5-4.3,9.5-9.5
					S3267.8,2755.3,3262.6,2755.3z"/>
			</g>
		</g>
		<g>
			<g>
				<g>
					<g>
						<path class="st4" d="M2766.6,1111.2c0.6,0,1.3,0,1.9,0c0.9,0,1.7,0,2.6,0H2766.6z"/>
						<path class="st4" d="M2776.8,1111.4c-2.8-0.1-5.5-0.1-8.3-0.2c-133.2,0.7-238,52.7-255.1,175.8c-5.9,42.7,0.2,86.2,16.5,126.1
							l104.2,254h321.3c29.9,0,55.9-20.3,63.2-49.3l31.3-124.5C3114.5,1312.8,2968.4,1117.9,2776.8,1111.4z"/>
						<path class="st5" d="M2777.1,1101.9c-1.7-0.1-3.4-0.1-5-0.1c-0.3,0-0.6,0-1,0h-4.5c-0.2,0-0.5,0-0.7,0
							c-70.2,0.7-128.3,15.1-172.7,42.9c-50.6,31.7-80.7,79.2-89.3,141.1c-6.1,43.5-0.1,88.8,17.2,131l104.2,254
							c1.5,3.6,4.9,5.9,8.8,5.9h321.3c34.3,0,64.1-23.2,72.5-56.5l31.2-124c30.2-84.7,17-178.1-36.1-256.3
							C2966.5,1156.7,2874.6,1105.2,2777.1,1101.9z M3041,1490.1c-0.1,0.3-0.2,0.6-0.3,0.9l-31.3,124.5c-6.2,24.8-28.5,42.1-54,42.1
							h-314.9l-101.8-248.1c-16-39-21.5-80.9-15.9-121.1c8.7-62.3,52.2-166.7,245.7-167.6c2.7,0,5.3,0.1,8,0.2
							c91.5,3.1,177.7,51.5,230.7,129.5C3057,1323.7,3069.3,1411,3041,1490.1z"/>
					</g>
					<g>
						<path class="st2" d="M2517.4,1521.2L2517.4,1521.2c0,23.5,19.1,42.6,42.6,42.6h8.2v-85.2h-8.2
							C2536.5,1478.6,2517.4,1497.7,2517.4,1521.2z"/>
						<path class="st5" d="M2560,1488.1h8.2c5.2,0,9.5-4.3,9.5-9.5c0-5.2-4.3-9.5-9.5-9.5h-8.2c-28.7,0-52.1,23.4-52.1,52.1
							c0,28.7,23.4,52.1,52.1,52.1h8.2c5.2,0,9.5-4.3,9.5-9.5c0-5.2-4.3-9.5-9.5-9.5h-8.2c-18.2,0-33.1-14.8-33.1-33.1
							C2526.9,1503,2541.7,1488.1,2560,1488.1z"/>
					</g>
					<g>
						<path class="st2" d="M2683.9,1245.4c-66.5,0-120.4,53.9-120.4,120.4l0,0v184.7c0,109.4,88.7,198,198,198l0,0
							c109.4,0,198-88.7,198-198v-127.7l-12.9-177.4H2683.9z"/>
						<path class="st5" d="M2959.6,1413.3c-5.2,0-9.5,4.3-9.5,9.5v127.7c0,104-84.6,188.5-188.5,188.5s-188.5-84.6-188.5-188.5
							v-184.7c0-61.2,49.8-110.9,110.9-110.9h262.8c5.2,0,9.5-4.3,9.5-9.5c0-5.2-4.3-9.5-9.5-9.5h-262.8
							c-71.6,0-129.9,58.3-129.9,129.9v184.7c0,114.4,93.1,207.5,207.5,207.5c114.4,0,207.5-93.1,207.5-207.5v-127.7
							C2969.1,1417.6,2964.8,1413.3,2959.6,1413.3z"/>
					</g>
					<g>
						<path class="st2" d="M2933.2,1478.6h-8.2v85.2h8.2c23.5,0,42.6-19.1,42.6-42.6l0,0C2975.8,1497.7,2956.7,1478.6,2933.2,1478.6
							z"/>
						<path class="st5" d="M2933.2,1469.1h-8.2c-5.2,0-9.5,4.3-9.5,9.5c0,5.2,4.3,9.5,9.5,9.5h8.2c18.2,0,33.1,14.8,33.1,33.1
							c0,18.2-14.8,33.1-33.1,33.1h-8.2c-5.2,0-9.5,4.3-9.5,9.5c0,5.2,4.3,9.5,9.5,9.5h8.2c28.7,0,52.1-23.4,52.1-52.1
							C2985.3,1492.5,2961.9,1469.1,2933.2,1469.1z"/>
					</g>
					<g>
						<path class="st4" d="M2790.6,1111.2h-255.9c0,0-19.6,193.8,193.8,193.8h101.6c35,0,69.4,10.5,97.4,31.3
							c25.3,18.8,32.7,58.6,32,86.5l87.2-114.7C3023.8,1197.7,2896.9,1111.2,2790.6,1111.2z"/>
						<path class="st5" d="M2955.6,1160.6c-50.6-37.4-110.7-58.9-164.9-58.9h-255.9c-4.9,0-9,3.7-9.5,8.5
							c-0.4,3.5-8,85.8,45.9,145.4c35.2,39,88.2,58.8,157.3,58.8h101.6c33.6,0,66.2,10.5,91.8,29.5c21.9,16.3,28.9,52.5,28.2,78.6
							c-0.1,5.2,4,9.6,9.2,9.8c0.1,0,0.2,0,0.3,0c5.1,0,9.4-4.1,9.5-9.2c0.9-32.1-8.1-73.8-35.8-94.4
							c-28.8-21.4-65.4-33.2-103.1-33.2h-101.6c-63.4,0-111.6-17.6-143.1-52.4c-38.8-42.8-41.9-100.8-41.6-122.4h246.8
							c50.2,0,106.2,20.1,153.6,55.2c49.8,36.8,82.8,84.5,93.2,134.2c1.1,5.1,6.1,8.4,11.2,7.4c5.1-1.1,8.4-6.1,7.4-11.2
							C3044.8,1252,3009.1,1200.2,2955.6,1160.6z"/>
					</g>
				</g>
			</g>
		</g>
		<g>
			<g>
				<path class="st5" d="M2846.1,1463.2L2846.1,1463.2c-10.2,0-18.6,8.4-18.6,18.6c0,10.2,8.4,18.6,18.6,18.6l0,0
					c10.2,0,18.6-8.4,18.6-18.6C2864.7,1471.6,2856.3,1463.2,2846.1,1463.2z"/>
				<path class="st5" d="M2642.5,1463.2L2642.5,1463.2c-10.2,0-18.6,8.4-18.6,18.6c0,10.2,8.4,18.6,18.6,18.6l0,0
					c10.2,0,18.6-8.4,18.6-18.6C2661.1,1471.6,2652.7,1463.2,2642.5,1463.2z"/>
			</g>
			<path class="st5" d="M2772.2,1551c-5.2,0-9.5,4.3-9.5,9.5c0,10.1-8.2,18.4-18.4,18.4s-18.4-8.2-18.4-18.4v-136.6
				c0-5.2-4.3-9.5-9.5-9.5s-9.5,4.3-9.5,9.5v136.6c0,20.6,16.8,37.4,37.4,37.4c20.6,0,37.4-16.8,37.4-37.4
				C2781.7,1555.3,2777.4,1551,2772.2,1551z"/>
			<g>
				<path class="st6" d="M2888.1,1397.9c-1.6-0.6-39.8-14.7-74.8,0.1c-4.8,2.1-7.1,7.6-5,12.5c2.1,4.8,7.6,7.1,12.5,5
					c27.8-11.8,60.3,0,60.7,0.1c1.1,0.4,2.2,0.6,3.3,0.6c3.8,0,7.4-2.3,8.9-6.1C2895.5,1405.2,2893,1399.7,2888.1,1397.9z"/>
				<path class="st6" d="M2676,1398.3c-40.5-21-75.5-0.6-77,0.3c-4.5,2.7-6,8.5-3.3,13c2.7,4.5,8.5,6,13,3.3
					c0.3-0.2,27.3-15.9,58.5,0.3c1.4,0.7,2.9,1.1,4.4,1.1c3.4,0,6.8-1.9,8.4-5.1C2682.4,1406.5,2680.6,1400.7,2676,1398.3z"/>
			</g>
			<path class="st5" d="M2800.9,1637.2h-93.6c-3.3,0-6.4,1.7-8.1,4.5c-1.7,2.8-1.9,6.3-0.4,9.3c10.6,20.7,31.8,33.5,55.3,33.5
				c23.5,0,44.7-12.8,55.3-33.5c1.5-2.9,1.4-6.5-0.4-9.3C2807.2,1638.9,2804.2,1637.2,2800.9,1637.2z M2754.1,1665.6
				c-9.9,0-19.4-3.4-26.9-9.4h53.8C2773.4,1662.1,2763.9,1665.6,2754.1,1665.6z"/>
		</g>
	</g>
	<path class="st5" d="M3056.1,2247.6c-1.2-5.1-6.4-8.2-11.5-7c-5.1,1.2-8.2,6.4-7,11.5l78,321.7c1.1,4.3,4.9,7.3,9.2,7.3
		c0.7,0,1.5-0.1,2.2-0.3c5.1-1.2,8.2-6.4,7-11.5L3056.1,2247.6z"/>
</g>
<g>
	<g>
		<g>
			<path class="st6" d="M2486.8,1869.9h-890.6c-46.7,0-84.6,37.9-84.6,84.6v536.1c0,46.7,37.9,84.6,84.6,84.6h890.6
				c46.7,0,84.6-37.9,84.6-84.6v-536.1C2571.4,1907.8,2533.5,1869.9,2486.8,1869.9z"/>
			<path class="st5" d="M2486.8,1860.4h-890.6c-51.9,0-94.1,42.2-94.1,94.1v536.1c0,51.9,42.2,94.1,94.1,94.1h890.6
				c51.9,0,94.1-42.2,94.1-94.1v-536.1C2580.9,1902.7,2538.7,1860.4,2486.8,1860.4z M2561.9,2490.7c0,41.4-33.7,75.1-75.1,75.1
				h-890.6c-41.4,0-75.1-33.7-75.1-75.1v-536.1c0-41.4,33.7-75.1,75.1-75.1h890.6c41.4,0,75.1,33.7,75.1,75.1V2490.7z"/>
		</g>
		<g>
			<path class="st2" d="M2523.2,1869.9h-890.6c-46.7,0-84.6,37.9-84.6,84.6v536.1c0,46.7,37.9,84.6,84.6,84.6h890.6
				c46.7,0,84.6-37.9,84.6-84.6v-536.1C2607.8,1907.8,2569.9,1869.9,2523.2,1869.9z"/>
			<path class="st5" d="M2523.2,1860.4h-890.6c-51.9,0-94.1,42.2-94.1,94.1v536.1c0,51.9,42.2,94.1,94.1,94.1h890.6
				c51.9,0,94.1-42.2,94.1-94.1v-536.1C2617.3,1902.7,2575.1,1860.4,2523.2,1860.4z M2598.3,2490.7c0,41.4-33.7,75.1-75.1,75.1
				h-890.6c-41.4,0-75.1-33.7-75.1-75.1v-536.1c0-41.4,33.7-75.1,75.1-75.1h890.6c41.4,0,75.1,33.7,75.1,75.1V2490.7z"/>
		</g>
		<g>
			<path class="st2" d="M2251.7,2670.2h-477.5c-46.7,0-84.6,37.9-84.6,84.6h646.8C2336.3,2708,2298.5,2670.2,2251.7,2670.2z"/>
			<path class="st5" d="M2251.7,2660.7h-477.5c-51.9,0-94.1,42.2-94.1,94.1c0,5.2,4.3,9.5,9.5,9.5h646.7c5.2,0,9.5-4.3,9.5-9.5
				C2345.8,2702.9,2303.6,2660.7,2251.7,2660.7z M1699.7,2745.3c4.7-36.9,36.3-65.6,74.5-65.6h477.5c38.2,0,69.8,28.7,74.5,65.6
				H1699.7z"/>
		</g>
		<g>
			<rect x="1841.9" y="2575.3" class="st2" width="342.2" height="94.9"/>
			<path class="st5" d="M2184.1,2565.8h-342.2c-5.2,0-9.5,4.3-9.5,9.5v94.9c0,5.2,4.3,9.5,9.5,9.5h342.2c5.2,0,9.5-4.3,9.5-9.5
				v-94.9C2193.6,2570,2189.3,2565.8,2184.1,2565.8z M2174.6,2660.6h-323.2v-75.9h323.2V2660.6z"/>
		</g>
	</g>
	<path class="st3" d="M2059.7,2140c-41.6,0-75.5,33.9-75.5,75.5s33.9,75.5,75.5,75.5c41.6,0,75.5-33.9,75.5-75.5
		S2101.3,2140,2059.7,2140z M2059.7,2272c-31.2,0-56.5-25.3-56.5-56.5s25.3-56.5,56.5-56.5c31.2,0,56.5,25.3,56.5,56.5
		S2090.9,2272,2059.7,2272z"/>
</g>
<path class="st5" d="M3354.8,2771H35.8c-5.2,0-9.5,4.3-9.5,9.5s4.3,9.5,9.5,9.5h3319c5.2,0,9.5-4.3,9.5-9.5S3360,2771,3354.8,2771z"
	/>
<g>
	<path class="st0" d="M3353.6,2860.3h-293.7c-4.1,0-7.5,3.4-7.5,7.5s3.4,7.5,7.5,7.5h293.7c4.1,0,7.5-3.4,7.5-7.5
		S3357.7,2860.3,3353.6,2860.3z"/>
	<path class="st3" d="M2956.6,2860.3h-107.2c-4.1,0-7.5,3.4-7.5,7.5s3.4,7.5,7.5,7.5h107.2c4.1,0,7.5-3.4,7.5-7.5
		S2960.8,2860.3,2956.6,2860.3z"/>
	<path class="st0" d="M2738.3,2860.3h-714.5c-4.1,0-7.5,3.4-7.5,7.5s3.4,7.5,7.5,7.5h714.5c4.1,0,7.5-3.4,7.5-7.5
		S2742.4,2860.3,2738.3,2860.3z"/>
	<path class="st3" d="M1920.6,2860.3h-789.9c-4.1,0-7.5,3.4-7.5,7.5s3.4,7.5,7.5,7.5h789.9c4.1,0,7.5-3.4,7.5-7.5
		S1924.7,2860.3,1920.6,2860.3z"/>
	<path class="st3" d="M1884.1,2860.3h-175.9c-4.1,0-7.5,3.4-7.5,7.5s3.4,7.5,7.5,7.5h175.9c4.1,0,7.5-3.4,7.5-7.5
		S1888.3,2860.3,1884.1,2860.3z"/>
	<path class="st3" d="M1605.1,2860.3h-107.2c-4.1,0-7.5,3.4-7.5,7.5s3.4,7.5,7.5,7.5h107.2c4.1,0,7.5-3.4,7.5-7.5
		S1609.2,2860.3,1605.1,2860.3z"/>
	<path class="st3" d="M1386.8,2860.3H672.2c-4.1,0-7.5,3.4-7.5,7.5s3.4,7.5,7.5,7.5h714.5c4.1,0,7.5-3.4,7.5-7.5
		S1390.9,2860.3,1386.8,2860.3z"/>
	<path class="st0" d="M569,2860.3H37c-4.1,0-7.5,3.4-7.5,7.5s3.4,7.5,7.5,7.5h532c4.1,0,7.5-3.4,7.5-7.5S573.2,2860.3,569,2860.3z"
		/>
</g>
<g>
	<g>
		<path class="st3" d="M3113.4,2947.6h-329.5c-4.1,0-7.5,3.4-7.5,7.5s3.4,7.5,7.5,7.5h329.5c4.1,0,7.5-3.4,7.5-7.5
			S3117.5,2947.6,3113.4,2947.6z"/>
		<path class="st0" d="M2660.8,2947.6h-825.7c-4.1,0-7.5,3.4-7.5,7.5s3.4,7.5,7.5,7.5h825.7c4.1,0,7.5-3.4,7.5-7.5
			S2665,2947.6,2660.8,2947.6z"/>
		<path class="st3" d="M1735.9,2947.6h-107.2c-4.1,0-7.5,3.4-7.5,7.5s3.4,7.5,7.5,7.5h107.2c4.1,0,7.5-3.4,7.5-7.5
			S1740.1,2947.6,1735.9,2947.6z"/>
	</g>
	<g>
		<path class="st3" d="M1761.8,2947.6h-329.5c-4.1,0-7.5,3.4-7.5,7.5s3.4,7.5,7.5,7.5h329.5c4.1,0,7.5-3.4,7.5-7.5
			S1766,2947.6,1761.8,2947.6z"/>
		<path class="st0" d="M1309.3,2947.6H483.6c-4.1,0-7.5,3.4-7.5,7.5s3.4,7.5,7.5,7.5h825.7c4.1,0,7.5-3.4,7.5-7.5
			S1313.4,2947.6,1309.3,2947.6z"/>
		<path class="st3" d="M384.4,2947.6H277.2c-4.1,0-7.5,3.4-7.5,7.5s3.4,7.5,7.5,7.5h107.2c4.1,0,7.5-3.4,7.5-7.5
			S388.5,2947.6,384.4,2947.6z"/>
	</g>
</g>
<g>
	<g>
		<g>
			<g>
				<path class="st0" d="M2678.8,2226.8c-0.3,66.1,65.2,83.3,65.2,83.3s65.6-16.7,65.9-82.8c0.3-66.1-64.9-156.6-64.9-156.6
					S2679.1,2160.7,2678.8,2226.8z"/>
				<path d="M2745.1,2061.3C2745.1,2061.3,2745.1,2061.3,2745.1,2061.3c-3.1,0-5.9,1.4-7.7,3.9c-2.8,3.8-67.7,93.2-68,161.6
					c-0.1,30.1,12.4,55.7,36.2,74c17.6,13.6,35.3,18.3,36.1,18.5c0.8,0.2,1.6,0.3,2.4,0.3c0.8,0,1.6-0.1,2.3-0.3
					c0.7-0.2,18.5-4.8,36.2-18.2c24-18.1,36.7-43.6,36.8-73.7c0.3-68.4-63.9-158.4-66.7-162.2
					C2751,2062.7,2748.1,2061.3,2745.1,2061.3z M2771.6,2285.6c-11.3,8.7-22.8,13-27.6,14.6c-4.7-1.6-15.8-5.9-26.9-14.5
					c-19.2-14.8-28.9-34.6-28.8-58.9c0.2-49,39.6-113.6,56.6-139.3c16.8,25.8,55.6,90.7,55.4,139.7
					C2800.3,2251.4,2790.6,2271,2771.6,2285.6z"/>
			</g>
			<path d="M2744.4,2232.9C2744.3,2232.9,2744.3,2232.9,2744.4,2232.9c-5.3,0-9.5,4.2-9.5,9.5l-1.2,288.9c0,5.2,4.2,9.5,9.5,9.5
				c0,0,0,0,0,0c5.2,0,9.5-4.2,9.5-9.5l1.2-288.9C2753.8,2237.2,2749.6,2233,2744.4,2232.9z"/>
			<g>
				<g>
					<g>
						<path class="st0" d="M2537.3,2277.3c0,0,13.3,86.2,49.7,122.9c36.4,36.7,82.1,10,82.1,10s27.1-45.5-9.3-82.2
							C2623.4,2291.3,2537.3,2277.3,2537.3,2277.3z"/>
						<path d="M2538.8,2267.9c-3-0.5-6.1,0.5-8.2,2.6c-2.2,2.1-3.2,5.2-2.7,8.2c0.6,3.6,14.2,89.7,52.3,128.2
							c14.5,14.6,32.4,22.2,52.2,22.2c3.4,0,7-0.2,10.5-0.7c17.7-2.3,30.4-9.6,31-10c1.4-0.8,2.6-2,3.4-3.3
							c0.3-0.5,7.8-13.2,10.2-30.9c3.3-23.9-3.9-45.7-21-62.9C2628.4,2282.9,2542.5,2268.5,2538.8,2267.9z M2662.1,2403.2
							c-8.8,4.3-41.6,17.4-68.4-9.7c-13.8-13.9-26.2-38.4-36.1-71c-3.9-12.8-6.6-24.6-8.4-33.2c8.5,1.9,20.3,4.7,33.1,8.7
							c32.5,10.1,57,22.8,70.7,36.7C2679.9,2361.8,2666.5,2394.4,2662.1,2403.2z"/>
					</g>
					<path d="M2675.9,2403.5c-3.7-3.7-9.7-3.8-13.4-0.1c-3.7,3.7-3.8,9.7-0.1,13.4l74.1,74.8c1.9,1.9,4.3,2.8,6.7,2.8
						c2.4,0,4.8-0.9,6.7-2.8c3.7-3.7,3.8-9.7,0.1-13.4L2675.9,2403.5z"/>
				</g>
				<g>
					<g>
						<path class="st0" d="M2818,2410.9c0,0,45.5,27.1,82.2-9.3c36.7-36.4,50.8-122.5,50.8-122.5s-86.2,13.3-122.9,49.7
							C2791.4,2365.1,2818,2410.9,2818,2410.9z"/>
						<path d="M2949.6,2269.7c-3.6,0.6-89.7,14.2-128.2,52.3c-17.2,17-24.6,38.7-21.5,62.7c2.3,17.7,9.6,30.4,10,31
							c0.8,1.4,2,2.6,3.3,3.4c0.5,0.3,13.2,7.8,30.9,10.2c3.8,0.5,7.5,0.8,11.2,0.8c19.5,0,37.2-7.4,51.7-21.8
							c38.5-38.1,52.8-124.1,53.4-127.7c0.5-3-0.5-6.1-2.6-8.2C2955.6,2270.2,2952.6,2269.2,2949.6,2269.7z M2900.3,2401.5
							L2900.3,2401.5L2900.3,2401.5z M2930.3,2324.1c-10.1,32.5-22.8,57-36.7,70.7c-27,26.8-59.7,13.5-68.5,9.1
							c-4.2-8.7-17.2-41.7,9.7-68.4c13.9-13.8,38.4-26.2,71-36.1c12.8-3.9,24.6-6.6,33.2-8.4
							C2937.1,2299.5,2934.2,2311.3,2930.3,2324.1z"/>
					</g>
					<path d="M2811.4,2404.1l-74.8,74.1c-3.7,3.7-3.8,9.7-0.1,13.4c1.9,1.9,4.3,2.8,6.7,2.8c2.4,0,4.8-0.9,6.7-2.8l74.8-74.1
						c3.7-3.7,3.8-9.7,0.1-13.4C2821.1,2400.5,2815.1,2400.4,2811.4,2404.1z"/>
				</g>
			</g>
		</g>
		<g>
			<g>
				<g>
					<polygon class="st10" points="2691.4,2521.1 2585.4,2520.6 2629.7,2779.6 2690.5,2779.9 2793.5,2780.4 2854.3,2780.7 
						2900.4,2522.2 2794.4,2521.7 					"/>
					<path d="M2900.5,2512.7l-315-1.6c0,0,0,0,0,0c-2.8,0-5.4,1.2-7.2,3.4c-1.8,2.1-2.6,5-2.1,7.7l44.3,259c0.8,4.5,4.7,7.9,9.3,7.9
						l224.6,1.1c0,0,0,0,0.1,0c4.6,0,8.5-3.3,9.4-7.8l46.1-258.5c0.5-2.8-0.3-5.6-2.1-7.8C2905.9,2514,2903.3,2512.7,2900.5,2512.7z
						 M2846.4,2771.2l-208.6-1.1l-41-240l292.4,1.5L2846.4,2771.2z"/>
				</g>
			</g>
		</g>
	</g>
</g>
<g>
	<g>
		<path class="st2" d="M1755.4,1782.7V1662h-93.9h-93.9v120.6c0,49-47.2,88.8-105.5,88.8h199.4h199.4
			C1802.7,1871.4,1755.4,1831.7,1755.4,1782.7z"/>
		<path class="st5" d="M1860.9,1861.9c-52.9,0-96-35.6-96-79.3V1662c0-5.2-4.3-9.5-9.5-9.5h-187.8c-5.2,0-9.5,4.3-9.5,9.5v120.6
			c0,43.7-43.1,79.3-96,79.3c-5.2,0-9.5,4.3-9.5,9.5c0,5.2,4.3,9.5,9.5,9.5h398.8c5.2,0,9.5-4.3,9.5-9.5
			C1870.4,1866.2,1866.2,1861.9,1860.9,1861.9z M1530,1861.9c28.5-17.9,47.1-46.8,47.1-79.3v-111.1h168.8v111.1
			c0,32.5,18.6,61.4,47.1,79.3H1530z"/>
	</g>
	<g>
		<g>
			<path class="st3" d="M1858.5,1828.3h-394c-70.8,0-132,40.7-161.7,100c-12.1,24.3-19,51.7-19,80.6v755.9h755.2v-755.9
				c0-30.1-7.4-58.6-20.4-83.6C1988.5,1867.6,1928.1,1828.3,1858.5,1828.3z"/>
			<path class="st5" d="M1858.5,1818.8h-394c-36,0-71,10.1-101.3,29.2c-29.5,18.6-53.3,44.9-68.8,76c-13.2,26.5-20,55.1-20,84.9
				v755.9c0,5.2,4.3,9.5,9.5,9.5h755.2c5.2,0,9.5-4.3,9.5-9.5v-755.9c0-30.6-7.4-61-21.5-88
				C1994.2,1857.9,1929.6,1818.8,1858.5,1818.8z M2029.6,2755.3h-736.2v-746.4c0-26.9,6-52.6,18-76.4c14-28,35.4-51.7,62-68.4
				c27.3-17.2,58.8-26.3,91.2-26.3h394c63.9,0,122.1,35.2,151.7,92c12.7,24.2,19.4,51.6,19.4,79.2V2755.3z"/>
		</g>
	</g>
	<g>
		<path class="st4" d="M1804.1,1139.6h-284.5c-50.8,0-91.9,41.2-91.9,91.9v286.2h468.4v-286.2
			C1896.1,1180.8,1854.9,1139.6,1804.1,1139.6z"/>
		<path class="st5" d="M1804.1,1130.1h-284.5c-55.9,0-101.4,45.5-101.4,101.4v286.2c0,5.2,4.3,9.5,9.5,9.5h468.4
			c5.2,0,9.5-4.3,9.5-9.5v-286.2C1905.6,1175.6,1860,1130.1,1804.1,1130.1z M1886.6,1508.3h-449.4v-276.7c0-45.5,37-82.4,82.4-82.4
			h284.5c45.5,0,82.4,37,82.4,82.4V1508.3z"/>
	</g>
	<g>
		<g>
			<path class="st2" d="M1508.6,1399.7h-59.1c-23.6,0-46,19.2-42.7,44l11.5,69.1c3.7,25.6,19.1,44,42.7,44h59.1
				c2.5,0,4.6-2.1,4.6-4.8l-11.5-147.7C1513.3,1401.9,1511.2,1399.7,1508.6,1399.7z"/>
			<path class="st5" d="M1522.8,1404c-0.2-7.6-6.5-13.8-14.1-13.8h-59.1c-15.5,0-30.8,6.9-40.9,18.4c-9,10.3-13,23.2-11.2,36.4
				c0,0.1,0,0.2,0,0.3l11.5,69c4.6,31.6,25.1,52.1,52.1,52.1h59.1c7.8,0,14.1-6.4,14.1-14.3c0-0.2,0-0.5,0-0.7L1522.8,1404z
				 M1461,1547.4c-17.6,0-30-13.4-33.3-35.9c0-0.1,0-0.1,0-0.2l-11.5-68.9c-1.3-9.8,3-17,6.7-21.2c6.5-7.5,16.5-11.9,26.6-11.9h54.6
				l10.8,138.2H1461z"/>
		</g>
		<g>
			<path class="st2" d="M1874.2,1399.7h-59.1c-2.5,0-4.6,2.1-4.6,4.8l-11.5,147.7c0,2.6,2.1,4.8,4.6,4.8h59.1
				c23.6,0,39-18.4,42.7-44l11.5-69.1C1920.2,1419,1897.8,1399.7,1874.2,1399.7z"/>
			<path class="st5" d="M1874.2,1390.2h-59.1c-7.6,0-13.9,6.1-14.1,13.8l-11.5,147.4c0,0.2,0,0.5,0,0.7c0,7.9,6.3,14.3,14.1,14.3
				h59.1c27,0,47.5-20.4,52.1-52.1l11.5-69c0-0.1,0-0.2,0-0.3c1.8-13.2-2.2-26.1-11.2-36.4C1905,1397.1,1889.7,1390.2,1874.2,1390.2
				z M1907.5,1442.4l-11.5,68.9c0,0.1,0,0.1,0,0.2c-3.3,22.5-15.7,35.9-33.3,35.9h-53.8l10.8-138.2h54.6c10.1,0,20.1,4.4,26.6,11.9
				C1904.6,1425.4,1908.8,1432.6,1907.5,1442.4z"/>
		</g>
	</g>
	<g>
		<path class="st2" d="M1768.3,1232.5h-133.4h-79.5c-50,0-90.6,40.6-90.6,90.6v205.8c0,120.3,86.9,229.3,193.2,229.3h7.8
			c106.2,0,193.2-109,193.2-229.3v-205.8l0,0C1858.9,1273,1818.4,1232.5,1768.3,1232.5z"/>
		<path class="st5" d="M1768.3,1223h-213c-55.2,0-100.1,44.9-100.1,100.1v205.8c0,60.2,21.5,120.6,58.9,165.8
			c18.7,22.6,40.3,40.4,64.3,53c25.3,13.3,52,20,79.4,20h7.8c27.4,0,54.1-6.7,79.4-20c24-12.6,45.6-30.4,64.3-53
			c37.4-45.2,58.9-105.7,58.9-165.8v-205.8C1868.4,1267.9,1823.5,1223,1768.3,1223z M1849.4,1528.9c0,55.8-19.9,111.8-54.6,153.7
			c-35.3,42.6-81.1,66.1-129.1,66.1h-7.8c-48,0-93.8-23.5-129.1-66.1c-34.7-41.9-54.6-97.9-54.6-153.7v-205.8
			c0-44.7,36.4-81.1,81.1-81.1h213c44.7,0,81.1,36.4,81.1,81.1V1528.9z"/>
	</g>
	<path class="st5" d="M1707.9,1645.5c-13.9,7.3-28.6,11-43.5,11h-5c-16.9,0-33.2-4.7-48.7-13.9c-4.5-2.7-10.3-1.2-13,3.3
		c-2.7,4.5-1.2,10.3,3.3,13c18.4,11,38.1,16.6,58.4,16.6h5c18.1,0,35.7-4.4,52.3-13.2c4.6-2.4,6.4-8.2,4-12.8
		C1718.3,1644.8,1712.5,1643,1707.9,1645.5z"/>
	<g>
		<path class="st5" d="M1560.9,1470.7c-10.1,0-18.4,8.3-18.4,18.4c0,10.1,8.3,18.4,18.4,18.4c10.1,0,18.4-8.3,18.4-18.4
			C1579.3,1479,1571,1470.7,1560.9,1470.7z"/>
		<path class="st5" d="M1762.8,1470.7L1762.8,1470.7c-10.1,0-18.4,8.3-18.4,18.4c0,10.1,8.3,18.4,18.4,18.4l0,0
			c10.1,0,18.4-8.3,18.4-18.4C1781.3,1479,1773,1470.7,1762.8,1470.7z"/>
	</g>
	<path class="st5" d="M1689.5,1422.2c-5.2,0-9.5,4.3-9.5,9.5v135.5c0,10-8.1,18.2-18.2,18.2s-18.2-8.1-18.2-18.2
		c0-5.2-4.3-9.5-9.5-9.5c-5.2,0-9.5,4.3-9.5,9.5c0,20.5,16.7,37.2,37.2,37.2s37.2-16.7,37.2-37.2v-135.5
		C1699,1426.5,1694.8,1422.2,1689.5,1422.2z"/>
	<g>
		<path class="st6" d="M1589.8,1405.2h-67.2c-5.2,0-9.5,4.3-9.5,9.5c0,5.2,4.3,9.5,9.5,9.5h67.2c5.2,0,9.5-4.3,9.5-9.5
			C1599.3,1409.5,1595,1405.2,1589.8,1405.2z"/>
		<path class="st6" d="M1801.1,1405.2H1734c-5.2,0-9.5,4.3-9.5,9.5c0,5.2,4.3,9.5,9.5,9.5h67.2c5.2,0,9.5-4.3,9.5-9.5
			C1810.6,1409.5,1806.4,1405.2,1801.1,1405.2z"/>
	</g>
	<g>
		<path class="st4" d="M1777,1110.8h-234.8c0,0-9.4,121.7,92.5,121.7h105.6c69.8,0,118.6,55.9,118.6,90.6l37.1,0.9v-92.4
			C1896.5,1156.2,1827.7,1110.8,1777,1110.8z"/>
		<path class="st5" d="M1777,1101.3h-234.8c-5,0-9.1,3.8-9.5,8.8c-0.2,2.6-4.6,65.1,30.9,103.4c17.5,18.9,41.4,28.5,71.2,28.5h105.6
			c29,0,57.2,10.6,79.2,29.9c18.2,15.9,29.9,36,29.9,51.1c0,5.2,4.3,9.5,9.5,9.5c5.2,0,9.5-4.3,9.5-9.5
			c0-40.3-53.8-100.1-128.1-100.1h-105.6c-24.2,0-43.4-7.5-57.2-22.3c-22.7-24.5-25.9-63.1-26.1-80.3H1777c26.7,0,56.6,13.4,78,35
			c14.5,14.6,31.7,39.7,31.5,76.2v92.4c0,5.2,4.3,9.5,9.5,9.5c5.2,0,9.5-4.3,9.5-9.5v-92.3c0.3-43-20-72.5-37-89.7
			C1843.6,1116.9,1808.5,1101.3,1777,1101.3z"/>
	</g>
	<g>
		<circle class="st6" cx="1541.1" cy="1577.9" r="25.7"/>
		<circle class="st6" cx="1782.6" cy="1577.9" r="25.7"/>
	</g>
	<g>
		<polygon class="st2" points="1527.8,2592 1386.2,2593.4 1472.2,2763 1656.8,2763 1575.2,2666.4 		"/>
		<path class="st5" d="M1582.9,2660.8l-47.1-73.9c-1.8-2.8-4.8-4.5-8.1-4.4l-141.6,1.4c-3.3,0-6.3,1.8-8,4.6
			c-1.7,2.8-1.8,6.3-0.4,9.2l85.9,169.6c1.6,3.2,4.9,5.2,8.5,5.2h184.7c3.7,0,7.1-2.1,8.6-5.5c1.6-3.4,1-7.3-1.4-10.1L1582.9,2660.8
			z M1478,2753.5l-76.4-150.7l121-1.2l44.6,70c0.2,0.4,0.5,0.7,0.8,1l68.4,80.9H1478z"/>
	</g>
	<g>
		<path class="st2" d="M1545.8,2607.7c0,0,56.4,125,77.4,132.7c21,7.7,41-14.5,32.1-36.5C1643.1,2674,1545.8,2607.7,1545.8,2607.7z"
			/>
		<path class="st5" d="M1551.2,2599.8c-3.5-2.4-8.2-2.2-11.5,0.6c-3.3,2.7-4.3,7.3-2.6,11.2c0.1,0.3,14.4,31.9,31.1,63.9
			c31,59.6,43.5,70.8,51.7,73.8c3.9,1.4,7.9,2.1,11.9,2.1c9.1,0,18-3.7,24.7-10.7c10.4-10.8,13.3-26.3,7.6-40.4
			C1651.2,2668.7,1561.4,2606.8,1551.2,2599.8z M1642.9,2727.5c-4.4,4.6-10.6,6.1-16.3,4c-1.1-0.5-11.3-6.5-42-65.6
			c-5.3-10.1-10.3-20.2-14.6-29.2c6.3,4.7,13.2,9.9,20.1,15.4c43.3,34,53.9,49.3,56.4,55.4
			C1649.9,2715.9,1646.9,2723.4,1642.9,2727.5z"/>
	</g>
	<g>
		<path class="st2" d="M1606.7,2714.6h-60.1c-27.7,0-50.1,22.4-50.1,50.1l0,0h160.4l0,0C1656.8,2737.1,1634.4,2714.6,1606.7,2714.6z
			"/>
		<path class="st5" d="M1606.7,2705.1h-60.1c-32.9,0-59.6,26.7-59.6,59.6c0,5.2,4.3,9.5,9.5,9.5h160.4c5.2,0,9.5-4.3,9.5-9.5
			C1666.3,2731.9,1639.6,2705.1,1606.7,2705.1z M1507.1,2755.3c4.3-17.8,20.4-31.1,39.5-31.1h60.1c19.1,0,35.2,13.3,39.5,31.1
			H1507.1z"/>
	</g>
	<g>
		<path class="st2" d="M1557.6,2607.2c-6.9-9.6-18-15.3-29.8-15.3h-100l118.8,77.3l51.6,61.2c5.8,6.9,15.6,8.9,23.7,4.9l0,0
			c10.8-5.4,14.2-19.2,7.1-29L1557.6,2607.2z"/>
		<path class="st5" d="M1565.3,2601.7c-8.7-12-22.7-19.2-37.5-19.2h-100c-5.2,0-9.5,4.3-9.5,9.5s4.3,9.5,9.5,9.5h100
			c8.7,0,17,4.2,22.1,11.3l71.5,99.2c1.8,2.4,2.3,5.4,1.6,8.3c-0.7,2.9-2.6,5.3-5.3,6.6c-4.2,2.1-9.2,1.1-12.2-2.5l-51.6-61.2
			c-3.4-4-9.4-4.5-13.4-1.1c-4,3.4-4.5,9.4-1.1,13.4l51.6,61.2c5.7,6.7,13.9,10.4,22.2,10.4c4.4,0,8.9-1,13-3.1
			c7.6-3.8,13.2-10.8,15.2-19.1s0.3-17-4.6-23.9L1565.3,2601.7z"/>
	</g>
	<g>
		<path class="st2" d="M1529.2,2641.9l-33.2,26.5l45.8,62.1c5.8,6.9,15.6,8.9,23.7,4.9l0,0c10.8-5.4,14.2-19.2,7.1-29L1529.2,2641.9
			z"/>
		<path class="st5" d="M1537.1,2636.6c-2.9-4.4-8.8-5.5-13.2-2.6c-4.4,2.9-5.5,8.8-2.6,13.2l43.5,64.5c0.1,0.1,0.1,0.2,0.2,0.2
			c1.8,2.4,2.3,5.4,1.6,8.3c-0.7,2.9-2.6,5.3-5.3,6.6c-4.1,2.1-9,1.1-12-2.3l-45.6-61.8c-3.1-4.2-9.1-5.1-13.3-2
			c-4.2,3.1-5.1,9.1-2,13.3l45.8,62.1c0.1,0.2,0.2,0.3,0.4,0.5c5.7,6.7,13.9,10.4,22.2,10.4c4.4,0,8.9-1,13-3.1
			c7.6-3.8,13.2-10.8,15.2-19.1c2-8.2,0.4-16.9-4.5-23.8L1537.1,2636.6z"/>
	</g>
	<g>
		<g>
			<path class="st3" d="M1089.6,2755.2L1089.6,2755.2c74.5,31,165.2-16.4,202.5-105.9l10.8-719.8l-280.6,607.4
				C984.9,2626.4,1015.1,2724.2,1089.6,2755.2z"/>
			<path class="st5" d="M1306.9,1920.9c-4.8-2.2-10.4-0.1-12.6,4.6l-280.6,607.4c-0.1,0.1-0.1,0.2-0.1,0.3
				c-18.9,45.4-22,94.2-8.6,137.6c13.6,44,42.3,77.1,81,93.2c16.5,6.9,34,10.3,51.7,10.3c23.8,0,48.2-6.2,71.6-18.4
				c40.2-21,72.8-57.6,91.7-103c2-4.8-0.3-10.4-5.1-12.4c-4.8-2-10.4,0.3-12.4,5.1c-17.2,41.3-46.7,74.5-82.9,93.4
				c-35.7,18.7-73.7,21.3-107.1,7.4c-69.5-29-97.4-121.3-62.3-205.8l280.6-607.2C1313.7,1928.7,1311.7,1923.1,1306.9,1920.9z"/>
		</g>
		<g>
			<polygon class="st3" points="1187.8,2573.2 1118.4,2764.8 1472.2,2763 1471.2,2571.4 			"/>
			<path class="st5" d="M1477.8,2564.6c-1.8-1.8-4.2-2.7-6.7-2.7c0,0,0,0-0.1,0l-283.4,1.8c-5.2,0-9.5,4.3-9.4,9.6
				c0,5.2,4.3,9.4,9.5,9.4c0,0,0,0,0.1,0l273.9-1.7l0.9,172.6l-344.2,1.7c-5.2,0-9.5,4.3-9.5,9.5c0,5.2,4.3,9.5,9.5,9.5c0,0,0,0,0,0
				l353.7-1.8c2.5,0,4.9-1,6.7-2.8c1.8-1.8,2.8-4.2,2.7-6.7l-1-191.6C1480.6,2568.8,1479.6,2566.4,1477.8,2564.6z"/>
		</g>
	</g>
	<path class="st5" d="M1421.6,2202.7c-4.8-2-10.4,0.2-12.4,5.1l-151.1,360c-2,4.8,0.2,10.4,5.1,12.4c1.2,0.5,2.4,0.7,3.7,0.7
		c3.7,0,7.2-2.2,8.8-5.8l151.1-360C1428.7,2210.3,1426.5,2204.7,1421.6,2202.7z"/>
	<g>
		<g>
			<path class="st2" d="M2055.5,2625.7c-9.2-10.8-22.7-17-36.9-17h-86.1l-19.5,13.3l-3.5,142.8H2016H2139l54-99.5l-117.1-15.7
				L2055.5,2625.7z"/>
			<path class="st5" d="M2194.3,2655.8l-113.5-15.2l-18.1-21.1c-11.1-12.9-27.1-20.3-44.1-20.3h-86.1c-1.9,0-3.8,0.6-5.3,1.6
				l-19.5,13.3c-2.5,1.7-4.1,4.6-4.2,7.6l-3.5,142.8c-0.1,2.6,0.9,5,2.7,6.9c1.8,1.8,4.2,2.9,6.8,2.9H2139c5.2,0,9.5-4.3,9.5-9.5
				s-4.3-9.5-9.5-9.5h-219.8l3.1-128.2l13.1-8.9h83.2c11.4,0,22.3,5,29.7,13.7l20.4,23.8c1.5,1.8,3.6,2.9,5.9,3.2l117.1,15.7
				c5.2,0.7,10-3,10.7-8.2C2203.1,2661.3,2199.5,2656.5,2194.3,2655.8z"/>
		</g>
		<g>
			<g>
				<path class="st2" d="M1879.4,2628.2L1879.4,2628.2c0,10.8,8.7,19.5,19.5,19.5h34.3l45.7-39H1899
					C1888.2,2608.7,1879.4,2617.4,1879.4,2628.2z"/>
				<path class="st5" d="M1978.9,2599.2H1899c-16,0-29,13-29,29s13,29,29,29h34.3c5.2,0,9.5-4.3,9.5-9.5c0-5.2-4.3-9.5-9.5-9.5H1899
					c-5.5,0-10-4.5-10-10s4.5-10,10-10h79.9c5.2,0,9.5-4.3,9.5-9.5S1984.1,2599.2,1978.9,2599.2z"/>
			</g>
			<g>
				<path class="st2" d="M1879.4,2706.2L1879.4,2706.2c0,10.8,8.7,19.5,19.5,19.5h62.4v-39H1899
					C1888.2,2686.7,1879.4,2695.5,1879.4,2706.2z"/>
				<path class="st5" d="M1899,2696.2h62.4c5.2,0,9.5-4.3,9.5-9.5s-4.3-9.5-9.5-9.5H1899c-16,0-29,13-29,29s13,29,29,29h62.4
					c5.2,0,9.5-4.3,9.5-9.5s-4.3-9.5-9.5-9.5H1899c-5.5,0-10-4.5-10-10S1893.4,2696.2,1899,2696.2z"/>
			</g>
			<g>
				<path class="st2" d="M1909.5,2725.7c-10.8,0-19.5,8.7-19.5,19.5l0,0c0,10.8,8.7,19.5,19.5,19.5H2016l-54.6-39H1909.5z"/>
				<path class="st5" d="M2016,2755.3h-106.5c-5.5,0-10-4.5-10-10s4.5-10,10-10h51.8c5.2,0,9.5-4.3,9.5-9.5s-4.3-9.5-9.5-9.5h-51.8
					c-16,0-29,13-29,29s13,29,29,29H2016c5.2,0,9.5-4.3,9.5-9.5S2021.2,2755.3,2016,2755.3z"/>
			</g>
			<g>
				<path class="st2" d="M1872.7,2667.2L1872.7,2667.2c0,10.8,7.4,19.5,16.5,19.5h72.1v-39h-72.1
					C1880.1,2647.7,1872.7,2656.4,1872.7,2667.2z"/>
				<path class="st5" d="M1889.2,2657.2h72.1c5.2,0,9.5-4.3,9.5-9.5c0-5.2-4.3-9.5-9.5-9.5h-72.1c-14.3,0-26,13-26,29
					c0,16,11.6,29,26,29h72.1c5.2,0,9.5-4.3,9.5-9.5s-4.3-9.5-9.5-9.5h-72.1c-3.7,0-7-4.7-7-10S1885.5,2657.2,1889.2,2657.2z"/>
			</g>
		</g>
	</g>
	<g>
		<g>
			<g>
				<path class="st3" d="M2020.1,1929.5l10.8,719.8c37.3,89.6,128,137,202.5,105.9l0,0c74.5-31,104.7-128.8,67.3-218.4
					L2020.1,1929.5z"/>
				<path class="st5" d="M2309.3,2532.9l-280.6-607.4c-2.2-4.8-7.8-6.8-12.6-4.6c-4.8,2.2-6.8,7.8-4.6,12.6l280.6,607.2
					c17.1,41.2,19.9,85.4,7.9,124.5c-11.9,38.5-36.8,67.4-70.2,81.3s-71.4,11.3-107.1-7.4c-36.3-19-65.7-52.2-82.9-93.4
					c-2-4.8-7.6-7.1-12.4-5.1c-4.8,2-7.1,7.6-5.1,12.4c18.9,45.4,51.5,81.9,91.7,103c23.4,12.2,47.7,18.4,71.6,18.4
					c17.7,0,35.2-3.4,51.7-10.3c38.7-16.1,67.5-49.2,81-93.2c13.4-43.4,10.3-92.2-8.6-137.6
					C2309.4,2533.1,2309.4,2533,2309.3,2532.9z"/>
			</g>
			<g>
				<polygon class="st3" points="1982.8,2571.4 1981.8,2763 2204.5,2764.8 2135.2,2573.2 				"/>
				<path class="st5" d="M2204.6,2755.3l-213.3-1.7l0.9-172.6l142.9,1.7c0,0,0.1,0,0.1,0c5.2,0,9.4-4.2,9.5-9.4
					c0.1-5.2-4.1-9.5-9.4-9.6l-152.5-1.8c-2.5-0.1-5,1-6.8,2.7s-2.8,4.2-2.8,6.7l-1,191.6c0,5.2,4.2,9.5,9.4,9.5l222.8,1.8
					c0,0,0.1,0,0.1,0c5.2,0,9.5-4.2,9.5-9.4C2214.1,2759.6,2209.9,2755.3,2204.6,2755.3z"/>
			</g>
		</g>
		<path class="st5" d="M1913.8,2207.7c-2-4.8-7.6-7.1-12.4-5.1c-4.8,2-7.1,7.6-5.1,12.4l151.1,360c1.5,3.6,5.1,5.8,8.8,5.8
			c1.2,0,2.5-0.2,3.7-0.7c4.8-2,7.1-7.6,5.1-12.4L1913.8,2207.7z"/>
	</g>
</g>
<g>
	<g>
		<g>
			<path class="st6" d="M2468.4,1866.1h-890.6c-46.7,0-84.6,37.9-84.6,84.6v536.1c0,46.7,37.9,84.6,84.6,84.6h890.6
				c46.7,0,84.6-37.9,84.6-84.6v-536.1C2553,1904,2515.1,1866.1,2468.4,1866.1z"/>
			<path class="st5" d="M2468.4,1856.6h-890.6c-51.9,0-94.1,42.2-94.1,94.1v536.1c0,51.9,42.2,94.1,94.1,94.1h890.6
				c51.9,0,94.1-42.2,94.1-94.1v-536.1C2562.5,1898.8,2520.3,1856.6,2468.4,1856.6z M2543.5,2486.8c0,41.4-33.7,75.1-75.1,75.1
				h-890.6c-41.4,0-75.1-33.7-75.1-75.1v-536.1c0-41.4,33.7-75.1,75.1-75.1h890.6c41.4,0,75.1,33.7,75.1,75.1V2486.8z"/>
		</g>
		<g>
			<path class="st2" d="M2504.7,1866.1h-890.6c-46.7,0-84.6,37.9-84.6,84.6v536.1c0,46.7,37.9,84.6,84.6,84.6h890.6
				c46.7,0,84.6-37.9,84.6-84.6v-536.1C2589.4,1904,2551.5,1866.1,2504.7,1866.1z"/>
			<path class="st5" d="M2504.7,1856.6h-890.6c-51.9,0-94.1,42.2-94.1,94.1v536.1c0,51.9,42.2,94.1,94.1,94.1h890.6
				c51.9,0,94.1-42.2,94.1-94.1v-536.1C2598.9,1898.8,2556.6,1856.6,2504.7,1856.6z M2579.9,2486.8c0,41.4-33.7,75.1-75.1,75.1
				h-890.6c-41.4,0-75.1-33.7-75.1-75.1v-536.1c0-41.4,33.7-75.1,75.1-75.1h890.6c41.4,0,75.1,33.7,75.1,75.1V2486.8z"/>
		</g>
		<g>
			<path class="st2" d="M2233.3,2666.3h-477.5c-46.7,0-84.6,37.9-84.6,84.6h646.8C2317.9,2704.2,2280,2666.3,2233.3,2666.3z"/>
			<path class="st5" d="M2233.3,2656.8h-477.5c-51.9,0-94.1,42.2-94.1,94.1c0,5.2,4.3,9.5,9.5,9.5h646.7c5.2,0,9.5-4.3,9.5-9.5
				C2327.4,2699,2285.2,2656.8,2233.3,2656.8z M1681.3,2741.4c4.7-36.9,36.3-65.6,74.5-65.6h477.5c38.2,0,69.8,28.7,74.5,65.6
				H1681.3z"/>
		</g>
		<g>
			<rect x="1823.4" y="2571.4" class="st2" width="342.2" height="94.9"/>
			<path class="st5" d="M2165.6,2561.9h-342.2c-5.2,0-9.5,4.3-9.5,9.5v94.9c0,5.2,4.3,9.5,9.5,9.5h342.2c5.2,0,9.5-4.3,9.5-9.5
				v-94.9C2175.1,2566.2,2170.9,2561.9,2165.6,2561.9z M2156.1,2656.8h-323.2v-75.9h323.2V2656.8z"/>
		</g>
	</g>
	<path class="st3" d="M2041.3,2136.2c-41.6,0-75.5,33.9-75.5,75.5s33.9,75.5,75.5,75.5s75.5-33.9,75.5-75.5
		S2082.9,2136.2,2041.3,2136.2z M2041.3,2268.2c-31.2,0-56.5-25.3-56.5-56.5s25.3-56.5,56.5-56.5c31.2,0,56.5,25.3,56.5,56.5
		S2072.4,2268.2,2041.3,2268.2z"/>
</g>
<g>
	<g>
		<path class="st0" d="M982.4,336.1c-4.1,0-7.5,3.4-7.5,7.5c0,18.4-14.9,33.3-33.3,33.3c-4.1,0-7.5,3.4-7.5,7.5
			c0,4.1,3.4,7.5,7.5,7.5c26.6,0,48.3-21.7,48.3-48.3C989.9,339.5,986.5,336.1,982.4,336.1z"/>
		<path class="st0" d="M1023.2,376.9c-18.4,0-33.3-14.9-33.3-33.3c0-4.1-3.4-7.5-7.5-7.5c-4.1,0-7.5,3.4-7.5,7.5
			c0,26.6,21.7,48.3,48.3,48.3c4.1,0,7.5-3.4,7.5-7.5C1030.7,380.3,1027.4,376.9,1023.2,376.9z"/>
	</g>
	<g>
		<path class="st0" d="M941.6,376.9c-4.1,0-7.5,3.4-7.5,7.5c0,4.1,3.4,7.5,7.5,7.5c18.4,0,33.3,14.9,33.3,33.3
			c0,4.1,3.4,7.5,7.5,7.5c4.1,0,7.5-3.4,7.5-7.5C989.9,398.6,968.2,376.9,941.6,376.9z"/>
		<path class="st0" d="M1023.2,376.9c-26.6,0-48.3,21.7-48.3,48.3c0,4.1,3.4,7.5,7.5,7.5c4.1,0,7.5-3.4,7.5-7.5
			c0-18.4,14.9-33.3,33.3-33.3c4.1,0,7.5-3.4,7.5-7.5C1030.7,380.3,1027.4,376.9,1023.2,376.9z"/>
	</g>
</g>
<g>
	<g>
		<path class="st0" d="M2461.7,23.7c-4.1,0-7.5,3.4-7.5,7.5c0,18.4-14.9,33.3-33.3,33.3c-4.1,0-7.5,3.4-7.5,7.5
			c0,4.1,3.4,7.5,7.5,7.5c26.6,0,48.3-21.7,48.3-48.3C2469.2,27.1,2465.8,23.7,2461.7,23.7z"/>
		<path class="st0" d="M2502.5,64.5c-18.4,0-33.3-14.9-33.3-33.3c0-4.1-3.4-7.5-7.5-7.5s-7.5,3.4-7.5,7.5
			c0,26.6,21.7,48.3,48.3,48.3c4.1,0,7.5-3.4,7.5-7.5C2510,67.9,2506.6,64.5,2502.5,64.5z"/>
	</g>
	<g>
		<path class="st0" d="M2420.9,64.5c-4.1,0-7.5,3.4-7.5,7.5c0,4.1,3.4,7.5,7.5,7.5c18.4,0,33.3,14.9,33.3,33.3
			c0,4.1,3.4,7.5,7.5,7.5s7.5-3.4,7.5-7.5C2469.2,86.2,2447.5,64.5,2420.9,64.5z"/>
		<path class="st0" d="M2502.5,64.5c-26.6,0-48.3,21.7-48.3,48.3c0,4.1,3.4,7.5,7.5,7.5s7.5-3.4,7.5-7.5c0-18.4,14.9-33.3,33.3-33.3
			c4.1,0,7.5-3.4,7.5-7.5C2510,67.9,2506.6,64.5,2502.5,64.5z"/>
	</g>
</g>
<g>
	<g>
		<path class="st0" d="M1426.6,0c-4.1,0-7.5,3.4-7.5,7.5c0,18.4-14.9,33.3-33.3,33.3c-4.1,0-7.5,3.4-7.5,7.5s3.4,7.5,7.5,7.5
			c26.6,0,48.3-21.7,48.3-48.3C1434.1,3.4,1430.7,0,1426.6,0z"/>
		<path class="st0" d="M1467.4,40.8c-18.4,0-33.3-14.9-33.3-33.3c0-4.1-3.4-7.5-7.5-7.5s-7.5,3.4-7.5,7.5
			c0,26.6,21.7,48.3,48.3,48.3c4.1,0,7.5-3.4,7.5-7.5S1471.5,40.8,1467.4,40.8z"/>
	</g>
	<g>
		<path class="st0" d="M1385.8,40.8c-4.1,0-7.5,3.4-7.5,7.5s3.4,7.5,7.5,7.5c18.4,0,33.3,14.9,33.3,33.3c0,4.1,3.4,7.5,7.5,7.5
			s7.5-3.4,7.5-7.5C1434.1,62.5,1412.4,40.8,1385.8,40.8z"/>
		<path class="st0" d="M1467.4,40.8c-26.6,0-48.3,21.7-48.3,48.3c0,4.1,3.4,7.5,7.5,7.5s7.5-3.4,7.5-7.5c0-18.4,14.9-33.3,33.3-33.3
			c4.1,0,7.5-3.4,7.5-7.5S1471.5,40.8,1467.4,40.8z"/>
	</g>
</g>
<g>
	<g>
		<path class="st3" d="M3443.4,1536.6c-4.1,0-7.5,3.4-7.5,7.5c0,18.4-14.9,33.3-33.3,33.3c-4.1,0-7.5,3.4-7.5,7.5s3.4,7.5,7.5,7.5
			c26.6,0,48.3-21.7,48.3-48.3C3450.9,1540,3447.5,1536.6,3443.4,1536.6z"/>
		<path class="st3" d="M3484.2,1577.4c-18.4,0-33.3-14.9-33.3-33.3c0-4.1-3.4-7.5-7.5-7.5c-4.1,0-7.5,3.4-7.5,7.5
			c0,26.6,21.7,48.3,48.3,48.3c4.1,0,7.5-3.4,7.5-7.5S3488.3,1577.4,3484.2,1577.4z"/>
	</g>
	<g>
		<path class="st3" d="M3402.6,1577.4c-4.1,0-7.5,3.4-7.5,7.5s3.4,7.5,7.5,7.5c18.4,0,33.3,14.9,33.3,33.3c0,4.1,3.4,7.5,7.5,7.5
			c4.1,0,7.5-3.4,7.5-7.5C3450.9,1599.1,3429.2,1577.4,3402.6,1577.4z"/>
		<path class="st3" d="M3484.2,1577.4c-26.6,0-48.3,21.7-48.3,48.3c0,4.1,3.4,7.5,7.5,7.5c4.1,0,7.5-3.4,7.5-7.5
			c0-18.4,14.9-33.3,33.3-33.3c4.1,0,7.5-3.4,7.5-7.5S3488.3,1577.4,3484.2,1577.4z"/>
	</g>
</g>
<g>
	<g>
		<path class="st3" d="M1114.5,825.3c-4.1,0-7.5,3.4-7.5,7.5c0,18.4-14.9,33.3-33.3,33.3c-4.1,0-7.5,3.4-7.5,7.5
			c0,4.1,3.4,7.5,7.5,7.5c26.6,0,48.3-21.7,48.3-48.3C1122,828.7,1118.6,825.3,1114.5,825.3z"/>
		<path class="st3" d="M1155.3,866.1c-18.4,0-33.3-14.9-33.3-33.3c0-4.1-3.4-7.5-7.5-7.5c-4.1,0-7.5,3.4-7.5,7.5
			c0,26.6,21.7,48.3,48.3,48.3c4.1,0,7.5-3.4,7.5-7.5C1162.8,869.5,1159.4,866.1,1155.3,866.1z"/>
	</g>
	<g>
		<path class="st3" d="M1073.6,866.1c-4.1,0-7.5,3.4-7.5,7.5c0,4.1,3.4,7.5,7.5,7.5c18.4,0,33.3,14.9,33.3,33.3
			c0,4.1,3.4,7.5,7.5,7.5c4.1,0,7.5-3.4,7.5-7.5C1122,887.8,1100.3,866.1,1073.6,866.1z"/>
		<path class="st3" d="M1155.3,866.1c-26.6,0-48.3,21.7-48.3,48.3c0,4.1,3.4,7.5,7.5,7.5c4.1,0,7.5-3.4,7.5-7.5
			c0-18.4,14.9-33.3,33.3-33.3c4.1,0,7.5-3.4,7.5-7.5C1162.8,869.5,1159.4,866.1,1155.3,866.1z"/>
	</g>
</g>
<g>
	<g>
		<path class="st3" d="M85.4,1185.1c-15.9,15.9-41.7,15.9-57.6,0c-2.9-2.9-7.7-2.9-10.6,0c-2.9,2.9-2.9,7.7,0,10.6
			c10.9,10.9,25.1,16.3,39.4,16.3c14.3,0,28.5-5.4,39.4-16.3c2.9-2.9,2.9-7.7,0-10.6C93.1,1182.2,88.4,1182.2,85.4,1185.1z"/>
		<path class="st3" d="M96,1185.1c-2.9-2.9-7.7-2.9-10.6,0c-10.5,10.5-16.3,24.5-16.3,39.4c0,14.9,5.8,28.9,16.3,39.4
			c1.5,1.5,3.4,2.2,5.3,2.2c1.9,0,3.8-0.7,5.3-2.2c2.9-2.9,2.9-7.7,0-10.6c-7.7-7.7-11.9-17.9-11.9-28.8c0-10.9,4.2-21.1,11.9-28.8
			C99,1192.8,99,1188,96,1185.1z"/>
	</g>
	<g>
		<path class="st3" d="M17.2,1185.1c-2.9,2.9-2.9,7.7,0,10.6c7.7,7.7,11.9,17.9,11.9,28.8c0,10.9-4.2,21.1-11.9,28.8
			c-2.9,2.9-2.9,7.7,0,10.6c1.5,1.5,3.4,2.2,5.3,2.2c1.9,0,3.8-0.7,5.3-2.2c10.5-10.5,16.3-24.5,16.3-39.4
			c0-14.9-5.8-28.9-16.3-39.4C24.9,1182.2,20.2,1182.2,17.2,1185.1z"/>
		<path class="st3" d="M56.6,1237c-14.9,0-28.9,5.8-39.4,16.3c-2.9,2.9-2.9,7.7,0,10.6c2.9,2.9,7.7,2.9,10.6,0
			c7.7-7.7,17.9-11.9,28.8-11.9c10.9,0,21.1,4.2,28.8,11.9c1.5,1.5,3.4,2.2,5.3,2.2c1.9,0,3.8-0.7,5.3-2.2c2.9-2.9,2.9-7.7,0-10.6
			C85.5,1242.8,71.5,1237,56.6,1237z"/>
	</g>
</g>
<g>
	<g>
		<path class="st3" d="M2727.9,443.3c-15.9,15.9-41.7,15.9-57.6,0c-2.9-2.9-7.7-2.9-10.6,0c-2.9,2.9-2.9,7.7,0,10.6
			c10.5,10.5,24.5,16.3,39.4,16.3s28.9-5.8,39.4-16.3c2.9-2.9,2.9-7.7,0-10.6C2735.6,440.4,2730.9,440.4,2727.9,443.3z"/>
		<path class="st3" d="M2738.5,443.3c-2.9-2.9-7.7-2.9-10.6,0c-10.5,10.5-16.3,24.5-16.3,39.4c0,14.9,5.8,28.9,16.3,39.4
			c1.5,1.5,3.4,2.2,5.3,2.2c1.9,0,3.8-0.7,5.3-2.2c2.9-2.9,2.9-7.7,0-10.6c-7.7-7.7-11.9-17.9-11.9-28.8c0-10.9,4.2-21.1,11.9-28.8
			C2741.5,451,2741.5,446.3,2738.5,443.3z"/>
	</g>
	<g>
		<path class="st3" d="M2659.7,443.3c-2.9,2.9-2.9,7.7,0,10.6c15.9,15.9,15.9,41.7,0,57.6c-2.9,2.9-2.9,7.7,0,10.6
			c1.5,1.5,3.4,2.2,5.3,2.2s3.8-0.7,5.3-2.2c21.7-21.7,21.7-57.1,0-78.8C2667.4,440.4,2662.7,440.4,2659.7,443.3z"/>
		<path class="st3" d="M2659.7,511.5c-2.9,2.9-2.9,7.7,0,10.6c2.9,2.9,7.7,2.9,10.6,0c15.9-15.9,41.7-15.9,57.6,0
			c1.5,1.5,3.4,2.2,5.3,2.2c1.9,0,3.8-0.7,5.3-2.2c2.9-2.9,2.9-7.7,0-10.6C2716.8,489.8,2681.5,489.8,2659.7,511.5z"/>
	</g>
</g>
<g>
	<g>
		<g>
			<path class="st3" d="M1190.5,287.1c-0.1,0-0.1,0-0.2-0.1C1190.4,287,1190.4,287,1190.5,287.1z M1205.7,328.9
				C1205.7,328.9,1205.7,328.9,1205.7,328.9C1205.7,328.9,1205.7,328.9,1205.7,328.9z"/>
			<path class="st3" d="M1318.7,295.8C1318.7,295.8,1318.7,295.8,1318.7,295.8C1318.7,295.8,1318.7,295.8,1318.7,295.8z"/>
			<path class="st3" d="M1077.3,289.4C1077.3,289.4,1077.3,289.4,1077.3,289.4C1077.3,289.4,1077.3,289.4,1077.3,289.4z
				 M1128.1,340.8L1128.1,340.8L1128.1,340.8z M1104.4,314.8L1104.4,314.8L1104.4,314.8z"/>
		</g>
	</g>
</g>
<g>
	<path class="st3" d="M293.3,1559c-34.8,0-63.1,28.3-63.1,63.1c0,34.8,28.3,63.1,63.1,63.1c34.8,0,63.1-28.3,63.1-63.1
		C356.4,1587.3,328.1,1559,293.3,1559z M293.3,1670.2c-26.5,0-48.1-21.6-48.1-48.1c0-26.5,21.6-48.1,48.1-48.1
		c26.5,0,48.1,21.6,48.1,48.1C341.4,1648.6,319.9,1670.2,293.3,1670.2z"/>
	<path class="st3" d="M293.3,1598.4c-13.1,0-23.7,10.6-23.7,23.7c0,13.1,10.6,23.7,23.7,23.7c13.1,0,23.7-10.6,23.7-23.7
		C317,1609.1,306.4,1598.4,293.3,1598.4z M293.3,1630.8c-4.8,0-8.7-3.9-8.7-8.7c0-4.8,3.9-8.7,8.7-8.7c4.8,0,8.7,3.9,8.7,8.7
		C302,1626.9,298.1,1630.8,293.3,1630.8z"/>
</g>
<g>
	<path class="st3" d="M2098.1,281.7c-26,0-47.2,21.2-47.2,47.2c0,26,21.2,47.2,47.2,47.2c26,0,47.2-21.2,47.2-47.2
		C2145.3,302.9,2124.2,281.7,2098.1,281.7z M2098.1,361.1c-17.8,0-32.2-14.5-32.2-32.2c0-17.8,14.5-32.2,32.2-32.2
		c17.8,0,32.2,14.5,32.2,32.2C2130.3,346.7,2115.9,361.1,2098.1,361.1z"/>
	<path class="st3" d="M2098.1,309.9c-10.5,0-19.1,8.6-19.1,19.1c0,10.5,8.6,19.1,19.1,19.1c10.5,0,19.1-8.6,19.1-19.1
		C2117.2,318.4,2108.6,309.9,2098.1,309.9z M2098.1,333c-2.2,0-4.1-1.8-4.1-4.1c0-2.2,1.8-4.1,4.1-4.1c2.2,0,4.1,1.8,4.1,4.1
		C2102.2,331.2,2100.4,333,2098.1,333z"/>
</g>
<g>
	<path class="st3" d="M3167.2,790.4c-50,0-90.7,40.7-90.7,90.7c0,50,40.7,90.7,90.7,90.7c50,0,90.7-40.7,90.7-90.7
		C3257.9,831.1,3217.2,790.4,3167.2,790.4z M3167.2,956.9c-41.8,0-75.7-34-75.7-75.7s34-75.7,75.7-75.7c41.8,0,75.7,34,75.7,75.7
		S3209,956.9,3167.2,956.9z"/>
	<path class="st3" d="M3167.2,849.4c-17.5,0-31.7,14.2-31.7,31.7c0,17.5,14.2,31.7,31.7,31.7c17.5,0,31.7-14.2,31.7-31.7
		C3198.9,863.6,3184.7,849.4,3167.2,849.4z M3167.2,897.9c-9.2,0-16.7-7.5-16.7-16.7c0-9.2,7.5-16.7,16.7-16.7
		c9.2,0,16.7,7.5,16.7,16.7C3183.9,890.4,3176.4,897.9,3167.2,897.9z"/>
</g>
<g>
	<g>
		<path class="st3" d="M535.3,1001.6c-83.4,27.5-173.6-17.9-201.2-101.3c-1.3-3.9-5.5-6.1-9.5-4.8c-3.9,1.3-6.1,5.5-4.8,9.5
			c24.2,73.2,92.4,119.6,165.6,119.6c18.1,0,36.4-2.8,54.5-8.8c3.9-1.3,6.1-5.5,4.8-9.5C543.5,1002.5,539.3,1000.3,535.3,1001.6z"/>
		<g>
			<path class="st0" d="M652.3,844.2C652.3,844.2,652.2,844.2,652.3,844.2c-4.2,0-7.5,3.3-7.6,7.4c-0.5,68.3-44.5,128.5-109.4,150
				c-73.4,24.2-153.3-7.4-190-75.3c-2-3.6-6.5-5-10.2-3c-3.6,2-5,6.5-3,10.2c19.2,35.5,50.5,63.4,88.2,78.6
				c20.8,8.4,42.9,12.6,65,12.6c18.4,0,36.9-2.9,54.7-8.8c71-23.4,119.1-89.4,119.7-164.1C659.8,847.6,656.4,844.3,652.3,844.2z"/>
			<path class="st0" d="M658.6,847.7c-1.2-2-3.3-3.2-5.6-3.5c-2.3-0.2-4.6,0.6-6.2,2.3l-22.4,23.7c-2.8,3-2.7,7.8,0.3,10.6
				c3,2.8,7.8,2.7,10.6-0.3l15.7-16.7l11.8,18.7c1.4,2.3,3.9,3.5,6.4,3.5c1.4,0,2.7-0.4,4-1.2c3.5-2.2,4.6-6.8,2.4-10.3L658.6,847.7
				z"/>
		</g>
	</g>
	<g>
		<path class="st3" d="M485.4,806.1c-24.6,0-44.6,20-44.6,44.6c0,24.6,20,44.6,44.6,44.6c24.6,0,44.6-20,44.6-44.6
			C530,826.1,510,806.1,485.4,806.1z M485.4,880.3c-16.3,0-29.6-13.3-29.6-29.6c0-16.3,13.3-29.6,29.6-29.6
			c16.3,0,29.6,13.3,29.6,29.6C515,867,501.7,880.3,485.4,880.3z"/>
		<path class="st3" d="M590.8,821h-25.1c-0.8-2.2-1.7-4.4-2.7-6.6l17.8-17.8c8.1-8.1,8.1-21.3,0-29.4l-12.2-12.2
			c-8.1-8.1-21.3-8.1-29.4,0l-17.8,17.8c-2.2-1-4.4-1.9-6.6-2.7V745c0-11.4-9.3-20.8-20.8-20.8h-17.2c-11.4,0-20.8,9.3-20.8,20.8
			v25.1c-2.2,0.8-4.4,1.7-6.6,2.7l-17.8-17.8c-8.1-8.1-21.3-8.1-29.4,0l-12.2,12.2c-8.1,8.1-8.1,21.3,0,29.4l17.8,17.8
			c-1,2.2-1.9,4.4-2.7,6.6H380c-11.4,0-20.8,9.3-20.8,20.8V859c0,11.4,9.3,20.8,20.8,20.8h25.1c0.8,2.2,1.7,4.4,2.7,6.6l-17.8,17.8
			c-8.1,8.1-8.1,21.3,0,29.4l12.2,12.2c8.1,8.1,21.3,8.1,29.4,0l17.8-17.8c2.2,1,4.4,1.9,6.6,2.7v25.1c0,11.4,9.3,20.8,20.8,20.8
			H494c11.4,0,20.8-9.3,20.8-20.8v-25.2c2.2-0.8,4.4-1.7,6.6-2.7l17.8,17.8c8.1,8.1,21.3,8.1,29.4,0l12.2-12.2
			c8.1-8.1,8.1-21.3,0-29.4l-17.8-17.8c1-2.2,1.9-4.4,2.7-6.6h25.1c11.4,0,20.8-9.3,20.8-20.8v-17.2
			C611.6,830.3,602.2,821,590.8,821z M596.6,859c0,3.2-2.6,5.8-5.8,5.8h-30.6c-3.3,0-6.3,2.2-7.2,5.4c-1.4,4.9-3.4,9.6-5.8,14.1
			c-1.6,2.9-1.1,6.6,1.3,8.9l21.6,21.6c2.2,2.2,2.2,5.9,0,8.2l-12.2,12.2c-1.1,1.1-2.5,1.7-4.1,1.7c-1.5,0-3-0.6-4.1-1.7l-21.6-21.6
			c-2.4-2.4-6-2.9-8.9-1.3c-4.4,2.4-9.2,4.4-14.1,5.8c-3.2,0.9-5.4,3.9-5.4,7.2v30.6c0,3.2-2.6,5.8-5.8,5.8h-17.2
			c-3.2,0-5.8-2.6-5.8-5.8v-30.6c0-3.3-2.2-6.3-5.4-7.2c-4.9-1.4-9.6-3.4-14.1-5.8c-1.1-0.6-2.4-0.9-3.6-0.9c-1.9,0-3.9,0.8-5.3,2.2
			l-21.6,21.6c-2.2,2.2-5.9,2.3-8.2,0l-12.2-12.2c-2.2-2.2-2.2-5.9,0-8.2l21.6-21.6c2.4-2.4,2.9-6,1.3-8.9
			c-2.4-4.4-4.4-9.1-5.8-14.1c-0.9-3.2-3.9-5.4-7.2-5.4H380c-3.2,0-5.8-2.6-5.8-5.8v-17.2c0-3.2,2.6-5.8,5.8-5.8h30.6
			c3.3,0,6.3-2.2,7.2-5.4c1.4-4.9,3.4-9.6,5.8-14.1c1.6-2.9,1.1-6.6-1.3-8.9L400.7,786c-2.2-2.2-2.2-5.9,0-8.2l12.2-12.2
			c2.2-2.2,5.9-2.2,8.2,0l21.6,21.6c2.4,2.4,6,2.9,8.9,1.3c4.4-2.4,9.2-4.4,14.1-5.8c3.2-0.9,5.4-3.9,5.4-7.2V745
			c0-3.2,2.6-5.8,5.8-5.8H494c3.2,0,5.8,2.6,5.8,5.8v30.6c0,3.3,2.2,6.3,5.4,7.2c4.9,1.4,9.6,3.4,14.1,5.8c2.9,1.6,6.6,1.1,8.9-1.3
			l21.6-21.6c1.1-1.1,2.5-1.7,4.1-1.7c1.5,0,3,0.6,4.1,1.7l12.2,12.2c2.2,2.2,2.2,5.9,0,8.2l-21.6,21.6c-2.4,2.4-2.9,6-1.3,8.9
			c2.4,4.4,4.4,9.1,5.8,14.1c0.9,3.2,3.9,5.4,7.2,5.4h30.6c3.2,0,5.8,2.6,5.8,5.8V859z"/>
		<path class="st3" d="M485.4,806.1c-24.6,0-44.6,20-44.6,44.6c0,24.6,20,44.6,44.6,44.6c24.6,0,44.6-20,44.6-44.6
			C530,826.1,510,806.1,485.4,806.1z M485.4,880.3c-16.3,0-29.6-13.3-29.6-29.6c0-16.3,13.3-29.6,29.6-29.6
			c16.3,0,29.6,13.3,29.6,29.6C515,867,501.7,880.3,485.4,880.3z"/>
	</g>
	<path class="st0" d="M648,888.4c-4-1.1-8.1,1.2-9.3,5.2c-14.4,51.1-53.1,91.5-103.4,108.1c-83.4,27.5-173.6-17.9-201.2-101.3
		c-1.3-3.9-5.5-6.1-9.5-4.8c-3.9,1.3-6.1,5.5-4.8,9.5c24.2,73.2,92.4,119.6,165.6,119.6c18.1,0,36.4-2.8,54.5-8.8
		c55.1-18.2,97.3-62.4,113.1-118.3C654.3,893.6,652,889.5,648,888.4z"/>
	<g>
		<path class="st0" d="M563.8,694.7c-41.6-20.9-88.8-24.4-133-9.8c-3.9,1.3-6.1,5.5-4.8,9.5s5.5,6.1,9.5,4.8
			c40.4-13.3,83.6-10.1,121.6,9c38,19.1,66.3,51.9,79.6,92.3c1,3.2,4,5.2,7.1,5.2c0.8,0,1.6-0.1,2.4-0.4c3.9-1.3,6.1-5.5,4.8-9.5
			C636.3,751.6,605.4,715.7,563.8,694.7z"/>
		<g>
			<path class="st0" d="M550.5,688.7c-38.1-15.4-80.6-16.7-119.7-3.8c-71,23.4-119.1,89.4-119.7,164.1c0,4.1,3.3,7.5,7.4,7.6
				c0,0,0,0,0.1,0c4.1,0,7.5-3.3,7.5-7.4c0.5-68.3,44.5-128.5,109.4-150c73.4-24.2,153.3,7.4,190,75.3c2,3.6,6.5,5,10.2,3
				c3.6-2,5-6.5,3-10.2C619.4,731.8,588.1,703.9,550.5,688.7z"/>
			<path class="st0" d="M335.5,820.2l-15.7,16.7L308,818.1c-2.2-3.5-6.8-4.6-10.3-2.4c-3.5,2.2-4.6,6.8-2.4,10.3l16.9,26.9
				c1.2,2,3.3,3.2,5.6,3.5c0.2,0,0.5,0,0.7,0c2.1,0,4-0.8,5.5-2.4l22.4-23.7c2.8-3,2.7-7.8-0.3-10.6
				C343.1,817,338.4,817.2,335.5,820.2z"/>
		</g>
	</g>
</g>
</svg>
