<?xml version="1.0" encoding="utf-8"?>
<!-- Generator: Adobe Illustrator 19.0.0, SVG Export Plug-In . SVG Version: 6.00 Build 0)  -->
<svg version="1.1" id="Layer_1" xmlns="http://www.w3.org/2000/svg" xmlns:xlink="http://www.w3.org/1999/xlink" x="0px" y="0px"
	 viewBox="0 0 3338 2173.3" style="enable-background:new 0 0 3338 2173.3;" xml:space="preserve">
<style type="text/css">
	.st0{fill:#231F20;}
	.st1{fill:#4FD696;}
	.st2{fill:#4E8EF7;}
	.st3{fill:#4E8EF7;stroke:#000000;stroke-miterlimit:10;}
	.st4{fill:#FFFFFF;}
	.st5{fill:#939598;}
	.st6{fill:#C5EDF9;}
</style>
<path class="st0" d="M3328.5,1981.6H9.5c-5.2,0-9.5,4.3-9.5,9.5s4.3,9.5,9.5,9.5h3319c5.2,0,9.5-4.3,9.5-9.5
	S3333.7,1981.6,3328.5,1981.6z"/>
<g>
	<path class="st1" d="M3327.3,2070.9h-293.7c-4.1,0-7.5,3.4-7.5,7.5s3.4,7.5,7.5,7.5h293.7c4.1,0,7.5-3.4,7.5-7.5
		S3331.4,2070.9,3327.3,2070.9z"/>
	<path class="st2" d="M2930.3,2070.9h-107.2c-4.1,0-7.5,3.4-7.5,7.5s3.4,7.5,7.5,7.5h107.2c4.1,0,7.5-3.4,7.5-7.5
		S2934.4,2070.9,2930.3,2070.9z"/>
	<path class="st1" d="M2712,2070.9h-714.5c-4.1,0-7.5,3.4-7.5,7.5s3.4,7.5,7.5,7.5H2712c4.1,0,7.5-3.4,7.5-7.5
		S2716.1,2070.9,2712,2070.9z"/>
	<path class="st2" d="M1894.3,2070.9h-789.9c-4.1,0-7.5,3.4-7.5,7.5s3.4,7.5,7.5,7.5h789.9c4.1,0,7.5-3.4,7.5-7.5
		S1898.4,2070.9,1894.3,2070.9z"/>
	<path class="st2" d="M1857.8,2070.9H1682c-4.1,0-7.5,3.4-7.5,7.5s3.4,7.5,7.5,7.5h175.9c4.1,0,7.5-3.4,7.5-7.5
		S1862,2070.9,1857.8,2070.9z"/>
	<path class="st2" d="M1578.8,2070.9h-107.2c-4.1,0-7.5,3.4-7.5,7.5s3.4,7.5,7.5,7.5h107.2c4.1,0,7.5-3.4,7.5-7.5
		S1582.9,2070.9,1578.8,2070.9z"/>
	<path class="st2" d="M1360.4,2070.9H645.9c-4.1,0-7.5,3.4-7.5,7.5s3.4,7.5,7.5,7.5h714.5c4.1,0,7.5-3.4,7.5-7.5
		S1364.6,2070.9,1360.4,2070.9z"/>
	<path class="st1" d="M542.7,2070.9h-532c-4.1,0-7.5,3.4-7.5,7.5s3.4,7.5,7.5,7.5h532c4.1,0,7.5-3.4,7.5-7.5
		S546.9,2070.9,542.7,2070.9z"/>
</g>
<g>
	<g>
		<path class="st2" d="M3087,2158.3h-329.5c-4.1,0-7.5,3.4-7.5,7.5s3.4,7.5,7.5,7.5H3087c4.1,0,7.5-3.4,7.5-7.5
			S3091.2,2158.3,3087,2158.3z"/>
		<path class="st1" d="M2634.5,2158.3h-825.7c-4.1,0-7.5,3.4-7.5,7.5s3.4,7.5,7.5,7.5h825.7c4.1,0,7.5-3.4,7.5-7.5
			S2638.7,2158.3,2634.5,2158.3z"/>
		<path class="st2" d="M1709.6,2158.3h-107.2c-4.1,0-7.5,3.4-7.5,7.5s3.4,7.5,7.5,7.5h107.2c4.1,0,7.5-3.4,7.5-7.5
			S1713.8,2158.3,1709.6,2158.3z"/>
	</g>
	<g>
		<path class="st2" d="M1735.5,2158.3H1406c-4.1,0-7.5,3.4-7.5,7.5s3.4,7.5,7.5,7.5h329.5c4.1,0,7.5-3.4,7.5-7.5
			S1739.7,2158.3,1735.5,2158.3z"/>
		<path class="st1" d="M1283,2158.3H457.3c-4.1,0-7.5,3.4-7.5,7.5s3.4,7.5,7.5,7.5H1283c4.1,0,7.5-3.4,7.5-7.5
			S1287.1,2158.3,1283,2158.3z"/>
		<path class="st2" d="M358.1,2158.3H250.9c-4.1,0-7.5,3.4-7.5,7.5s3.4,7.5,7.5,7.5h107.2c4.1,0,7.5-3.4,7.5-7.5
			S362.2,2158.3,358.1,2158.3z"/>
	</g>
</g>
<g>
	<g>
		<path class="st1" d="M2349.5,1025.8c-4.1,0-7.5,3.4-7.5,7.5c0,18.4-14.9,33.3-33.3,33.3c-4.1,0-7.5,3.4-7.5,7.5
			c0,4.1,3.4,7.5,7.5,7.5c26.6,0,48.3-21.7,48.3-48.3C2357,1029.1,2353.7,1025.8,2349.5,1025.8z"/>
		<path class="st1" d="M2390.3,1066.6c-18.4,0-33.3-14.9-33.3-33.3c0-4.1-3.4-7.5-7.5-7.5s-7.5,3.4-7.5,7.5
			c0,26.6,21.7,48.3,48.3,48.3c4.1,0,7.5-3.4,7.5-7.5C2397.8,1069.9,2394.5,1066.6,2390.3,1066.6z"/>
	</g>
	<g>
		<path class="st1" d="M2308.7,1066.6c-4.1,0-7.5,3.4-7.5,7.5c0,4.1,3.4,7.5,7.5,7.5c18.4,0,33.3,14.9,33.3,33.3
			c0,4.1,3.4,7.5,7.5,7.5s7.5-3.4,7.5-7.5C2357,1088.3,2335.4,1066.6,2308.7,1066.6z"/>
		<path class="st1" d="M2390.3,1066.6c-26.6,0-48.3,21.7-48.3,48.3c0,4.1,3.4,7.5,7.5,7.5s7.5-3.4,7.5-7.5
			c0-18.4,14.9-33.3,33.3-33.3c4.1,0,7.5-3.4,7.5-7.5C2397.8,1069.9,2394.5,1066.6,2390.3,1066.6z"/>
	</g>
</g>
<g>
	<g>
		<path class="st1" d="M939.8,419.6c-4.1,0-7.5,3.4-7.5,7.5c0,18.4-14.9,33.3-33.3,33.3c-4.1,0-7.5,3.4-7.5,7.5
			c0,4.1,3.4,7.5,7.5,7.5c26.6,0,48.3-21.7,48.3-48.3C947.3,423,943.9,419.6,939.8,419.6z"/>
		<path class="st1" d="M980.6,460.5c-18.4,0-33.3-14.9-33.3-33.3c0-4.1-3.4-7.5-7.5-7.5s-7.5,3.4-7.5,7.5
			c0,26.6,21.7,48.3,48.3,48.3c4.1,0,7.5-3.4,7.5-7.5C988.1,463.8,984.7,460.5,980.6,460.5z"/>
	</g>
	<g>
		<path class="st1" d="M899,460.5c-4.1,0-7.5,3.4-7.5,7.5c0,4.1,3.4,7.5,7.5,7.5c18.4,0,33.3,14.9,33.3,33.3c0,4.1,3.4,7.5,7.5,7.5
			s7.5-3.4,7.5-7.5C947.3,482.1,925.6,460.5,899,460.5z"/>
		<path class="st1" d="M980.6,460.5c-26.6,0-48.3,21.7-48.3,48.3c0,4.1,3.4,7.5,7.5,7.5s7.5-3.4,7.5-7.5c0-18.4,14.9-33.3,33.3-33.3
			c4.1,0,7.5-3.4,7.5-7.5C988.1,463.8,984.7,460.5,980.6,460.5z"/>
	</g>
</g>
<g>
	<g>
		<path class="st1" d="M1209.5,244.4c-4.1,0-7.5,3.4-7.5,7.5c0,18.4-14.9,33.3-33.3,33.3c-4.1,0-7.5,3.4-7.5,7.5s3.4,7.5,7.5,7.5
			c26.6,0,48.3-21.7,48.3-48.3C1217,247.8,1213.7,244.4,1209.5,244.4z"/>
		<path class="st1" d="M1250.3,285.2c-18.4,0-33.3-14.9-33.3-33.3c0-4.1-3.4-7.5-7.5-7.5s-7.5,3.4-7.5,7.5
			c0,26.6,21.7,48.3,48.3,48.3c4.1,0,7.5-3.4,7.5-7.5S1254.5,285.2,1250.3,285.2z"/>
	</g>
	<g>
		<path class="st1" d="M1168.7,285.2c-4.1,0-7.5,3.4-7.5,7.5s3.4,7.5,7.5,7.5c18.4,0,33.3,14.9,33.3,33.3c0,4.1,3.4,7.5,7.5,7.5
			s7.5-3.4,7.5-7.5C1217,306.9,1195.3,285.2,1168.7,285.2z"/>
		<path class="st1" d="M1250.3,285.2c-26.6,0-48.3,21.7-48.3,48.3c0,4.1,3.4,7.5,7.5,7.5s7.5-3.4,7.5-7.5
			c0-18.4,14.9-33.3,33.3-33.3c4.1,0,7.5-3.4,7.5-7.5S1254.5,285.2,1250.3,285.2z"/>
	</g>
</g>
<g>
	<g>
		<path class="st2" d="M2608.4,790.2c-4.1,0-7.5,3.4-7.5,7.5c0,18.4-14.9,33.3-33.3,33.3c-4.1,0-7.5,3.4-7.5,7.5
			c0,4.1,3.4,7.5,7.5,7.5c26.6,0,48.3-21.7,48.3-48.3C2615.9,793.6,2612.6,790.2,2608.4,790.2z"/>
		<path class="st2" d="M2649.2,831c-18.4,0-33.3-14.9-33.3-33.3c0-4.1-3.4-7.5-7.5-7.5s-7.5,3.4-7.5,7.5c0,26.6,21.7,48.3,48.3,48.3
			c4.1,0,7.5-3.4,7.5-7.5C2656.7,834.4,2653.4,831,2649.2,831z"/>
	</g>
	<g>
		<path class="st2" d="M2567.6,831c-4.1,0-7.5,3.4-7.5,7.5c0,4.1,3.4,7.5,7.5,7.5c18.4,0,33.3,14.9,33.3,33.3c0,4.1,3.4,7.5,7.5,7.5
			s7.5-3.4,7.5-7.5C2615.9,852.7,2594.2,831,2567.6,831z"/>
		<path class="st2" d="M2649.2,831c-26.6,0-48.3,21.7-48.3,48.3c0,4.1,3.4,7.5,7.5,7.5s7.5-3.4,7.5-7.5c0-18.4,14.9-33.3,33.3-33.3
			c4.1,0,7.5-3.4,7.5-7.5C2656.7,834.4,2653.4,831,2649.2,831z"/>
	</g>
</g>
<g>
	<g>
		<path class="st2" d="M1108.7,808c-4.1,0-7.5,3.4-7.5,7.5c0,18.4-14.9,33.3-33.3,33.3c-4.1,0-7.5,3.4-7.5,7.5
			c0,4.1,3.4,7.5,7.5,7.5c26.6,0,48.3-21.7,48.3-48.3C1116.2,811.3,1112.8,808,1108.7,808z"/>
		<path class="st2" d="M1149.5,848.8c-18.4,0-33.3-14.9-33.3-33.3c0-4.1-3.4-7.5-7.5-7.5s-7.5,3.4-7.5,7.5
			c0,26.6,21.7,48.3,48.3,48.3c4.1,0,7.5-3.4,7.5-7.5C1157,852.1,1153.6,848.8,1149.5,848.8z"/>
	</g>
	<g>
		<path class="st2" d="M1067.9,848.8c-4.1,0-7.5,3.4-7.5,7.5c0,4.1,3.4,7.5,7.5,7.5c18.4,0,33.3,14.9,33.3,33.3
			c0,4.1,3.4,7.5,7.5,7.5s7.5-3.4,7.5-7.5C1116.2,870.4,1094.5,848.8,1067.9,848.8z"/>
		<path class="st2" d="M1149.5,848.8c-26.6,0-48.3,21.7-48.3,48.3c0,4.1,3.4,7.5,7.5,7.5s7.5-3.4,7.5-7.5
			c0-18.4,14.9-33.3,33.3-33.3c4.1,0,7.5-3.4,7.5-7.5C1157,852.1,1153.6,848.8,1149.5,848.8z"/>
	</g>
</g>
<g>
	<g>
		<path class="st2" d="M618.4,1530.9c-15.9,15.9-41.7,15.9-57.6,0c-2.9-2.9-7.7-2.9-10.6,0c-2.9,2.9-2.9,7.7,0,10.6
			c10.9,10.9,25.1,16.3,39.4,16.3c14.3,0,28.5-5.4,39.4-16.3c2.9-2.9,2.9-7.7,0-10.6C626.1,1527.9,621.3,1527.9,618.4,1530.9z"/>
		<path class="st2" d="M629,1530.9c-2.9-2.9-7.7-2.9-10.6,0c-10.5,10.5-16.3,24.5-16.3,39.4s5.8,28.9,16.3,39.4
			c1.5,1.5,3.4,2.2,5.3,2.2c1.9,0,3.8-0.7,5.3-2.2c2.9-2.9,2.9-7.7,0-10.6c-7.7-7.7-11.9-17.9-11.9-28.8s4.2-21.1,11.9-28.8
			C631.9,1538.5,631.9,1533.8,629,1530.9z"/>
	</g>
	<g>
		<path class="st2" d="M550.2,1530.9c-2.9,2.9-2.9,7.7,0,10.6c7.7,7.7,11.9,17.9,11.9,28.8s-4.2,21.1-11.9,28.8
			c-2.9,2.9-2.9,7.7,0,10.6c1.5,1.5,3.4,2.2,5.3,2.2c1.9,0,3.8-0.7,5.3-2.2c10.5-10.5,16.3-24.5,16.3-39.4s-5.8-28.9-16.3-39.4
			C557.9,1527.9,553.1,1527.9,550.2,1530.9z"/>
		<path class="st2" d="M589.6,1582.7c-14.9,0-28.9,5.8-39.4,16.3c-2.9,2.9-2.9,7.7,0,10.6c2.9,2.9,7.7,2.9,10.6,0
			c7.7-7.7,17.9-11.9,28.8-11.9c10.9,0,21.1,4.2,28.8,11.9c1.5,1.5,3.4,2.2,5.3,2.2c1.9,0,3.8-0.7,5.3-2.2c2.9-2.9,2.9-7.7,0-10.6
			C618.5,1588.5,604.5,1582.7,589.6,1582.7z"/>
	</g>
</g>
<g>
	<g>
		<path class="st2" d="M2100.7,310.6c-15.9,15.9-41.7,15.9-57.6,0c-2.9-2.9-7.7-2.9-10.6,0c-2.9,2.9-2.9,7.7,0,10.6
			c10.5,10.5,24.5,16.3,39.4,16.3s28.9-5.8,39.4-16.3c2.9-2.9,2.9-7.7,0-10.6C2108.4,307.7,2103.7,307.7,2100.7,310.6z"/>
		<path class="st2" d="M2111.3,310.6c-2.9-2.9-7.7-2.9-10.6,0c-10.5,10.5-16.3,24.5-16.3,39.4c0,14.9,5.8,28.9,16.3,39.4
			c1.5,1.5,3.4,2.2,5.3,2.2c1.9,0,3.8-0.7,5.3-2.2c2.9-2.9,2.9-7.7,0-10.6c-7.7-7.7-11.9-17.9-11.9-28.8c0-10.9,4.2-21.1,11.9-28.8
			C2114.3,318.3,2114.3,313.6,2111.3,310.6z"/>
	</g>
	<g>
		<path class="st2" d="M2032.5,310.6c-2.9,2.9-2.9,7.7,0,10.6c15.9,15.9,15.9,41.7,0,57.6c-2.9,2.9-2.9,7.7,0,10.6
			c1.5,1.5,3.4,2.2,5.3,2.2s3.8-0.7,5.3-2.2c21.7-21.7,21.7-57.1,0-78.8C2040.2,307.7,2035.5,307.7,2032.5,310.6z"/>
		<path class="st2" d="M2032.5,378.8c-2.9,2.9-2.9,7.7,0,10.6c2.9,2.9,7.7,2.9,10.6,0c15.9-15.9,41.7-15.9,57.6,0
			c1.5,1.5,3.4,2.2,5.3,2.2c1.9,0,3.8-0.7,5.3-2.2c2.9-2.9,2.9-7.7,0-10.6C2089.6,357.1,2054.3,357.1,2032.5,378.8z"/>
	</g>
</g>
<g>
	<g>
		<g>
			<path class="st2" d="M908.3,378.9c-0.1,0-0.1,0-0.2-0.1C908.2,378.9,908.2,378.9,908.3,378.9z M923.5,420.8
				C923.5,420.8,923.5,420.8,923.5,420.8C923.5,420.8,923.5,420.8,923.5,420.8z"/>
			<path class="st2" d="M1036.5,387.7C1036.5,387.7,1036.5,387.7,1036.5,387.7C1036.5,387.7,1036.5,387.7,1036.5,387.7z"/>
			<path class="st2" d="M795.1,381.2C795.1,381.2,795.1,381.2,795.1,381.2C795.1,381.2,795.1,381.2,795.1,381.2z M845.9,432.7
				C845.9,432.7,845.9,432.7,845.9,432.7C845.9,432.7,845.9,432.7,845.9,432.7z M822.2,406.6C822.2,406.6,822.2,406.6,822.2,406.6
				C822.2,406.6,822.2,406.6,822.2,406.6z"/>
		</g>
	</g>
</g>
<g>
	<path class="st2" d="M908.1,1271.9c-34.8,0-63.1,28.3-63.1,63.1c0,34.8,28.3,63.1,63.1,63.1c34.8,0,63.1-28.3,63.1-63.1
		C971.2,1300.2,942.9,1271.9,908.1,1271.9z M908.1,1383.1c-26.5,0-48.1-21.6-48.1-48.1c0-26.5,21.6-48.1,48.1-48.1
		c26.5,0,48.1,21.6,48.1,48.1C956.2,1361.6,934.6,1383.1,908.1,1383.1z"/>
	<path class="st2" d="M908.1,1311.3c-13.1,0-23.7,10.6-23.7,23.7c0,13.1,10.6,23.7,23.7,23.7c13.1,0,23.7-10.6,23.7-23.7
		C931.8,1322,921.1,1311.3,908.1,1311.3z M908.1,1343.7c-4.8,0-8.7-3.9-8.7-8.7c0-4.8,3.9-8.7,8.7-8.7s8.7,3.9,8.7,8.7
		C916.8,1339.8,912.9,1343.7,908.1,1343.7z"/>
</g>
<g>
	<path class="st2" d="M1540.6,0c-26,0-47.2,21.2-47.2,47.2s21.2,47.2,47.2,47.2c26,0,47.2-21.2,47.2-47.2S1566.7,0,1540.6,0z
		 M1540.6,79.4c-17.8,0-32.2-14.5-32.2-32.2s14.5-32.2,32.2-32.2c17.8,0,32.2,14.5,32.2,32.2S1558.4,79.4,1540.6,79.4z"/>
	<path class="st2" d="M1540.6,28.2c-10.5,0-19.1,8.6-19.1,19.1s8.6,19.1,19.1,19.1c10.5,0,19.1-8.6,19.1-19.1
		S1551.1,28.2,1540.6,28.2z M1540.6,51.3c-2.2,0-4.1-1.8-4.1-4.1c0-2.2,1.8-4.1,4.1-4.1s4.1,1.8,4.1,4.1
		C1544.7,49.5,1542.9,51.3,1540.6,51.3z"/>
</g>
<g>
	<path class="st2" d="M2331.2,614.4c-50,0-90.7,40.7-90.7,90.7c0,50,40.7,90.7,90.7,90.7c50,0,90.7-40.7,90.7-90.7
		C2421.9,655.1,2381.2,614.4,2331.2,614.4z M2331.2,780.9c-41.8,0-75.7-34-75.7-75.7c0-41.8,34-75.7,75.7-75.7
		c41.8,0,75.7,34,75.7,75.7C2406.9,746.9,2373,780.9,2331.2,780.9z"/>
	<path class="st2" d="M2331.2,673.4c-17.5,0-31.7,14.2-31.7,31.7c0,17.5,14.2,31.7,31.7,31.7c17.5,0,31.7-14.2,31.7-31.7
		C2362.9,687.7,2348.7,673.4,2331.2,673.4z M2331.2,721.9c-9.2,0-16.7-7.5-16.7-16.7c0-9.2,7.5-16.7,16.7-16.7
		c9.2,0,16.7,7.5,16.7,16.7C2347.9,714.4,2340.4,721.9,2331.2,721.9z"/>
</g>
<g>
	<g>
		<path class="st2" d="M748.9,1080.5c-83.4,27.5-173.6-17.9-201.2-101.3c-1.3-3.9-5.5-6.1-9.5-4.8c-3.9,1.3-6.1,5.5-4.8,9.5
			c24.2,73.2,92.4,119.6,165.6,119.6c18.1,0,36.4-2.8,54.5-8.8c3.9-1.3,6.1-5.5,4.8-9.5C757.1,1081.3,752.9,1079.2,748.9,1080.5z"/>
		<g>
			<path class="st1" d="M865.9,923.1C865.8,923.1,865.8,923.1,865.9,923.1c-4.2,0-7.5,3.3-7.6,7.4c-0.5,68.3-44.5,128.5-109.4,150
				c-73.4,24.2-153.3-7.4-190-75.3c-2-3.6-6.5-5-10.2-3c-3.6,2-5,6.5-3,10.2c19.2,35.5,50.5,63.4,88.2,78.6
				c20.8,8.4,42.9,12.6,65,12.6c18.4,0,36.9-2.9,54.7-8.8c71-23.4,119.1-89.4,119.7-164.1C873.3,926.5,870,923.1,865.9,923.1z"/>
			<path class="st1" d="M872.2,926.6c-1.2-2-3.3-3.2-5.6-3.5c-2.3-0.2-4.6,0.6-6.2,2.3L838,949.2c-2.8,3-2.7,7.8,0.3,10.6
				c3,2.8,7.8,2.7,10.6-0.3l15.7-16.7l11.8,18.7c1.4,2.3,3.9,3.5,6.4,3.5c1.4,0,2.7-0.4,4-1.2c3.5-2.2,4.6-6.8,2.4-10.3L872.2,926.6
				z"/>
		</g>
	</g>
	<g>
		<path class="st2" d="M699,885c-24.6,0-44.6,20-44.6,44.6c0,24.6,20,44.6,44.6,44.6c24.6,0,44.6-20,44.6-44.6
			C743.6,905,723.6,885,699,885z M699,959.1c-16.3,0-29.6-13.3-29.6-29.6c0-16.3,13.3-29.6,29.6-29.6c16.3,0,29.6,13.3,29.6,29.6
			C728.6,945.9,715.3,959.1,699,959.1z"/>
		<path class="st2" d="M804.4,899.9h-25.1c-0.8-2.2-1.7-4.4-2.7-6.6l17.8-17.8c8.1-8.1,8.1-21.3,0-29.4L782.1,834
			c-8.1-8.1-21.3-8.1-29.4,0L735,851.8c-2.2-1-4.4-1.9-6.6-2.7v-25.1c0-11.4-9.3-20.8-20.8-20.8h-17.2c-11.4,0-20.8,9.3-20.8,20.8
			V849c-2.2,0.8-4.4,1.7-6.6,2.7L645.2,834c-8.1-8.1-21.3-8.1-29.4,0l-12.2,12.2c-8.1,8.1-8.1,21.3,0,29.4l17.8,17.8
			c-1,2.2-1.9,4.4-2.7,6.6h-25.1c-11.4,0-20.8,9.3-20.8,20.8v17.2c0,11.4,9.3,20.8,20.8,20.8h25.1c0.8,2.2,1.7,4.4,2.7,6.6
			L603.7,983c-8.1,8.1-8.1,21.3,0,29.4l12.2,12.2c8.1,8.1,21.3,8.1,29.4,0l17.8-17.8c2.2,1,4.4,1.9,6.6,2.7v25.1
			c0,11.4,9.3,20.8,20.8,20.8h17.2c11.4,0,20.8-9.3,20.8-20.8v-25.2c2.2-0.8,4.4-1.7,6.6-2.7l17.8,17.8c8.1,8.1,21.3,8.1,29.4,0
			l12.2-12.2c8.1-8.1,8.1-21.3,0-29.4l-17.8-17.8c1-2.2,1.9-4.4,2.7-6.6h25.1c11.4,0,20.8-9.3,20.8-20.8v-17.2
			C825.1,909.2,815.8,899.9,804.4,899.9z M810.1,937.9c0,3.2-2.6,5.8-5.8,5.8h-30.6c-3.3,0-6.3,2.2-7.2,5.4
			c-1.4,4.9-3.4,9.6-5.8,14.1c-1.6,2.9-1.1,6.6,1.3,8.9l21.6,21.6c2.2,2.2,2.2,5.9,0,8.2l-12.2,12.2c-1.1,1.1-2.5,1.7-4.1,1.7
			c-1.5,0-3-0.6-4.1-1.7l-21.6-21.6c-2.4-2.4-6-2.9-8.9-1.3c-4.4,2.4-9.2,4.4-14.1,5.8c-3.2,0.9-5.4,3.9-5.4,7.2v30.6
			c0,3.2-2.6,5.8-5.8,5.8h-17.2c-3.2,0-5.8-2.6-5.8-5.8v-30.6c0-3.3-2.2-6.3-5.4-7.2c-4.9-1.4-9.6-3.4-14.1-5.8
			c-1.1-0.6-2.4-0.9-3.6-0.9c-1.9,0-3.9,0.8-5.3,2.2l-21.6,21.6c-2.2,2.2-5.9,2.3-8.2,0l-12.2-12.2c-2.2-2.2-2.2-5.9,0-8.2
			l21.6-21.6c2.4-2.4,2.9-6,1.3-8.9c-2.4-4.4-4.4-9.1-5.8-14.1c-0.9-3.2-3.9-5.4-7.2-5.4h-30.6c-3.2,0-5.8-2.6-5.8-5.8v-17.2
			c0-3.2,2.6-5.8,5.8-5.8h30.6c3.3,0,6.3-2.2,7.2-5.4c1.4-4.9,3.4-9.6,5.8-14.1c1.6-2.9,1.1-6.6-1.3-8.9l-21.6-21.6
			c-2.2-2.2-2.2-5.9,0-8.2l12.2-12.2c2.2-2.2,5.9-2.2,8.2,0l21.6,21.6c2.4,2.4,6,2.9,8.9,1.3c4.4-2.4,9.2-4.4,14.1-5.8
			c3.2-0.9,5.4-3.9,5.4-7.2v-30.6c0-3.2,2.6-5.8,5.8-5.8h17.2c3.2,0,5.8,2.6,5.8,5.8v30.6c0,3.3,2.2,6.3,5.4,7.2
			c4.9,1.4,9.6,3.4,14.1,5.8c2.9,1.6,6.6,1.1,8.9-1.3l21.6-21.6c1.1-1.1,2.5-1.7,4.1-1.7c1.5,0,3,0.6,4.1,1.7l12.2,12.2
			c2.2,2.2,2.2,5.9,0,8.2l-21.6,21.6c-2.4,2.4-2.9,6-1.3,8.9c2.4,4.4,4.4,9.1,5.8,14.1c0.9,3.2,3.9,5.4,7.2,5.4h30.6
			c3.2,0,5.8,2.6,5.8,5.8V937.9z"/>
		<path class="st2" d="M699,885c-24.6,0-44.6,20-44.6,44.6c0,24.6,20,44.6,44.6,44.6c24.6,0,44.6-20,44.6-44.6
			C743.6,905,723.6,885,699,885z M699,959.1c-16.3,0-29.6-13.3-29.6-29.6c0-16.3,13.3-29.6,29.6-29.6c16.3,0,29.6,13.3,29.6,29.6
			C728.6,945.9,715.3,959.1,699,959.1z"/>
	</g>
	<path class="st1" d="M861.6,967.2c-4-1.1-8.1,1.2-9.3,5.2c-14.4,51.1-53.1,91.5-103.4,108.1c-83.4,27.5-173.6-17.9-201.2-101.3
		c-1.3-3.9-5.5-6.1-9.5-4.8c-3.9,1.3-6.1,5.5-4.8,9.5c24.2,73.2,92.4,119.6,165.6,119.6c18.1,0,36.4-2.8,54.5-8.8
		c55.1-18.2,97.3-62.4,113.1-118.3C867.9,972.5,865.6,968.4,861.6,967.2z"/>
	<g>
		<path class="st1" d="M777.4,773.6c-41.6-20.9-88.8-24.4-133-9.8c-3.9,1.3-6.1,5.5-4.8,9.5c1.3,3.9,5.5,6.1,9.5,4.8
			c40.4-13.3,83.6-10.1,121.6,9c38,19.1,66.3,51.9,79.6,92.3c1,3.2,4,5.2,7.1,5.2c0.8,0,1.6-0.1,2.4-0.4c3.9-1.3,6.1-5.5,4.8-9.5
			C849.9,830.4,818.9,794.6,777.4,773.6z"/>
		<g>
			<path class="st1" d="M764,767.6c-38.1-15.4-80.6-16.7-119.7-3.8c-71,23.4-119.1,89.4-119.7,164.1c0,4.1,3.3,7.5,7.4,7.6
				c0,0,0,0,0.1,0c4.1,0,7.5-3.3,7.5-7.4c0.5-68.3,44.5-128.5,109.4-150c73.4-24.2,153.3,7.4,190,75.3c2,3.6,6.5,5,10.2,3
				c3.6-2,5-6.5,3-10.2C833,810.7,801.7,782.8,764,767.6z"/>
			<path class="st1" d="M549.1,899.1l-15.7,16.7L521.6,897c-2.2-3.5-6.8-4.6-10.3-2.4c-3.5,2.2-4.6,6.8-2.4,10.3l16.9,26.9
				c1.2,2,3.3,3.2,5.6,3.5c0.2,0,0.5,0,0.7,0c2.1,0,4-0.8,5.5-2.4l22.4-23.7c2.8-3,2.7-7.8-0.3-10.6
				C556.7,895.9,552,896.1,549.1,899.1z"/>
		</g>
	</g>
</g>
<g>
	<g>
		<g>
			<g>
				<path class="st1" d="M2652.5,1437.5c-0.3,66.1,65.2,83.3,65.2,83.3s65.6-16.7,65.9-82.8c0.3-66.1-64.9-156.6-64.9-156.6
					S2652.8,1371.3,2652.5,1437.5z"/>
				<path d="M2718.8,1271.9C2718.8,1271.9,2718.8,1271.9,2718.8,1271.9c-3.1,0-5.9,1.4-7.7,3.9c-2.8,3.8-67.7,93.2-68,161.6
					c-0.1,30.1,12.4,55.7,36.2,74c17.6,13.6,35.3,18.3,36.1,18.5c0.8,0.2,1.6,0.3,2.4,0.3c0.8,0,1.6-0.1,2.3-0.3
					c0.7-0.2,18.5-4.8,36.2-18.2c24-18.1,36.7-43.6,36.8-73.7c0.3-68.4-63.9-158.4-66.7-162.2
					C2724.7,1273.4,2721.8,1271.9,2718.8,1271.9z M2745.3,1496.2c-11.3,8.7-22.8,13-27.6,14.6c-4.7-1.6-15.8-5.9-26.9-14.5
					c-19.2-14.8-28.9-34.6-28.8-58.9c0.2-49,39.6-113.6,56.6-139.3c16.8,25.8,55.6,90.7,55.4,139.7
					C2774,1462.1,2764.3,1481.7,2745.3,1496.2z"/>
			</g>
			<path d="M2718,1443.6C2718,1443.6,2718,1443.6,2718,1443.6c-5.3,0-9.5,4.2-9.5,9.5l-1.2,288.9c0,5.2,4.2,9.5,9.5,9.5c0,0,0,0,0,0
				c5.2,0,9.5-4.2,9.5-9.5l1.2-288.9C2727.5,1447.9,2723.3,1443.6,2718,1443.6z"/>
			<g>
				<g>
					<g>
						<path class="st1" d="M2511,1487.9c0,0,13.3,86.2,49.7,122.9c36.4,36.7,82.1,10,82.1,10s27.1-45.5-9.3-82.2
							C2597.1,1501.9,2511,1487.9,2511,1487.9z"/>
						<path d="M2512.5,1478.5c-3-0.5-6.1,0.5-8.2,2.6s-3.2,5.2-2.7,8.2c0.6,3.6,14.2,89.7,52.3,128.2c14.5,14.6,32.4,22.2,52.2,22.2
							c3.4,0,7-0.2,10.5-0.7c17.7-2.3,30.4-9.6,31-10c1.4-0.8,2.6-2,3.4-3.3c0.3-0.5,7.8-13.2,10.2-30.9c3.3-23.9-3.9-45.7-21-62.9
							C2602.1,1493.5,2516.2,1479.1,2512.5,1478.5z M2635.8,1613.8c-8.8,4.3-41.6,17.4-68.4-9.7c-13.8-13.9-26.2-38.4-36.1-71
							c-3.9-12.8-6.6-24.6-8.4-33.2c8.5,1.9,20.3,4.7,33.1,8.7c32.5,10.1,57,22.8,70.7,36.7
							C2653.6,1572.4,2640.2,1605,2635.8,1613.8z"/>
					</g>
					<path d="M2649.6,1614.2c-3.7-3.7-9.7-3.8-13.4-0.1c-3.7,3.7-3.8,9.7-0.1,13.4l74.1,74.8c1.9,1.9,4.3,2.8,6.7,2.8
						c2.4,0,4.8-0.9,6.7-2.8c3.7-3.7,3.8-9.7,0.1-13.4L2649.6,1614.2z"/>
				</g>
				<g>
					<g>
						<path class="st1" d="M2791.7,1621.5c0,0,45.5,27.1,82.2-9.3s50.8-122.5,50.8-122.5s-86.2,13.3-122.9,49.7
							C2765.1,1575.8,2791.7,1621.5,2791.7,1621.5z"/>
						<path d="M2923.3,1480.3c-3.6,0.6-89.7,14.2-128.2,52.3c-17.2,17-24.6,38.7-21.5,62.7c2.3,17.7,9.6,30.4,10,31
							c0.8,1.4,2,2.6,3.3,3.4c0.5,0.3,13.2,7.8,30.9,10.2c3.8,0.5,7.5,0.8,11.2,0.8c19.5,0,37.2-7.4,51.7-21.8
							c38.5-38.1,52.8-124.1,53.4-127.7c0.5-3-0.5-6.1-2.6-8.2S2926.3,1479.8,2923.3,1480.3z M2874,1612.2L2874,1612.2L2874,1612.2z
							 M2904,1534.7c-10.1,32.5-22.8,57-36.7,70.7c-27,26.8-59.7,13.5-68.5,9.1c-4.2-8.7-17.2-41.7,9.7-68.4
							c13.9-13.8,38.4-26.2,71-36.1c12.8-3.9,24.6-6.6,33.2-8.4C2910.8,1510.1,2907.9,1521.9,2904,1534.7z"/>
					</g>
					<path d="M2785.1,1614.8l-74.8,74.1c-3.7,3.7-3.8,9.7-0.1,13.4c1.9,1.9,4.3,2.8,6.7,2.8c2.4,0,4.8-0.9,6.7-2.8l74.8-74.1
						c3.7-3.7,3.8-9.7,0.1-13.4S2788.8,1611.1,2785.1,1614.8z"/>
				</g>
			</g>
		</g>
		<g>
			<g>
				<g>
					<polygon class="st3" points="2665.1,1731.8 2559.1,1731.2 2603.4,1990.2 2664.2,1990.5 2767.2,1991 2828,1991.3 2874.1,1732.8 
						2768.1,1732.3 					"/>
					<path d="M2874.2,1723.3l-315-1.6c0,0,0,0,0,0c-2.8,0-5.4,1.2-7.2,3.4c-1.8,2.1-2.6,5-2.1,7.7l44.3,259c0.8,4.5,4.7,7.9,9.3,7.9
						l224.6,1.1c0,0,0,0,0.1,0c4.6,0,8.5-3.3,9.4-7.8l46.1-258.5c0.5-2.8-0.3-5.6-2.1-7.8S2877,1723.3,2874.2,1723.3z
						 M2820.1,1981.8l-208.6-1.1l-41-240l292.4,1.5L2820.1,1981.8z"/>
				</g>
			</g>
		</g>
	</g>
</g>
<g>
	<g>
		<path class="st4" d="M1729.1,982.5V861.9h-93.9h-93.9v120.6c0,49-47.2,88.8-105.5,88.8h199.4h199.4
			C1776.4,1071.3,1729.1,1031.5,1729.1,982.5z"/>
		<path class="st0" d="M1834.6,1061.8c-52.9,0-96-35.6-96-79.3V861.9c0-5.2-4.3-9.5-9.5-9.5h-187.8c-5.2,0-9.5,4.3-9.5,9.5v120.6
			c0,43.7-43.1,79.3-96,79.3c-5.2,0-9.5,4.3-9.5,9.5s4.3,9.5,9.5,9.5h398.8c5.2,0,9.5-4.3,9.5-9.5S1839.9,1061.8,1834.6,1061.8z
			 M1503.7,1061.8c28.5-17.9,47.1-46.8,47.1-79.3V871.4h168.8v111.1c0,32.5,18.6,61.4,47.1,79.3H1503.7z"/>
	</g>
	<g>
		<g>
			<path class="st2" d="M1832.2,1028.1h-394c-70.8,0-132,40.7-161.7,100c-12.1,24.3-19,51.7-19,80.6v755.9h755.2v-755.9
				c0-30.1-7.4-58.6-20.4-83.6C1962.2,1067.5,1901.8,1028.1,1832.2,1028.1z"/>
			<path class="st0" d="M1832.2,1018.6h-394c-36,0-71,10.1-101.3,29.2c-29.5,18.6-53.3,44.9-68.8,76c-13.2,26.5-20,55.1-20,84.9
				v755.9c0,5.2,4.3,9.5,9.5,9.5h755.2c5.2,0,9.5-4.3,9.5-9.5v-755.9c0-30.6-7.4-61-21.5-88
				C1967.9,1057.7,1903.3,1018.6,1832.2,1018.6z M2003.3,1955.1h-736.2v-746.4c0-26.9,6-52.6,18-76.4c14-28,35.4-51.7,62-68.4
				c27.3-17.2,58.8-26.3,91.2-26.3h394c63.9,0,122.1,35.2,151.7,92c12.7,24.2,19.4,51.6,19.4,79.2V1955.1z"/>
		</g>
	</g>
	<g>
		<path class="st5" d="M1777.8,339.5h-284.5c-50.8,0-91.9,41.2-91.9,91.9v286.2h468.4V431.4C1869.7,380.6,1828.6,339.5,1777.8,339.5
			z"/>
		<path class="st0" d="M1777.8,330h-284.5c-55.9,0-101.4,45.5-101.4,101.4v286.2c0,5.2,4.3,9.5,9.5,9.5h468.4c5.2,0,9.5-4.3,9.5-9.5
			V431.4C1879.2,375.5,1833.7,330,1777.8,330z M1860.2,708.1h-449.4V431.4c0-45.5,37-82.4,82.4-82.4h284.5c45.5,0,82.4,37,82.4,82.4
			V708.1z"/>
	</g>
	<g>
		<g>
			<path class="st4" d="M1482.3,599.6h-59.1c-23.6,0-46,19.2-42.7,44l11.5,69.1c3.7,25.6,19.1,44,42.7,44h59.1
				c2.5,0,4.6-2.1,4.6-4.8L1487,604.3C1487,601.7,1484.9,599.6,1482.3,599.6z"/>
			<path class="st0" d="M1496.4,603.9c-0.2-7.6-6.5-13.8-14.1-13.8h-59.1c-15.5,0-30.8,6.9-40.9,18.4c-9,10.3-13,23.2-11.2,36.4
				c0,0.1,0,0.2,0,0.3l11.5,69c4.6,31.6,25.1,52.1,52.1,52.1h59.1c7.8,0,14.1-6.4,14.1-14.3c0-0.2,0-0.5,0-0.7L1496.4,603.9z
				 M1434.7,747.2c-17.6,0-30-13.4-33.3-35.9c0-0.1,0-0.1,0-0.2l-11.5-68.9c-1.3-9.8,3-17,6.7-21.2c6.5-7.5,16.5-11.9,26.6-11.9
				h54.6l10.8,138.2H1434.7z"/>
		</g>
		<g>
			<path class="st4" d="M1847.9,599.6h-59.1c-2.5,0-4.6,2.1-4.6,4.8L1772.7,752c0,2.6,2.1,4.8,4.6,4.8h59.1c23.6,0,39-18.4,42.7-44
				l11.5-69.1C1893.9,618.8,1871.5,599.6,1847.9,599.6z"/>
			<path class="st0" d="M1847.9,590.1h-59.1c-7.6,0-13.9,6.1-14.1,13.8l-11.5,147.4c0,0.2,0,0.5,0,0.7c0,7.9,6.3,14.3,14.1,14.3
				h59.1c27,0,47.5-20.4,52.1-52.1l11.5-69c0-0.1,0-0.2,0-0.3c1.8-13.2-2.2-26.1-11.2-36.4C1878.7,596.9,1863.4,590.1,1847.9,590.1z
				 M1881.2,642.2l-11.5,68.9c0,0.1,0,0.1,0,0.2c-3.3,22.5-15.7,35.9-33.3,35.9h-53.8l10.8-138.2h54.6c10.1,0,20.1,4.4,26.6,11.9
				C1878.3,625.3,1882.5,632.4,1881.2,642.2z"/>
		</g>
	</g>
	<g>
		<path class="st4" d="M1742,432.3h-133.4h-79.5c-50,0-90.6,40.6-90.6,90.6v205.8c0,120.3,86.9,229.3,193.2,229.3h7.8
			c106.2,0,193.2-109,193.2-229.3V522.9l0,0C1832.6,472.9,1792.1,432.3,1742,432.3z"/>
		<path class="st0" d="M1742,422.8h-213c-55.2,0-100.1,44.9-100.1,100.1v205.8c0,60.2,21.5,120.6,58.9,165.8
			c18.7,22.6,40.3,40.4,64.3,53c25.3,13.3,52,20,79.4,20h7.8c27.4,0,54.1-6.7,79.4-20c24-12.6,45.6-30.4,64.3-53
			c37.4-45.2,58.9-105.7,58.9-165.8V522.9C1842.1,467.7,1797.2,422.8,1742,422.8z M1823.1,728.7c0,55.8-19.9,111.8-54.6,153.7
			c-35.3,42.6-81.1,66.1-129.1,66.1h-7.8c-48,0-93.8-23.5-129.1-66.1c-34.7-41.9-54.6-97.9-54.6-153.7V522.9
			c0-44.7,36.4-81.1,81.1-81.1h213c44.7,0,81.1,36.4,81.1,81.1V728.7z"/>
	</g>
	<path class="st0" d="M1681.6,845.3c-13.9,7.3-28.6,11-43.5,11h-5c-16.9,0-33.2-4.7-48.7-13.9c-4.5-2.7-10.3-1.2-13,3.3
		c-2.7,4.5-1.2,10.3,3.3,13c18.4,11,38.1,16.6,58.4,16.6h5c18.1,0,35.7-4.4,52.3-13.2c4.6-2.4,6.4-8.2,4-12.8
		C1691.9,844.6,1686.2,842.8,1681.6,845.3z"/>
	<g>
		<path class="st0" d="M1534.6,670.5c-10.1,0-18.4,8.3-18.4,18.4c0,10.1,8.3,18.4,18.4,18.4s18.4-8.3,18.4-18.4
			C1553,678.8,1544.7,670.5,1534.6,670.5z"/>
		<path class="st0" d="M1736.5,670.5L1736.5,670.5c-10.1,0-18.4,8.3-18.4,18.4c0,10.1,8.3,18.4,18.4,18.4l0,0
			c10.1,0,18.4-8.3,18.4-18.4C1755,678.8,1746.7,670.5,1736.5,670.5z"/>
	</g>
	<path class="st0" d="M1663.2,622c-5.2,0-9.5,4.3-9.5,9.5V767c0,10-8.1,18.2-18.2,18.2s-18.2-8.1-18.2-18.2c0-5.2-4.3-9.5-9.5-9.5
		s-9.5,4.3-9.5,9.5c0,20.5,16.7,37.2,37.2,37.2s37.2-16.7,37.2-37.2V631.5C1672.7,626.3,1668.5,622,1663.2,622z"/>
	<g>
		<path class="st6" d="M1563.5,605.1h-67.2c-5.2,0-9.5,4.3-9.5,9.5c0,5.2,4.3,9.5,9.5,9.5h67.2c5.2,0,9.5-4.3,9.5-9.5
			C1573,609.3,1568.7,605.1,1563.5,605.1z"/>
		<path class="st6" d="M1774.8,605.1h-67.2c-5.2,0-9.5,4.3-9.5,9.5c0,5.2,4.3,9.5,9.5,9.5h67.2c5.2,0,9.5-4.3,9.5-9.5
			C1784.3,609.3,1780.1,605.1,1774.8,605.1z"/>
	</g>
	<g>
		<path class="st5" d="M1750.7,310.6h-234.8c0,0-9.4,121.7,92.5,121.7H1714c69.8,0,118.6,55.9,118.6,90.6l37.1,0.9v-92.4
			C1870.2,356.1,1801.4,310.6,1750.7,310.6z"/>
		<path class="st0" d="M1750.7,301.1h-234.8c-5,0-9.1,3.8-9.5,8.8c-0.2,2.6-4.6,65.1,30.9,103.4c17.5,18.9,41.4,28.5,71.2,28.5H1714
			c29,0,57.2,10.6,79.2,29.9c18.2,15.9,29.9,36,29.9,51.1c0,5.2,4.3,9.5,9.5,9.5c5.2,0,9.5-4.3,9.5-9.5
			c0-40.3-53.8-100.1-128.1-100.1h-105.6c-24.2,0-43.4-7.5-57.2-22.3c-22.7-24.5-25.9-63.1-26.1-80.3h225.5c26.7,0,56.6,13.4,78,35
			c14.5,14.6,31.7,39.7,31.5,76.2v92.4c0,5.2,4.3,9.5,9.5,9.5c5.2,0,9.5-4.3,9.5-9.5v-92.3c0.3-43-20-72.5-37-89.7
			C1817.3,316.7,1782.2,301.1,1750.7,301.1z"/>
	</g>
	<g>
		<circle class="st6" cx="1514.8" cy="777.7" r="25.7"/>
		<circle class="st6" cx="1756.3" cy="777.7" r="25.7"/>
	</g>
	<g>
		<polygon class="st4" points="1501.5,1791.8 1359.9,1793.2 1445.8,1962.8 1630.5,1962.8 1548.9,1866.3 		"/>
		<path class="st0" d="M1556.6,1860.6l-47.1-73.9c-1.8-2.8-4.8-4.5-8.1-4.4l-141.6,1.4c-3.3,0-6.3,1.8-8,4.6
			c-1.7,2.8-1.8,6.3-0.4,9.2l85.9,169.6c1.6,3.2,4.9,5.2,8.5,5.2h184.7c3.7,0,7.1-2.1,8.6-5.5c1.6-3.4,1-7.3-1.4-10.1L1556.6,1860.6
			z M1451.7,1953.3l-76.4-150.7l121-1.2l44.6,70c0.2,0.4,0.5,0.7,0.8,1l68.4,80.9H1451.7z"/>
	</g>
	<g>
		<path class="st4" d="M1519.5,1807.5c0,0,56.4,125,77.4,132.7c21,7.7,41-14.5,32.1-36.5C1616.8,1873.8,1519.5,1807.5,1519.5,1807.5
			z"/>
		<path class="st0" d="M1524.9,1799.6c-3.5-2.4-8.2-2.2-11.5,0.6c-3.3,2.7-4.3,7.3-2.6,11.2c0.1,0.3,14.4,31.9,31.1,63.9
			c31,59.6,43.5,70.8,51.7,73.8c3.9,1.4,7.9,2.1,11.9,2.1c9.1,0,18-3.7,24.7-10.7c10.4-10.8,13.3-26.3,7.6-40.4
			C1624.9,1868.5,1535.1,1806.6,1524.9,1799.6z M1616.6,1927.4c-4.4,4.6-10.6,6.1-16.3,4c-1.1-0.5-11.3-6.5-42-65.6
			c-5.3-10.1-10.3-20.2-14.6-29.2c6.3,4.7,13.2,9.9,20.1,15.4c43.3,34,53.9,49.3,56.4,55.4
			C1623.6,1915.7,1620.6,1923.2,1616.6,1927.4z"/>
	</g>
	<g>
		<path class="st4" d="M1580.4,1914.5h-60.1c-27.7,0-50.1,22.4-50.1,50.1l0,0h160.4l0,0C1630.5,1936.9,1608.1,1914.5,1580.4,1914.5z
			"/>
		<path class="st0" d="M1580.4,1905h-60.1c-32.9,0-59.6,26.7-59.6,59.6c0,5.2,4.3,9.5,9.5,9.5h160.4c5.2,0,9.5-4.3,9.5-9.5
			C1640,1931.7,1613.3,1905,1580.4,1905z M1480.8,1955.1c4.3-17.8,20.4-31.1,39.5-31.1h60.1c19.1,0,35.2,13.3,39.5,31.1H1480.8z"/>
	</g>
	<g>
		<path class="st4" d="M1531.3,1807.1c-6.9-9.6-18-15.3-29.8-15.3h-100l118.8,77.3l51.6,61.2c5.8,6.9,15.6,8.9,23.7,4.9l0,0
			c10.8-5.4,14.2-19.2,7.1-29L1531.3,1807.1z"/>
		<path class="st0" d="M1539,1801.5c-8.7-12-22.7-19.2-37.5-19.2h-100c-5.2,0-9.5,4.3-9.5,9.5s4.3,9.5,9.5,9.5h100
			c8.7,0,17,4.2,22.1,11.3l71.5,99.2c1.8,2.4,2.3,5.4,1.6,8.3c-0.7,2.9-2.6,5.3-5.3,6.6c-4.2,2.1-9.2,1.1-12.2-2.5l-51.6-61.2
			c-3.4-4-9.4-4.5-13.4-1.1s-4.5,9.4-1.1,13.4l51.6,61.2c5.7,6.7,13.9,10.4,22.2,10.4c4.4,0,8.9-1,13-3.1
			c7.6-3.8,13.2-10.8,15.2-19.1s0.3-17-4.6-23.9L1539,1801.5z"/>
	</g>
	<g>
		<path class="st4" d="M1502.9,1841.8l-33.2,26.5l45.8,62.1c5.8,6.9,15.6,8.9,23.7,4.9l0,0c10.8-5.4,14.2-19.2,7.1-29L1502.9,1841.8
			z"/>
		<path class="st0" d="M1510.8,1836.5c-2.9-4.4-8.8-5.5-13.2-2.6s-5.5,8.8-2.6,13.2l43.5,64.5c0.1,0.1,0.1,0.2,0.2,0.2
			c1.8,2.4,2.3,5.4,1.6,8.3c-0.7,2.9-2.6,5.3-5.3,6.6c-4.1,2-9,1.1-12-2.3l-45.6-61.8c-3.1-4.2-9.1-5.1-13.3-2
			c-4.2,3.1-5.1,9.1-2,13.3l45.8,62.1c0.1,0.2,0.2,0.3,0.4,0.5c5.7,6.7,13.9,10.4,22.2,10.4c4.4,0,8.9-1,13-3.1
			c7.6-3.8,13.2-10.8,15.2-19.1c2-8.2,0.4-16.9-4.5-23.8L1510.8,1836.5z"/>
	</g>
	<g>
		<g>
			<path class="st2" d="M1063.3,1955.1L1063.3,1955.1c74.5,31,165.2-16.4,202.5-105.9l10.8-719.8L996,1736.7
				C958.6,1826.2,988.8,1924,1063.3,1955.1z"/>
			<path class="st0" d="M1280.6,1120.7c-4.8-2.2-10.4-0.1-12.6,4.6l-280.6,607.4c-0.1,0.1-0.1,0.2-0.1,0.3
				c-18.9,45.4-22,94.2-8.6,137.6c13.6,44,42.3,77.1,81,93.2c16.5,6.9,34,10.3,51.7,10.3c23.8,0,48.2-6.2,71.6-18.4
				c40.2-21,72.8-57.6,91.7-103c2-4.8-0.3-10.4-5.1-12.4c-4.8-2-10.4,0.3-12.4,5.1c-17.2,41.3-46.7,74.5-82.9,93.4
				c-35.7,18.7-73.7,21.3-107.1,7.4c-69.5-29-97.4-121.3-62.3-205.8l280.6-607.2C1287.4,1128.5,1285.3,1122.9,1280.6,1120.7z"/>
		</g>
		<g>
			<polygon class="st2" points="1161.4,1773 1092.1,1964.6 1445.8,1962.8 1444.9,1771.2 			"/>
			<path class="st0" d="M1451.5,1764.4c-1.8-1.8-4.2-2.7-6.7-2.7c0,0,0,0-0.1,0l-283.4,1.8c-5.2,0-9.5,4.3-9.4,9.6
				c0,5.2,4.3,9.4,9.5,9.4c0,0,0,0,0.1,0l273.9-1.7l0.9,172.6l-344.2,1.7c-5.2,0-9.5,4.3-9.5,9.5c0,5.2,4.3,9.5,9.5,9.5c0,0,0,0,0,0
				l353.7-1.8c2.5,0,4.9-1,6.7-2.8c1.8-1.8,2.8-4.2,2.7-6.7l-1-191.6C1454.3,1768.6,1453.3,1766.2,1451.5,1764.4z"/>
		</g>
	</g>
	<path class="st0" d="M1395.3,1402.5c-4.8-2-10.4,0.2-12.4,5.1l-151.1,360c-2,4.8,0.2,10.4,5.1,12.4c1.2,0.5,2.4,0.7,3.7,0.7
		c3.7,0,7.2-2.2,8.8-5.8l151.1-360C1402.4,1410.1,1400.2,1404.5,1395.3,1402.5z"/>
	<g>
		<g>
			<path class="st4" d="M2029.2,1825.5c-9.2-10.8-22.7-17-36.9-17h-86.1l-19.5,13.3l-3.5,142.8h106.5h123.1l54-99.5l-117.1-15.7
				L2029.2,1825.5z"/>
			<path class="st0" d="M2168,1855.6l-113.5-15.2l-18.1-21.1c-11.1-12.9-27.1-20.3-44.1-20.3h-86.1c-1.9,0-3.8,0.6-5.3,1.6
				l-19.5,13.3c-2.5,1.7-4.1,4.6-4.2,7.6l-3.5,142.8c-0.1,2.6,0.9,5,2.7,6.9c1.8,1.8,4.2,2.9,6.8,2.9h229.5c5.2,0,9.5-4.3,9.5-9.5
				s-4.3-9.5-9.5-9.5h-219.8l3.1-128.2l13.1-8.9h83.2c11.4,0,22.3,5,29.7,13.7l20.4,23.8c1.5,1.8,3.6,2.9,5.9,3.2l117.1,15.7
				c5.2,0.7,10-3,10.7-8.2S2173.2,1856.3,2168,1855.6z"/>
		</g>
		<g>
			<g>
				<path class="st4" d="M1853.1,1828L1853.1,1828c0,10.8,8.7,19.5,19.5,19.5h34.3l45.7-39h-79.9
					C1861.9,1808.5,1853.1,1817.2,1853.1,1828z"/>
				<path class="st0" d="M1952.6,1799h-79.9c-16,0-29,13-29,29s13,29,29,29h34.3c5.2,0,9.5-4.3,9.5-9.5s-4.3-9.5-9.5-9.5h-34.3
					c-5.5,0-10-4.5-10-10s4.5-10,10-10h79.9c5.2,0,9.5-4.3,9.5-9.5S1957.8,1799,1952.6,1799z"/>
			</g>
			<g>
				<path class="st4" d="M1853.1,1906.1L1853.1,1906.1c0,10.8,8.7,19.5,19.5,19.5h62.4v-39h-62.4
					C1861.9,1886.5,1853.1,1895.3,1853.1,1906.1z"/>
				<path class="st0" d="M1872.6,1896h62.4c5.2,0,9.5-4.3,9.5-9.5s-4.3-9.5-9.5-9.5h-62.4c-16,0-29,13-29,29s13,29,29,29h62.4
					c5.2,0,9.5-4.3,9.5-9.5s-4.3-9.5-9.5-9.5h-62.4c-5.5,0-10-4.5-10-10S1867.1,1896,1872.6,1896z"/>
			</g>
			<g>
				<path class="st4" d="M1883.2,1925.6c-10.8,0-19.5,8.7-19.5,19.5l0,0c0,10.8,8.7,19.5,19.5,19.5h106.5l-54.6-39H1883.2z"/>
				<path class="st0" d="M1989.7,1955.1h-106.5c-5.5,0-10-4.5-10-10s4.5-10,10-10h51.8c5.2,0,9.5-4.3,9.5-9.5s-4.3-9.5-9.5-9.5
					h-51.8c-16,0-29,13-29,29s13,29,29,29h106.5c5.2,0,9.5-4.3,9.5-9.5S1994.9,1955.1,1989.7,1955.1z"/>
			</g>
			<g>
				<path class="st4" d="M1846.4,1867L1846.4,1867c0,10.8,7.4,19.5,16.5,19.5h72.1v-39h-72.1
					C1853.8,1847.5,1846.4,1856.3,1846.4,1867z"/>
				<path class="st0" d="M1862.9,1857h72.1c5.2,0,9.5-4.3,9.5-9.5s-4.3-9.5-9.5-9.5h-72.1c-14.3,0-26,13-26,29s11.6,29,26,29h72.1
					c5.2,0,9.5-4.3,9.5-9.5s-4.3-9.5-9.5-9.5h-72.1c-3.7,0-7-4.7-7-10S1859.2,1857,1862.9,1857z"/>
			</g>
		</g>
	</g>
	<g>
		<g>
			<g>
				<path class="st2" d="M1993.8,1129.3l10.8,719.8c37.3,89.6,128,137,202.5,105.9l0,0c74.5-31,104.7-128.8,67.3-218.4
					L1993.8,1129.3z"/>
				<path class="st0" d="M2283,1732.7l-280.6-607.4c-2.2-4.8-7.8-6.8-12.6-4.6c-4.8,2.2-6.8,7.8-4.6,12.6l280.6,607.2
					c17.1,41.2,19.9,85.4,7.9,124.5c-11.9,38.5-36.8,67.4-70.2,81.3s-71.4,11.3-107.1-7.4c-36.3-19-65.7-52.2-82.9-93.4
					c-2-4.8-7.6-7.1-12.4-5.1c-4.8,2-7.1,7.6-5.1,12.4c18.9,45.4,51.5,81.9,91.7,103c23.4,12.2,47.7,18.4,71.6,18.4
					c17.7,0,35.2-3.4,51.7-10.3c38.7-16.1,67.5-49.2,81-93.2c13.4-43.4,10.3-92.2-8.6-137.6
					C2283.1,1732.9,2283.1,1732.8,2283,1732.7z"/>
			</g>
			<g>
				<polygon class="st2" points="1956.5,1771.2 1955.5,1962.8 2178.2,1964.6 2108.9,1773 				"/>
				<path class="st0" d="M2178.3,1955.1l-213.3-1.7l0.9-172.6l142.9,1.7c0,0,0.1,0,0.1,0c5.2,0,9.4-4.2,9.5-9.4
					c0.1-5.2-4.1-9.5-9.4-9.6l-152.5-1.8c-2.5-0.1-5,1-6.8,2.7s-2.8,4.2-2.8,6.7l-1,191.6c0,5.2,4.2,9.5,9.4,9.5l222.8,1.8
					c0,0,0.1,0,0.1,0c5.2,0,9.5-4.2,9.5-9.4C2187.8,1959.4,2183.6,1955.1,2178.3,1955.1z"/>
			</g>
		</g>
		<path class="st0" d="M1887.5,1407.6c-2-4.8-7.6-7.1-12.4-5.1c-4.8,2-7.1,7.6-5.1,12.4l151.1,360c1.5,3.6,5.1,5.8,8.8,5.8
			c1.2,0,2.5-0.2,3.7-0.7c4.8-2,7.1-7.6,5.1-12.4L1887.5,1407.6z"/>
	</g>
</g>
<g>
	<g>
		<g>
			<path class="st6" d="M2442.1,1076.7h-890.6c-46.7,0-84.6,37.9-84.6,84.6v536.1c0,46.7,37.9,84.6,84.6,84.6h890.6
				c46.7,0,84.6-37.9,84.6-84.6v-536.1C2526.7,1114.6,2488.8,1076.7,2442.1,1076.7z"/>
			<path class="st0" d="M2442.1,1067.2h-890.6c-51.9,0-94.1,42.2-94.1,94.1v536.1c0,51.9,42.2,94.1,94.1,94.1h890.6
				c51.9,0,94.1-42.2,94.1-94.1v-536.1C2536.2,1109.5,2494,1067.2,2442.1,1067.2z M2517.2,1697.5c0,41.4-33.7,75.1-75.1,75.1h-890.6
				c-41.4,0-75.1-33.7-75.1-75.1v-536.1c0-41.4,33.7-75.1,75.1-75.1h890.6c41.4,0,75.1,33.7,75.1,75.1V1697.5z"/>
		</g>
		<g>
			<path class="st4" d="M2478.4,1076.7h-890.6c-46.7,0-84.6,37.9-84.6,84.6v536.1c0,46.7,37.9,84.6,84.6,84.6h890.6
				c46.7,0,84.6-37.9,84.6-84.6v-536.1C2563,1114.6,2525.2,1076.7,2478.4,1076.7z"/>
			<path class="st0" d="M2478.4,1067.2h-890.6c-51.9,0-94.1,42.2-94.1,94.1v536.1c0,51.9,42.2,94.1,94.1,94.1h890.6
				c51.9,0,94.1-42.2,94.1-94.1v-536.1C2572.5,1109.5,2530.3,1067.2,2478.4,1067.2z M2553.5,1697.5c0,41.4-33.7,75.1-75.1,75.1
				h-890.6c-41.4,0-75.1-33.7-75.1-75.1v-536.1c0-41.4,33.7-75.1,75.1-75.1h890.6c41.4,0,75.1,33.7,75.1,75.1V1697.5z"/>
		</g>
		<g>
			<path class="st4" d="M2207,1876.9h-477.5c-46.7,0-84.6,37.9-84.6,84.6h646.8C2291.6,1914.8,2253.7,1876.9,2207,1876.9z"/>
			<path class="st0" d="M2207,1867.4h-477.5c-51.9,0-94.1,42.2-94.1,94.1c0,5.2,4.3,9.5,9.5,9.5h646.7c5.2,0,9.5-4.3,9.5-9.5
				C2301.1,1909.7,2258.9,1867.4,2207,1867.4z M1654.9,1952.1c4.7-36.9,36.3-65.6,74.5-65.6H2207c38.2,0,69.8,28.7,74.5,65.6H1654.9
				z"/>
		</g>
		<g>
			<rect x="1797.1" y="1782.1" class="st4" width="342.2" height="94.9"/>
			<path class="st0" d="M2139.3,1772.6h-342.2c-5.2,0-9.5,4.3-9.5,9.5v94.9c0,5.2,4.3,9.5,9.5,9.5h342.2c5.2,0,9.5-4.3,9.5-9.5
				v-94.9C2148.8,1776.8,2144.6,1772.6,2139.3,1772.6z M2129.8,1867.4h-323.2v-75.9h323.2V1867.4z"/>
		</g>
	</g>
	<path class="st2" d="M2015,1346.8c-41.6,0-75.5,33.9-75.5,75.5s33.9,75.5,75.5,75.5s75.5-33.9,75.5-75.5S2056.6,1346.8,2015,1346.8
		z M2015,1478.8c-31.2,0-56.5-25.3-56.5-56.5s25.3-56.5,56.5-56.5s56.5,25.3,56.5,56.5S2046.1,1478.8,2015,1478.8z"/>
</g>
</svg>
