<?xml version="1.0" encoding="utf-8"?>
<!-- Generator: Adobe Illustrator 19.0.0, SVG Export Plug-In . SVG Version: 6.00 Build 0)  -->
<svg version="1.1" id="Layer_1" xmlns="http://www.w3.org/2000/svg" xmlns:xlink="http://www.w3.org/1999/xlink" x="0px" y="0px"
	 viewBox="0 0 99.2 64.6" style="enable-background:new 0 0 99.2 64.6;" xml:space="preserve">
<style type="text/css">
	.st0{fill:#231F20;}
	.st1{fill:#4FD696;}
	.st2{fill:#4E8EF7;}
	.st3{fill:#4E8EF7;stroke:#000000;stroke-width:2.971500e-002;stroke-miterlimit:10;}
	.st4{fill:#FFFFFF;}
	.st5{fill:#939598;}
	.st6{fill:#C5EDF9;}
</style>
<g>
	<path class="st0" d="M98.9,58.9H0.3C0.1,58.9,0,59,0,59.2c0,0.2,0.1,0.3,0.3,0.3h98.6c0.2,0,0.3-0.1,0.3-0.3
		C99.2,59,99.1,58.9,98.9,58.9z"/>
	<g>
		<path class="st1" d="M98.9,61.5h-8.7c-0.1,0-0.2,0.1-0.2,0.2c0,0.1,0.1,0.2,0.2,0.2h8.7c0.1,0,0.2-0.1,0.2-0.2
			C99.1,61.6,99,61.5,98.9,61.5z"/>
		<path class="st2" d="M87.1,61.5h-3.2c-0.1,0-0.2,0.1-0.2,0.2c0,0.1,0.1,0.2,0.2,0.2h3.2c0.1,0,0.2-0.1,0.2-0.2
			C87.3,61.6,87.2,61.5,87.1,61.5z"/>
		<path class="st1" d="M80.6,61.5H59.4c-0.1,0-0.2,0.1-0.2,0.2c0,0.1,0.1,0.2,0.2,0.2h21.2c0.1,0,0.2-0.1,0.2-0.2
			C80.8,61.6,80.7,61.5,80.6,61.5z"/>
		<path class="st2" d="M56.3,61.5H32.8c-0.1,0-0.2,0.1-0.2,0.2c0,0.1,0.1,0.2,0.2,0.2h23.5c0.1,0,0.2-0.1,0.2-0.2
			C56.5,61.6,56.4,61.5,56.3,61.5z"/>
		<path class="st2" d="M55.2,61.5H50c-0.1,0-0.2,0.1-0.2,0.2c0,0.1,0.1,0.2,0.2,0.2h5.2c0.1,0,0.2-0.1,0.2-0.2
			C55.4,61.6,55.3,61.5,55.2,61.5z"/>
		<path class="st2" d="M46.9,61.5h-3.2c-0.1,0-0.2,0.1-0.2,0.2c0,0.1,0.1,0.2,0.2,0.2h3.2c0.1,0,0.2-0.1,0.2-0.2
			C47.1,61.6,47,61.5,46.9,61.5z"/>
		<path class="st2" d="M40.4,61.5H19.2c-0.1,0-0.2,0.1-0.2,0.2c0,0.1,0.1,0.2,0.2,0.2h21.2c0.1,0,0.2-0.1,0.2-0.2
			C40.6,61.6,40.5,61.5,40.4,61.5z"/>
		<path class="st1" d="M16.1,61.5H0.3c-0.1,0-0.2,0.1-0.2,0.2c0,0.1,0.1,0.2,0.2,0.2h15.8c0.1,0,0.2-0.1,0.2-0.2
			C16.4,61.6,16.3,61.5,16.1,61.5z"/>
	</g>
	<g>
		<g>
			<path class="st2" d="M91.7,64.1h-9.8c-0.1,0-0.2,0.1-0.2,0.2c0,0.1,0.1,0.2,0.2,0.2h9.8c0.1,0,0.2-0.1,0.2-0.2
				C92,64.2,91.9,64.1,91.7,64.1z"/>
			<path class="st1" d="M78.3,64.1H53.7c-0.1,0-0.2,0.1-0.2,0.2c0,0.1,0.1,0.2,0.2,0.2h24.5c0.1,0,0.2-0.1,0.2-0.2
				C78.5,64.2,78.4,64.1,78.3,64.1z"/>
			<path class="st2" d="M50.8,64.1h-3.2c-0.1,0-0.2,0.1-0.2,0.2c0,0.1,0.1,0.2,0.2,0.2h3.2c0.1,0,0.2-0.1,0.2-0.2
				C51,64.2,50.9,64.1,50.8,64.1z"/>
		</g>
		<g>
			<path class="st2" d="M51.6,64.1h-9.8c-0.1,0-0.2,0.1-0.2,0.2c0,0.1,0.1,0.2,0.2,0.2h9.8c0.1,0,0.2-0.1,0.2-0.2
				C51.8,64.2,51.7,64.1,51.6,64.1z"/>
			<path class="st1" d="M38.1,64.1H13.6c-0.1,0-0.2,0.1-0.2,0.2c0,0.1,0.1,0.2,0.2,0.2h24.5c0.1,0,0.2-0.1,0.2-0.2
				C38.3,64.2,38.2,64.1,38.1,64.1z"/>
			<path class="st2" d="M10.6,64.1H7.5c-0.1,0-0.2,0.1-0.2,0.2c0,0.1,0.1,0.2,0.2,0.2h3.2c0.1,0,0.2-0.1,0.2-0.2
				C10.9,64.2,10.8,64.1,10.6,64.1z"/>
		</g>
	</g>
	<g>
		<g>
			<g>
				<path class="st1" d="M69.8,30.5c-0.1,0-0.2,0.1-0.2,0.2c0,0.5-0.4,1-1,1c-0.1,0-0.2,0.1-0.2,0.2c0,0.1,0.1,0.2,0.2,0.2
					c0.8,0,1.4-0.6,1.4-1.4C70,30.6,69.9,30.5,69.8,30.5z"/>
				<path class="st1" d="M71,31.7c-0.5,0-1-0.4-1-1c0-0.1-0.1-0.2-0.2-0.2c-0.1,0-0.2,0.1-0.2,0.2c0,0.8,0.6,1.4,1.4,1.4
					c0.1,0,0.2-0.1,0.2-0.2C71.3,31.8,71.2,31.7,71,31.7z"/>
			</g>
			<g>
				<path class="st1" d="M68.6,31.7c-0.1,0-0.2,0.1-0.2,0.2c0,0.1,0.1,0.2,0.2,0.2c0.5,0,1,0.4,1,1c0,0.1,0.1,0.2,0.2,0.2
					c0.1,0,0.2-0.1,0.2-0.2C70,32.3,69.4,31.7,68.6,31.7z"/>
				<path class="st1" d="M71,31.7c-0.8,0-1.4,0.6-1.4,1.4c0,0.1,0.1,0.2,0.2,0.2c0.1,0,0.2-0.1,0.2-0.2c0-0.5,0.4-1,1-1
					c0.1,0,0.2-0.1,0.2-0.2C71.3,31.8,71.2,31.7,71,31.7z"/>
			</g>
		</g>
		<g>
			<g>
				<path class="st1" d="M27.9,12.5c-0.1,0-0.2,0.1-0.2,0.2c0,0.5-0.4,1-1,1c-0.1,0-0.2,0.1-0.2,0.2c0,0.1,0.1,0.2,0.2,0.2
					c0.8,0,1.4-0.6,1.4-1.4C28.1,12.6,28,12.5,27.9,12.5z"/>
				<path class="st1" d="M29.1,13.7c-0.5,0-1-0.4-1-1c0-0.1-0.1-0.2-0.2-0.2c-0.1,0-0.2,0.1-0.2,0.2c0,0.8,0.6,1.4,1.4,1.4
					c0.1,0,0.2-0.1,0.2-0.2C29.4,13.8,29.3,13.7,29.1,13.7z"/>
			</g>
			<g>
				<path class="st1" d="M26.7,13.7c-0.1,0-0.2,0.1-0.2,0.2c0,0.1,0.1,0.2,0.2,0.2c0.5,0,1,0.4,1,1c0,0.1,0.1,0.2,0.2,0.2
					c0.1,0,0.2-0.1,0.2-0.2C28.1,14.3,27.5,13.7,26.7,13.7z"/>
				<path class="st1" d="M29.1,13.7c-0.8,0-1.4,0.6-1.4,1.4c0,0.1,0.1,0.2,0.2,0.2c0.1,0,0.2-0.1,0.2-0.2c0-0.5,0.4-1,1-1
					c0.1,0,0.2-0.1,0.2-0.2C29.4,13.8,29.3,13.7,29.1,13.7z"/>
			</g>
		</g>
		<g>
			<g>
				<path class="st1" d="M35.9,7.3c-0.1,0-0.2,0.1-0.2,0.2c0,0.5-0.4,1-1,1c-0.1,0-0.2,0.1-0.2,0.2c0,0.1,0.1,0.2,0.2,0.2
					c0.8,0,1.4-0.6,1.4-1.4C36.2,7.4,36.1,7.3,35.9,7.3z"/>
				<path class="st1" d="M37.2,8.5c-0.5,0-1-0.4-1-1c0-0.1-0.1-0.2-0.2-0.2c-0.1,0-0.2,0.1-0.2,0.2c0,0.8,0.6,1.4,1.4,1.4
					c0.1,0,0.2-0.1,0.2-0.2C37.4,8.6,37.3,8.5,37.2,8.5z"/>
			</g>
			<g>
				<path class="st1" d="M34.7,8.5c-0.1,0-0.2,0.1-0.2,0.2c0,0.1,0.1,0.2,0.2,0.2c0.5,0,1,0.4,1,1c0,0.1,0.1,0.2,0.2,0.2
					c0.1,0,0.2-0.1,0.2-0.2C36.2,9.1,35.5,8.5,34.7,8.5z"/>
				<path class="st1" d="M37.2,8.5c-0.8,0-1.4,0.6-1.4,1.4c0,0.1,0.1,0.2,0.2,0.2c0.1,0,0.2-0.1,0.2-0.2c0-0.5,0.4-1,1-1
					c0.1,0,0.2-0.1,0.2-0.2C37.4,8.6,37.3,8.5,37.2,8.5z"/>
			</g>
		</g>
		<g>
			<g>
				<path class="st2" d="M77.5,23.5c-0.1,0-0.2,0.1-0.2,0.2c0,0.5-0.4,1-1,1c-0.1,0-0.2,0.1-0.2,0.2s0.1,0.2,0.2,0.2
					c0.8,0,1.4-0.6,1.4-1.4C77.7,23.6,77.6,23.5,77.5,23.5z"/>
				<path class="st2" d="M78.7,24.7c-0.5,0-1-0.4-1-1c0-0.1-0.1-0.2-0.2-0.2c-0.1,0-0.2,0.1-0.2,0.2c0,0.8,0.6,1.4,1.4,1.4
					c0.1,0,0.2-0.1,0.2-0.2S78.8,24.7,78.7,24.7z"/>
			</g>
			<g>
				<path class="st2" d="M76.3,24.7c-0.1,0-0.2,0.1-0.2,0.2s0.1,0.2,0.2,0.2c0.5,0,1,0.4,1,1c0,0.1,0.1,0.2,0.2,0.2
					c0.1,0,0.2-0.1,0.2-0.2C77.7,25.3,77.1,24.7,76.3,24.7z"/>
				<path class="st2" d="M78.7,24.7c-0.8,0-1.4,0.6-1.4,1.4c0,0.1,0.1,0.2,0.2,0.2c0.1,0,0.2-0.1,0.2-0.2c0-0.5,0.4-1,1-1
					c0.1,0,0.2-0.1,0.2-0.2S78.8,24.7,78.7,24.7z"/>
			</g>
		</g>
		<g>
			<g>
				<path class="st2" d="M32.9,24c-0.1,0-0.2,0.1-0.2,0.2c0,0.5-0.4,1-1,1c-0.1,0-0.2,0.1-0.2,0.2c0,0.1,0.1,0.2,0.2,0.2
					c0.8,0,1.4-0.6,1.4-1.4C33.2,24.1,33.1,24,32.9,24z"/>
				<path class="st2" d="M34.2,25.2c-0.5,0-1-0.4-1-1c0-0.1-0.1-0.2-0.2-0.2c-0.1,0-0.2,0.1-0.2,0.2c0,0.8,0.6,1.4,1.4,1.4
					c0.1,0,0.2-0.1,0.2-0.2C34.4,25.3,34.3,25.2,34.2,25.2z"/>
			</g>
			<g>
				<path class="st2" d="M31.7,25.2c-0.1,0-0.2,0.1-0.2,0.2c0,0.1,0.1,0.2,0.2,0.2c0.5,0,1,0.4,1,1c0,0.1,0.1,0.2,0.2,0.2
					c0.1,0,0.2-0.1,0.2-0.2C33.2,25.9,32.5,25.2,31.7,25.2z"/>
				<path class="st2" d="M34.2,25.2c-0.8,0-1.4,0.6-1.4,1.4c0,0.1,0.1,0.2,0.2,0.2c0.1,0,0.2-0.1,0.2-0.2c0-0.5,0.4-1,1-1
					c0.1,0,0.2-0.1,0.2-0.2C34.4,25.3,34.3,25.2,34.2,25.2z"/>
			</g>
		</g>
		<g>
			<g>
				<path class="st2" d="M18.4,45.5c-0.5,0.5-1.2,0.5-1.7,0c-0.1-0.1-0.2-0.1-0.3,0c-0.1,0.1-0.1,0.2,0,0.3c0.3,0.3,0.7,0.5,1.2,0.5
					s0.8-0.2,1.2-0.5c0.1-0.1,0.1-0.2,0-0.3C18.6,45.4,18.5,45.4,18.4,45.5z"/>
				<path class="st2" d="M18.7,45.5c-0.1-0.1-0.2-0.1-0.3,0c-0.3,0.3-0.5,0.7-0.5,1.2c0,0.4,0.2,0.9,0.5,1.2c0,0,0.1,0.1,0.2,0.1
					c0.1,0,0.1,0,0.2-0.1c0.1-0.1,0.1-0.2,0-0.3c-0.2-0.2-0.4-0.5-0.4-0.9c0-0.3,0.1-0.6,0.4-0.9C18.8,45.7,18.8,45.6,18.7,45.5z"/>
			</g>
			<g>
				<path class="st2" d="M16.3,45.5c-0.1,0.1-0.1,0.2,0,0.3c0.2,0.2,0.4,0.5,0.4,0.9c0,0.3-0.1,0.6-0.4,0.9c-0.1,0.1-0.1,0.2,0,0.3
					c0,0,0.1,0.1,0.2,0.1c0.1,0,0.1,0,0.2-0.1c0.3-0.3,0.5-0.7,0.5-1.2c0-0.4-0.2-0.9-0.5-1.2C16.6,45.4,16.4,45.4,16.3,45.5z"/>
				<path class="st2" d="M17.5,47c-0.4,0-0.9,0.2-1.2,0.5c-0.1,0.1-0.1,0.2,0,0.3c0.1,0.1,0.2,0.1,0.3,0c0.2-0.2,0.5-0.4,0.9-0.4
					c0.3,0,0.6,0.1,0.9,0.4c0,0,0.1,0.1,0.2,0.1c0.1,0,0.1,0,0.2-0.1c0.1-0.1,0.1-0.2,0-0.3C18.4,47.2,18,47,17.5,47z"/>
			</g>
		</g>
		<g>
			<g>
				<path class="st2" d="M62.4,9.2c-0.5,0.5-1.2,0.5-1.7,0c-0.1-0.1-0.2-0.1-0.3,0c-0.1,0.1-0.1,0.2,0,0.3c0.3,0.3,0.7,0.5,1.2,0.5
					c0.4,0,0.9-0.2,1.2-0.5c0.1-0.1,0.1-0.2,0-0.3C62.7,9.1,62.5,9.1,62.4,9.2z"/>
				<path class="st2" d="M62.7,9.2c-0.1-0.1-0.2-0.1-0.3,0c-0.3,0.3-0.5,0.7-0.5,1.2s0.2,0.9,0.5,1.2c0,0,0.1,0.1,0.2,0.1
					c0.1,0,0.1,0,0.2-0.1c0.1-0.1,0.1-0.2,0-0.3c-0.2-0.2-0.4-0.5-0.4-0.9c0-0.3,0.1-0.6,0.4-0.9C62.8,9.5,62.8,9.3,62.7,9.2z"/>
			</g>
			<g>
				<path class="st2" d="M60.4,9.2c-0.1,0.1-0.1,0.2,0,0.3c0.5,0.5,0.5,1.2,0,1.7c-0.1,0.1-0.1,0.2,0,0.3c0,0,0.1,0.1,0.2,0.1
					c0.1,0,0.1,0,0.2-0.1c0.6-0.6,0.6-1.7,0-2.3C60.6,9.1,60.5,9.1,60.4,9.2z"/>
				<path class="st2" d="M60.4,11.3c-0.1,0.1-0.1,0.2,0,0.3s0.2,0.1,0.3,0c0.5-0.5,1.2-0.5,1.7,0c0,0,0.1,0.1,0.2,0.1
					c0.1,0,0.1,0,0.2-0.1c0.1-0.1,0.1-0.2,0-0.3C62.1,10.6,61,10.6,60.4,11.3z"/>
			</g>
		</g>
		<g>
			<g>
				<g>
					<path class="st2" d="M27,11.3C27,11.3,27,11.3,27,11.3C27,11.3,27,11.3,27,11.3z M27.4,12.5C27.4,12.5,27.4,12.5,27.4,12.5
						C27.4,12.5,27.4,12.5,27.4,12.5z"/>
					<path class="st2" d="M30.8,11.5L30.8,11.5L30.8,11.5z"/>
					<path class="st2" d="M23.6,11.3C23.6,11.3,23.6,11.3,23.6,11.3C23.6,11.3,23.6,11.3,23.6,11.3z M25.1,12.9L25.1,12.9L25.1,12.9
						z M24.4,12.1L24.4,12.1L24.4,12.1z"/>
				</g>
			</g>
		</g>
		<g>
			<path class="st2" d="M27,37.8c-1,0-1.9,0.8-1.9,1.9c0,1,0.8,1.9,1.9,1.9c1,0,1.9-0.8,1.9-1.9C28.9,38.6,28,37.8,27,37.8z
				 M27,41.1c-0.8,0-1.4-0.6-1.4-1.4c0-0.8,0.6-1.4,1.4-1.4s1.4,0.6,1.4,1.4C28.4,40.5,27.8,41.1,27,41.1z"/>
			<path class="st2" d="M27,39c-0.4,0-0.7,0.3-0.7,0.7c0,0.4,0.3,0.7,0.7,0.7s0.7-0.3,0.7-0.7C27.7,39.3,27.4,39,27,39z M27,39.9
				c-0.1,0-0.3-0.1-0.3-0.3c0-0.1,0.1-0.3,0.3-0.3c0.1,0,0.3,0.1,0.3,0.3C27.2,39.8,27.1,39.9,27,39.9z"/>
		</g>
		<g>
			<path class="st2" d="M45.8,0c-0.8,0-1.4,0.6-1.4,1.4c0,0.8,0.6,1.4,1.4,1.4c0.8,0,1.4-0.6,1.4-1.4C47.2,0.6,46.6,0,45.8,0z
				 M45.8,2.4c-0.5,0-1-0.4-1-1c0-0.5,0.4-1,1-1s1,0.4,1,1C46.7,1.9,46.3,2.4,45.8,2.4z"/>
			<path class="st2" d="M45.8,0.8c-0.3,0-0.6,0.3-0.6,0.6c0,0.3,0.3,0.6,0.6,0.6s0.6-0.3,0.6-0.6C46.3,1.1,46.1,0.8,45.8,0.8z
				 M45.8,1.5c-0.1,0-0.1-0.1-0.1-0.1c0-0.1,0.1-0.1,0.1-0.1c0.1,0,0.1,0.1,0.1,0.1C45.9,1.5,45.8,1.5,45.8,1.5z"/>
		</g>
		<g>
			<path class="st2" d="M69.3,18.3c-1.5,0-2.7,1.2-2.7,2.7c0,1.5,1.2,2.7,2.7,2.7S72,22.4,72,21C72,19.5,70.8,18.3,69.3,18.3z
				 M69.3,23.2c-1.2,0-2.3-1-2.3-2.3s1-2.3,2.3-2.3c1.2,0,2.3,1,2.3,2.3S70.5,23.2,69.3,23.2z"/>
			<path class="st2" d="M69.3,20c-0.5,0-0.9,0.4-0.9,0.9c0,0.5,0.4,0.9,0.9,0.9s0.9-0.4,0.9-0.9C70.2,20.4,69.8,20,69.3,20z
				 M69.3,21.5c-0.3,0-0.5-0.2-0.5-0.5c0-0.3,0.2-0.5,0.5-0.5c0.3,0,0.5,0.2,0.5,0.5C69.8,21.2,69.5,21.5,69.3,21.5z"/>
		</g>
		<g>
			<g>
				<path class="st2" d="M22.3,32.1c-2.5,0.8-5.2-0.5-6-3c0-0.1-0.2-0.2-0.3-0.1c-0.1,0-0.2,0.2-0.1,0.3c0.7,2.2,2.7,3.6,4.9,3.6
					c0.5,0,1.1-0.1,1.6-0.3c0.1,0,0.2-0.2,0.1-0.3C22.5,32.1,22.4,32.1,22.3,32.1z"/>
				<g>
					<path class="st1" d="M25.7,27.4C25.7,27.4,25.7,27.4,25.7,27.4c-0.1,0-0.2,0.1-0.2,0.2c0,2-1.3,3.8-3.3,4.5
						c-2.2,0.7-4.6-0.2-5.6-2.2c-0.1-0.1-0.2-0.1-0.3-0.1s-0.1,0.2-0.1,0.3c0.6,1.1,1.5,1.9,2.6,2.3c0.6,0.2,1.3,0.4,1.9,0.4
						c0.5,0,1.1-0.1,1.6-0.3c2.1-0.7,3.5-2.7,3.6-4.9C26,27.5,25.9,27.4,25.7,27.4z"/>
					<path class="st1" d="M25.9,27.5c0-0.1-0.1-0.1-0.2-0.1c-0.1,0-0.1,0-0.2,0.1l-0.7,0.7c-0.1,0.1-0.1,0.2,0,0.3
						c0.1,0.1,0.2,0.1,0.3,0l0.5-0.5l0.3,0.6c0,0.1,0.1,0.1,0.2,0.1c0,0,0.1,0,0.1,0c0.1-0.1,0.1-0.2,0.1-0.3L25.9,27.5z"/>
				</g>
			</g>
			<g>
				<path class="st2" d="M20.8,26.3c-0.7,0-1.3,0.6-1.3,1.3c0,0.7,0.6,1.3,1.3,1.3c0.7,0,1.3-0.6,1.3-1.3
					C22.1,26.9,21.5,26.3,20.8,26.3z M20.8,28.5c-0.5,0-0.9-0.4-0.9-0.9c0-0.5,0.4-0.9,0.9-0.9s0.9,0.4,0.9,0.9
					C21.6,28.1,21.3,28.5,20.8,28.5z"/>
				<path class="st2" d="M23.9,26.7h-0.7c0-0.1-0.1-0.1-0.1-0.2l0.5-0.5c0.2-0.2,0.2-0.6,0-0.9l-0.4-0.4c-0.2-0.2-0.6-0.2-0.9,0
					l-0.5,0.5c-0.1,0-0.1-0.1-0.2-0.1v-0.7c0-0.3-0.3-0.6-0.6-0.6h-0.5c-0.3,0-0.6,0.3-0.6,0.6v0.7c-0.1,0-0.1,0.1-0.2,0.1l-0.5-0.5
					c-0.2-0.2-0.6-0.2-0.9,0l-0.4,0.4c-0.2,0.2-0.2,0.6,0,0.9l0.5,0.5c0,0.1-0.1,0.1-0.1,0.2h-0.7c-0.3,0-0.6,0.3-0.6,0.6v0.5
					c0,0.3,0.3,0.6,0.6,0.6h0.7c0,0.1,0.1,0.1,0.1,0.2l-0.5,0.5c-0.2,0.2-0.2,0.6,0,0.9l0.4,0.4c0.2,0.2,0.6,0.2,0.9,0l0.5-0.5
					c0.1,0,0.1,0.1,0.2,0.1v0.7c0,0.3,0.3,0.6,0.6,0.6H21c0.3,0,0.6-0.3,0.6-0.6V30c0.1,0,0.1-0.1,0.2-0.1l0.5,0.5
					c0.2,0.2,0.6,0.2,0.9,0l0.4-0.4c0.2-0.2,0.2-0.6,0-0.9l-0.5-0.5c0-0.1,0.1-0.1,0.1-0.2h0.7c0.3,0,0.6-0.3,0.6-0.6v-0.5
					C24.5,27,24.2,26.7,23.9,26.7z M24.1,27.9c0,0.1-0.1,0.2-0.2,0.2H23c-0.1,0-0.2,0.1-0.2,0.2c0,0.1-0.1,0.3-0.2,0.4
					c0,0.1,0,0.2,0,0.3l0.6,0.6c0.1,0.1,0.1,0.2,0,0.2l-0.4,0.4c0,0-0.1,0.1-0.1,0.1c0,0-0.1,0-0.1-0.1L22,29.5
					c-0.1-0.1-0.2-0.1-0.3,0c-0.1,0.1-0.3,0.1-0.4,0.2c-0.1,0-0.2,0.1-0.2,0.2v0.9c0,0.1-0.1,0.2-0.2,0.2h-0.5
					c-0.1,0-0.2-0.1-0.2-0.2v-0.9c0-0.1-0.1-0.2-0.2-0.2c-0.1,0-0.3-0.1-0.4-0.2c0,0-0.1,0-0.1,0c-0.1,0-0.1,0-0.2,0.1l-0.6,0.6
					c-0.1,0.1-0.2,0.1-0.2,0l-0.4-0.4c-0.1-0.1-0.1-0.2,0-0.2l0.6-0.6c0.1-0.1,0.1-0.2,0-0.3c-0.1-0.1-0.1-0.3-0.2-0.4
					c0-0.1-0.1-0.2-0.2-0.2h-0.9c-0.1,0-0.2-0.1-0.2-0.2v-0.5c0-0.1,0.1-0.2,0.2-0.2h0.9c0.1,0,0.2-0.1,0.2-0.2
					c0-0.1,0.1-0.3,0.2-0.4c0-0.1,0-0.2,0-0.3l-0.6-0.6c-0.1-0.1-0.1-0.2,0-0.2l0.4-0.4c0.1-0.1,0.2-0.1,0.2,0l0.6,0.6
					c0.1,0.1,0.2,0.1,0.3,0c0.1-0.1,0.3-0.1,0.4-0.2c0.1,0,0.2-0.1,0.2-0.2v-0.9c0-0.1,0.1-0.2,0.2-0.2H21c0.1,0,0.2,0.1,0.2,0.2
					v0.9c0,0.1,0.1,0.2,0.2,0.2c0.1,0,0.3,0.1,0.4,0.2c0.1,0,0.2,0,0.3,0l0.6-0.6c0,0,0.1,0,0.1,0c0,0,0.1,0,0.1,0l0.4,0.4
					c0.1,0.1,0.1,0.2,0,0.2l-0.6,0.6c-0.1,0.1-0.1,0.2,0,0.3c0.1,0.1,0.1,0.3,0.2,0.4c0,0.1,0.1,0.2,0.2,0.2h0.9
					c0.1,0,0.2,0.1,0.2,0.2V27.9z"/>
				<path class="st2" d="M20.8,26.3c-0.7,0-1.3,0.6-1.3,1.3c0,0.7,0.6,1.3,1.3,1.3c0.7,0,1.3-0.6,1.3-1.3
					C22.1,26.9,21.5,26.3,20.8,26.3z M20.8,28.5c-0.5,0-0.9-0.4-0.9-0.9c0-0.5,0.4-0.9,0.9-0.9s0.9,0.4,0.9,0.9
					C21.6,28.1,21.3,28.5,20.8,28.5z"/>
			</g>
			<path class="st1" d="M25.6,28.7c-0.1,0-0.2,0-0.3,0.2c-0.4,1.5-1.6,2.7-3.1,3.2c-2.5,0.8-5.2-0.5-6-3c0-0.1-0.2-0.2-0.3-0.1
				c-0.1,0-0.2,0.2-0.1,0.3c0.7,2.2,2.7,3.6,4.9,3.6c0.5,0,1.1-0.1,1.6-0.3c1.6-0.5,2.9-1.9,3.4-3.5C25.8,28.9,25.7,28.8,25.6,28.7z
				"/>
			<g>
				<path class="st1" d="M23.1,23c-1.2-0.6-2.6-0.7-4-0.3C19,22.7,19,22.9,19,23c0,0.1,0.2,0.2,0.3,0.1c1.2-0.4,2.5-0.3,3.6,0.3
					c1.1,0.6,2,1.5,2.4,2.7c0,0.1,0.1,0.2,0.2,0.2c0,0,0,0,0.1,0c0.1,0,0.2-0.2,0.1-0.3C25.3,24.7,24.3,23.6,23.1,23z"/>
				<g>
					<path class="st1" d="M22.7,22.8c-1.1-0.5-2.4-0.5-3.6-0.1c-2.1,0.7-3.5,2.7-3.6,4.9c0,0.1,0.1,0.2,0.2,0.2c0,0,0,0,0,0
						c0.1,0,0.2-0.1,0.2-0.2c0-2,1.3-3.8,3.3-4.5c2.2-0.7,4.6,0.2,5.6,2.2c0.1,0.1,0.2,0.1,0.3,0.1c0.1-0.1,0.1-0.2,0.1-0.3
						C24.8,24.1,23.8,23.3,22.7,22.8z"/>
					<path class="st1" d="M16.3,26.7l-0.5,0.5l-0.3-0.6c-0.1-0.1-0.2-0.1-0.3-0.1c-0.1,0.1-0.1,0.2-0.1,0.3l0.5,0.8
						c0,0.1,0.1,0.1,0.2,0.1c0,0,0,0,0,0c0.1,0,0.1,0,0.2-0.1l0.7-0.7c0.1-0.1,0.1-0.2,0-0.3C16.5,26.6,16.4,26.6,16.3,26.7z"/>
				</g>
			</g>
		</g>
		<g>
			<g>
				<g>
					<g>
						<path class="st1" d="M75.7,42.7c0,2,1.9,2.5,1.9,2.5s1.9-0.5,2-2.5c0-2-1.9-4.7-1.9-4.7S75.7,40.7,75.7,42.7z"/>
						<path d="M77.7,37.8L77.7,37.8c-0.1,0-0.2,0-0.2,0.1c-0.1,0.1-2,2.8-2,4.8c0,0.9,0.4,1.7,1.1,2.2c0.5,0.4,1,0.5,1.1,0.6
							c0,0,0,0,0.1,0c0,0,0,0,0.1,0c0,0,0.5-0.1,1.1-0.5c0.7-0.5,1.1-1.3,1.1-2.2c0-2-1.9-4.7-2-4.8C77.9,37.8,77.8,37.8,77.7,37.8z
							 M78.5,44.5c-0.3,0.3-0.7,0.4-0.8,0.4c-0.1,0-0.5-0.2-0.8-0.4c-0.6-0.4-0.9-1-0.9-1.8c0-1.5,1.2-3.4,1.7-4.1
							c0.5,0.8,1.7,2.7,1.6,4.2C79.3,43.4,79.1,44,78.5,44.5z"/>
					</g>
					<path d="M77.7,42.9C77.7,42.9,77.7,42.9,77.7,42.9c-0.2,0-0.3,0.1-0.3,0.3l0,8.6c0,0.2,0.1,0.3,0.3,0.3c0,0,0,0,0,0
						c0.2,0,0.3-0.1,0.3-0.3l0-8.6C78,43,77.8,42.9,77.7,42.9z"/>
					<g>
						<g>
							<g>
								<path class="st1" d="M71.5,44.2c0,0,0.4,2.6,1.5,3.7c1.1,1.1,2.4,0.3,2.4,0.3s0.8-1.4-0.3-2.4
									C74.1,44.6,71.5,44.2,71.5,44.2z"/>
								<path d="M71.6,43.9c-0.1,0-0.2,0-0.2,0.1c-0.1,0.1-0.1,0.2-0.1,0.2c0,0.1,0.4,2.7,1.6,3.8c0.4,0.4,1,0.7,1.6,0.7
									c0.1,0,0.2,0,0.3,0c0.5-0.1,0.9-0.3,0.9-0.3c0,0,0.1-0.1,0.1-0.1c0,0,0.2-0.4,0.3-0.9c0.1-0.7-0.1-1.4-0.6-1.9
									C74.2,44.4,71.7,44,71.6,43.9z M75.2,48c-0.3,0.1-1.2,0.5-2-0.3c-0.4-0.4-0.8-1.1-1.1-2.1c-0.1-0.4-0.2-0.7-0.3-1
									c0.3,0.1,0.6,0.1,1,0.3c1,0.3,1.7,0.7,2.1,1.1C75.8,46.7,75.4,47.7,75.2,48z"/>
							</g>
							<path d="M75.6,48c-0.1-0.1-0.3-0.1-0.4,0c-0.1,0.1-0.1,0.3,0,0.4l2.2,2.2c0.1,0.1,0.1,0.1,0.2,0.1c0.1,0,0.1,0,0.2-0.1
								c0.1-0.1,0.1-0.3,0-0.4L75.6,48z"/>
						</g>
						<g>
							<g>
								<path class="st1" d="M79.9,48.2c0,0,1.4,0.8,2.4-0.3c1.1-1.1,1.5-3.6,1.5-3.6s-2.6,0.4-3.7,1.5
									C79.1,46.8,79.9,48.2,79.9,48.2z"/>
								<path d="M83.8,44c-0.1,0-2.7,0.4-3.8,1.6c-0.5,0.5-0.7,1.2-0.6,1.9c0.1,0.5,0.3,0.9,0.3,0.9c0,0,0.1,0.1,0.1,0.1
									c0,0,0.4,0.2,0.9,0.3c0.1,0,0.2,0,0.3,0c0.6,0,1.1-0.2,1.5-0.6c1.1-1.1,1.6-3.7,1.6-3.8c0-0.1,0-0.2-0.1-0.2
									C84,44,83.9,44,83.8,44z M82.3,47.9L82.3,47.9L82.3,47.9z M83.2,45.6c-0.3,1-0.7,1.7-1.1,2.1c-0.8,0.8-1.8,0.4-2,0.3
									c-0.1-0.3-0.5-1.2,0.3-2c0.4-0.4,1.1-0.8,2.1-1.1c0.4-0.1,0.7-0.2,1-0.3C83.4,44.9,83.3,45.2,83.2,45.6z"/>
							</g>
							<path d="M79.7,48l-2.2,2.2c-0.1,0.1-0.1,0.3,0,0.4c0.1,0.1,0.1,0.1,0.2,0.1c0.1,0,0.1,0,0.2-0.1l2.2-2.2
								c0.1-0.1,0.1-0.3,0-0.4C80,47.9,79.8,47.9,79.7,48z"/>
						</g>
					</g>
				</g>
				<g>
					<g>
						<g>
							<polygon class="st3" points="76.1,51.5 73,51.4 74.3,59.1 76.1,59.1 79.1,59.2 80.9,59.2 82.3,51.5 79.2,51.5 							"/>
							<path d="M82.3,51.2l-9.4,0c0,0,0,0,0,0c-0.1,0-0.2,0-0.2,0.1c-0.1,0.1-0.1,0.1-0.1,0.2l1.3,7.7c0,0.1,0.1,0.2,0.3,0.2l6.7,0
								c0,0,0,0,0,0c0.1,0,0.3-0.1,0.3-0.2l1.4-7.7c0-0.1,0-0.2-0.1-0.2C82.5,51.2,82.4,51.2,82.3,51.2z M80.7,58.9l-6.2,0l-1.2-7.1
								l8.7,0L80.7,58.9z"/>
						</g>
					</g>
				</g>
			</g>
		</g>
		<g>
			<g>
				<path class="st4" d="M51.4,29.2v-3.6h-2.8h-2.8v3.6c0,1.5-1.4,2.6-3.1,2.6h5.9h5.9C52.8,31.8,51.4,30.7,51.4,29.2z"/>
				<path class="st0" d="M54.5,31.5c-1.6,0-2.9-1.1-2.9-2.4v-3.6c0-0.2-0.1-0.3-0.3-0.3h-5.6c-0.2,0-0.3,0.1-0.3,0.3v3.6
					c0,1.3-1.3,2.4-2.9,2.4c-0.2,0-0.3,0.1-0.3,0.3c0,0.2,0.1,0.3,0.3,0.3h11.8c0.2,0,0.3-0.1,0.3-0.3
					C54.8,31.7,54.7,31.5,54.5,31.5z M44.7,31.5c0.8-0.5,1.4-1.4,1.4-2.4v-3.3h5v3.3c0,1,0.6,1.8,1.4,2.4H44.7z"/>
			</g>
			<g>
				<g>
					<path class="st2" d="M54.4,30.5H42.7c-2.1,0-3.9,1.2-4.8,3c-0.4,0.7-0.6,1.5-0.6,2.4v22.5h22.4V35.9c0-0.9-0.2-1.7-0.6-2.5
						C58.3,31.7,56.5,30.5,54.4,30.5z"/>
					<path class="st0" d="M54.4,30.3H42.7c-1.1,0-2.1,0.3-3,0.9c-0.9,0.6-1.6,1.3-2,2.3c-0.4,0.8-0.6,1.6-0.6,2.5v22.5
						c0,0.2,0.1,0.3,0.3,0.3h22.4c0.2,0,0.3-0.1,0.3-0.3V35.9c0-0.9-0.2-1.8-0.6-2.6C58.5,31.4,56.6,30.3,54.4,30.3z M59.5,58.1
						H37.7V35.9c0-0.8,0.2-1.6,0.5-2.3c0.4-0.8,1.1-1.5,1.8-2c0.8-0.5,1.7-0.8,2.7-0.8h11.7c1.9,0,3.6,1,4.5,2.7
						c0.4,0.7,0.6,1.5,0.6,2.4V58.1z"/>
				</g>
			</g>
			<g>
				<path class="st5" d="M52.8,10.1h-8.5c-1.5,0-2.7,1.2-2.7,2.7v8.5h13.9v-8.5C55.6,11.3,54.3,10.1,52.8,10.1z"/>
				<path class="st0" d="M52.8,9.8h-8.5c-1.7,0-3,1.4-3,3v8.5c0,0.2,0.1,0.3,0.3,0.3h13.9c0.2,0,0.3-0.1,0.3-0.3v-8.5
					C55.8,11.2,54.5,9.8,52.8,9.8z M55.3,21H41.9v-8.2c0-1.4,1.1-2.4,2.4-2.4h8.5c1.3,0,2.4,1.1,2.4,2.4V21z"/>
			</g>
			<g>
				<g>
					<path class="st4" d="M44,17.8h-1.8c-0.7,0-1.4,0.6-1.3,1.3l0.3,2.1c0.1,0.8,0.6,1.3,1.3,1.3h1.8c0.1,0,0.1-0.1,0.1-0.1L44.2,18
						C44.2,17.9,44.1,17.8,44,17.8z"/>
					<path class="st0" d="M44.5,17.9c0-0.2-0.2-0.4-0.4-0.4h-1.8c-0.5,0-0.9,0.2-1.2,0.5c-0.3,0.3-0.4,0.7-0.3,1.1c0,0,0,0,0,0
						l0.3,2c0.1,0.9,0.7,1.5,1.5,1.5h1.8c0.2,0,0.4-0.2,0.4-0.4c0,0,0,0,0,0L44.5,17.9z M42.6,22.2c-0.5,0-0.9-0.4-1-1.1
						c0,0,0,0,0,0l-0.3-2c0-0.3,0.1-0.5,0.2-0.6c0.2-0.2,0.5-0.4,0.8-0.4h1.6l0.3,4.1H42.6z"/>
				</g>
				<g>
					<path class="st4" d="M54.9,17.8h-1.8c-0.1,0-0.1,0.1-0.1,0.1l-0.3,4.4c0,0.1,0.1,0.1,0.1,0.1h1.8c0.7,0,1.2-0.5,1.3-1.3
						l0.3-2.1C56.3,18.4,55.6,17.8,54.9,17.8z"/>
					<path class="st0" d="M54.9,17.5h-1.8c-0.2,0-0.4,0.2-0.4,0.4l-0.3,4.4c0,0,0,0,0,0c0,0.2,0.2,0.4,0.4,0.4h1.8
						c0.8,0,1.4-0.6,1.5-1.5l0.3-2c0,0,0,0,0,0c0.1-0.4-0.1-0.8-0.3-1.1C55.8,17.7,55.4,17.5,54.9,17.5z M55.9,19.1l-0.3,2
						c0,0,0,0,0,0c-0.1,0.7-0.5,1.1-1,1.1H53l0.3-4.1h1.6c0.3,0,0.6,0.1,0.8,0.4C55.8,18.6,55.9,18.8,55.9,19.1z"/>
				</g>
			</g>
			<g>
				<path class="st4" d="M51.8,12.8h-4h-2.4c-1.5,0-2.7,1.2-2.7,2.7v6.1c0,3.6,2.6,6.8,5.7,6.8h0.2c3.2,0,5.7-3.2,5.7-6.8v-6.1l0,0
					C54.5,14.1,53.3,12.8,51.8,12.8z"/>
				<path class="st0" d="M51.8,12.6h-6.3c-1.6,0-3,1.3-3,3v6.1c0,1.8,0.6,3.6,1.8,4.9c0.6,0.7,1.2,1.2,1.9,1.6
					c0.8,0.4,1.5,0.6,2.4,0.6h0.2c0.8,0,1.6-0.2,2.4-0.6c0.7-0.4,1.4-0.9,1.9-1.6c1.1-1.3,1.8-3.1,1.8-4.9v-6.1
					C54.7,13.9,53.4,12.6,51.8,12.6z M54.2,21.7c0,1.7-0.6,3.3-1.6,4.6c-1,1.3-2.4,2-3.8,2h-0.2c-1.4,0-2.8-0.7-3.8-2
					c-1-1.2-1.6-2.9-1.6-4.6v-6.1c0-1.3,1.1-2.4,2.4-2.4h6.3c1.3,0,2.4,1.1,2.4,2.4V21.7z"/>
			</g>
			<path class="st0" d="M50,25.1c-0.4,0.2-0.8,0.3-1.3,0.3h-0.1c-0.5,0-1-0.1-1.4-0.4c-0.1-0.1-0.3,0-0.4,0.1
				c-0.1,0.1,0,0.3,0.1,0.4c0.5,0.3,1.1,0.5,1.7,0.5h0.1c0.5,0,1.1-0.1,1.6-0.4c0.1-0.1,0.2-0.2,0.1-0.4C50.3,25.1,50.1,25,50,25.1z
				"/>
			<g>
				<circle class="st0" cx="45.6" cy="20.5" r="0.5"/>
				<path class="st0" d="M51.6,19.9L51.6,19.9c-0.3,0-0.5,0.2-0.5,0.5c0,0.3,0.2,0.5,0.5,0.5l0,0c0.3,0,0.5-0.2,0.5-0.5
					C52.1,20.2,51.9,19.9,51.6,19.9z"/>
			</g>
			<path class="st0" d="M49.4,18.5c-0.2,0-0.3,0.1-0.3,0.3v4c0,0.3-0.2,0.5-0.5,0.5c-0.3,0-0.5-0.2-0.5-0.5c0-0.2-0.1-0.3-0.3-0.3
				s-0.3,0.1-0.3,0.3c0,0.6,0.5,1.1,1.1,1.1c0.6,0,1.1-0.5,1.1-1.1v-4C49.7,18.6,49.6,18.5,49.4,18.5z"/>
			<g>
				<path class="st6" d="M46.5,18h-2c-0.2,0-0.3,0.1-0.3,0.3c0,0.2,0.1,0.3,0.3,0.3h2c0.2,0,0.3-0.1,0.3-0.3
					C46.7,18.1,46.6,18,46.5,18z"/>
				<path class="st6" d="M52.7,18h-2c-0.2,0-0.3,0.1-0.3,0.3c0,0.2,0.1,0.3,0.3,0.3h2c0.2,0,0.3-0.1,0.3-0.3
					C53,18.1,52.9,18,52.7,18z"/>
			</g>
			<g>
				<path class="st5" d="M52,9.2h-7c0,0-0.3,3.6,2.8,3.6h3.1c2.1,0,3.5,1.7,3.5,2.7l1.1,0v-2.7C55.6,10.6,53.5,9.2,52,9.2z"/>
				<path class="st0" d="M52,8.9h-7c-0.1,0-0.3,0.1-0.3,0.3c0,0.1-0.1,1.9,0.9,3.1c0.5,0.6,1.2,0.8,2.1,0.8h3.1
					c0.9,0,1.7,0.3,2.4,0.9c0.5,0.5,0.9,1.1,0.9,1.5c0,0.2,0.1,0.3,0.3,0.3c0.2,0,0.3-0.1,0.3-0.3c0-1.2-1.6-3-3.8-3h-3.1
					c-0.7,0-1.3-0.2-1.7-0.7c-0.7-0.7-0.8-1.9-0.8-2.4H52c0.8,0,1.7,0.4,2.3,1c0.4,0.4,0.9,1.2,0.9,2.3v2.7c0,0.2,0.1,0.3,0.3,0.3
					c0.2,0,0.3-0.1,0.3-0.3v-2.7c0-1.3-0.6-2.2-1.1-2.7C54,9.4,53,8.9,52,8.9z"/>
			</g>
			<g>
				<circle class="st6" cx="45" cy="23.1" r="0.8"/>
				<circle class="st6" cx="52.2" cy="23.1" r="0.8"/>
			</g>
			<g>
				<polygon class="st4" points="44.6,53.2 40.4,53.3 43,58.3 48.5,58.3 46,55.5 				"/>
				<path class="st0" d="M46.3,55.3l-1.4-2.2C44.8,53,44.7,53,44.6,53l-4.2,0c-0.1,0-0.2,0.1-0.2,0.1c-0.1,0.1-0.1,0.2,0,0.3l2.6,5
					c0,0.1,0.1,0.2,0.3,0.2h5.5c0.1,0,0.2-0.1,0.3-0.2c0-0.1,0-0.2,0-0.3L46.3,55.3z M43.1,58l-2.3-4.5l3.6,0l1.3,2.1c0,0,0,0,0,0
					l2,2.4H43.1z"/>
			</g>
			<g>
				<path class="st4" d="M45.2,53.7c0,0,1.7,3.7,2.3,3.9c0.6,0.2,1.2-0.4,1-1.1C48,55.7,45.2,53.7,45.2,53.7z"/>
				<path class="st0" d="M45.3,53.5c-0.1-0.1-0.2-0.1-0.3,0c-0.1,0.1-0.1,0.2-0.1,0.3c0,0,0.4,0.9,0.9,1.9c0.9,1.8,1.3,2.1,1.5,2.2
					c0.1,0,0.2,0.1,0.4,0.1c0.3,0,0.5-0.1,0.7-0.3c0.3-0.3,0.4-0.8,0.2-1.2C48.3,55.5,45.6,53.7,45.3,53.5z M48,57.3
					c-0.1,0.1-0.3,0.2-0.5,0.1c0,0-0.3-0.2-1.2-2c-0.2-0.3-0.3-0.6-0.4-0.9c0.2,0.1,0.4,0.3,0.6,0.5c1.3,1,1.6,1.5,1.7,1.6
					C48.2,56.9,48.2,57.1,48,57.3z"/>
			</g>
			<g>
				<path class="st4" d="M47,56.9h-1.8c-0.8,0-1.5,0.7-1.5,1.5l0,0h4.8l0,0C48.5,57.6,47.8,56.9,47,56.9z"/>
				<path class="st0" d="M47,56.6h-1.8c-1,0-1.8,0.8-1.8,1.8c0,0.2,0.1,0.3,0.3,0.3h4.8c0.2,0,0.3-0.1,0.3-0.3
					C48.7,57.4,47.9,56.6,47,56.6z M44,58.1c0.1-0.5,0.6-0.9,1.2-0.9H47c0.6,0,1,0.4,1.2,0.9H44z"/>
			</g>
			<g>
				<path class="st4" d="M45.5,53.7c-0.2-0.3-0.5-0.5-0.9-0.5h-3l3.5,2.3l1.5,1.8c0.2,0.2,0.5,0.3,0.7,0.1l0,0
					c0.3-0.2,0.4-0.6,0.2-0.9L45.5,53.7z"/>
				<path class="st0" d="M45.7,53.5c-0.3-0.4-0.7-0.6-1.1-0.6h-3c-0.2,0-0.3,0.1-0.3,0.3c0,0.2,0.1,0.3,0.3,0.3h3
					c0.3,0,0.5,0.1,0.7,0.3l2.1,2.9c0.1,0.1,0.1,0.2,0,0.2c0,0.1-0.1,0.2-0.2,0.2c-0.1,0.1-0.3,0-0.4-0.1l-1.5-1.8
					c-0.1-0.1-0.3-0.1-0.4,0c-0.1,0.1-0.1,0.3,0,0.4l1.5,1.8c0.2,0.2,0.4,0.3,0.7,0.3c0.1,0,0.3,0,0.4-0.1c0.2-0.1,0.4-0.3,0.5-0.6
					c0.1-0.2,0-0.5-0.1-0.7L45.7,53.5z"/>
			</g>
			<g>
				<path class="st4" d="M44.7,54.7l-1,0.8l1.4,1.8c0.2,0.2,0.5,0.3,0.7,0.1l0,0c0.3-0.2,0.4-0.6,0.2-0.9L44.7,54.7z"/>
				<path class="st0" d="M44.9,54.6c-0.1-0.1-0.3-0.2-0.4-0.1c-0.1,0.1-0.2,0.3-0.1,0.4l1.3,1.9c0,0,0,0,0,0c0.1,0.1,0.1,0.2,0,0.2
					c0,0.1-0.1,0.2-0.2,0.2c-0.1,0.1-0.3,0-0.4-0.1l-1.4-1.8c-0.1-0.1-0.3-0.2-0.4-0.1c-0.1,0.1-0.2,0.3-0.1,0.4l1.4,1.8
					c0,0,0,0,0,0c0.2,0.2,0.4,0.3,0.7,0.3c0.1,0,0.3,0,0.4-0.1c0.2-0.1,0.4-0.3,0.5-0.6c0.1-0.2,0-0.5-0.1-0.7L44.9,54.6z"/>
			</g>
			<g>
				<g>
					<path class="st2" d="M31.6,58.1L31.6,58.1c2.2,0.9,4.9-0.5,6-3.1l0.3-21.4l-8.3,18C28.5,54.3,29.4,57.2,31.6,58.1z"/>
					<path class="st0" d="M38.1,33.3c-0.1-0.1-0.3,0-0.4,0.1l-8.3,18c0,0,0,0,0,0c-0.6,1.3-0.7,2.8-0.3,4.1c0.4,1.3,1.3,2.3,2.4,2.8
						c0.5,0.2,1,0.3,1.5,0.3c0.7,0,1.4-0.2,2.1-0.5c1.2-0.6,2.2-1.7,2.7-3.1c0.1-0.1,0-0.3-0.2-0.4c-0.1-0.1-0.3,0-0.4,0.2
						c-0.5,1.2-1.4,2.2-2.5,2.8c-1.1,0.6-2.2,0.6-3.2,0.2c-2.1-0.9-2.9-3.6-1.9-6.1l8.3-18C38.3,33.5,38.2,33.4,38.1,33.3z"/>
				</g>
				<g>
					<polygon class="st2" points="34.5,52.7 32.5,58.4 43,58.3 42.9,52.6 					"/>
					<path class="st0" d="M43.1,52.4c-0.1-0.1-0.1-0.1-0.2-0.1c0,0,0,0,0,0l-8.4,0.1c-0.2,0-0.3,0.1-0.3,0.3c0,0.2,0.1,0.3,0.3,0.3
						c0,0,0,0,0,0l8.1-0.1l0,5.1l-10.2,0.1c-0.2,0-0.3,0.1-0.3,0.3c0,0.2,0.1,0.3,0.3,0.3h0L43,58.6c0.1,0,0.1,0,0.2-0.1
						c0.1-0.1,0.1-0.1,0.1-0.2l0-5.7C43.2,52.6,43.2,52.5,43.1,52.4z"/>
				</g>
			</g>
			<path class="st0" d="M41.5,41.7c-0.1-0.1-0.3,0-0.4,0.2l-4.5,10.7c-0.1,0.1,0,0.3,0.2,0.4c0,0,0.1,0,0.1,0c0.1,0,0.2-0.1,0.3-0.2
				L41.6,42C41.7,41.9,41.6,41.7,41.5,41.7z"/>
			<g>
				<g>
					<path class="st4" d="M60.3,54.2c-0.3-0.3-0.7-0.5-1.1-0.5h-2.6l-0.6,0.4L56,58.4h3.2h3.7l1.6-3L60.9,55L60.3,54.2z"/>
					<path class="st0" d="M64.4,55.1L61,54.7l-0.5-0.6c-0.3-0.4-0.8-0.6-1.3-0.6h-2.6c-0.1,0-0.1,0-0.2,0l-0.6,0.4
						c-0.1,0.1-0.1,0.1-0.1,0.2l-0.1,4.2c0,0.1,0,0.2,0.1,0.2c0.1,0.1,0.1,0.1,0.2,0.1h6.8c0.2,0,0.3-0.1,0.3-0.3
						c0-0.2-0.1-0.3-0.3-0.3h-6.5l0.1-3.8l0.4-0.3h2.5c0.3,0,0.7,0.1,0.9,0.4l0.6,0.7c0,0.1,0.1,0.1,0.2,0.1l3.5,0.5
						c0.2,0,0.3-0.1,0.3-0.2C64.7,55.3,64.6,55.2,64.4,55.1z"/>
				</g>
				<g>
					<g>
						<path class="st4" d="M55.1,54.3L55.1,54.3c0,0.3,0.3,0.6,0.6,0.6h1l1.4-1.2h-2.4C55.3,53.7,55.1,54,55.1,54.3z"/>
						<path class="st0" d="M58,53.5h-2.4c-0.5,0-0.9,0.4-0.9,0.9c0,0.5,0.4,0.9,0.9,0.9h1c0.2,0,0.3-0.1,0.3-0.3
							c0-0.2-0.1-0.3-0.3-0.3h-1c-0.2,0-0.3-0.1-0.3-0.3c0-0.2,0.1-0.3,0.3-0.3H58c0.2,0,0.3-0.1,0.3-0.3
							C58.3,53.6,58.2,53.5,58,53.5z"/>
					</g>
					<g>
						<path class="st4" d="M55.1,56.6L55.1,56.6c0,0.3,0.3,0.6,0.6,0.6h1.9v-1.2h-1.9C55.3,56.1,55.1,56.3,55.1,56.6z"/>
						<path class="st0" d="M55.6,56.3h1.9c0.2,0,0.3-0.1,0.3-0.3c0-0.2-0.1-0.3-0.3-0.3h-1.9c-0.5,0-0.9,0.4-0.9,0.9
							c0,0.5,0.4,0.9,0.9,0.9h1.9c0.2,0,0.3-0.1,0.3-0.3c0-0.2-0.1-0.3-0.3-0.3h-1.9c-0.2,0-0.3-0.1-0.3-0.3S55.5,56.3,55.6,56.3z"
							/>
					</g>
					<g>
						<path class="st4" d="M56,57.2c-0.3,0-0.6,0.3-0.6,0.6l0,0c0,0.3,0.3,0.6,0.6,0.6h3.2l-1.6-1.2H56z"/>
						<path class="st0" d="M59.1,58.1H56c-0.2,0-0.3-0.1-0.3-0.3c0-0.2,0.1-0.3,0.3-0.3h1.5c0.2,0,0.3-0.1,0.3-0.3
							c0-0.2-0.1-0.3-0.3-0.3H56c-0.5,0-0.9,0.4-0.9,0.9c0,0.5,0.4,0.9,0.9,0.9h3.2c0.2,0,0.3-0.1,0.3-0.3
							C59.4,58.2,59.3,58.1,59.1,58.1z"/>
					</g>
					<g>
						<path class="st4" d="M54.9,55.5L54.9,55.5c0,0.3,0.2,0.6,0.5,0.6h2.1v-1.2h-2.1C55.1,54.9,54.9,55.2,54.9,55.5z"/>
						<path class="st0" d="M55.4,55.2h2.1c0.2,0,0.3-0.1,0.3-0.3c0-0.2-0.1-0.3-0.3-0.3h-2.1c-0.4,0-0.8,0.4-0.8,0.9
							c0,0.5,0.3,0.9,0.8,0.9h2.1c0.2,0,0.3-0.1,0.3-0.3c0-0.2-0.1-0.3-0.3-0.3h-2.1c-0.1,0-0.2-0.1-0.2-0.3S55.2,55.2,55.4,55.2z"
							/>
					</g>
				</g>
			</g>
			<g>
				<g>
					<g>
						<path class="st2" d="M59.2,33.6l0.3,21.4c1.1,2.7,3.8,4.1,6,3.1l0,0c2.2-0.9,3.1-3.8,2-6.5L59.2,33.6z"/>
						<path class="st0" d="M67.8,51.5l-8.3-18c-0.1-0.1-0.2-0.2-0.4-0.1c-0.1,0.1-0.2,0.2-0.1,0.4l8.3,18c0.5,1.2,0.6,2.5,0.2,3.7
							c-0.4,1.1-1.1,2-2.1,2.4c-1,0.4-2.1,0.3-3.2-0.2c-1.1-0.6-2-1.5-2.5-2.8c-0.1-0.1-0.2-0.2-0.4-0.2c-0.1,0.1-0.2,0.2-0.2,0.4
							c0.6,1.3,1.5,2.4,2.7,3.1c0.7,0.4,1.4,0.5,2.1,0.5c0.5,0,1-0.1,1.5-0.3c1.2-0.5,2-1.5,2.4-2.8C68.5,54.3,68.4,52.8,67.8,51.5
							C67.8,51.5,67.8,51.5,67.8,51.5z"/>
					</g>
					<g>
						<polygon class="st2" points="58.1,52.6 58.1,58.3 64.7,58.4 62.7,52.7 						"/>
						<path class="st0" d="M64.7,58.1l-6.3,0l0-5.1l4.2,0c0,0,0,0,0,0c0.2,0,0.3-0.1,0.3-0.3c0-0.2-0.1-0.3-0.3-0.3l-4.5-0.1
							c-0.1,0-0.1,0-0.2,0.1c-0.1,0.1-0.1,0.1-0.1,0.2l0,5.7c0,0.2,0.1,0.3,0.3,0.3l6.6,0.1c0,0,0,0,0,0c0.2,0,0.3-0.1,0.3-0.3
							C65,58.2,64.9,58.1,64.7,58.1z"/>
					</g>
				</g>
				<path class="st0" d="M56.1,41.8c-0.1-0.1-0.2-0.2-0.4-0.2c-0.1,0.1-0.2,0.2-0.2,0.4l4.5,10.7c0,0.1,0.2,0.2,0.3,0.2
					c0,0,0.1,0,0.1,0c0.1-0.1,0.2-0.2,0.2-0.4L56.1,41.8z"/>
			</g>
		</g>
	</g>
</g>
</svg>
