<?xml version="1.0" encoding="utf-8"?>
<!-- Generator: Adobe Illustrator 16.0.0, SVG Export Plug-In . SVG Version: 6.00 Build 0)  -->
<!DOCTYPE svg PUBLIC "-//W3C//DTD SVG 1.1//EN" "http://www.w3.org/Graphics/SVG/1.1/DTD/svg11.dtd">
<svg version="1.1" id="Layer_1" xmlns="http://www.w3.org/2000/svg" xmlns:xlink="http://www.w3.org/1999/xlink" x="0px" y="0px"
	 width="256px" height="256px" viewBox="0 0 256 256" enable-background="new 0 0 256 256" xml:space="preserve">
<g>
	<path fill="#DFA22F" d="M165.963,15.838c-3.89-11.975-16.75-18.528-28.724-14.636c-11.976,3.891-18.529,16.751-14.636,28.725
		l58.948,181.366c4.047,11.186,16.131,17.473,27.731,14.134c12.099-3.483,19.475-16.333,15.614-28.216
		C224.749,196.757,165.963,15.838,165.963,15.838"/>
	<path fill="#3CB187" d="M74.626,45.516c-3.893-11.973-16.753-18.526-28.727-14.636C33.924,34.77,27.371,47.631,31.264,59.606
		L90.21,240.972c4.048,11.187,16.132,17.473,27.732,14.132c12.099-3.48,19.476-16.331,15.614-28.217
		C133.41,226.436,74.626,45.516,74.626,45.516"/>
	<path fill="#CE1E5B" d="M240.162,166.045c11.975-3.89,18.525-16.751,14.636-28.727c-3.891-11.973-16.751-18.526-28.725-14.636
		L44.708,181.632c-11.186,4.046-17.473,16.13-14.134,27.729c3.483,12.1,16.333,19.476,28.216,15.614
		C59.243,224.829,240.162,166.045,240.162,166.045"/>
	<path fill="#392538" d="M82.507,217.271c11.806-3.836,27.021-8.779,43.348-14.084c-3.836-11.806-8.779-27.022-14.086-43.353
		l-43.35,14.091L82.507,217.271"/>
	<path fill="#BB242A" d="M173.848,187.592c16.388-5.324,31.619-10.273,43.348-14.084c-3.836-11.807-8.781-27.027-14.089-43.361
		l-43.35,14.091L173.848,187.592"/>
	<path fill="#72C5CD" d="M210.484,74.706c11.973-3.891,18.526-16.751,14.637-28.727c-3.891-11.974-16.752-18.526-28.727-14.636
		L15.028,90.292c-11.186,4.045-17.473,16.13-14.132,27.73c3.481,12.099,16.332,19.475,28.217,15.614
		C29.564,133.489,210.484,74.706,210.484,74.706"/>
	<path fill="#248C73" d="M52.822,125.933c11.805-3.836,27.024-8.782,43.354-14.086c-5.324-16.39-10.273-31.622-14.084-43.352
		L38.731,82.587L52.822,125.933"/>
	<path fill="#62803A" d="M144.16,96.256c16.392-5.326,31.626-10.275,43.355-14.088c-5.326-16.392-10.275-31.628-14.088-43.36
		l-43.359,14.092L144.16,96.256"/>
</g>
</svg>
