<?xml version="1.0" encoding="utf-8"?>
<!-- Generator: Adobe Illustrator 19.0.0, SVG Export Plug-In . SVG Version: 6.00 Build 0)  -->
<svg version="1.1" id="Layer_1" xmlns="http://www.w3.org/2000/svg" xmlns:xlink="http://www.w3.org/1999/xlink" x="0px" y="0px"
	 viewBox="-46.5 372.1 498.2 149.2" style="enable-background:new -46.5 372.1 498.2 149.2;" xml:space="preserve">
<style type="text/css">
	.st0{fill:#443642;}
	.st1{fill:#70CADB;}
	.st2{fill:#E01765;}
	.st3{fill:#E8A723;}
	.st4{fill:#3EB890;}
	.st5{fill:#CC2027;}
	.st6{fill:#361238;}
	.st7{fill:#65863A;}
	.st8{fill:#1A937D;}
</style>
<title>background</title>
<title>Layer 1</title>
<g>
	<g>
		<path class="st0" d="M130.5,430.6c0-14.8,10.8-25.2,30.4-25.2c12,0,21.8,3.8,27.1,7.6c0.8,0.5,2.1,1.8,1.3,4.2c-1,2.6-3,6.5-4.3,9
			c-0.8,1.5-2.8,1.3-3.9,0.8c-3.8-1.9-10-5.2-15.7-5.8c-1.4-0.1-2.9-0.2-4.3-0.2c-5,0.1-9.2,1.9-10.7,5.7c-0.3,0.8-0.5,1.5-0.5,2.3
			c-0.1,5,6.9,6.9,15.4,8.3c15.8,2.7,27.8,7.3,27.8,23.6c0,13.8-11,26.3-32.5,25.9c-14.2-0.3-24.3-5.1-29.7-9.7
			c-0.2-0.2-2.2-2.3-1.1-4.8c1.3-3.2,3.4-7,5.1-8.9c0.9-1.3,3.4-1.5,4.6-0.7c4.4,2.8,11.8,7.2,20.2,7.5c0.7,0,1.3,0,2,0
			c7.6-0.2,12.2-3.1,12.1-7.9c-0.1-4.3-6.1-6.8-15.7-8.6C142.8,451.1,130.5,446,130.5,430.6"/>
		<path class="st0" d="M269.3,451.7c-10.8,0.1-20.7,3.1-20.9,11.5c0,6.7,5.4,10,13,9.5c7.3-0.7,12.9-3.9,15.3-8.1
			c0.9-1.6,1-7.4,1-9.9c0-0.5-1.1-1.5-1.5-1.7C273.9,452.2,272.2,451.9,269.3,451.7 M233.5,417.8c5-4.5,15-11.5,31-11.2
			c21,0.4,32.1,10.3,33.2,33.9c0.4,9.7-0.3,36.8-0.4,43.6c0,1-0.4,1.6-1.7,1.7c-3.5,0.1-11.5,0.1-15.1,0c-1.9-0.1-2.1-1-2.1-2
			c0-0.6-0.1-2.5-0.1-4c0-0.8-0.8-0.8-1-0.6c-4.9,5.3-13,7.8-21.6,7.8c-13,0-26.1-7.7-26-22.9c0-15.6,11.1-23.3,23.2-25.1
			c7.8-1.2,16.5-0.1,23.1,2.5c0.4,0.2,1.3-0.1,1.3-0.7c0-2-0.1-5.8-0.5-7.6c-1-4.6-4.8-8.2-12.8-9.2c-1.6-0.2-3.3-0.3-5-0.1
			c-6.4,0.5-14,5.5-17.2,7.3c-0.7,0.4-1.9,0.1-2.3-0.4c-1.9-2.4-6.5-9.4-6.9-10.5C232.3,419.3,232.8,418.4,233.5,417.8L233.5,417.8z
			"/>
		<path class="st0" d="M304.5,446.8c-0.1-21.7,15-40,39.6-40.2c15.3-0.1,26.5,6.9,28.4,10.1c0.4,0.8,0.2,1.4-0.1,2.2
			c-1.3,2.7-4.6,8-6.9,11c-1,1.3-2.1,0.2-3.3-0.7c-3.5-2.3-10.1-5.2-16.6-5.2c-11.8,0-20.6,8.1-20.5,23c0.1,14.3,8.5,22.2,20.6,22.5
			c6.3,0.2,12.4-3.5,15.7-6.4c1-0.9,2.1-0.4,3.3,0.5c2.3,2.4,5.6,6,7.5,8.5c1.2,1.4,0.3,2.8-0.1,3.3c-5,6.3-14.6,11.6-27.4,11.7
			C317.9,487.3,304.6,468.6,304.5,446.8"/>
		<path class="st0" d="M431.8,486.2c1.3-0.1,14.6-1.9,18.7-2.9c1-0.2,1.4-1.1,0.8-1.9c-2.3-3.4-8.3-13.2-14.6-21.9
			c-5.8-8-11.9-15.1-13.9-17.8c-0.5-0.7-0.5-1.3,0.1-1.8c3.8-3.7,19.5-19.1,25.4-25.5c2.3-2.5,0.9-3.5-1-4.1
			c-3.8-1.1-9.8-2.5-13.3-3.2c-1.5-0.3-3.2-0.2-4.5,1.1c-5.9,5.5-24,23.6-29.4,29c-1,1-1.5,0.8-1.5-0.6c0-10.4-0.3-55.1-0.6-62.5
			c0-1-1.2-1.7-1.9-1.7c-3.4-0.2-11.9-0.2-15.3,0c-0.9,0.1-1.8,1.1-1.9,1.9c-0.8,11.8,0.3,98.1,0.8,110.1c0,0.9,0.7,1.5,1.5,1.6
			c3.4,0.2,11.7,0.2,15.6,0.1c1.9,0,2.1-1.3,2.1-1.3l0.3-23.2c0,0,0.2-1,0.5-1.4c1.4-1.5,5.2-5.5,6.8-7.1c0.4-0.4,1-0.4,1.4,0.2
			c1.9,2.6,7.4,11,12.5,18.5c4.7,6.9,9,13,9.3,13.5C430.4,486.2,431.2,486.2,431.8,486.2L431.8,486.2L431.8,486.2z"/>
		<path class="st0" d="M204.6,486.1c1.2,0,10.1,0,14,0c1.3,0,2-1,2.1-1.9c0.8-16.9,0.5-97.5,0-110.2c0-1.1-0.5-1.5-1.3-1.6
			c-3.4-0.5-13-0.3-16.1,0.5c-0.6,0.2-1,0.6-1,1.2c-0.8,32.8-0.2,108.4-0.1,109.9C202.4,485.4,203.1,486,204.6,486.1L204.6,486.1
			L204.6,486.1z"/>
		<g>
			<g>
				<path class="st1" d="M-34,452.4c-5.5,0-10.1-3.2-11.9-8.3c-0.1-0.2-0.1-0.4-0.2-0.6c-1.9-6.5,1.8-13.4,8.3-15.6L66.4,393
					c1.3-0.4,2.5-0.5,3.8-0.6c5.6,0,10.4,3.3,12.2,8.5l0.2,0.5c1.9,6.8-2.9,12.9-8.7,14.9c0,0-1.1,0.4-103.7,35.4
					C-31.2,452.2-32.6,452.4-34,452.4L-34,452.4z"/>
			</g>
			<g>
				<path class="st2" d="M-16.6,503.7c-5.5,0-10.2-3.2-11.9-8.2c-0.1-0.2-0.1-0.4-0.2-0.6c-1.9-6.6,1.7-13.5,8.2-15.7l104.2-35.2
					c1.3-0.5,2.7-0.7,4.1-0.7c5.6,0,10.4,3.4,12.2,8.4l0.2,0.5c1,3.5,0.4,7.5-1.6,10.6c-1.5,2.3-6.2,4.4-6.2,4.4l-104.6,35.8
					C-13.7,503.4-15.1,503.7-16.6,503.7L-16.6,503.7z"/>
			</g>
			<g>
				<path class="st3" d="M70.1,503.9c-5.6,0-10.5-3.5-12.3-8.7L23.1,391.9l-0.2-0.6c-1.9-6.6,1.7-13.5,8.2-15.7
					c1.3-0.4,2.6-0.7,4-0.7c2,0,4,0.4,5.8,1.3c3.1,1.5,5.4,4.1,6.4,7.4L82.2,487l0.1,0.3c2,6.8-1.7,13.7-8.2,15.9
					C72.8,503.7,71.5,503.9,70.1,503.9L70.1,503.9z"/>
			</g>
			<g>
				<path class="st4" d="M18.4,521.3c-5.6,0-10.5-3.5-12.3-8.7l-34.8-103.3c-0.1-0.2-0.1-0.4-0.2-0.6c-1.9-6.6,1.7-13.5,8.2-15.7
					c1.3-0.4,2.6-0.7,4-0.7c5.6,0,10.5,3.5,12.3,8.7l34.8,103.3c0.1,0.2,0.1,0.4,0.2,0.6c1.9,6.6-1.7,13.5-8.2,15.7
					C21.1,521.1,19.8,521.3,18.4,521.3L18.4,521.3L18.4,521.3z"/>
			</g>
			<path class="st5" d="M53,480.7l24.3-8.3l-7.9-23.5L45,457L53,480.7z"/>
			<path class="st6" d="M1.4,498.3l24.3-8.3l-8-23.7l-24.3,8.2L1.4,498.3z"/>
			<path class="st7" d="M35.7,429.4l24.3-8.3l-7.8-23.3l-24.3,8.1L35.7,429.4z"/>
			<path class="st8" d="M-15.9,447l24.3-8.3l-7.9-23.6l-24.3,8.1L-15.9,447L-15.9,447z"/>
		</g>
	</g>
</g>
</svg>
