<svg xmlns="http://www.w3.org/2000/svg">
    <symbol viewBox="0 0 40 47" id="shape-android">
        <title>android</title>
        <path d="M743.274,414.989a2.729,2.729,0,0,1-2.727-2.73V400.585a2.727,2.727,0,1,1,5.454,0v11.674A2.728,2.728,0,0,1,743.274,414.989Zm-7.425,5.763h-2.078a2.7,2.7,0,0,1,.109.757v5.761a2.728,2.728,0,1,1-5.456,0v-5.761a2.737,2.737,0,0,1,.109-0.757h-5.066a2.738,2.738,0,0,1,.11.757v5.761a2.728,2.728,0,1,1-5.456,0v-5.761a2.7,2.7,0,0,1,.109-0.757h-2.079a2.884,2.884,0,0,1-2.878-2.883V397.855h25.455v20.014A2.884,2.884,0,0,1,735.849,420.752Zm-16.107-33.82-0.512-.769-0.506-.758-1.133-1.7a0.455,0.455,0,0,1,.757-0.5l1.217,1.825,0.51,0.767,0.518,0.777a15.206,15.206,0,0,1,10.815,0l0.519-.777,0.511-.767,1.215-1.825a0.455,0.455,0,0,1,.757.5l-1.134,1.7-0.5.758-0.512.769c3.859,1.8,6.469,5.2,6.469,9.1H713.273C713.273,392.136,715.883,388.73,719.742,386.932Zm11.713,5.465a1.365,1.365,0,1,0-1.363-1.365A1.365,1.365,0,0,0,731.455,392.4Zm-10.909,0a1.365,1.365,0,1,0-1.364-1.365A1.365,1.365,0,0,0,720.546,392.4Zm-11.82,22.592a2.729,2.729,0,0,1-2.727-2.73V400.585a2.728,2.728,0,1,1,5.455,0v11.674A2.73,2.73,0,0,1,708.726,414.989Z"
        transform="translate(-706 -383)" />
    </symbol>
    <symbol viewBox="0 0 32 37" id="shape-apple">
        <title>apple</title>
        <path d="M542.727,407.661c0.053,5.6,5.213,7.459,5.273,7.486a19.914,19.914,0,0,1-2.723,5.264c-1.638,2.255-3.335,4.5-6.012,4.544-2.634.047-3.478-1.469-6.488-1.469s-3.949,1.423-6.439,1.516c-2.583.092-4.551-2.435-6.2-4.681-3.377-4.6-5.956-12.986-2.49-18.648a9.713,9.713,0,0,1,8.13-4.642c2.537-.042,4.934,1.612,6.484,1.612s4.465-1.989,7.524-1.7a9.386,9.386,0,0,1,7.187,3.666C546.786,400.725,542.677,402.973,542.727,407.661Zm-10.779-11.136a7.493,7.493,0,0,1,2.086-5.727,9,9,0,0,1,5.789-2.8,7.852,7.852,0,0,1-2.045,5.909A7.475,7.475,0,0,1,531.948,396.525Z"
        transform="translate(-516 -388)" />
    </symbol>
    <symbol viewBox="0 0 16 16" id="shape-arrow">
        <title>arrow</title>
        <path d="M30.007,36l1.256-1.258L25.4,28.889H38V27.111H25.4l5.858-5.853L30.007,20,22,28Z" transform="translate(-22 -20)" />
    </symbol>
    <symbol viewBox="0 0 15 15.031" id="shape-attachment">
        <title>attachment</title>
        <path d="M1349.51,77.94a0.579,0.579,0,0,0-.07.074,0.144,0.144,0,0,0-.04.043l-1.22,1.282a1.6,1.6,0,0,1-2.3.035l-0.01-.011a1.464,1.464,0,0,1-.17-2.212l1.22-1.282a0.239,0.239,0,0,1,.05-0.05l0.06-.065,2.16-2.274a3.659,3.659,0,0,0-3.95.719l-1.42,1.49c-1.31,1.382-1.02,3.695.64,5.155l0.01,0.011a3.946,3.946,0,0,0,5.39.155l1.41-1.49a3.3,3.3,0,0,0,.39-3.85Zm7.01-9.8a3.946,3.946,0,0,0-5.39-.148l-1.41,1.489a3.336,3.336,0,0,0-.4,3.853l2.26-2.372c0-.005.01-0.009,0.01-0.015v0l1.22-1.283a1.629,1.629,0,0,1,2.33-.042,1.48,1.48,0,0,1,.15,2.229l-1.18,1.25a0.252,0.252,0,0,0-.05.05l-2.25,2.372a3.646,3.646,0,0,0,3.94-.718l1.42-1.489C1358.48,71.931,1358.19,69.612,1356.52,68.139Zm-9.09,9.53,0.06,0.057a1.222,1.222,0,0,0,1.69-.077l4.55-4.79a1.114,1.114,0,0,0-.07-1.625l-0.07-.057a1.211,1.211,0,0,0-1.68.076l-4.55,4.792A1.114,1.114,0,0,0,1347.43,77.67Z"
        transform="translate(-1343 -67)" />
    </symbol>
    <symbol viewBox="0 0 44 39" id="shape-browser">
        <title>browser</title>
        <path d="M939.938,426H900.062A2.075,2.075,0,0,1,898,423.911V389.089A2.076,2.076,0,0,1,900.062,387h39.876A2.076,2.076,0,0,1,942,389.089v34.822A2.075,2.075,0,0,1,939.938,426Zm-37.813-36.911a2.09,2.09,0,1,0,2.062,2.09A2.077,2.077,0,0,0,902.125,389.089Zm6.188,0a2.09,2.09,0,1,0,2.062,2.09A2.076,2.076,0,0,0,908.313,389.089Zm6.187,0a2.09,2.09,0,1,0,2.063,2.09A2.077,2.077,0,0,0,914.5,389.089Zm25.438,6.268H900.062v28.554h39.876V395.357Z"
        transform="translate(-898 -387)" />
    </symbol>
    <symbol viewBox="0 0 96.781 96.09" id="shape-clock">
        <title>clock</title>
        <path d="M293.48,1091.99a4.019,4.019,0,0,1-3.631,3.98H262.465a2.253,2.253,0,0,1-2.073-2.11v-21.2a4.091,4.091,0,0,1,8.179.13v12.82c0,0.04-.011.08-0.011,0.12s0.011,0.08.011,0.11v0.03a2.193,2.193,0,0,0,2.015,2.06l19.1,0.02A4.068,4.068,0,0,1,293.48,1091.99Zm-28.99-48.03a48.051,48.051,0,1,1-48.385,48.05A48.229,48.229,0,0,1,264.49,1043.96Zm35.848,48.05a35.844,35.844,0,1,0-35.848,35.59A35.715,35.715,0,0,0,300.338,1092.01Z"
        transform="translate(-216.094 -1043.97)" />
    </symbol>
    <symbol viewBox="0 0 11 12" id="shape-comment">
        <title>comment</title>
        <path fill="#fff" d="M310.977,444h-6.955a2.1,2.1,0,0,0-2.017,2.169v5.572a1.624,1.624,0,0,0,1.732,1.859h0.579a0.652,0.652,0,0,1,.579.6h0c0,0.02,0-.02,0,0s0-.021,0,0v1.2c0,0.165-.066.593,0.089,0.592a0.26,0.26,0,0,0,.158-0.054l0.038-.034,1.711-1.782a0.687,0.687,0,0,1,.063-0.058h0a1.7,1.7,0,0,1,.834-0.463h3.474a1.623,1.623,0,0,0,1.731-1.859v-5.572A2.1,2.1,0,0,0,310.977,444Zm-2.031,6.031a0.566,0.566,0,0,1-.444.577h-3.155a0.565,0.565,0,0,1-.443-0.577v-0.065a0.564,0.564,0,0,1,.445-0.576H308.5a0.563,0.563,0,0,1,.445.576v0.065Zm1.736-2.407a0.571,0.571,0,0,1-.491.567H305.4a0.571,0.571,0,0,1-.491-0.567v-0.062A0.57,0.57,0,0,1,305.4,447h4.791a0.571,0.571,0,0,1,.493.567v0.062Z"
        transform="translate(-302 -444)" />
    </symbol>
    <symbol viewBox="0 0 24.281 24" id="shape-dashboard">
        <title>dashboard</title>
        <path d="M630.886,66.769H623.41V65.677a1.687,1.687,0,0,0-1.7-1.677H616.7a1.687,1.687,0,0,0-1.7,1.677v4.954a1.687,1.687,0,0,0,1.7,1.677H617.8v7.385H616.7a1.687,1.687,0,0,0-1.7,1.677v4.954A1.687,1.687,0,0,0,616.7,88h5.016a1.687,1.687,0,0,0,1.7-1.677V85.231h7.476v1.093a1.688,1.688,0,0,0,1.7,1.677H637.6a1.687,1.687,0,0,0,1.7-1.677V81.369a1.687,1.687,0,0,0-1.7-1.677h-1.107V72.308H637.6a1.687,1.687,0,0,0,1.7-1.677V65.677A1.687,1.687,0,0,0,637.6,64h-5.015a1.688,1.688,0,0,0-1.7,1.677v1.093Zm-14.017,3.692V65.846h4.672v4.615h-4.672Zm4.672,15.692h-4.672V81.538h4.672v4.615Zm1.869-3.692V81.369a1.687,1.687,0,0,0-1.7-1.677h-1.106V72.308h1.106a1.687,1.687,0,0,0,1.7-1.677V69.538h7.476v1.093a1.688,1.688,0,0,0,1.7,1.677h1.106v7.385h-1.106a1.688,1.688,0,0,0-1.7,1.677v1.093H623.41Zm14.018-.923v4.615h-4.673V81.538h4.673Zm0-15.692v4.615h-4.673V65.846h4.673Z"
        transform="translate(-615 -64)" />
    </symbol>
    <symbol viewBox="0 0 7.125 7.125" id="shape-delete">
        <title>delete</title>
        <path fill="#fff" d="M323.848,654.028l0.971-.971,6.15,6.15-0.971.971Zm0.971,6.15-0.972-.971,6.151-6.15,0.971,0.971Z" transform="translate(-323.844 -653.063)" />
    </symbol>
    <symbol viewBox="0 0 9 9" id="shape-forward">
        <title>forward</title>
        <path fill="#fff" d="M328,574.5l-4-3.5v2.047c-5,1.2-5,6.953-5,6.953s1.74-4.043,5-4.043V578Z" transform="translate(-319 -571)" />
    </symbol>
    <symbol viewBox="0 0 32 32" id="shape-download">
        <title>download</title>
        <path d="M30.266,20.647l-4.863-3.272h-2.998l5.193,3.984h-5.414c-0.154,0-0.295,0.079-0.365,0.202l-1.248,3.415h-9.141 l-1.248-3.415c-0.069-0.123-0.211-0.202-0.366-0.202H4.401l5.194-3.984h-3l-4.862,3.272c-0.724,0.432-1.156,1.429-0.962,2.213 l0.857,4.695c0.195,0.785,1.055,1.428,1.912,1.428h24.918c0.857,0,1.719-0.643,1.912-1.428l0.857-4.695 C31.422,22.076,30.99,21.079,30.266,20.647z M23.943,10.838h-5.041V3.017h-5.804v7.821H8.058L16,18.291L23.943,10.838z"/>
    </symbol>
    <symbol viewBox="0 0 22.938 23.938" id="shape-images">
        <title>images</title>
        <path d="M59.727,118.56L47.8,115.55a1.68,1.68,0,0,0-2.033,1.237l-2.975,12.071a1.7,1.7,0,0,0,1.221,2.057l11.929,3.012a1.682,1.682,0,0,0,2.033-1.237l2.976-12.072A1.705,1.705,0,0,0,59.727,118.56Zm-0.541,2.2-2.164,8.781a0.558,0.558,0,0,1-.677.41L45.5,127.211a0.568,0.568,0,0,1-.407-0.686l2.164-8.779a0.561,0.561,0,0,1,.678-0.413l10.845,2.739A0.566,0.566,0,0,1,59.185,120.756Zm-9.749,1.111a1.518,1.518,0,0,0,1.84-1.118,1.539,1.539,0,0,0-1.106-1.863A1.516,1.516,0,0,0,48.331,120,1.538,1.538,0,0,0,49.437,121.867Zm5.047,0.741a0.339,0.339,0,0,0-.607-0.153L51.7,124.582a0.448,0.448,0,0,1-.729-0.1l-0.348-.584a0.586,0.586,0,0,0-.81-0.2l-3.537,2.134c-0.279.169-.243,0.351,0.071,0.432l2.292,0.577c0.315,0.081.83,0.211,1.146,0.291l2.708,0.683,1.146,0.288,2.291,0.579c0.315,0.08.486-.091,0.386-0.4ZM40.221,116l10.428-4.072a0.558,0.558,0,0,1,.722.323l1.114,2.944,1.986,0.5-1.736-4.583a1.674,1.674,0,0,0-2.168-.972L39.1,114.614a1.708,1.708,0,0,0-.961,2.194l3.7,9.727,0.706-2.865L39.9,116.725A0.568,0.568,0,0,1,40.221,116Z"
        transform="translate(-38.031 -110.031)" />
    </symbol>
    <symbol viewBox="0 0 512 512" id="shape-notes">
        <title>notes</title>
        <path d="M124.3,400H277c14.4,0,14.4,0.1,21.3,5.2S384,464,384,464v-64h3.7c42.2,0,76.3-31.8,76.3-71.4V119.7
	c0-39.6-34.2-71.7-76.3-71.7H124.3C82.2,48,48,80.1,48,119.7v208.9C48,368.2,82.2,400,124.3,400z M352.1,192c17.7,0,32,14.3,32,32
	c0,17.7-14.3,32-32,32c-17.7,0-32-14.3-32-32C320.1,206.3,334.4,192,352.1,192z M256.1,192c17.7,0,32,14.3,32,32
	c0,17.7-14.3,32-32,32c-17.7,0-32-14.3-32-32C224.1,206.3,238.4,192,256.1,192z M160.1,192c17.7,0,32,14.3,32,32
	c0,17.7-14.3,32-32,32c-17.7,0-32-14.3-32-32C128.1,206.3,142.4,192,160.1,192z"/>
    </symbol>
    <symbol viewBox="0 0 24.844 19.781" id="shape-layers">
        <title>layers</title>
        <path d="M819.641,79.191l-3.41-1.782-6.656,3.475a4.3,4.3,0,0,1-3.987,0l-6.659-3.477-3.411,1.782a0.69,0.69,0,0,0,0,1.217l10.813,5.645a2.694,2.694,0,0,0,2.5,0l10.811-5.645A0.69,0.69,0,0,0,819.641,79.191Zm-24.123-5.429,10.813,5.645a2.692,2.692,0,0,0,2.5,0l10.811-5.644a0.69,0.69,0,0,0,0-1.217L808.831,66.9a2.691,2.691,0,0,0-2.5,0l-10.813,5.646A0.69,0.69,0,0,0,795.518,73.762Z"
        transform="translate(-795.156 -66.594)" />
    </symbol>
    <symbol viewBox="0 0 24.844 19.781" id="shape-styleguide">
        <title>styleguide</title>
        <path d="M16.747,24.000 L2.280,24.000 C1.036,24.000 -0.000,22.978 -0.000,21.750 L-0.000,2.224 C-0.000,0.995 1.036,-0.000 2.280,-0.000 L10.675,-0.000 C11.076,-0.000 11.400,0.320 11.400,0.716 L11.400,6.059 C11.400,6.855 12.054,7.500 12.861,7.500 L18.275,7.500 C18.676,7.500 19.000,7.821 19.000,8.216 L19.000,21.750 C19.000,22.978 17.991,24.000 16.747,24.000 ZM13.680,11.250 L5.320,11.250 C4.901,11.250 4.560,11.586 4.560,12.000 C4.560,12.414 4.901,12.750 5.320,12.750 L13.680,12.750 C14.099,12.750 14.440,12.414 14.440,12.000 C14.440,11.586 14.099,11.250 13.680,11.250 ZM13.680,14.250 L5.320,14.250 C4.901,14.250 4.560,14.585 4.560,15.000 C4.560,15.415 4.901,15.750 5.320,15.750 L13.680,15.750 C14.099,15.750 14.440,15.415 14.440,15.000 C14.440,14.585 14.099,14.250 13.680,14.250 ZM13.680,17.250 L5.320,17.250 C4.901,17.250 4.560,17.585 4.560,18.000 C4.560,18.415 4.901,18.750 5.320,18.750 L13.680,18.750 C14.099,18.750 14.440,18.415 14.440,18.000 C14.440,17.585 14.099,17.250 13.680,17.250 ZM17.248,6.000 L13.645,6.000 C13.244,6.000 12.920,5.679 12.920,5.284 L12.920,1.728 C12.920,1.439 13.097,1.177 13.368,1.067 C13.638,0.956 13.951,1.017 14.158,1.222 L17.761,4.778 C17.969,4.983 18.031,5.291 17.919,5.558 C17.807,5.826 17.542,6.000 17.248,6.000 Z" />
    </symbol>
    <symbol viewBox="0 0 25.156 23.188" id="shape-flow">
        <title>flow</title>
        <path d="M756.484,78.9V76.414a0.828,0.828,0,1,0,0-1.655h-8.378V72.276h1.719a1.622,1.622,0,0,0,1.632-1.612V65.612A1.622,1.622,0,0,0,749.825,64h-5.114a1.622,1.622,0,0,0-1.632,1.612v5.051a1.622,1.622,0,0,0,1.632,1.612h1.719v2.483h-8.378a0.828,0.828,0,1,0,0,1.655V78.9h-1.719a1.622,1.622,0,0,0-1.632,1.612V85.56a1.622,1.622,0,0,0,1.632,1.612h5.114a1.622,1.622,0,0,0,1.632-1.612V80.509a1.622,1.622,0,0,0-1.632-1.612h-1.719V76.414h15.08V78.9h-1.719a1.622,1.622,0,0,0-1.632,1.612V85.56a1.622,1.622,0,0,0,1.632,1.612H758.2a1.622,1.622,0,0,0,1.632-1.612V80.509A1.622,1.622,0,0,0,758.2,78.9h-1.719Z"
        transform="translate(-734.688 -64)" />
    </symbol>
    <symbol viewBox="0 0 10 10" id="shape-new">
        <title>new</title>
        <path fill="#fff" d="M339.844,1128.99h-1.667v4.16h-4.169v1.67h4.169v4.17h1.667v-4.17h4.169v-1.67h-4.169v-4.16Z" transform="translate(-334 -1129)" />
    </symbol>
    <symbol viewBox="0 0 13.97 10.969" id="shape-next">
        <title>next</title>
        <path d="M1122.85,776.194a0.465,0.465,0,0,1,.11.252c0,0.011.01,0.019,0.01,0.029v0.014c0,0.007-.01.011-0.01,0.018a0.479,0.479,0,0,1-.12.307,0.025,0.025,0,0,0-.01.024c-0.01.007-.02,0-0.03,0.01s-0.02,0-.02.01l-5.47,4.966a0.479,0.479,0,0,1-.68,0,0.486,0.486,0,0,1,0-.688l4.57-4.156h-11.7a0.5,0.5,0,1,1,0-1h11.7l-4.57-4.154a0.489,0.489,0,0,1,0-.69,0.479,0.479,0,0,1,.68,0l5.44,4.942c0.01,0.006.01,0.015,0.02,0.021s0.04,0.008.06,0.023A0.176,0.176,0,0,1,1122.85,776.194Z"
        transform="translate(-1109 -771)" />
    </symbol>
    <symbol viewBox="0 0 13.969 10.969" id="shape-prev">
        <title>prev</title>
        <path d="M329.145,776.194a0.465,0.465,0,0,0-.1.252c0,0.011-.008.019-0.008,0.029s0,0,0,.007,0,0,0,.007a0.116,0.116,0,0,0,0,.018,0.491,0.491,0,0,0,.127.307c0.006,0.006,0,.017.01,0.024a0.244,0.244,0,0,0,.024.01c0.007,0.006.017,0,.024,0.01l5.464,4.966a0.486,0.486,0,1,0,.688-0.688L330.8,776.98h11.7a0.5,0.5,0,1,0,0-1H330.8l4.571-4.154a0.487,0.487,0,1,0-.688-0.69l-5.436,4.942c-0.008.006-.012,0.015-0.02,0.021a0.468,0.468,0,0,0-.056.023A0.593,0.593,0,0,0,329.145,776.194Z"
        transform="translate(-329.031 -771)" />
    </symbol>
    <symbol viewBox="0 0 10 7" id="shape-resolve">
        <title>resolve</title>
        <path fill="#fff" d="M337.465,740L334,736.69l0.789-.754,2.676,2.557,5.746-5.49L344,733.757Z" transform="translate(-334 -733)" />
    </symbol>
    <symbol viewBox="0 0 18 20" id="shape-t">
        <title>t</title>
        <path d="M1350.31,112h-14.5a1.807,1.807,0,0,0-1.81,1.805v5.416a2.39,2.39,0,0,0,2.25-1.833l0.3-1.259a0.9,0.9,0,0,1,.87-0.681h3.5v14.483h-1.48a1.824,1.824,0,0,0-1.82,2.069h10.88a1.818,1.818,0,0,0-1.81-2.069h-1.61V115.448h3.6a0.885,0.885,0,0,1,.87.706l0.26,1.234a2.736,2.736,0,0,0,2.19,1.833v-5.416A1.708,1.708,0,0,0,1350.31,112Z"
        transform="translate(-1334 -112)" />
    </symbol>
    <symbol viewBox="-271.5 412.9 13 16" id="shape-trash">
        <title>trash</title>
        <path d="M-271.5,415.4c0-0.5,0.4-0.8,0.8-0.8h4.1v-0.8c0-0.5,0.4-0.8,0.8-0.8h1.6c0.4,0,0.8,0.4,0.8,0.8v0.8h4.1 c0.4,0,0.8,0.4,0.8,0.8v0.8h-13L-271.5,415.4L-271.5,415.4z M-259.3,417.9v1.7v8.6c0,0.5-0.4,0.8-0.8,0.8h-9.8 c-0.4,0-0.8-0.4-0.8-0.8v-8.6v-1.7V417h11.4L-259.3,417.9L-259.3,417.9z M-267.4,419.5c0-0.5-0.4-0.8-0.8-0.8s-0.8,0.4-0.8,0.8v6.9 c0,0.5,0.4,0.8,0.8,0.8s0.8-0.4,0.8-0.8V419.5z M-264.2,419.5c0-0.5-0.4-0.8-0.8-0.8s-0.8,0.4-0.8,0.8v6.9c0,0.5,0.4,0.8,0.8,0.8 s0.8-0.4,0.8-0.8V419.5z M-260.9,419.5c0-0.5-0.4-0.8-0.8-0.8s-0.8,0.4-0.8,0.8v6.9c0,0.5,0.4,0.8,0.8,0.8s0.8-0.4,0.8-0.8V419.5z" />
    </symbol>
    <symbol viewBox="0 0 24 24" id="shape-comparison">
    <title>comparison</title>
    <path d="M11.998,0.008 C5.371,0.008 -0.002,5.380 -0.002,12.008 C-0.002,18.636 5.371,24.009 11.998,24.009 C18.626,24.009 23.999,18.636 23.999,12.008 C23.999,5.380 18.626,0.008 11.998,0.008 ZM12.025,20.796 L12.025,3.221 C16.845,3.221 20.813,7.163 20.813,12.008 C20.813,16.854 16.845,20.796 12.025,20.796 Z" />
    </symbol>
    <symbol viewBox="0 0 24 24" id="shape-versions">
    <title>versions</title>
      <path d="M20.800,24.000 L8.135,24.000 C6.921,24.000 5.935,23.005 5.935,21.776 L5.935,2.224 C5.935,0.995 6.921,0.000 8.135,0.000 L14.873,0.000 C15.263,0.000 15.581,0.321 15.581,0.716 L15.581,6.059 C15.581,6.855 16.219,7.500 17.007,7.500 L22.292,7.500 C22.683,7.500 23.000,7.821 23.000,8.216 L23.000,21.776 C23.000,23.005 22.015,24.000 20.800,24.000 ZM21.291,6.000 L17.772,6.000 C17.382,6.000 17.064,5.679 17.064,5.284 L17.064,1.728 C17.064,1.438 17.237,1.178 17.501,1.066 C17.766,0.956 18.071,1.017 18.273,1.222 L21.791,4.778 C21.994,4.983 22.054,5.291 21.945,5.558 C21.835,5.826 21.577,6.000 21.291,6.000 ZM5.199,24.000 L5.167,24.000 C3.953,24.000 2.968,23.005 2.968,21.776 L2.968,2.224 C2.968,0.995 3.953,0.000 5.167,0.000 L5.199,0.000 C4.736,0.623 4.452,1.387 4.452,2.224 L4.452,21.776 C4.452,22.613 4.736,23.377 5.199,24.000 ZM2.231,24.000 L2.200,24.000 C0.985,24.000 -0.000,23.005 -0.000,21.776 L-0.000,2.224 C-0.000,0.995 0.985,0.000 2.200,0.000 L2.231,0.000 C1.768,0.623 1.484,1.387 1.484,2.224 L1.484,21.776 C1.484,22.613 1.768,23.377 2.231,24.000 Z" />
    </symbol>
</svg>
