<svg xmlns="http://www.w3.org/2000/svg"><symbol viewBox="0 0 16 16" id="shape-arrow"><title>arrow</title> <path d="M30.007,36l1.256-1.258L25.4,28.889H38V27.111H25.4l5.858-5.853L30.007,20,22,28Z" transform="translate(-22 -20)"/> </symbol><symbol viewBox="0 0 15 15.031" id="shape-attachment"><title>attachment</title> <path d="M1349.51,77.94a0.579,0.579,0,0,0-.07.074,0.144,0.144,0,0,0-.04.043l-1.22,1.282a1.6,1.6,0,0,1-2.3.035l-0.01-.011a1.464,1.464,0,0,1-.17-2.212l1.22-1.282a0.239,0.239,0,0,1,.05-0.05l0.06-.065,2.16-2.274a3.659,3.659,0,0,0-3.95.719l-1.42,1.49c-1.31,1.382-1.02,3.695.64,5.155l0.01,0.011a3.946,3.946,0,0,0,5.39.155l1.41-1.49a3.3,3.3,0,0,0,.39-3.85Zm7.01-9.8a3.946,3.946,0,0,0-5.39-.148l-1.41,1.489a3.336,3.336,0,0,0-.4,3.853l2.26-2.372c0-.005.01-0.009,0.01-0.015v0l1.22-1.283a1.629,1.629,0,0,1,2.33-.042,1.48,1.48,0,0,1,.15,2.229l-1.18,1.25a0.252,0.252,0,0,0-.05.05l-2.25,2.372a3.646,3.646,0,0,0,3.94-.718l1.42-1.489C1358.48,71.931,1358.19,69.612,1356.52,68.139Zm-9.09,9.53,0.06,0.057a1.222,1.222,0,0,0,1.69-.077l4.55-4.79a1.114,1.114,0,0,0-.07-1.625l-0.07-.057a1.211,1.211,0,0,0-1.68.076l-4.55,4.792A1.114,1.114,0,0,0,1347.43,77.67Z" transform="translate(-1343 -67)"/> </symbol><symbol viewBox="0 0 24.281 24" id="shape-dashboard"><title>dashboard</title> <path d="M630.886,66.769H623.41V65.677a1.687,1.687,0,0,0-1.7-1.677H616.7a1.687,1.687,0,0,0-1.7,1.677v4.954a1.687,1.687,0,0,0,1.7,1.677H617.8v7.385H616.7a1.687,1.687,0,0,0-1.7,1.677v4.954A1.687,1.687,0,0,0,616.7,88h5.016a1.687,1.687,0,0,0,1.7-1.677V85.231h7.476v1.093a1.688,1.688,0,0,0,1.7,1.677H637.6a1.687,1.687,0,0,0,1.7-1.677V81.369a1.687,1.687,0,0,0-1.7-1.677h-1.107V72.308H637.6a1.687,1.687,0,0,0,1.7-1.677V65.677A1.687,1.687,0,0,0,637.6,64h-5.015a1.688,1.688,0,0,0-1.7,1.677v1.093Zm-14.017,3.692V65.846h4.672v4.615h-4.672Zm4.672,15.692h-4.672V81.538h4.672v4.615Zm1.869-3.692V81.369a1.687,1.687,0,0,0-1.7-1.677h-1.106V72.308h1.106a1.687,1.687,0,0,0,1.7-1.677V69.538h7.476v1.093a1.688,1.688,0,0,0,1.7,1.677h1.106v7.385h-1.106a1.688,1.688,0,0,0-1.7,1.677v1.093H623.41Zm14.018-.923v4.615h-4.673V81.538h4.673Zm0-15.692v4.615h-4.673V65.846h4.673Z" transform="translate(-615 -64)"/> </symbol><symbol viewBox="0 0 22.938 23.938" id="shape-images"><title>images</title> <path d="M59.727,118.56L47.8,115.55a1.68,1.68,0,0,0-2.033,1.237l-2.975,12.071a1.7,1.7,0,0,0,1.221,2.057l11.929,3.012a1.682,1.682,0,0,0,2.033-1.237l2.976-12.072A1.705,1.705,0,0,0,59.727,118.56Zm-0.541,2.2-2.164,8.781a0.558,0.558,0,0,1-.677.41L45.5,127.211a0.568,0.568,0,0,1-.407-0.686l2.164-8.779a0.561,0.561,0,0,1,.678-0.413l10.845,2.739A0.566,0.566,0,0,1,59.185,120.756Zm-9.749,1.111a1.518,1.518,0,0,0,1.84-1.118,1.539,1.539,0,0,0-1.106-1.863A1.516,1.516,0,0,0,48.331,120,1.538,1.538,0,0,0,49.437,121.867Zm5.047,0.741a0.339,0.339,0,0,0-.607-0.153L51.7,124.582a0.448,0.448,0,0,1-.729-0.1l-0.348-.584a0.586,0.586,0,0,0-.81-0.2l-3.537,2.134c-0.279.169-.243,0.351,0.071,0.432l2.292,0.577c0.315,0.081.83,0.211,1.146,0.291l2.708,0.683,1.146,0.288,2.291,0.579c0.315,0.08.486-.091,0.386-0.4ZM40.221,116l10.428-4.072a0.558,0.558,0,0,1,.722.323l1.114,2.944,1.986,0.5-1.736-4.583a1.674,1.674,0,0,0-2.168-.972L39.1,114.614a1.708,1.708,0,0,0-.961,2.194l3.7,9.727,0.706-2.865L39.9,116.725A0.568,0.568,0,0,1,40.221,116Z" transform="translate(-38.031 -110.031)"/> </symbol><symbol viewBox="0 0 24.844 19.781" id="shape-layers"><title>layers</title> <path d="M819.641,79.191l-3.41-1.782-6.656,3.475a4.3,4.3,0,0,1-3.987,0l-6.659-3.477-3.411,1.782a0.69,0.69,0,0,0,0,1.217l10.813,5.645a2.694,2.694,0,0,0,2.5,0l10.811-5.645A0.69,0.69,0,0,0,819.641,79.191Zm-24.123-5.429,10.813,5.645a2.692,2.692,0,0,0,2.5,0l10.811-5.644a0.69,0.69,0,0,0,0-1.217L808.831,66.9a2.691,2.691,0,0,0-2.5,0l-10.813,5.646A0.69,0.69,0,0,0,795.518,73.762Z" transform="translate(-795.156 -66.594)"/> </symbol><symbol viewBox="0 0 25.156 23.188" id="shape-more"><title>more</title> <path d="M756.484,78.9V76.414a0.828,0.828,0,1,0,0-1.655h-8.378V72.276h1.719a1.622,1.622,0,0,0,1.632-1.612V65.612A1.622,1.622,0,0,0,749.825,64h-5.114a1.622,1.622,0,0,0-1.632,1.612v5.051a1.622,1.622,0,0,0,1.632,1.612h1.719v2.483h-8.378a0.828,0.828,0,1,0,0,1.655V78.9h-1.719a1.622,1.622,0,0,0-1.632,1.612V85.56a1.622,1.622,0,0,0,1.632,1.612h5.114a1.622,1.622,0,0,0,1.632-1.612V80.509a1.622,1.622,0,0,0-1.632-1.612h-1.719V76.414h15.08V78.9h-1.719a1.622,1.622,0,0,0-1.632,1.612V85.56a1.622,1.622,0,0,0,1.632,1.612H758.2a1.622,1.622,0,0,0,1.632-1.612V80.509A1.622,1.622,0,0,0,758.2,78.9h-1.719Z" transform="translate(-734.688 -64)"/> </symbol><symbol viewBox="0 0 13.97 10.969" id="shape-next"><title>next</title> <path d="M1122.85,776.194a0.465,0.465,0,0,1,.11.252c0,0.011.01,0.019,0.01,0.029v0.014c0,0.007-.01.011-0.01,0.018a0.479,0.479,0,0,1-.12.307,0.025,0.025,0,0,0-.01.024c-0.01.007-.02,0-0.03,0.01s-0.02,0-.02.01l-5.47,4.966a0.479,0.479,0,0,1-.68,0,0.486,0.486,0,0,1,0-.688l4.57-4.156h-11.7a0.5,0.5,0,1,1,0-1h11.7l-4.57-4.154a0.489,0.489,0,0,1,0-.69,0.479,0.479,0,0,1,.68,0l5.44,4.942c0.01,0.006.01,0.015,0.02,0.021s0.04,0.008.06,0.023A0.176,0.176,0,0,1,1122.85,776.194Z" transform="translate(-1109 -771)"/> </symbol><symbol viewBox="0 0 13.969 10.969" id="shape-prev"><title>prev</title> <path d="M329.145,776.194a0.465,0.465,0,0,0-.1.252c0,0.011-.008.019-0.008,0.029s0,0,0,.007,0,0,0,.007a0.116,0.116,0,0,0,0,.018,0.491,0.491,0,0,0,.127.307c0.006,0.006,0,.017.01,0.024a0.244,0.244,0,0,0,.024.01c0.007,0.006.017,0,.024,0.01l5.464,4.966a0.486,0.486,0,1,0,.688-0.688L330.8,776.98h11.7a0.5,0.5,0,1,0,0-1H330.8l4.571-4.154a0.487,0.487,0,1,0-.688-0.69l-5.436,4.942c-0.008.006-.012,0.015-0.02,0.021a0.468,0.468,0,0,0-.056.023A0.593,0.593,0,0,0,329.145,776.194Z" transform="translate(-329.031 -771)"/> </symbol><symbol viewBox="0 0 18 20" id="shape-t"><title>t</title> <path d="M1350.31,112h-14.5a1.807,1.807,0,0,0-1.81,1.805v5.416a2.39,2.39,0,0,0,2.25-1.833l0.3-1.259a0.9,0.9,0,0,1,.87-0.681h3.5v14.483h-1.48a1.824,1.824,0,0,0-1.82,2.069h10.88a1.818,1.818,0,0,0-1.81-2.069h-1.61V115.448h3.6a0.885,0.885,0,0,1,.87.706l0.26,1.234a2.736,2.736,0,0,0,2.19,1.833v-5.416A1.708,1.708,0,0,0,1350.31,112Z" transform="translate(-1334 -112)"/> </symbol></svg>