<svg xmlns="http://www.w3.org/2000/svg">
    <symbol viewBox="0 0 40 47" id="shape-android">
        <title>android</title>
        <path d="M743.274,414.989a2.729,2.729,0,0,1-2.727-2.73V400.585a2.727,2.727,0,1,1,5.454,0v11.674A2.728,2.728,0,0,1,743.274,414.989Zm-7.425,5.763h-2.078a2.7,2.7,0,0,1,.109.757v5.761a2.728,2.728,0,1,1-5.456,0v-5.761a2.737,2.737,0,0,1,.109-0.757h-5.066a2.738,2.738,0,0,1,.11.757v5.761a2.728,2.728,0,1,1-5.456,0v-5.761a2.7,2.7,0,0,1,.109-0.757h-2.079a2.884,2.884,0,0,1-2.878-2.883V397.855h25.455v20.014A2.884,2.884,0,0,1,735.849,420.752Zm-16.107-33.82-0.512-.769-0.506-.758-1.133-1.7a0.455,0.455,0,0,1,.757-0.5l1.217,1.825,0.51,0.767,0.518,0.777a15.206,15.206,0,0,1,10.815,0l0.519-.777,0.511-.767,1.215-1.825a0.455,0.455,0,0,1,.757.5l-1.134,1.7-0.5.758-0.512.769c3.859,1.8,6.469,5.2,6.469,9.1H713.273C713.273,392.136,715.883,388.73,719.742,386.932Zm11.713,5.465a1.365,1.365,0,1,0-1.363-1.365A1.365,1.365,0,0,0,731.455,392.4Zm-10.909,0a1.365,1.365,0,1,0-1.364-1.365A1.365,1.365,0,0,0,720.546,392.4Zm-11.82,22.592a2.729,2.729,0,0,1-2.727-2.73V400.585a2.728,2.728,0,1,1,5.455,0v11.674A2.73,2.73,0,0,1,708.726,414.989Z"
        transform="translate(-706 -383)" />
    </symbol>
    <symbol viewBox="0 0 32 37" id="shape-apple">
        <title>apple</title>
        <path d="M542.727,407.661c0.053,5.6,5.213,7.459,5.273,7.486a19.914,19.914,0,0,1-2.723,5.264c-1.638,2.255-3.335,4.5-6.012,4.544-2.634.047-3.478-1.469-6.488-1.469s-3.949,1.423-6.439,1.516c-2.583.092-4.551-2.435-6.2-4.681-3.377-4.6-5.956-12.986-2.49-18.648a9.713,9.713,0,0,1,8.13-4.642c2.537-.042,4.934,1.612,6.484,1.612s4.465-1.989,7.524-1.7a9.386,9.386,0,0,1,7.187,3.666C546.786,400.725,542.677,402.973,542.727,407.661Zm-10.779-11.136a7.493,7.493,0,0,1,2.086-5.727,9,9,0,0,1,5.789-2.8,7.852,7.852,0,0,1-2.045,5.909A7.475,7.475,0,0,1,531.948,396.525Z"
        transform="translate(-516 -388)" />
    </symbol>
    <symbol viewBox="0 0 16 16" id="shape-arrow">
        <title>arrow</title>
        <path d="M30.007,36l1.256-1.258L25.4,28.889H38V27.111H25.4l5.858-5.853L30.007,20,22,28Z" transform="translate(-22 -20)" />
    </symbol>
    <symbol viewBox="0 0 28.706 29.815" id="shape-attachment">
        <title>attachment</title>
        <path d="M12.459,21.746c-0.046,0.051-0.091,0.1-0.138,0.146c-0.025,0.027-0.047,0.057-0.073,0.086l-2.332,2.549 c-1.143,1.25-2.964,1.391-4.407,0.07l-0.023-0.021c-1.442-1.32-1.462-3.145-0.319-4.396L7.5,17.631 c0.031-0.033,0.063-0.066,0.096-0.1c0.037-0.043,0.074-0.087,0.115-0.129l4.134-4.521c-2.713-1.044-5.714-0.589-7.562,1.429 l-2.708,2.962c-2.514,2.747-1.953,7.343,1.219,10.245l0.025,0.022c3.171,2.901,7.801,3.054,10.314,0.308l2.708-2.962 c1.844-2.013,2.031-5.037,0.748-7.651L12.459,21.746z"/>
        <path d="M25.895,2.268c-3.17-2.9-7.811-3.039-10.324-0.294l-2.708,2.96c-1.847,2.02-2.033,5.049-0.752,7.658l4.312-4.714 c0.01-0.011,0.021-0.019,0.029-0.03c0,0,0.002-0.003,0.004-0.004l2.332-2.55c1.145-1.25,2.994-1.423,4.459-0.083 c1.443,1.321,1.434,3.179,0.291,4.43l-2.273,2.484c-0.031,0.033-0.063,0.066-0.092,0.099l-4.313,4.714 c2.713,1.044,5.715,0.59,7.561-1.428l2.709-2.959C29.643,9.803,29.092,5.193,25.895,2.268z"/>
        <path d="M8.473,21.209l0.124,0.113c0.94,0.859,2.372,0.787,3.232-0.153l8.713-9.521c0.857-0.939,0.801-2.371-0.141-3.23 l-0.123-0.113c-0.938-0.857-2.367-0.789-3.227,0.15L8.34,17.979C7.481,18.918,7.535,20.352,8.473,21.209z"/>
    </symbol>
    <symbol viewBox="-277 414.9 24 12" id="shape-bar-close-left">
        <title>bar close left</title>
        <path d="M-254.1,419.8h-15.3c-0.6,0-1.1,0.5-1.1,1.1s0.5,1.1,1.1,1.1h15.3c0.6,0,1.1-0.5,1.1-1.1S-253.5,419.8-254.1,419.8z M-254.1,424.8h-15.3c-0.6,0-1.1,0.5-1.1,1.1c0,0.6,0.5,1.1,1.1,1.1h15.3c0.6,0,1.1-0.5,1.1-1.1 C-253,425.2-253.5,424.8-254.1,424.8z M-269.4,417h15.3c0.6,0,1.1-0.5,1.1-1.1c0-0.6-0.5-1.1-1.1-1.1h-15.3c-0.6,0-1.1,0.5-1.1,1.1 C-270.5,416.5-270,417-269.4,417z"/>
        <path d="M-274.1,423.4v-4.9l-2.9,2.5L-274.1,423.4z"/>
    </symbol>
    <symbol viewBox="-277 414.9 24 12" id="shape-bar-close-right">
        <title>bar close right</title>
        <path d="M-275.9,421.9h15.3c0.6,0,1.1-0.5,1.1-1.1s-0.5-1.1-1.1-1.1h-15.3c-0.6,0-1.1,0.5-1.1,1.1S-276.5,421.9-275.9,421.9z M-275.9,417h15.3c0.6,0,1.1-0.5,1.1-1.1c0-0.6-0.5-1.1-1.1-1.1h-15.3c-0.6,0-1.1,0.5-1.1,1.1C-277,416.5-276.5,417-275.9,417z M-260.6,424.8h-15.3c-0.6,0-1.1,0.5-1.1,1.1c0,0.6,0.5,1.1,1.1,1.1h15.3c0.6,0,1.1-0.5,1.1-1.1 C-259.5,425.2-260,424.8-260.6,424.8z"/>
        <path d="M-255.9,418.4v4.9l2.9-2.5L-255.9,418.4z"/>
    </symbol>
    <symbol viewBox="0 0 44 39" id="shape-browser">
        <title>browser</title>
        <path d="M939.938,426H900.062A2.075,2.075,0,0,1,898,423.911V389.089A2.076,2.076,0,0,1,900.062,387h39.876A2.076,2.076,0,0,1,942,389.089v34.822A2.075,2.075,0,0,1,939.938,426Zm-37.813-36.911a2.09,2.09,0,1,0,2.062,2.09A2.077,2.077,0,0,0,902.125,389.089Zm6.188,0a2.09,2.09,0,1,0,2.062,2.09A2.076,2.076,0,0,0,908.313,389.089Zm6.187,0a2.09,2.09,0,1,0,2.063,2.09A2.077,2.077,0,0,0,914.5,389.089Zm25.438,6.268H900.062v28.554h39.876V395.357Z"
        transform="translate(-898 -387)" />
    </symbol>
    <symbol viewBox="0 0 96.781 96.09" id="shape-clock">
        <title>clock</title>
        <path d="M293.48,1091.99a4.019,4.019,0,0,1-3.631,3.98H262.465a2.253,2.253,0,0,1-2.073-2.11v-21.2a4.091,4.091,0,0,1,8.179.13v12.82c0,0.04-.011.08-0.011,0.12s0.011,0.08.011,0.11v0.03a2.193,2.193,0,0,0,2.015,2.06l19.1,0.02A4.068,4.068,0,0,1,293.48,1091.99Zm-28.99-48.03a48.051,48.051,0,1,1-48.385,48.05A48.229,48.229,0,0,1,264.49,1043.96Zm35.848,48.05a35.844,35.844,0,1,0-35.848,35.59A35.715,35.715,0,0,0,300.338,1092.01Z"
        transform="translate(-216.094 -1043.97)" />
    </symbol>
    <symbol viewBox="0 0 11 12" id="shape-comment">
        <title>comment</title>
        <path fill="#fff" d="M310.977,444h-6.955a2.1,2.1,0,0,0-2.017,2.169v5.572a1.624,1.624,0,0,0,1.732,1.859h0.579a0.652,0.652,0,0,1,.579.6h0c0,0.02,0-.02,0,0s0-.021,0,0v1.2c0,0.165-.066.593,0.089,0.592a0.26,0.26,0,0,0,.158-0.054l0.038-.034,1.711-1.782a0.687,0.687,0,0,1,.063-0.058h0a1.7,1.7,0,0,1,.834-0.463h3.474a1.623,1.623,0,0,0,1.731-1.859v-5.572A2.1,2.1,0,0,0,310.977,444Zm-2.031,6.031a0.566,0.566,0,0,1-.444.577h-3.155a0.565,0.565,0,0,1-.443-0.577v-0.065a0.564,0.564,0,0,1,.445-0.576H308.5a0.563,0.563,0,0,1,.445.576v0.065Zm1.736-2.407a0.571,0.571,0,0,1-.491.567H305.4a0.571,0.571,0,0,1-.491-0.567v-0.062A0.57,0.57,0,0,1,305.4,447h4.791a0.571,0.571,0,0,1,.493.567v0.062Z"
        transform="translate(-302 -444)" />
    </symbol>
    <symbol viewBox="0 0 26 26" id="shape-dashboard">
        <title>dashboard</title>
        <path d="M17,3H9V1.816C9,0.813,8.187,0,7.184,0H1.816C0.813,0,0,0.813,0,1.816v5.367C0,8.187,0.813,9,1.816,9H3v8H1.816 C0.813,17,0,17.813,0,18.816v5.367C0,25.187,0.813,26,1.816,26h5.367C8.187,26,9,25.187,9,24.184V23h8v1.184 C17,25.187,17.813,26,18.816,26h5.367C25.188,26,26,25.187,26,24.184c0-1.576,0-3.811,0-5.367C26,17.813,25.188,17,24.185,17H23V9 h1.184C25.187,9,26,8.187,26,7.184V1.816C26,0.813,25.187,0,24.184,0h-5.367C17.813,0,17,0.813,17,1.816V3z M2,7V2h5v5H2z M7,24H2 v-5h5V24z M9,20v-1.184C9,17.813,8.187,17,7.184,17H6V9h1.184C8.187,9,9,8.187,9,7.184V6h8v1.184C17,8.187,17.813,9,18.816,9H20v8 h-1.184C17.813,17,17,17.813,17,18.816V20H9z M24,19v5h-5v-5H24z M24,2v5h-5V2H24z"/>
    </symbol>
    <symbol viewBox="0 0 7.125 7.125" id="shape-delete">
        <title>delete</title>
        <path fill="#fff" d="M323.848,654.028l0.971-.971,6.15,6.15-0.971.971Zm0.971,6.15-0.972-.971,6.151-6.15,0.971,0.971Z" transform="translate(-323.844 -653.063)" />
    </symbol>
    <symbol viewBox="0 0 32 32" id="shape-download">
        <title>download</title>
        <path d="M30.266,20.647l-4.863-3.272h-2.998l5.193,3.984h-5.414c-0.154,0-0.295,0.079-0.365,0.202l-1.248,3.415h-9.141 l-1.248-3.415c-0.069-0.123-0.211-0.202-0.366-0.202H4.401l5.194-3.984h-3l-4.862,3.272c-0.724,0.432-1.156,1.429-0.962,2.213 l0.857,4.695c0.195,0.785,1.055,1.428,1.912,1.428h24.918c0.857,0,1.719-0.643,1.912-1.428l0.857-4.695 C31.422,22.076,30.99,21.079,30.266,20.647z M23.943,10.838h-5.041V3.017h-5.804v7.821H8.058L16,18.291L23.943,10.838z"/>
    </symbol>
    <symbol viewBox="0 0 30 28" id="shape-flow">
        <title>flow</title>
        <path d="M26,18v-3c0.553,0,1-0.448,1-1s-0.447-1-1-1H16v-3h2.052C19.128,10,20,9.127,20,8.052V1.948C20,0.873,19.128,0,18.052,0 h-6.104C10.873,0,10,0.873,10,1.948v6.104C10,9.127,10.873,10,11.948,10H14v3H4c-0.552,0-1,0.448-1,1s0.448,1,1,1v3H1.948 C0.873,18,0,18.872,0,19.948v6.104C0,27.128,0.873,28,1.948,28h6.104C9.127,28,10,27.128,10,26.052v-6.104 C10,18.872,9.127,18,8.052,18H6v-3h18v3h-2.052C20.872,18,20,18.872,20,19.948v6.104C20,27.128,20.872,28,21.948,28h6.104 C29.128,28,30,27.128,30,26.052v-6.104C30,18.872,29.128,18,28.052,18H26z"/>
    </symbol>
    <symbol viewBox="-266.5 403.9 36 36" id="shape-forward">
        <title>forward</title>
        <path d="M-230.5,417.9l-16-14v8.2c-20,4.8-20,27.8-20,27.8s7-16.2,20-16.2v8.2L-230.5,417.9z"/>
    </symbol>
    <symbol viewBox="0 0 29 29" id="shape-image">
        <title>image</title>
        <path d="M17.157,10.04l-2.973,4.757c-0.319,0.509-0.929,0.578-1.354,0.153l-0.887-0.887c-0.425-0.426-1.121-0.426-1.547,0 l-5.387,4.988c-0.166,0.153-0.22,0.392-0.138,0.601C4.954,19.862,5.156,20,5.38,20h18.566c0.201,0,0.387-0.111,0.482-0.289 c0.095-0.178,0.084-0.394-0.028-0.562l-6.083-9.109C17.998,9.53,17.477,9.53,17.157,10.04z"/>
        <path d="M25.893,0H3.107C1.392,0,0,1.392,0,3.108v22.783C0,27.608,1.392,29,3.107,29h22.785C27.608,29,29,27.608,29,25.892V3.108 C29,1.392,27.608,0,25.893,0z M26,21c0,0.55-0.45,1-1,1H4c-0.55,0-1-0.45-1-1V4c0-0.55,0.45-1,1-1h21c0.55,0,1,0.45,1,1V21z"/>
    </symbol>
    <symbol viewBox="0 0 31.06 32.001" id="shape-images">
        <title>images</title>
        <path d="M29.341,11.405L13.213,7.383c-1.21-0.301-2.447,0.441-2.748,1.652L6.443,25.163c-0.303,1.211,0.44,2.445,1.65,2.748 l16.127,4.023c1.21,0.301,2.447-0.443,2.748-1.652l4.023-16.127C31.293,12.944,30.551,11.708,29.341,11.405z M28.609,14.338 l-2.926,11.731c-0.1,0.402-0.513,0.65-0.915,0.549l-14.662-3.656c-0.403-0.1-0.651-0.512-0.551-0.916l2.926-11.729 c0.1-0.404,0.513-0.65,0.916-0.551l14.661,3.658C28.462,13.522,28.71,13.936,28.609,14.338z"/>
        <circle cx="15.926" cy="13.832" r="2.052"/>
        <path d="M22.253,16.813c-0.136-0.418-0.505-0.51-0.82-0.205l-2.943,2.842c-0.315,0.303-0.759,0.244-0.985-0.133l-0.471-0.781 c-0.227-0.377-0.719-0.5-1.095-0.273l-4.782,2.852c-0.377,0.225-0.329,0.469,0.096,0.576l3.099,0.771 c0.426,0.107,1.122,0.281,1.549,0.389l3.661,0.912c0.426,0.105,1.123,0.279,1.549,0.385l3.098,0.773 c0.426,0.107,0.657-0.121,0.521-0.539L22.253,16.813z"/>
        <path d="M2.971,7.978l14.098-5.439c0.388-0.149,0.828,0.045,0.977,0.432l1.506,3.933l2.686,0.67l-2.348-6.122 c-0.449-1.163-1.768-1.748-2.931-1.299L1.45,6.133C0.287,6.583-0.298,7.902,0.151,9.065L5.156,22.06l0.954-3.827L2.537,8.954 C2.389,8.565,2.583,8.126,2.971,7.978z"/>
    </symbol>
    <symbol viewBox="7 212.9 416 416" id="shape-notes">
        <title>notes</title>
        <path d="M83.3,564.9H236c14.4,0,14.4,0.1,21.3,5.2c6.9,5.1,85.7,58.8,85.7,58.8v-64h3.7c42.2,0,76.3-31.8,76.3-71.4V284.6 c0-39.6-34.2-71.7-76.3-71.7H83.3C41.2,212.9,7,245,7,284.6v208.9C7,533.1,41.2,564.9,83.3,564.9z M311.1,356.9 c17.7,0,32,14.3,32,32c0,17.7-14.3,32-32,32s-32-14.3-32-32C279.1,371.2,293.4,356.9,311.1,356.9z M215.1,356.9 c17.7,0,32,14.3,32,32c0,17.7-14.3,32-32,32s-32-14.3-32-32C183.1,371.2,197.4,356.9,215.1,356.9z M119.1,356.9 c17.7,0,32,14.3,32,32c0,17.7-14.3,32-32,32s-32-14.3-32-32C87.1,371.2,101.4,356.9,119.1,356.9z"/>
    </symbol>
    <symbol viewBox="0 0 29.663 23.889" id="shape-layers">
        <title>layers</title>
        <path d="M29.228,15.225l-4.07-2.152l-7.944,4.199c-0.733,0.389-1.557,0.594-2.381,0.594c-0.823,0-1.645-0.205-2.377-0.592 l-7.948-4.201l-4.071,2.152C0.168,15.367,0,15.65,0,15.961s0.168,0.594,0.436,0.734l12.906,6.822c0.936,0.494,2.047,0.494,2.982,0 l12.903-6.822c0.268-0.141,0.436-0.424,0.436-0.734S29.495,15.367,29.228,15.225z"/>
        <path d="M0.436,8.665l12.906,6.822c0.468,0.248,0.979,0.371,1.49,0.371c0.513,0,1.024-0.125,1.492-0.373l12.903-6.82 c0.268-0.142,0.436-0.426,0.436-0.735c0-0.311-0.167-0.595-0.436-0.735L16.325,0.372C15.856,0.123,15.345,0,14.833,0 c-0.513,0-1.023,0.123-1.492,0.372L0.436,7.194C0.168,7.334,0,7.619,0,7.929C0,8.239,0.168,8.523,0.436,8.665z"/>
    </symbol>
    <symbol viewBox="-274.6 409 19.3 23.9" id="shape-styleguide">
        <title>styleguide</title>
        <path d="M-260.8,414.9h3.7c0.3,0,0.6-0.2,0.7-0.4c0.1-0.3,0.1-0.6-0.2-0.8l-3.7-3.5c-0.2-0.2-0.5-0.3-0.8-0.2 c-0.3,0.1-0.5,0.4-0.5,0.7v3.5C-261.5,414.6-261.2,414.9-260.8,414.9z"/>
        <path d="M-256.1,416.4h-5.5c-0.8,0-1.4-0.6-1.4-1.4v-5.3c0-0.4-0.4-0.7-0.8-0.7h-8.5c-1.3,0-2.3,1-2.3,2.2v19.4 c0,1.2,1,2.2,2.3,2.2h14.6c1.3,0,2.3-1,2.3-2.2v-13.5C-255.4,416.7-255.7,416.4-256.1,416.4z M-269.2,428.3h-0.8 c-0.4,0-0.8-0.3-0.8-0.7c0-0.4,0.3-0.7,0.8-0.7h0.8c0.4,0,0.8,0.3,0.8,0.7C-268.5,428-268.8,428.3-269.2,428.3z M-269.2,425.4h-0.8 c-0.4,0-0.8-0.3-0.8-0.7c0-0.4,0.3-0.7,0.8-0.7h0.8c0.4,0,0.8,0.3,0.8,0.7C-268.5,425-268.8,425.4-269.2,425.4z M-269.2,422.4h-0.8 c-0.4,0-0.8-0.3-0.8-0.7c0-0.4,0.3-0.7,0.8-0.7h0.8c0.4,0,0.8,0.3,0.8,0.7C-268.5,422-268.8,422.4-269.2,422.4z M-260,428.3h-6.2 c-0.4,0-0.8-0.3-0.8-0.7c0-0.4,0.3-0.7,0.8-0.7h6.2c0.4,0,0.8,0.3,0.8,0.7C-259.2,428-259.6,428.3-260,428.3z M-260,425.4h-6.2 c-0.4,0-0.8-0.3-0.8-0.7c0-0.4,0.3-0.7,0.8-0.7h6.2c0.4,0,0.8,0.3,0.8,0.7C-259.2,425-259.6,425.4-260,425.4z M-260,422.4h-6.2 c-0.4,0-0.8-0.3-0.8-0.7c0-0.4,0.3-0.7,0.8-0.7h6.2c0.4,0,0.8,0.3,0.8,0.7C-259.2,422-259.6,422.4-260,422.4z"/>
    </symbol>
    <symbol viewBox="0 0 10 10" id="shape-new">
        <title>new</title>
        <path fill="#fff" d="M339.844,1128.99h-1.667v4.16h-4.169v1.67h4.169v4.17h1.667v-4.17h4.169v-1.67h-4.169v-4.16Z" transform="translate(-334 -1129)" />
    </symbol>
    <symbol viewBox="0 0 13.97 10.969" id="shape-next">
        <title>next</title>
        <path d="M1122.85,776.194a0.465,0.465,0,0,1,.11.252c0,0.011.01,0.019,0.01,0.029v0.014c0,0.007-.01.011-0.01,0.018a0.479,0.479,0,0,1-.12.307,0.025,0.025,0,0,0-.01.024c-0.01.007-.02,0-0.03,0.01s-0.02,0-.02.01l-5.47,4.966a0.479,0.479,0,0,1-.68,0,0.486,0.486,0,0,1,0-.688l4.57-4.156h-11.7a0.5,0.5,0,1,1,0-1h11.7l-4.57-4.154a0.489,0.489,0,0,1,0-.69,0.479,0.479,0,0,1,.68,0l5.44,4.942c0.01,0.006.01,0.015,0.02,0.021s0.04,0.008.06,0.023A0.176,0.176,0,0,1,1122.85,776.194Z"
        transform="translate(-1109 -771)" />
    </symbol>
    <symbol viewBox="0 0 13.969 10.969" id="shape-prev">
        <title>prev</title>
        <path d="M329.145,776.194a0.465,0.465,0,0,0-.1.252c0,0.011-.008.019-0.008,0.029s0,0,0,.007,0,0,0,.007a0.116,0.116,0,0,0,0,.018,0.491,0.491,0,0,0,.127.307c0.006,0.006,0,.017.01,0.024a0.244,0.244,0,0,0,.024.01c0.007,0.006.017,0,.024,0.01l5.464,4.966a0.486,0.486,0,1,0,.688-0.688L330.8,776.98h11.7a0.5,0.5,0,1,0,0-1H330.8l4.571-4.154a0.487,0.487,0,1,0-.688-0.69l-5.436,4.942c-0.008.006-.012,0.015-0.02,0.021a0.468,0.468,0,0,0-.056.023A0.593,0.593,0,0,0,329.145,776.194Z"
        transform="translate(-329.031 -771)" />
    </symbol>
    <symbol viewBox="0 0 10 7" id="shape-resolve">
        <title>resolve</title>
        <path fill="#fff" d="M337.465,740L334,736.69l0.789-.754,2.676,2.557,5.746-5.49L344,733.757Z" transform="translate(-334 -733)" />
    </symbol>
    <symbol viewBox="0 0 26 29" id="shape-t">
        <title>t</title>
        <path d="M23.559,0H2.617C1.171,0,0,1.171,0,2.617v7.854c1.539,0,2.878-1.166,3.252-2.658L3.69,5.986C3.829,5.408,4.346,5,4.941,5 H10v21H7.853c-1.446,0-2.617,1-2.617,3h15.706c0-2-1.171-3-2.618-3H16V5h5.204c0.609,0,1.135,0.427,1.26,1.023l0.373,1.789 C23.21,9.305,25,10.471,26,10.471V2.617C26,1.171,25.006,0,23.559,0z"/>
    </symbol>
    <symbol viewBox="0 0 25.458 25.459" id="shape-tag">
        <title>tag</title>
        <path d="M22.183,0.004l-8.216-0.005c-0.799,0.026-1.602,0.343-2.207,0.95L0.956,11.753c-1.272,1.271-1.274,3.376-0.002,4.649 l8.103,8.102c1.274,1.274,3.379,1.271,4.649-0.001l10.803-10.804c0.609-0.607,0.922-1.404,0.949-2.205V3.277 C25.456,1.478,23.981,0.004,22.183,0.004z M19.458,8.999c-1.656,0-3-1.343-3-3s1.344-3,3-3c1.658,0,3,1.343,3,3 S21.116,8.999,19.458,8.999z"/>
    </symbol>
    <symbol viewBox="0 0 20 20" id="shape-calendar">
        <title>calendar</title>
        <path d="M17,3h-1v2h-3V3H7v2H4V3H3C1.899,3,1,3.9,1,5v12c0,1.1,0.899,2,2,2h14c1.1,0,2-0.9,2-2V5C19,3.9,18.1,3,17,3z M17,17H3V9h14 V17z M6.5,1h-2v3.5h2V1z M15.5,1h-2v3.5h2V1z"/>
    </symbol>
    <symbol viewBox="0 0 30.407 25.079" id="shape-code">
        <title>code</title>
        <path d="M10.325,6.072c0-0.515-0.2-0.999-0.566-1.366C9.051,4.002,7.738,4,7.031,4.708l-6.466,6.467 C0.206,11.534,0,12.031,0,12.539s0.206,1.005,0.565,1.364l6.468,6.469c0.365,0.362,0.849,0.563,1.362,0.563s0.997-0.2,1.366-0.566 c0.363-0.364,0.563-0.849,0.563-1.363s-0.2-0.999-0.565-1.364l-5.102-5.102L9.76,7.438C10.124,7.073,10.325,6.589,10.325,6.072z"/>
        <path d="M29.842,11.175l-6.467-6.467c-0.705-0.707-2.018-0.708-2.729,0c-0.364,0.364-0.564,0.849-0.564,1.364 c0,0.518,0.201,1.003,0.564,1.364l5.103,5.103l-5.103,5.102c-0.364,0.364-0.564,0.849-0.564,1.364s0.2,1,0.566,1.366 c0.365,0.363,0.85,0.563,1.363,0.563s0.998-0.2,1.363-0.564l6.467-6.467c0.359-0.359,0.565-0.856,0.565-1.364 S30.201,11.534,29.842,11.175z"/>
        <path d="M18.425,0.068c-1.11-0.301-2.339,0.43-2.624,1.535L10.41,22.395c-0.297,1.143,0.393,2.316,1.537,2.616 c0.175,0.045,0.355,0.068,0.539,0.068c0.979,0,1.832-0.661,2.076-1.607L19.953,2.68c0.145-0.555,0.063-1.132-0.227-1.624 C19.436,0.561,18.971,0.21,18.425,0.068z"/>
    </symbol>
    <symbol viewBox="0 0 459 459" id="shape-color">
        <title>color</title>
        <path d="M229.5,0C102,0,0,102,0,229.5S102,459,229.5,459c20.4,0,38.25-17.85,38.25-38.25c0-10.2-2.55-17.85-10.2-25.5 c-5.1-7.65-10.2-15.3-10.2-25.5c0-20.4,17.852-38.25,38.25-38.25h45.9c71.4,0,127.5-56.1,127.5-127.5C459,91.8,357,0,229.5,0z M89.25,229.5c-20.4,0-38.25-17.85-38.25-38.25S68.85,153,89.25,153s38.25,17.85,38.25,38.25S109.65,229.5,89.25,229.5z M165.75,127.5c-20.4,0-38.25-17.85-38.25-38.25S145.35,51,165.75,51S204,68.85,204,89.25S186.15,127.5,165.75,127.5z M293.25,127.5c-20.4,0-38.25-17.85-38.25-38.25S272.85,51,293.25,51s38.25,17.85,38.25,38.25S313.65,127.5,293.25,127.5z M369.75,229.5c-20.4,0-38.25-17.85-38.25-38.25S349.35,153,369.75,153S408,170.85,408,191.25S390.15,229.5,369.75,229.5z"/>
    </symbol>
    <symbol viewBox="-271.5 412.9 13 16" id="shape-trash">
        <title>trash</title>
        <path d="M-271.5,415.4c0-0.5,0.4-0.8,0.8-0.8h4.1v-0.8c0-0.5,0.4-0.8,0.8-0.8h1.6c0.4,0,0.8,0.4,0.8,0.8v0.8h4.1 c0.4,0,0.8,0.4,0.8,0.8v0.8h-13L-271.5,415.4L-271.5,415.4z M-259.3,417.9v1.7v8.6c0,0.5-0.4,0.8-0.8,0.8h-9.8 c-0.4,0-0.8-0.4-0.8-0.8v-8.6v-1.7V417h11.4L-259.3,417.9L-259.3,417.9z M-267.4,419.5c0-0.5-0.4-0.8-0.8-0.8s-0.8,0.4-0.8,0.8v6.9 c0,0.5,0.4,0.8,0.8,0.8s0.8-0.4,0.8-0.8V419.5z M-264.2,419.5c0-0.5-0.4-0.8-0.8-0.8s-0.8,0.4-0.8,0.8v6.9c0,0.5,0.4,0.8,0.8,0.8 s0.8-0.4,0.8-0.8V419.5z M-260.9,419.5c0-0.5-0.4-0.8-0.8-0.8s-0.8,0.4-0.8,0.8v6.9c0,0.5,0.4,0.8,0.8,0.8s0.8-0.4,0.8-0.8V419.5z" />
    </symbol>
    <symbol viewBox="0 0 24 24" id="shape-comparison">
    <title>comparison</title>
    <path d="M11.998,0.008 C5.371,0.008 -0.002,5.380 -0.002,12.008 C-0.002,18.636 5.371,24.009 11.998,24.009 C18.626,24.009 23.999,18.636 23.999,12.008 C23.999,5.380 18.626,0.008 11.998,0.008 ZM12.025,20.796 L12.025,3.221 C16.845,3.221 20.813,7.163 20.813,12.008 C20.813,16.854 16.845,20.796 12.025,20.796 Z" />
    </symbol>
    <symbol viewBox="-16.4 180.4 462.4 482.5" id="shape-versions">
    <title>versions</title>
    <path d="M350.9,205c-4.1-4.1-10.2-5.3-15.5-3.1c-5.3,2.2-8.8,7.5-8.8,13.3v71.5c0,7.9,6.4,14.4,14.2,14.4h70.7 c5.8,0,10.9-3.5,13.2-8.9c2.2-5.4,1-11.6-3.1-15.7L350.9,205z"/>
    <path d="M325.5,331.2c-15.8,0-28.7-13-28.7-29V194.8c0-7.9-6.4-14.4-14.2-14.4H147.1c-24.4,0-44.2,20-44.2,44.7v393.1 c0,24.7,19.8,44.7,44.2,44.7h254.6c24.4,0,44.2-20,44.2-44.7V345.6c0-7.9-6.4-14.4-14.2-14.4L325.5,331.2L325.5,331.2z"/>
    <path d="M73.1,618.2V225.1c0-16.8,5.7-32.2,15-44.7h-0.6c-24.4,0-44.2,20-44.2,44.7v393.1c0,24.7,19.8,44.7,44.2,44.7 h0.6C78.8,650.4,73.1,635,73.1,618.2z"/>
    <path d="M13.4,618.2V225.1c0-16.8,5.7-32.2,15-44.7h-0.6c-24.4,0-44.2,20-44.2,44.7v393.1c0,24.7,19.8,44.7,44.2,44.7 h0.6C19.1,650.4,13.4,635,13.4,618.2z"/>
    </symbol>
</svg>
