<?xml version="1.0" encoding="utf-8"?>
<!-- Generator: Adobe Illustrator 16.0.0, SVG Export Plug-In . SVG Version: 6.00 Build 0)  -->
<!DOCTYPE svg PUBLIC "-//W3C//DTD SVG 1.1//EN" "http://www.w3.org/Graphics/SVG/1.1/DTD/svg11.dtd">
<svg version="1.1" id="Layer_1" xmlns="http://www.w3.org/2000/svg" xmlns:xlink="http://www.w3.org/1999/xlink" x="0px" y="0px"
	 width="100px" height="100px" viewBox="0 0 100 100" enable-background="new 0 0 100 100" xml:space="preserve">
<g>
	<g>
		<path fill="none" stroke="#0069ff" stroke-width="2" stroke-miterlimit="10" d="M61,31h4c3.313,0,6,2.687,6,6v19"/>
		<path fill="none" stroke="#0069ff" stroke-width="2" stroke-miterlimit="10" d="M39,31h-4c-3.313,0-6,2.687-6,6v19"/>
		<line fill="none" stroke="#0069ff" stroke-width="2" stroke-miterlimit="10" x1="59" y1="79" x2="41" y2="79"/>
		<g>
			<line fill="none" stroke="#0069ff" stroke-width="2" stroke-miterlimit="10" x1="49" y1="57" x2="51" y2="57"/>
			<line fill="none" stroke="#0069ff" stroke-width="2" stroke-miterlimit="10" x1="45" y1="57" x2="47" y2="57"/>
			<line fill="none" stroke="#0069ff" stroke-width="2" stroke-miterlimit="10" x1="53" y1="57" x2="55" y2="57"/>
		</g>
		<g>
			<path fill="none" stroke="#0069ff" stroke-width="2" stroke-miterlimit="10" d="M55,26.5c0,3.5-1.963,6.5-5,6.5s-5-3-5-6.5
				s1-5.5,5-5.5S55,23,55,26.5z"/>
			<path fill="none" stroke="#0069ff" stroke-width="2" stroke-miterlimit="10" d="M53,32l7,4c0,0,0,0.344,0,2s-1,3-2,3H42
				c-1,0-2-1.344-2-3s0-2,0-2l7-4"/>
		</g>
		<g>
			<path fill="none" stroke="#0069ff" stroke-width="2" stroke-miterlimit="10" d="M34,64.5c0,3.5-1.963,6.5-5,6.5s-5-3-5-6.5
				s1-5.5,5-5.5S34,61,34,64.5z"/>
			<path fill="none" stroke="#0069ff" stroke-width="2" stroke-miterlimit="10" d="M32,70l7,4c0,0,0,0.344,0,2s-1,3-2,3H21
				c-1,0-2-1.344-2-3s0-2,0-2l7-4"/>
		</g>
		<g>
			<path fill="none" stroke="#0069ff" stroke-width="2" stroke-miterlimit="10" d="M76,64.5c0,3.5-1.963,6.5-5,6.5s-5-3-5-6.5
				s1-5.5,5-5.5S76,61,76,64.5z"/>
			<path fill="none" stroke="#0069ff" stroke-width="2" stroke-miterlimit="10" d="M74,70l7,4c0,0,0,0.344,0,2s-1,3-2,3H63
				c-1,0-2-1.344-2-3s0-2,0-2l7-4"/>
		</g>
		<circle fill="none" stroke="#0069ff" stroke-width="2" stroke-miterlimit="10" cx="50" cy="57" r="10"/>
	</g>
</g>
</svg>
