<?xml version="1.0" encoding="utf-8"?>
<!-- Generator: Adobe Illustrator 16.0.0, SVG Export Plug-In . SVG Version: 6.00 Build 0)  -->
<!DOCTYPE svg PUBLIC "-//W3C//DTD SVG 1.1//EN" "http://www.w3.org/Graphics/SVG/1.1/DTD/svg11.dtd">
<svg version="1.1" id="Layer_1" xmlns="http://www.w3.org/2000/svg" xmlns:xlink="http://www.w3.org/1999/xlink" x="0px" y="0px"
	 width="871px" height="346px" viewBox="0 0 871 346" enable-background="new 0 0 871 346" xml:space="preserve">
<g id="Layer_4">
	<rect x="480.946" y="41.94" fill="#4E8EF7" width="16.604" height="16.604"/>
	<g>
		<g>
			<rect x="514.758" y="45.284" fill="#282D33" width="3.729" height="3.729"/>
		</g>
		<g>
			<path fill="#282D33" d="M510.391,49.013h-4.365v-3.729h4.365V49.013z M501.659,49.013h-4.366v-3.729h4.366V49.013z"/>
		</g>
		<g>
			<rect x="489.199" y="45.284" fill="#282D33" width="3.729" height="3.729"/>
		</g>
		<g>
			<path fill="#282D33" d="M492.929,40.919h-3.729v-4.366h3.729V40.919z M492.929,32.188h-3.729v-4.367h3.729V32.188z"/>
		</g>
		<g>
			<rect x="489.199" y="19.726" fill="#282D33" width="3.729" height="3.729"/>
		</g>
		<g>
			<path fill="#282D33" d="M510.391,23.455h-4.366v-3.729h4.366V23.455z M501.658,23.455h-4.365v-3.729h4.365V23.455z"/>
		</g>
		<g>
			<rect x="514.758" y="19.726" fill="#282D33" width="3.729" height="3.729"/>
		</g>
		<g>
			<path fill="#282D33" d="M518.486,40.919h-3.729v-4.367h3.729V40.919z M518.486,32.187h-3.729v-4.366h3.729V32.187z"/>
		</g>
	</g>
	<g>
		<g>
			<g>
				<path fill="#4FD696" d="M557.96,222.854h-62.636c-49.569,0-89.898-40.338-89.898-89.917v-24.255h37.292v24.255
					c0,29.018,23.6,52.625,52.606,52.625h62.636V222.854z"/>
			</g>
		</g>
	</g>
	<g>
		<path fill="#4FD696" d="M604.312,345V196.467c0-8.033-8.4-14.545-18.766-14.545h-26.706c0.037-0.364,0.065-0.732,0.065-1.104
			v-31.65c0-6.825-6.316-12.352-14.105-12.352h-0.882c-7.791,0-14.108,5.527-14.108,12.352v31.65c0,0.37,0.028,0.739,0.066,1.104
			h-26.703c-10.362,0-18.769,6.511-18.769,14.545V345"/>
		<path fill="#4FD696" d="M561.859,187.767c0,1.704-1.383,3.088-3.088,3.088h-28.82c-1.705,0-3.088-1.384-3.088-3.088v-13.895
			c0-1.707,1.382-3.088,3.088-3.088h28.82c1.705,0,3.088,1.382,3.088,3.088V187.767z"/>
		<g>
			<path fill="#FFFFFF" d="M580.621,135.253c0,20.28-16.437,36.718-36.717,36.718l0,0c-20.28,0-36.717-16.438-36.717-36.718v-20.106
				c0-20.28,16.437-36.717,36.717-36.717l0,0c20.28,0,36.717,16.438,36.717,36.717V135.253z"/>
			<path fill="#282D33" d="M543.904,173.836c-21.273,0-38.582-17.308-38.582-38.583v-20.106c0-21.274,17.308-38.582,38.582-38.582
				s38.582,17.308,38.582,38.582v20.106C582.486,156.528,565.179,173.836,543.904,173.836z M543.904,80.294
				c-19.218,0-34.853,15.634-34.853,34.853v20.106c0,19.218,15.635,34.854,34.853,34.854c19.22,0,34.853-15.636,34.853-34.854
				v-20.106C578.757,95.929,563.124,80.294,543.904,80.294z"/>
		</g>
		<g>
			<path fill="#FFFFFF" d="M511.793,124.299c-3.898,0.407-10.26,3.667-10.26,7.673v9.261c0,4.012,6.361,7.271,10.26,7.674V124.299z"
				/>
			<path fill="#282D33" d="M513.658,150.978l-2.058-0.214c-4.281-0.445-11.932-4.009-11.932-9.53v-9.261
				c0-5.515,7.649-9.081,11.93-9.529l2.06-0.215V150.978L513.658,150.978z M509.929,126.589c-3.217,0.989-6.53,3.34-6.53,5.383
				v9.261c0,2.046,3.313,4.398,6.53,5.386V126.589z"/>
		</g>
		<g>
			<rect x="525" y="123.628" fill="#282D33" width="6.691" height="3.729"/>
		</g>
		<g>
			<rect x="552.792" y="123.628" fill="#282D33" width="6.691" height="3.729"/>
		</g>
		<g>
			<path fill="#FFFFFF" d="M536.004,154.484c1.762,3.057,4.645,5.06,7.909,5.06c3.269,0,6.152-2.002,7.911-5.06"/>
			<path fill="#282D33" d="M543.914,161.408c-3.803,0-7.363-2.241-9.526-5.994l3.232-1.861c1.488,2.583,3.841,4.125,6.294,4.125
				c2.455,0,4.809-1.542,6.296-4.125l3.232,1.861C551.28,159.167,547.719,161.408,543.914,161.408z"/>
		</g>
		<g>
			<path fill="#4E8EF7" d="M579.035,87.666h-4.268c1.427-2.482,1.869-5.035,0.997-7.285c-2.159-5.564-11.429-7.159-20.704-3.561
				c-1.045,0.404-2.035,0.865-2.987,1.36c0.583-1.981,0.603-3.933-0.095-5.724c-2.562-6.605-13.564-8.498-24.571-4.229
				c-10.87,4.217-17.667,12.862-15.372,19.439h-3.248c-4.264,0-7.722,3.456-7.722,7.719v32.212c0.133,0.33,0.257,0.661,0.395,0.983
				h10.364v-28.102c0-0.395,0.047-0.778,0.061-1.169c9.69,2.039,20.557,3.185,32.026,3.185c11.469,0,22.334-1.146,32.024-3.185
				c0.018,0.392,0.062,0.774,0.062,1.169v28.102h10.362c0.14-0.326,0.263-0.657,0.396-0.987V95.386
				C586.755,91.122,583.299,87.666,579.035,87.666z"/>
			<path fill="#282D33" d="M587.588,130.445h-13.455v-28.87c-9.543,1.847-19.698,2.783-30.223,2.783
				c-10.525,0-20.68-0.936-30.222-2.783v28.87h-13.457l-0.487-1.129c-0.104-0.243-0.2-0.49-0.296-0.739l-0.248-0.624V95.386
				c0-5.286,4.3-9.585,9.585-9.585h0.971c-0.552-7.105,6.352-15.19,16.976-19.311c4.062-1.577,8.29-2.411,12.221-2.411
				c7.374,0,12.893,2.88,14.763,7.702c0.41,1.053,0.63,2.157,0.654,3.306c0.007-0.002,0.014-0.006,0.014-0.006
				c3.461-1.341,7.058-2.05,10.407-2.05c6.338,0,11.089,2.496,12.711,6.675c0.735,1.894,0.768,3.964,0.115,6.095h1.418
				c5.284,0,9.585,4.299,9.585,9.585v32.571l-0.274,0.683c-0.087,0.226-0.177,0.453-0.273,0.677L587.588,130.445z M577.862,126.716
				h7.028v-31.33c0-3.229-2.626-5.854-5.855-5.854h-7.491l1.609-2.795c0.837-1.457,1.67-3.625,0.873-5.681
				c-1.028-2.649-4.565-4.295-9.233-4.295c-2.894,0-6.023,0.622-9.057,1.797c-0.914,0.354-1.83,0.772-2.802,1.276l-3.886,2.021
				l1.237-4.201c0.489-1.664,0.475-3.186-0.045-4.522c-1.292-3.334-5.512-5.322-11.286-5.322c-3.476,0-7.236,0.747-10.871,2.156
				c-9.836,3.815-16.244,11.479-14.286,17.086l0.864,2.479h-5.874c-3.229,0-5.856,2.627-5.856,5.855v31.33h7.029v-26.238
				c0-0.278,0.018-0.553,0.035-0.827c0.012-0.136,0.02-0.274,0.026-0.412l0.083-2.21l2.162,0.455
				c9.923,2.086,20.568,3.144,31.644,3.144c11.074,0,21.72-1.058,31.641-3.144l2.155-0.453l0.093,2.199
				c0.006,0.135,0.016,0.269,0.024,0.401c0.02,0.281,0.039,0.562,0.039,0.847L577.862,126.716L577.862,126.716z"/>
		</g>
		<g>
			<path fill="#FFFFFF" d="M538.316,117.383v23.097c0,1.49,1.21,2.7,2.703,2.7h4.953c1.492,0,2.701-1.21,2.701-2.7v-1.354"/>
			<path fill="#282D33" d="M545.974,145.046h-4.954c-2.519,0-4.567-2.048-4.567-4.566v-23.096h3.729v23.096
				c0,0.462,0.377,0.836,0.838,0.836h4.954c0.461,0,0.837-0.375,0.837-0.836v-1.354h3.729v1.354
				C550.54,142.998,548.492,145.046,545.974,145.046z"/>
		</g>
		<g>
			<rect x="536.004" y="177.986" fill="#282D33" width="3.729" height="11.836"/>
		</g>
		<g>
			<path fill="#FFFFFF" d="M575.945,131.548c0-4.001,3.242-7.249,7.248-7.249h0.605c4.001,0,7.251,3.248,7.251,7.249v8.805
				c0,4.005-3.25,7.25-7.251,7.25h-0.605c-2.964,0-5.509-1.776-6.634-4.322"/>
			<path fill="#282D33" d="M583.8,149.467h-0.605c-3.607,0-6.882-2.132-8.339-5.434l3.409-1.506c0.864,1.951,2.799,3.211,4.93,3.211
				h0.605c2.97,0,5.387-2.416,5.387-5.385v-8.805c0-2.969-2.418-5.384-5.387-5.384h-0.605c-2.97,0-5.384,2.416-5.384,5.384h-3.729
				c0-5.026,4.088-9.113,9.112-9.113h0.605c5.026,0,9.116,4.088,9.116,9.113v8.805C592.916,145.378,588.826,149.467,583.8,149.467z"
				/>
		</g>
	</g>
	<g>
		<g>
			<path fill="#FFFFFF" d="M250.202,345V209.82c0-9.136,8.371-16.543,18.691-16.543h82.02c10.323,0,18.687,7.407,18.687,16.543V345"
				/>
			<path fill="#282D33" d="M371.463,345h-3.729V209.82c0-8.093-7.546-14.678-16.822-14.678h-82.02
				c-9.277,0-16.827,6.585-16.827,14.678V345h-3.729V209.82c0-10.15,9.222-18.406,20.556-18.406h82.02
				c11.332,0,20.551,8.256,20.551,18.406V345z"/>
		</g>
		<g>
			<polygon fill="#FFFFFF" points="325.235,193.45 309.533,202.517 293.831,193.45 293.831,159.167 309.533,159.167 
				325.235,159.167 			"/>
			<path fill="#282D33" d="M309.533,204.67l-17.568-10.145v-37.224H327.1v37.224L309.533,204.67z M295.695,192.374l13.839,7.989
				l13.837-7.989v-31.343h-27.676V192.374z"/>
		</g>
		<polygon fill="#4E8EF7" points="291.136,217.263 309.467,205.147 292.582,195.398 		"/>
		<polygon fill="#4E8EF7" points="327.897,217.265 309.566,205.147 326.449,195.398 		"/>
		<g>
			<path fill="#FFFFFF" d="M355.124,147.636c0,4.004-3.245,7.252-7.248,7.252h-0.605c-4.006,0-7.248-3.248-7.248-7.252v-13.29
				c0-4.005,3.243-7.249,7.248-7.249h0.605c4.003,0,7.248,3.244,7.248,7.249V147.636z"/>
			<path fill="#282D33" d="M347.875,156.752h-0.605c-5.023,0-9.113-4.09-9.113-9.116v-13.29c0-5.026,4.089-9.113,9.113-9.113h0.605
				c5.026,0,9.113,4.088,9.113,9.113v13.29C356.988,152.662,352.9,156.752,347.875,156.752z M347.269,128.96
				c-2.968,0-5.384,2.417-5.384,5.385v13.291c0,2.971,2.417,5.387,5.384,5.387h0.605c2.969,0,5.384-2.417,5.384-5.387v-13.291
				c0-2.969-2.416-5.385-5.384-5.385H347.269L347.269,128.96z"/>
		</g>
		<g>
			<path fill="#FFFFFF" d="M346.617,148.857c0,20.28-16.439,36.716-36.716,36.716l0,0c-20.28,0-36.719-16.437-36.719-36.716v-29.371
				c0-20.277,16.439-36.715,36.719-36.715l0,0c20.277,0,36.716,16.438,36.716,36.715V148.857z"/>
			<path fill="#282D33" d="M309.901,187.438c-21.275,0-38.583-17.308-38.583-38.582v-29.371c0-21.273,17.308-38.58,38.583-38.58
				c21.274,0,38.581,17.306,38.581,38.58v29.371C348.481,170.131,331.175,187.438,309.901,187.438z M309.901,84.635
				c-19.219,0-34.854,15.635-34.854,34.851v29.371c0,19.217,15.635,34.852,34.854,34.852c19.217,0,34.852-15.635,34.852-34.852
				v-29.371C344.753,100.27,329.118,84.635,309.901,84.635z"/>
		</g>
		<g>
			<path fill="#4E8EF7" d="M296.791,80.779c-5.942,0-11.165,3.058-14.202,7.681h-5.831c-7.267,0-13.163,5.891-13.163,13.163v63.3
				h9.263v-44.001c0-5.117,4.149-9.265,9.265-9.265h5.402h45.548h8.49c9.384,0,16.984-7.604,16.984-16.983V80.779H296.791
				L296.791,80.779z"/>
			<path fill="#282D33" d="M274.721,166.788H261.73v-65.165c0-8.287,6.741-15.027,15.027-15.027h4.858
				c3.555-4.829,9.154-7.68,15.175-7.68h63.62v15.758c0,10.392-8.455,18.848-18.849,18.848h-59.44c-4.081,0-7.401,3.32-7.401,7.399
				V166.788z M265.46,163.059h5.534v-42.137c0-6.137,4.992-11.129,11.129-11.129h59.44c8.337,0,15.119-6.782,15.119-15.118V82.644
				h-59.891c-5.103,0-9.829,2.556-12.644,6.841l-0.553,0.839h-6.837c-6.229,0-11.298,5.07-11.298,11.298V163.059z"/>
		</g>
		<g>
			<path fill="#FFFFFF" d="M273.182,127.172c-3.644,0.379-9.587,3.426-9.587,7.173v13.291c0,3.749,5.943,6.796,9.587,7.174V127.172z
				"/>
			<path fill="#282D33" d="M275.047,156.879l-2.058-0.212c-4.041-0.42-11.259-3.797-11.259-9.031v-13.29
				c0-5.233,7.218-8.609,11.259-9.028l2.058-0.214V156.879z M271.318,129.485c-2.885,0.944-5.858,3.068-5.858,4.861v13.29
				c0,1.793,2.973,3.917,5.858,4.862V129.485z"/>
		</g>
		<g>
			<path fill="#FFFFFF" d="M302.137,162.858c1.765,3.058,4.647,5.061,7.912,5.061c3.266,0,6.149-2.002,7.912-5.061"/>
			<path fill="#282D33" d="M310.049,169.784c-3.801,0-7.362-2.241-9.527-5.995l3.23-1.863c1.491,2.584,3.845,4.128,6.297,4.128
				s4.807-1.542,6.296-4.128l3.23,1.863C317.413,167.542,313.852,169.784,310.049,169.784z"/>
		</g>
		<g>
			<path fill="#282D33" d="M289.217,150.224c-9.407,0-17.06-7.653-17.06-17.06v-7.755h34.121v7.755
				C306.278,142.571,298.624,150.224,289.217,150.224z M275.886,129.138v4.026c0,7.351,5.98,13.331,13.331,13.331
				s13.331-5.98,13.331-13.331v-4.026H275.886z"/>
		</g>
		<g>
			<path fill="#282D33" d="M331.394,150.224c-9.406,0-17.058-7.653-17.058-17.06v-7.755h34.117v7.755
				C348.452,142.571,340.798,150.224,331.394,150.224z M318.064,129.138v4.026c0,7.351,5.979,13.331,13.33,13.331
				c7.351,0,13.329-5.98,13.329-13.331v-4.026H318.064z"/>
		</g>
		<g>
			<rect x="288.685" y="133.63" fill="#282D33" width="5.612" height="3.729"/>
		</g>
		<g>
			<rect x="325.677" y="133.63" fill="#282D33" width="5.355" height="3.729"/>
		</g>
		<g>
			<rect x="304.386" y="125.409" fill="#282D33" width="13.895" height="3.729"/>
		</g>
	</g>
	<g>
		<path fill="#4E8EF7" d="M360.161,345v-75.229c0-6.819,6.419-12.351,14.34-12.351h78.874c7.918,0,14.342,5.531,14.342,12.351V345"
			/>
		<g>
			<path fill="#FFFFFF" d="M380.56,345v-69.801c0-5.966,3.985-10.802,8.899-10.802h48.955c4.917,0,8.901,4.836,8.901,10.802V345"/>
			<path fill="#282D33" d="M449.18,345h-3.729v-69.801c0-4.928-3.155-8.937-7.035-8.937H389.46c-3.879,0-7.034,4.009-7.034,8.937
				V345h-3.729v-69.801c0-6.984,4.828-12.666,10.764-12.666h48.955c5.937,0,10.765,5.682,10.765,12.666V345z"/>
		</g>
		<g>
			<path fill="#FFFFFF" d="M413.938,283.335c11.14,0,20.201-9.063,20.201-20.201v-5.715h-40.401v5.715
				C393.738,274.272,402.8,283.335,413.938,283.335z"/>
			<path fill="#282D33" d="M413.938,285.199c-12.166,0-22.065-9.898-22.065-22.065v-7.579h44.13v7.579
				C436.004,275.301,426.105,285.199,413.938,285.199z M395.603,259.286v3.849c0,10.111,8.225,18.336,18.336,18.336
				c10.112,0,18.336-8.225,18.336-18.336v-3.849H395.603L395.603,259.286z"/>
		</g>
		<g>
			<path fill="#FFFFFF" d="M424.815,263.134c0,6.007-4.87,10.877-10.877,10.877l0,0c-6.006,0-10.877-4.87-10.877-10.877v-34.806
				c0-6.007,4.871-10.877,10.877-10.877l0,0c6.008,0,10.877,4.87,10.877,10.877V263.134z"/>
			<path fill="#282D33" d="M413.938,275.876c-7.026,0-12.742-5.717-12.742-12.742v-34.806c0-7.026,5.716-12.742,12.742-12.742
				c7.027,0,12.742,5.716,12.742,12.742v34.806C426.68,270.16,420.964,275.876,413.938,275.876z M413.938,219.315
				c-4.969,0-9.013,4.044-9.013,9.013v34.806c0,4.969,4.043,9.013,9.013,9.013c4.97,0,9.013-4.044,9.013-9.013v-34.806
				C422.951,223.359,418.908,219.315,413.938,219.315z"/>
		</g>
		<g>
			<ellipse fill="#4E8EF7" cx="381.283" cy="176.104" rx="25.733" ry="26.76"/>
			<path fill="#282D33" d="M381.284,204.729c-15.218,0-27.599-12.841-27.599-28.625c0-15.785,12.38-28.626,27.599-28.626
				c15.216,0,27.596,12.841,27.596,28.626C408.88,191.888,396.5,204.729,381.284,204.729z M381.284,151.206
				c-13.161,0-23.869,11.168-23.869,24.898c0,13.729,10.707,24.896,23.869,24.896c13.159,0,23.867-11.168,23.867-24.896
				C405.151,162.374,394.444,151.206,381.284,151.206z"/>
		</g>
		<g>
			<ellipse fill="#4E8EF7" cx="375.107" cy="205.294" rx="16.468" ry="17.127"/>
			<path fill="#282D33" d="M375.108,224.287c-10.11,0-18.334-8.521-18.334-18.993c0-10.473,8.224-18.993,18.334-18.993
				c10.108,0,18.333,8.521,18.333,18.993C393.44,215.767,385.216,224.287,375.108,224.287z M375.108,190.03
				c-8.053,0-14.604,6.848-14.604,15.264s6.551,15.264,14.604,15.264c8.051,0,14.604-6.848,14.604-15.264
				S383.159,190.03,375.108,190.03z"/>
		</g>
		<g>
			<ellipse fill="#FFFFFF" cx="378.196" cy="191.915" rx="16.468" ry="17.126"/>
			<path fill="#282D33" d="M378.196,210.905c-10.109,0-18.333-8.52-18.333-18.991c0-10.471,8.224-18.992,18.333-18.992
				c10.108,0,18.333,8.521,18.333,18.992C396.528,202.386,388.304,210.905,378.196,210.905z M378.196,176.651
				c-8.052,0-14.604,6.848-14.604,15.263c0,8.416,6.552,15.262,14.604,15.262c8.052,0,14.604-6.846,14.604-15.262
				S386.248,176.651,378.196,176.651z"/>
		</g>
		<g>
			<ellipse fill="#4E8EF7" cx="443.04" cy="205.294" rx="16.469" ry="17.127"/>
			<path fill="#282D33" d="M443.04,224.287c-10.108,0-18.332-8.521-18.332-18.993c0-10.473,8.223-18.993,18.332-18.993
				c10.11,0,18.334,8.521,18.334,18.993S453.149,224.287,443.04,224.287z M443.04,190.03c-8.052,0-14.603,6.848-14.603,15.264
				s6.551,15.264,14.603,15.264c8.054,0,14.604-6.848,14.604-15.264S451.094,190.03,443.04,190.03z"/>
		</g>
		<g>
			<path fill="#FFFFFF" d="M445.003,207.867c0,20.276-16.437,36.716-36.715,36.716l0,0c-20.278,0-36.714-16.439-36.714-36.716
				v-29.375c0-20.276,16.437-36.714,36.714-36.714l0,0c20.278,0,36.715,16.438,36.715,36.714V207.867z"/>
			<path fill="#282D33" d="M408.288,246.448c-21.273,0-38.579-17.308-38.579-38.581v-29.375c0-21.272,17.306-38.579,38.579-38.579
				c21.272,0,38.579,17.306,38.579,38.579v29.375C446.867,229.141,429.561,246.448,408.288,246.448z M408.288,143.643
				c-19.218,0-34.85,15.634-34.85,34.85v29.375c0,19.218,15.633,34.852,34.85,34.852s34.85-15.634,34.85-34.852v-29.375
				C443.138,159.277,427.505,143.643,408.288,143.643z"/>
		</g>
		<g>
			<path fill="#4E8EF7" d="M441.47,151.618l26.158,26.157l-4.731,4.73c-14.473,14.471-37.932,14.471-52.4,0l-32.699-32.696
				C396.01,133.531,423.983,134.13,441.47,151.618z"/>
			<path fill="#282D33" d="M436.694,195.224c-10.395,0-20.167-4.049-27.517-11.399l-34.094-34.091l1.47-1.315
				c8.837-7.898,20.246-12.248,32.125-12.248c12.884,0,24.997,5.019,34.109,14.129l27.477,27.476l-6.051,6.049
				C456.862,191.176,447.089,195.224,436.694,195.224z M380.541,149.917l31.272,31.271c6.646,6.647,15.481,10.307,24.881,10.307
				c9.398,0,18.236-3.659,24.883-10.307l3.414-3.412l-24.84-24.839c-8.406-8.407-19.584-13.036-31.473-13.036
				C398.379,139.9,388.463,143.444,380.541,149.917z"/>
		</g>
		<g>
			<path fill="#282D33" d="M402.973,194.388h-3.729c0-3.946-3.208-7.155-7.153-7.155c-3.944,0-7.152,3.209-7.152,7.155h-3.729
				c0-6.002,4.88-10.885,10.881-10.885C398.09,183.503,402.973,188.387,402.973,194.388z"/>
		</g>
		<g>
			<rect x="400.325" y="218.497" fill="#282D33" width="13.896" height="3.729"/>
		</g>
	</g>
	<g>
		<g>
			<g>
				<path fill="#4FD696" d="M174.952,287.333c-38.307,0-69.472-31.173-69.472-69.485v-63.265h37.292v63.265
					c0,17.751,14.436,32.193,32.18,32.193c17.719,0,32.135-14.442,32.135-32.193v-1.086h37.292v1.086
					C244.379,256.161,213.234,287.333,174.952,287.333z"/>
			</g>
		</g>
	</g>
	<g>
		<g>
			<g>
				<path fill="#4FD696" d="M290.995,345h-37.292v-50.501c0-12.094-9.836-21.934-21.925-21.934v-37.292
					c32.652,0,59.217,26.568,59.217,59.226V345z"/>
			</g>
		</g>
	</g>
	<g>
		<g>
			<path fill="#282D33" d="M138.356,150.448h-3.729v-3.636l1.421-0.348c1.199-0.292,2.306-0.888,3.212-1.725l9.314-10.837v-6.665
				l-0.256-0.102l0.256-1.35v-4.448c-1.768,0.073-3.185,1.534-3.185,3.319v8.688h-3.729v-8.688c0-3.888,3.164-7.05,7.051-7.05h3.472
				l0.012,0.141l0.109,0.008l0.019,1.591l0.115,1.74l-0.134,0.019v14.18l-10.414,12.101c-1.024,0.971-2.228,1.734-3.535,2.25
				V150.448z"/>
		</g>
		<g>
			<path fill="#FFFFFF" d="M164.122,125.65h2.61c0.323,0,0.581,0.262,0.581,0.592v4.211c0,0.33-0.258,0.596-0.581,0.596h-2.61"/>
			<path fill="#282D33" d="M166.731,132.914h-2.61v-3.729h1.325v-1.67h-1.325v-3.729h2.61c1.349,0,2.446,1.103,2.446,2.457v4.211
				C169.177,131.81,168.08,132.914,166.731,132.914z"/>
		</g>
		<g>
			<polygon fill="#282D33" points="101.069,132.904 99.532,132.904 89.472,128.344 99.533,123.785 101.069,123.785 101.069,127.515 
				100.338,127.515 98.505,128.344 100.339,129.175 101.069,129.175 			"/>
		</g>
		<rect x="103.151" y="124.139" fill="#4E8EF7" width="12.959" height="8.42"/>
		<rect x="145.09" y="124.139" fill="#4E8EF7" width="16.921" height="8.42"/>
		<g>
			<path fill="#FFFFFF" d="M150.44,132.982c-0.008,0,0.012,0.002,0,0.006v1.606l-9.831,11.438c-1.136,1.077-2.547,1.861-4.118,2.244
				v2.172"/>
			<path fill="#282D33" d="M138.356,150.448h-3.729v-3.636l1.421-0.348c1.199-0.292,2.306-0.888,3.212-1.725l9.141-10.635
				l0.174-1.264v-1.26l0.181-0.053l0.058-0.411h1.626v1.864l0.506-1.792l1.362,1.793l-0.004,0.006v2.296l-10.414,12.101
				c-1.024,0.971-2.228,1.734-3.535,2.25L138.356,150.448L138.356,150.448z"/>
		</g>
		<g>
			<path fill="#282D33" d="M121.376,150.448h-3.729v-2.841c-2.345-2.085-3.672-5.021-3.672-8.188v-15.846l0.173-3.592
				c-0.002-2.81,2.357-5.169,5.258-5.169c1.022,0,1.871,0.159,2.568,0.432c0.958-1.292,2.495-2.129,4.223-2.129
				c0.882,0,1.712,0.217,2.442,0.602c0.948-1.387,2.543-2.3,4.348-2.3c1.935,0,3.63,1.049,4.543,2.609
				c0.73-0.363,1.55-0.571,2.396-0.571c2.966,0,5.378,2.413,5.378,5.377v14.513h-3.729v-14.513c0-0.909-0.739-1.647-1.648-1.647
				c-0.927,0-1.679,0.85-1.679,1.403h-3.729v-1.912c0-0.843-0.688-1.531-1.532-1.531c-0.845,0-1.532,0.686-1.532,1.531v1.699h-3.729
				c0-0.845-0.685-1.533-1.528-1.533c-0.844,0-1.53,0.688-1.53,1.533v0.848l-3.729-0.002c0-0.256-0.005-0.68-1.531-0.68
				c-0.844,0-1.531,0.688-1.531,1.532l-0.173,3.591l0.001,15.755c0,2.304,1.066,4.423,2.926,5.812l0.747,0.56V150.448z"/>
		</g>
	</g>
	<g>
		<g>
			<path fill="#4FD696" d="M257.35,230.186c0,14.695-11.911,26.607-26.607,26.607h-11.204c-14.692,0-26.606-11.912-26.606-26.607
				v-48.313c0-14.695,11.915-26.606,26.606-26.606h11.204c14.696,0,26.607,11.911,26.607,26.606V230.186z"/>
			<path fill="#4FD696" d="M230.743,258.657h-11.204c-15.698,0-28.471-12.771-28.471-28.472v-48.313
				c0-15.698,12.772-28.47,28.471-28.47h11.204c15.699,0,28.471,12.772,28.471,28.47v48.313
				C259.214,245.884,246.441,258.657,230.743,258.657z M219.539,157.13c-13.641,0-24.742,11.099-24.742,24.741v48.313
				c0,13.644,11.1,24.742,24.742,24.742h11.204c13.642,0,24.742-11.099,24.742-24.742v-48.313c0-13.643-11.1-24.741-24.742-24.741
				H219.539L219.539,157.13z"/>
		</g>
		<g>
			<path fill="#FFFFFF" d="M262.126,345v-65.854c0-20.781-16.849-37.629-37.63-37.629c-20.782,0-37.63,16.848-37.63,37.629V345"/>
			<path fill="#282D33" d="M263.991,345h-3.729v-65.854c0-19.721-16.044-35.765-35.765-35.765
				c-19.722,0-35.765,16.044-35.765,35.765V345h-3.729v-65.854c0-21.777,17.718-39.494,39.495-39.494
				c21.777,0,39.495,17.717,39.495,39.494V345z"/>
		</g>
		<g>
			<path fill="#FFFFFF" d="M267.039,204.279c0,6.293-5.105,11.395-11.4,11.395h-60.998c-6.292,0-11.394-5.102-11.394-11.395l0,0
				c0-6.295,5.102-11.397,11.394-11.397h60.998C261.934,192.882,267.039,197.984,267.039,204.279L267.039,204.279z"/>
			<path fill="#282D33" d="M255.639,217.538h-60.998c-7.311,0-13.258-5.948-13.258-13.261c0-7.312,5.947-13.261,13.258-13.261
				h60.998c7.314,0,13.264,5.949,13.264,13.261C268.903,211.59,262.952,217.538,255.639,217.538z M194.641,194.747
				c-5.254,0-9.529,4.274-9.529,9.532c0,5.255,4.274,9.53,9.529,9.53h60.998c5.258,0,9.535-4.275,9.535-9.53
				c0-5.258-4.277-9.532-9.535-9.532H194.641z"/>
		</g>
		<g>
			<path fill="#FFFFFF" d="M224.334,257.841c-6.574,0-11.903-5.329-11.903-11.901v-63.718c0-6.573,5.33-11.904,11.903-11.904l0,0
				c6.573,0,11.903,5.331,11.903,11.904v63.718C236.237,252.512,230.906,257.841,224.334,257.841L224.334,257.841z"/>
			<path fill="#282D33" d="M224.334,259.706c-7.592,0-13.768-6.176-13.768-13.767v-63.718c0-7.593,6.176-13.769,13.768-13.769
				s13.768,6.176,13.768,13.769v63.718C238.102,253.53,231.925,259.706,224.334,259.706z M224.334,172.184
				c-5.536,0-10.039,4.503-10.039,10.039v63.718c0,5.534,4.502,10.038,10.039,10.038c5.534,0,10.039-4.504,10.039-10.038v-63.718
				C234.372,176.687,229.869,172.184,224.334,172.184z"/>
		</g>
		<g>
			<path fill="#FFFFFF" d="M257.35,160.866v48.314c0,14.693-11.911,26.606-26.607,26.606h-11.204
				c-14.692,0-26.606-11.913-26.606-26.606v-48.314"/>
			<path fill="#282D33" d="M230.743,237.651h-11.204c-15.698,0-28.471-12.772-28.471-28.472v-48.314h3.729v48.314
				c0,13.643,11.1,24.742,24.742,24.742h11.204c13.642,0,24.742-11.1,24.742-24.742v-48.314h3.729v48.314
				C259.214,224.879,246.441,237.651,230.743,237.651z"/>
		</g>
		<g>
			<path fill="#4FD696" d="M230.743,134.259h-11.204c-14.692,0-26.606,11.913-26.606,26.606v31.862
				c13.286-1.207,25.931-13.604,32.208-31.351c6.278,17.746,18.922,30.144,32.209,31.352v-31.863
				C257.35,146.172,245.438,134.259,230.743,134.259z"/>
			<path fill="#231F20" d="M259.214,194.771l-2.033-0.185c-12.825-1.166-25.05-12.027-32.041-28.116
				c-6.991,16.089-19.215,26.95-32.039,28.115l-2.034,0.184v-33.903c0-15.699,12.772-28.471,28.471-28.471h11.204
				c15.699,0,28.471,12.772,28.471,28.471V194.771z M225.14,155.785l1.758,4.971c5.738,16.226,16.801,27.68,28.586,29.836v-29.726
				c0-13.643-11.1-24.742-24.742-24.742h-11.204c-13.641,0-24.742,11.099-24.742,24.742v29.726
				c11.787-2.155,22.846-13.61,28.585-29.836L225.14,155.785z"/>
		</g>
		<g>
			<path fill="#282D33" d="M219.239,199.854h-3.729c0-1.442-2.107-3.049-5.131-3.049c-3.025,0-5.134,1.606-5.134,3.049h-3.729
				c0-3.801,3.893-6.778,8.863-6.778C215.347,193.077,219.239,196.054,219.239,199.854z"/>
		</g>
		<g>
			<path fill="#282D33" d="M245.725,199.854h-3.729c0-1.442-2.106-3.049-5.13-3.049c-3.025,0-5.132,1.606-5.132,3.049h-3.729
				c0-3.801,3.892-6.778,8.861-6.778C241.834,193.077,245.725,196.054,245.725,199.854z"/>
		</g>
		<g>
			<path fill="#FFFFFF" d="M213.724,209.88v4.9c0,3.867,3.134,7.002,7.002,7.002h4.902c3.866,0,7.001-3.134,7.001-7.002v-4.9
				H213.724z"/>
			<path fill="#282D33" d="M225.628,223.647h-4.902c-4.89,0-8.867-3.979-8.867-8.867v-6.766h22.635v6.766
				C234.494,219.669,230.517,223.647,225.628,223.647z M215.589,211.744v3.036c0,2.834,2.304,5.139,5.138,5.139h4.902
				c2.833,0,5.136-2.305,5.136-5.139v-3.036H215.589z"/>
		</g>
	</g>
	<g>
		<g>
			<rect x="306.466" y="212.168" fill="#282D33" width="3.729" height="1.865"/>
		</g>
		<g>
			<path fill="#282D33" d="M310.195,322.414h-3.729v-3.612h3.729V322.414z M310.195,311.576h-3.729v-3.612h3.729V311.576z
				 M310.195,300.738h-3.729v-3.613h3.729V300.738z M310.195,289.899h-3.729v-3.612h3.729V289.899z M310.195,279.062h-3.729v-3.612
				h3.729V279.062z M310.195,268.224h-3.729v-3.612h3.729V268.224z M310.195,257.386h-3.729v-3.613h3.729V257.386z M310.195,246.547
				h-3.729v-3.612h3.729V246.547z M310.195,235.709h-3.729v-3.612h3.729V235.709z M310.195,224.871h-3.729v-3.612h3.729V224.871z"/>
		</g>
		<g>
			<rect x="306.466" y="329.64" fill="#282D33" width="3.729" height="1.865"/>
		</g>
	</g>
	<g>
		<rect x="339.097" y="256.919" fill="#282D33" width="3.729" height="88.081"/>
	</g>
	<g>
		<g>
			<path fill="#282D33" d="M415.851,112.026h-3.729v-9.538c-2.87-2.48-4.497-6.017-4.497-9.843V67.279h3.729v25.366
				c0,2.959,1.366,5.678,3.749,7.458l0.749,0.559L415.851,112.026L415.851,112.026z"/>
		</g>
		<g>
			<path fill="#282D33" d="M436.657,112.026h-3.729v-9.991l1.425-0.348c1.545-0.375,2.971-1.146,4.137-2.229l11.531-13.418v-8.504
				l-0.097-0.031l0.097-1.438v-6.002h-0.25c-2.479,0-4.494,2.014-4.494,4.49v8.599l-0.087,2.125l-3.728-0.076l-0.022-17.923
				l3.729-0.004v0.469c1.314-0.889,2.897-1.41,4.603-1.41h3.873l0.013,0.157l0.094,0.007l0.025,1.593l0.101,1.757l-0.127,0.015
				v4.942l0.062,0.021l-0.062,1.512v11.086l-12.628,14.679c-1.285,1.22-2.809,2.163-4.466,2.775V112.026L436.657,112.026z"/>
		</g>
		<g>
			<path fill="#282D33" d="M419.694,67.426h-3.729V52.326c0-1.271-1.034-2.306-2.307-2.306c-1.271,0-2.303,1.034-2.303,2.306v15.101
				h-3.729V52.326c0-3.328,2.705-6.035,6.032-6.035c3.329,0,6.036,2.707,6.036,6.035V67.426z"/>
		</g>
		<g>
			<path fill="#282D33" d="M428.18,67.426h-3.729V43.27c0-1.271-1.036-2.305-2.309-2.305c-1.269,0-2.302,1.034-2.302,2.305v24.156
				h-3.729V43.27c0-3.327,2.706-6.035,6.032-6.035c3.33,0,6.037,2.707,6.037,6.035V67.426z"/>
		</g>
		<g>
			<path fill="#282D33" d="M436.663,67.426h-3.729V39c0-1.271-1.033-2.306-2.305-2.306s-2.307,1.034-2.307,2.306v28.426h-3.729V39
				c0-3.328,2.707-6.035,6.036-6.035c3.327,0,6.033,2.707,6.033,6.035V67.426L436.663,67.426z"/>
		</g>
		<g>
			<path fill="#282D33" d="M445.15,67.426h-3.729v-21.21c0-1.271-1.036-2.306-2.31-2.306c-1.269,0-2.304,1.034-2.304,2.306v21.21
				h-3.729v-21.21c0-3.327,2.707-6.035,6.032-6.035c3.329,0,6.039,2.707,6.039,6.035L445.15,67.426L445.15,67.426z"/>
		</g>
	</g>
	<g>
		<rect x="492.707" y="194.055" fill="#282D33" width="102.155" height="3.729"/>
	</g>
	<g>
		<rect x="492.707" y="215.808" fill="#282D33" width="102.155" height="3.729"/>
	</g>
	<g>
		<rect x="541.92" y="188.348" fill="#282D33" width="3.729" height="156.651"/>
	</g>
	<g>
		<path fill="#4E8EF7" d="M583.92,345V219.638c0-8.179,8.836-14.808,19.74-14.808h86.63c10.903,0,19.736,6.628,19.736,14.808V345"/>
		<g>
			<g>
				<g>
					<path fill="#4E8EF7" d="M722.192,338.66h-14.871v-37.292h14.871c16.362,0,29.674-13.306,29.674-29.661
						c0-16.331-13.312-29.618-29.674-29.618h-58.892v-37.292h58.892c36.925,0,66.966,30.015,66.966,66.91
						C789.159,308.625,759.118,338.66,722.192,338.66z"/>
				</g>
			</g>
		</g>
		<g>
			<g>
				<g>
					<path fill="#282D33" d="M720.169,303.403h-13.211v-3.729h13.211c15.423,0,27.969-12.542,27.969-27.957
						c0-15.402-12.545-27.934-27.969-27.934h-36.356v-3.729h36.356c17.479,0,31.698,14.203,31.698,31.663
						C751.867,289.189,737.648,303.403,720.169,303.403z"/>
				</g>
			</g>
		</g>
		<g>
			<g>
				<path fill="#FFFFFF" d="M601.225,139.762v17.041c0,2.769,2.218,5.012,4.952,5.012c2.736,0,4.952-2.244,4.952-5.012v-17.041
					H601.225z"/>
				<path fill="#282D33" d="M606.177,163.681c-3.759,0-6.817-3.084-6.817-6.876v-18.907h13.634v18.907
					C612.995,160.596,609.937,163.681,606.177,163.681z M603.089,141.627v15.176c0,1.735,1.384,3.147,3.088,3.147
					c1.702,0,3.087-1.412,3.087-3.147v-15.176H603.089z"/>
			</g>
			<g>
				<path fill="#FFFFFF" d="M683.438,139.762v17.041c0,2.769,2.217,5.012,4.952,5.012c2.736,0,4.953-2.244,4.953-5.012v-17.041
					H683.438z"/>
				<path fill="#282D33" d="M688.39,163.681c-3.757,0-6.816-3.084-6.816-6.876v-18.907h13.634v18.907
					C695.207,160.596,692.148,163.681,688.39,163.681z M685.303,141.627v15.176c0,1.735,1.385,3.147,3.087,3.147
					c1.703,0,3.088-1.412,3.088-3.147v-15.176H685.303z"/>
			</g>
			<g>
				<polygon fill="#FFFFFF" points="672.456,219.08 672.456,206.314 621.437,206.314 621.437,219.08 646.946,233.985 				"/>
				<path fill="#282D33" d="M646.946,236.145l-27.374-15.996v-15.697h54.748v15.697L646.946,236.145z M623.301,218.009
					l23.644,13.816l23.646-13.816v-9.829H623.3L623.301,218.009L623.301,218.009z"/>
			</g>
			<g>
				<polygon fill="#FFFFFF" points="662.054,213.001 646.946,221.831 631.837,213.001 631.837,179.61 646.946,179.61 
					662.054,179.61 				"/>
				<path fill="#282D33" d="M646.946,223.99l-16.974-9.919v-36.326h33.946v36.326L646.946,223.99z M633.701,211.933l13.243,7.739
					l13.244-7.739v-30.458h-26.487V211.933z"/>
			</g>
			<g>
				<path fill="#FFFFFF" d="M682.814,117.146c0-11.732-9.396-21.245-20.99-21.245h-30.087c-11.593,0-20.991,9.513-20.991,21.245
					l-0.064,59.715l19.894,23.147h32.413l19.892-23.147L682.814,117.146z"/>
				<path fill="#282D33" d="M663.843,201.873h-34.124l-20.902-24.323l0.065-60.407c0-12.739,10.253-23.106,22.855-23.106h30.087
					c12.603,0,22.855,10.367,22.855,23.108l0.064,60.405L663.843,201.873z M631.431,198.144h30.701l18.883-21.973l-0.063-59.025
					c0-10.687-8.579-19.38-19.127-19.38h-30.087c-10.548,0-19.126,8.693-19.126,19.378l-0.063,59.026L631.431,198.144z"/>
			</g>
			<g>
				<path fill="#4E8EF7" d="M646.714,161.314c-13.76,0-25.706,8.268-31.735,20.404l15.718,18.29h32.415l15.471-18.006
					C672.601,169.715,660.579,161.314,646.714,161.314z"/>
				<path fill="#282D33" d="M663.969,201.873h-34.127l-17.083-19.877l0.552-1.109c6.57-13.223,19.368-21.438,33.405-21.438
					c14.162,0,27.017,8.33,33.543,21.736l0.536,1.102L663.969,201.873z M631.554,198.144h30.703l14.099-16.412
					c-6.047-11.476-17.301-18.553-29.64-18.553c-12.222,0-23.419,6.973-29.503,18.278L631.554,198.144z"/>
			</g>
			<g>
				<path fill="#FFFFFF" d="M638.168,176.495c-0.033,0.301-0.055,0.605-0.055,0.914c0,4.544,3.639,8.224,8.126,8.224h1.081
					c4.49,0,8.127-3.68,8.127-8.224c0-0.309-0.018-0.613-0.051-0.914H638.168z"/>
				<path fill="#282D33" d="M647.32,187.498h-1.081c-5.508,0-9.991-4.526-9.991-10.089c0-0.377,0.025-0.748,0.064-1.116l0.181-1.663
					h20.574l0.183,1.663c0.038,0.369,0.061,0.739,0.061,1.116C657.312,182.972,652.829,187.498,647.32,187.498z M640.049,178.359
					c0.452,3.058,3.056,5.409,6.19,5.409h1.081c3.135,0,5.738-2.351,6.193-5.409H640.049z"/>
			</g>
			<g>
				<g>
					<rect x="624.245" y="138.396" fill="#282D33" width="4.418" height="3.729"/>
				</g>
				<g>
					<rect x="661.302" y="138.396" fill="#282D33" width="4.417" height="3.729"/>
				</g>
			</g>
			<g>
				<polygon fill="#282D33" points="655.579,154.157 637.982,154.157 637.982,132.602 623.512,132.602 623.512,128.873 
					641.712,128.873 641.712,150.427 651.85,150.427 651.85,130.737 655.579,130.737 				"/>
			</g>
		</g>
		<g>
			<rect x="608.848" y="256.919" fill="#282D33" width="3.729" height="88.081"/>
		</g>
	</g>
	<g>
		<g>
			<g>
				<rect x="677.41" y="261.792" fill="#282D33" width="3.729" height="6.278"/>
			</g>
			<g>
				
					<rect x="684.885" y="264.246" transform="matrix(-0.8661 -0.4998 0.4998 -0.8661 1147.9139 842.2292)" fill="#282D33" width="3.73" height="6.276"/>
			</g>
			<g>
				
					<rect x="690.079" y="270.043" transform="matrix(-0.5001 -0.866 0.866 -0.5001 801.3788 1009.0056)" fill="#282D33" width="3.728" height="6.277"/>
			</g>
			<g>
				<rect x="690.401" y="279.046" fill="#282D33" width="6.278" height="3.729"/>
			</g>
			<g>
				
					<rect x="687.964" y="286.475" transform="matrix(-0.866 -0.5001 0.5001 -0.866 1145.3738 883.6544)" fill="#282D33" width="6.278" height="3.728"/>
			</g>
			<g>
				
					<rect x="663.002" y="283.744" transform="matrix(-0.5001 -0.8659 0.8659 -0.5001 748.9668 1006.1023)" fill="#282D33" width="3.729" height="6.277"/>
			</g>
			<g>
				<rect x="660.155" y="277.334" fill="#282D33" width="6.278" height="3.729"/>
			</g>
			<g>
				
					<rect x="662.594" y="269.84" transform="matrix(-0.866 -0.5001 0.5001 -0.866 1106.3396 839.9346)" fill="#282D33" width="6.276" height="3.728"/>
			</g>
			<g>
				
					<rect x="668.493" y="264.667" transform="matrix(-0.4996 -0.8662 0.8662 -0.4996 776.3098 981.4946)" fill="#282D33" width="6.278" height="3.73"/>
			</g>
		</g>
		<g>
			<path fill="#FFFFFF" d="M705.019,328.121h-12.612c-1.857,2.492-4.815,4.109-8.157,4.109h-6.812h-9.745h-0.501l-0.003-0.021
				h-4.058c-2.553,0-4.623-2.071-4.623-4.622c0-2.554,2.07-4.623,4.623-4.623h-3.699c-2.555,0-4.623-2.073-4.623-4.623
				c0-2.554,2.068-4.624,4.623-4.624h-1.232c-2.553,0-4.623-2.071-4.623-4.623c0-2.551,2.069-4.621,4.623-4.621h-2.465
				c-2.553,0-4.621-2.071-4.621-4.624s2.068-4.621,4.621-4.621h12.943c0.265,0,0.523,0.024,0.779,0.069h5.179l-1.627-5.746v-6.516
				c0-3.198,2.593-5.791,5.795-5.791h1.926c0.078,0,0.158,0.01,0.239,0.013v8.862l2.245,3.164l8.416,9.195
				c1.205,1.269,2.079,2.844,2.507,4.597h10.881"/>
			<path fill="#282D33" d="M684.248,334.096l-21.117-0.021c-3.578,0-6.488-2.909-6.488-6.486c0-1.112,0.281-2.161,0.778-3.077
				c-2.597-0.849-4.478-3.294-4.478-6.169c0-1.521,0.526-2.92,1.406-4.028c-1.601-1.183-2.638-3.082-2.638-5.219
				c0-1.284,0.376-2.483,1.023-3.492c-2.071-1.084-3.486-3.256-3.486-5.753c0-3.575,2.908-6.485,6.486-6.485h12.943
				c0.307,0,0.61,0.021,0.927,0.069h2.566l-1.027-3.625v-6.773c0-4.221,3.436-7.656,7.659-7.656h1.926
				c0.091,0,0.184,0.005,0.278,0.013l1.732,0.122l0.094,1.743v8.268l1.833,2.583l8.34,9.11c1.083,1.142,1.937,2.506,2.501,3.991
				h9.511v3.729h-12.343l-0.348-1.423c-0.343-1.404-1.052-2.702-2.05-3.756l-8.585-9.399l-2.588-3.646v-7.605h-0.301
				c-2.166,0-3.93,1.761-3.93,3.927v6.257l2.228,7.868l-7.96-0.026c-0.167-0.027-0.315-0.041-0.463-0.041h-12.943
				c-1.522,0-2.757,1.235-2.757,2.756c0,1.522,1.234,2.76,2.757,2.76h2.465v3.729c-1.521,0-2.759,1.235-2.759,2.756
				c0,1.521,1.237,2.759,2.759,2.759h1.232v3.729c-1.521,0-2.759,1.237-2.759,2.759s1.237,2.759,2.759,2.759h3.699v3.729
				c-1.522,0-2.759,1.237-2.759,2.758s1.236,2.758,2.759,2.758l21.117,0.021c2.643,0,5.071-1.223,6.662-3.358l0.561-0.75h13.547
				v3.729h-11.722C691.005,332.609,687.757,334.096,684.248,334.096z"/>
		</g>
	</g>
	<g>
		<g>
			<g>
				<rect x="731.385" y="168.433" fill="#282D33" width="16.819" height="3.729"/>
			</g>
			<g>
				<rect x="751.407" y="168.433" fill="#282D33" width="5.607" height="3.729"/>
			</g>
		</g>
		<g>
			<rect x="746.543" y="159.996" fill="#282D33" width="25.764" height="3.729"/>
		</g>
	</g>
	<g>
		<polygon fill="#4FD696" points="614.607,46.966 617.688,53.206 624.577,54.208 619.592,59.066 620.77,65.928 614.607,62.688 
			608.448,65.928 609.625,59.066 604.639,54.208 611.527,53.206 		"/>
		<path fill="#4FD696" d="M605.975,69.336l1.646-9.619l-6.99-6.812l9.658-1.404l4.318-8.749l4.319,8.749l9.657,1.404l-6.988,6.812
			l1.649,9.619l-8.638-4.541L605.975,69.336z M614.607,60.582l3.686,1.937l-0.703-4.103l2.979-2.905l-4.118-0.6l-1.844-3.732
			l-1.842,3.732l-4.12,0.6l2.98,2.905l-0.704,4.103L614.607,60.582z"/>
	</g>
	<g>
		<g>
			<g>
				<rect x="163.76" y="51.168" fill="#282D33" width="20.37" height="3.729"/>
			</g>
			<g>
				<rect x="171.52" y="43.665" fill="#282D33" width="20.369" height="3.729"/>
			</g>
			<g>
				<rect x="160.853" y="43.665" fill="#282D33" width="6.787" height="3.729"/>
			</g>
			<g>
				<rect x="153.092" y="51.168" fill="#282D33" width="6.789" height="3.729"/>
			</g>
		</g>
	</g>
	<g>
		<g>
			<g>
				<rect x="794.796" y="127.062" fill="#282D33" width="18.506" height="3.729"/>
			</g>
			<g>
				<rect x="782.264" y="127.062" fill="#282D33" width="6.791" height="3.729"/>
			</g>
		</g>
		<g>
			<g>
				<rect x="794.796" y="115.524" fill="#282D33" width="18.506" height="3.729"/>
			</g>
			<g>
				<rect x="782.264" y="115.524" fill="#282D33" width="6.791" height="3.729"/>
			</g>
		</g>
	</g>
	<g>
		<path fill="#282D33" d="M820.615,252.57c-2.628,0-3.812-2.18-4.673-3.771c-0.443-0.812-0.989-1.822-1.397-1.822
			c-0.407,0-0.955,1.01-1.396,1.822c-0.863,1.592-2.045,3.771-4.671,3.771c-2.629,0-3.813-2.18-4.679-3.773
			c-0.462-0.853-0.988-1.82-1.396-1.82c-0.406,0-0.952,1.01-1.394,1.82c-0.865,1.594-2.045,3.773-4.674,3.773
			c-2.627,0-3.812-2.18-4.676-3.771c-0.463-0.854-0.99-1.822-1.397-1.822c-0.409,0-0.937,0.968-1.399,1.822
			c-0.866,1.593-2.049,3.771-4.679,3.771c-2.628,0-3.812-2.18-4.678-3.771c-0.464-0.855-0.991-1.823-1.4-1.823v-3.729
			c2.628,0,3.812,2.179,4.678,3.771c0.463,0.855,0.991,1.822,1.4,1.822c0.41,0,0.937-0.968,1.4-1.822
			c0.867-1.592,2.049-3.771,4.678-3.771c2.627,0,3.812,2.179,4.675,3.771c0.465,0.854,0.99,1.821,1.398,1.821
			c0.409,0,0.954-1.009,1.396-1.82c0.862-1.593,2.046-3.772,4.672-3.772c2.627,0,3.812,2.179,4.677,3.771
			c0.462,0.855,0.988,1.822,1.398,1.822c0.406,0,0.952-1.009,1.394-1.82c0.863-1.593,2.045-3.772,4.673-3.772
			c2.627,0,3.811,2.18,4.675,3.771c0.441,0.812,0.988,1.821,1.396,1.821V252.57z"/>
	</g>
	<g>
		<path fill="#4FD696" d="M392.696,41.73c0,0.949-0.768,1.718-1.718,1.718h-3.328v6.445l-8.155-6.445h-10.858
			c-0.95,0-1.718-0.769-1.718-1.718V26.713c0-0.949,0.768-1.721,1.718-1.721h22.341c0.951,0,1.718,0.772,1.718,1.721V41.73z"/>
	</g>
	<g>
		<g>
			<path fill="#282D33" d="M355.804,63.379v-8.432h-1.464c-1.976,0-3.582-1.607-3.582-3.583V36.348c0-1.977,1.606-3.584,3.582-3.584
				h22.342c1.976,0,3.583,1.607,3.583,3.584v15.017c0,1.976-1.607,3.583-3.583,3.583h-10.209L355.804,63.379z M354.487,51.218h5.046
				v4.459l5.643-4.459h11.358V36.492h-22.046L354.487,51.218L354.487,51.218z"/>
		</g>
	</g>
	<g>
		<g>
			<path fill="#282D33" d="M712.929,82.587c-3.669,0-6.654-2.984-6.654-6.653c0-3.668,2.984-6.652,6.654-6.652
				c3.668,0,6.65,2.984,6.65,6.652C719.579,79.603,716.597,82.587,712.929,82.587z M712.929,73.013c-1.613,0-2.925,1.31-2.925,2.922
				c0,1.611,1.311,2.924,2.925,2.924c1.612,0,2.921-1.312,2.921-2.924S714.539,73.013,712.929,73.013z"/>
		</g>
		<g>
			<g>
				<path fill="#282D33" d="M739.43,68.364c-3.667,0-6.65-2.982-6.65-6.651s2.983-6.652,6.65-6.652c3.67,0,6.653,2.983,6.653,6.652
					S743.099,68.364,739.43,68.364z M739.43,58.79c-1.609,0-2.922,1.312-2.922,2.923c0,1.612,1.312,2.923,2.922,2.923
					c1.613,0,2.924-1.311,2.924-2.923C742.354,60.102,741.043,58.79,739.43,58.79z"/>
			</g>
			<g>
				<path fill="#282D33" d="M739.43,96.811c-3.667,0-6.65-2.984-6.65-6.655c0-3.665,2.983-6.65,6.65-6.65
					c3.67,0,6.653,2.985,6.653,6.65C746.083,93.827,743.099,96.811,739.43,96.811z M739.43,87.236c-1.609,0-2.922,1.31-2.922,2.92
					c0,1.613,1.312,2.926,2.922,2.926c1.613,0,2.924-1.312,2.924-2.926C742.354,88.547,741.043,87.236,739.43,87.236z"/>
			</g>
		</g>
		<g>
			<g>
				
					<rect x="716.184" y="80.893" transform="matrix(-0.866 -0.5001 0.5001 -0.866 1313.3171 517.4733)" fill="#282D33" width="19.626" height="3.731"/>
			</g>
			<g>
				
					<rect x="724.12" y="59.349" transform="matrix(-0.4998 -0.8661 0.8661 -0.4998 1028.9497 732.5226)" fill="#282D33" width="3.73" height="19.625"/>
			</g>
		</g>
	</g>
	<path fill="#4E8EF7" d="M245.074,73.235h-2.155c-0.501,0-1.039-0.386-1.193-0.86l-0.403-0.973
		c-0.222-0.447-0.117-1.102,0.233-1.454l1.521-1.523c0.356-0.351,0.356-0.93,0-1.282l-2.348-2.355c-0.356-0.352-0.933-0.352-1.285,0
		l-1.523,1.521c-0.356,0.354-1.008,0.461-1.452,0.239l-0.974-0.403c-0.474-0.159-0.86-0.696-0.86-1.196v-2.152
		c0-0.5-0.409-0.91-0.909-0.91h-3.328c-0.501,0-0.91,0.409-0.91,0.91v2.152c0,0.5-0.386,1.037-0.859,1.196l-0.974,0.403
		c-0.444,0.222-1.101,0.115-1.453-0.239l-1.521-1.521c-0.353-0.352-0.929-0.352-1.281,0l-2.354,2.355
		c-0.356,0.352-0.356,0.931,0,1.282l1.523,1.523c0.349,0.352,0.456,1.007,0.234,1.454l-0.4,0.973
		c-0.159,0.474-0.697,0.86-1.194,0.86h-2.155c-0.499,0-0.908,0.408-0.908,0.908v3.33c0,0.495,0.41,0.906,0.908,0.906h2.155
		c0.497,0,1.036,0.386,1.194,0.859l0.4,0.974c0.222,0.448,0.115,1.102-0.234,1.454l-1.523,1.521c-0.356,0.352-0.356,0.93,0,1.282
		l2.354,2.356c0.353,0.35,0.928,0.35,1.281,0l1.521-1.522c0.352-0.353,1.009-0.46,1.453-0.236l0.974,0.4
		c0.474,0.161,0.859,0.695,0.859,1.196v2.152c0,0.499,0.408,0.907,0.91,0.907h3.328c0.5,0,0.909-0.408,0.909-0.907v-2.152
		c0-0.501,0.386-1.035,0.86-1.196l0.974-0.4c0.444-0.224,1.096-0.117,1.452,0.236l1.523,1.522c0.352,0.35,0.929,0.35,1.285,0
		l2.348-2.356c0.356-0.352,0.356-0.93,0-1.282l-1.521-1.521c-0.35-0.352-0.455-1.006-0.233-1.454l0.403-0.974
		c0.156-0.474,0.692-0.859,1.193-0.859h2.155c0.498,0,0.906-0.41,0.906-0.906v-3.33C245.979,73.643,245.572,73.235,245.074,73.235z
		 M232.062,80.193c-2.421,0-4.385-1.966-4.385-4.387c0-2.423,1.963-4.385,4.385-4.385c2.423,0,4.388,1.962,4.388,4.385
		C236.451,78.226,234.485,80.193,232.062,80.193z"/>
	<g>
		<g>
			<g>
				<rect x="73.521" y="181.395" fill="#282D33" width="27.184" height="3.729"/>
			</g>
			<g>
				<rect x="105.88" y="181.395" fill="#282D33" width="9.062" height="3.729"/>
			</g>
		</g>
		<g>
			<rect x="119.68" y="181.395" fill="#282D33" width="4.732" height="3.729"/>
		</g>
	</g>
	<g>
		<g>
			<rect x="289.07" y="24.774" fill="#282D33" width="5.376" height="3.729"/>
		</g>
		<g>
			
				<rect x="285.275" y="16.56" transform="matrix(-0.8661 -0.4999 0.4999 -0.8661 526.2103 179.4518)" fill="#282D33" width="3.73" height="5.376"/>
		</g>
		<g>
			
				<rect x="275.737" y="17.707" transform="matrix(-0.4999 -0.8661 0.8661 -0.4999 400.6555 270.4974)" fill="#282D33" width="5.376" height="3.73"/>
		</g>
		<g>
			<rect x="271.635" y="25.408" fill="#282D33" width="5.379" height="3.729"/>
		</g>
		<g>
			
				<rect x="277.105" y="31.976" transform="matrix(-0.866 -0.5 0.5 -0.866 503.2365 204.1642)" fill="#282D33" width="3.73" height="5.376"/>
		</g>
		<g>
			
				<rect x="285.003" y="32.476" transform="matrix(-0.5 -0.866 0.866 -0.5 401.8113 300.6552)" fill="#282D33" width="5.378" height="3.731"/>
		</g>
	</g>
	<g>
		<g>
			<rect x="807.788" y="185.43" fill="#282D33" width="3.729" height="5.89"/>
		</g>
		<g>
			
				<rect x="799.643" y="190.527" transform="matrix(-0.8659 -0.5001 0.5001 -0.8659 1401.3657 760.3911)" fill="#282D33" width="5.889" height="3.727"/>
		</g>
		<g>
			
				<rect x="800.709" y="197.659" transform="matrix(-0.4998 -0.8661 0.8661 -0.4998 1029.9751 995.9996)" fill="#282D33" width="3.73" height="5.888"/>
		</g>
		<g>
			<rect x="807.788" y="201.712" fill="#282D33" width="3.729" height="5.89"/>
		</g>
		<g>
			
				<rect x="813.704" y="198.734" transform="matrix(-0.8661 -0.4999 0.4999 -0.8661 1423.6292 782.6036)" fill="#282D33" width="5.889" height="3.73"/>
		</g>
		<g>
			
				<rect x="814.81" y="189.516" transform="matrix(-0.5 -0.866 0.866 -0.5 1058.3585 995.9464)" fill="#282D33" width="3.73" height="5.89"/>
		</g>
	</g>
	<g>
		<path fill="#4FD696" d="M860.036,209.858c-1.972,0.026-3.684,1.132-4.614,2.768c-0.975-1.612-2.712-2.678-4.686-2.655
			c-3.002,0.012-5.399,2.679-5.356,5.958c0.007,0.638,0.108,1.244,0.289,1.8c0.421,1.849,3.464,4.549,6.28,6.738
			c1.364,1.057,3.666,2.625,3.666,2.634c0.973-0.617,2.26-1.609,3.594-2.707c2.75-2.254,5.717-5.046,6.089-6.909
			c0.169-0.562,0.254-1.171,0.248-1.807C865.504,212.391,863.035,209.795,860.036,209.858z"/>
		<path fill="#4FD696" d="M853.75,230.49v-2.418c-0.812-0.566-2.056-1.444-2.943-2.131c-5.465-4.252-6.604-6.36-6.936-7.715
			c-0.228-0.731-0.348-1.497-0.354-2.279c-0.029-2.148,0.788-4.232,2.24-5.712c1.343-1.364,3.108-2.121,4.971-2.129h0.002
			c1.754,0,3.377,0.598,4.661,1.662c1.278-1.104,2.911-1.751,4.621-1.773l0.133-0.001c3.954,0,7.212,3.437,7.266,7.659
			c0.009,0.784-0.094,1.552-0.301,2.285c-0.282,1.281-1.336,3.487-6.719,7.896c-1.557,1.282-2.829,2.238-3.777,2.841L853.75,230.49z
			 M850.795,211.835c-0.912,0.004-1.739,0.363-2.378,1.014c-0.762,0.774-1.189,1.888-1.173,3.056c0.004,0.437,0.07,0.855,0.199,1.25
			l0.043,0.16c0.061,0.268,0.617,1.801,5.604,5.68c0.734,0.568,1.764,1.299,2.531,1.839c0.679-0.494,1.491-1.129,2.4-1.881
			c4.87-3.988,5.393-5.562,5.448-5.835l0.04-0.164c0.117-0.395,0.174-0.816,0.17-1.255c-0.027-2.193-1.614-3.978-3.536-3.978
			c-1.333,0.019-2.461,0.699-3.102,1.826l-1.572,2.761l-1.644-2.719C853.162,212.492,852.027,211.835,850.795,211.835z"/>
	</g>
	<g>
		<g>
			<rect x="59.762" y="278.965" fill="#282D33" width="18.072" height="3.729"/>
		</g>
		<g>
			<rect x="50.299" y="278.965" fill="#282D33" width="6.023" height="3.729"/>
		</g>
	</g>
	<g>
		<g>
			<rect x="2.232" y="268.702" fill="#282D33" width="1.865" height="3.729"/>
		</g>
		<g>
			<path fill="#282D33" d="M54.566,272.431h-3.605v-3.729h3.605V272.431z M47.355,272.431h-3.604v-3.729h3.604V272.431z
				 M40.146,272.431h-3.606v-3.729h3.606V272.431z M32.936,272.431h-3.604v-3.729h3.604V272.431z M25.726,272.431h-3.605v-3.729
				h3.605V272.431z M18.516,272.431h-3.604v-3.729h3.604V272.431z M11.306,272.431H7.7v-3.729h3.605V272.431z"/>
		</g>
		<g>
			<rect x="58.17" y="268.702" fill="#282D33" width="1.865" height="3.729"/>
		</g>
	</g>
	<polygon fill="#4E8EF7" points="133.866,313.309 124.768,318.563 115.666,323.817 115.666,313.309 115.666,302.801 
		124.768,308.053 	"/>
	<rect x="90.014" y="287.767" fill="#4FD696" width="16.604" height="16.604"/>
	<g>
		<g>
			<rect x="123.824" y="291.111" fill="#282D33" width="3.729" height="3.729"/>
		</g>
		<g>
			<path fill="#282D33" d="M119.458,294.841h-4.366v-3.729h4.366V294.841z M110.727,294.841h-4.366v-3.729h4.366V294.841z"/>
		</g>
		<g>
			<rect x="98.267" y="291.111" fill="#282D33" width="3.729" height="3.729"/>
		</g>
		<g>
			<path fill="#282D33" d="M101.996,286.746h-3.729v-4.365h3.729V286.746z M101.996,278.015h-3.729v-4.368h3.729V278.015z"/>
		</g>
		<g>
			<rect x="98.267" y="265.553" fill="#282D33" width="3.729" height="3.729"/>
		</g>
		<g>
			<path fill="#282D33" d="M119.458,269.282h-4.367v-3.729h4.367V269.282z M110.726,269.282h-4.366v-3.729h4.366V269.282z"/>
		</g>
		<g>
			<rect x="123.824" y="265.553" fill="#282D33" width="3.729" height="3.729"/>
		</g>
		<g>
			<path fill="#282D33" d="M127.553,286.746h-3.729v-4.366h3.729V286.746z M127.553,278.014h-3.729v-4.367h3.729V278.014z"/>
		</g>
	</g>
	<circle fill="#4FD696" cx="179.993" cy="92.362" r="3.496"/>
	<g>
		<g>
			
				<rect x="660.975" y="0.276" transform="matrix(-0.707 -0.7072 0.7072 -0.707 1127.1439 479.1798)" fill="#282D33" width="3.728" height="11.627"/>
		</g>
		<g>
			
				<rect x="657.026" y="4.224" transform="matrix(-0.7071 -0.7071 0.7071 -0.7071 1127.2185 479.1052)" fill="#282D33" width="11.626" height="3.728"/>
		</g>
	</g>
	<g>
		<g>
			
				<rect x="71.957" y="213.727" transform="matrix(-0.7072 -0.707 0.707 -0.7072 -29.1975 426.9867)" fill="#282D33" width="3.729" height="11.626"/>
		</g>
		<g>
			
				<rect x="67.967" y="217.649" transform="matrix(-0.7071 -0.7071 0.7071 -0.7071 -29.2766 426.9001)" fill="#282D33" width="11.625" height="3.729"/>
		</g>
	</g>
	<g>
		<g>
			
				<rect x="529.128" y="9.836" transform="matrix(-0.707 -0.7072 0.7072 -0.707 895.8153 401.1176)" fill="#282D33" width="3.729" height="10.338"/>
		</g>
		<g>
			
				<rect x="525.844" y="13.177" transform="matrix(-0.7071 -0.7071 0.7071 -0.7071 895.8472 401.1731)" fill="#282D33" width="10.338" height="3.729"/>
		</g>
	</g>
	<g>
		<rect x="674.702" y="39.174" fill="#282D33" width="3.782" height="3.729"/>
	</g>
	<g>
		<rect x="45.745" y="240.125" fill="#282D33" width="3.783" height="3.729"/>
	</g>
	<g>
		<g>
			<line fill="none" x1="723.433" y1="21.462" x2="713.643" y2="31.254"/>
			
				<rect x="716.67" y="19.428" transform="matrix(-0.7071 -0.7071 0.7071 -0.7071 1207.9821 553.0657)" fill="#282D33" width="3.729" height="13.847"/>
		</g>
		<g>
			<line fill="none" x1="723.437" y1="31.254" x2="713.643" y2="21.462"/>
			
				<rect x="711.644" y="24.47" transform="matrix(-0.7071 -0.7071 0.7071 -0.7071 1208.0508 553.06)" fill="#282D33" width="13.848" height="3.729"/>
		</g>
	</g>
	
		<rect x="217.577" y="291.405" transform="matrix(-0.7071 -0.7071 0.7071 -0.7071 172.8224 669.3162)" fill="#4FD696" width="14.918" height="14.918"/>
	<g>
		<path fill="#282D33" d="M236.854,312.059l-13.187-13.186l13.187-13.186l13.184,13.186L236.854,312.059z M228.942,298.873
			l7.913,7.911l7.91-7.911l-7.91-7.912L228.942,298.873z"/>
	</g>
	<g>
		<path fill="#282D33" d="M213.858,312.059l-13.188-13.186l13.188-13.186l13.183,13.186L213.858,312.059z M205.945,298.873
			l7.913,7.911l7.91-7.911l-7.91-7.912L205.945,298.873z"/>
	</g>
</g>
</svg>
