<?xml version="1.0" encoding="utf-8"?>
<!-- Generator: Adobe Illustrator 16.0.0, SVG Export Plug-In . SVG Version: 6.00 Build 0)  -->
<!DOCTYPE svg PUBLIC "-//W3C//DTD SVG 1.1//EN" "http://www.w3.org/Graphics/SVG/1.1/DTD/svg11.dtd">
<svg version="1.1" id="Layer_1" xmlns="http://www.w3.org/2000/svg" xmlns:xlink="http://www.w3.org/1999/xlink" x="0px" y="0px"
	 width="100px" height="100px" viewBox="0 0 100 100" enable-background="new 0 0 100 100" xml:space="preserve">
<g>
	<g>
		<g>
			<g>
				<g>
					<polyline fill="none" stroke="#0069ff" stroke-width="2" stroke-miterlimit="10" points="47,70 23,70 19,66 19,64 43,64 45,66
						47,66 					"/>
					<path fill="none" stroke="#0069ff" stroke-width="2" stroke-miterlimit="10" d="M47,26H28c-1.656,0-3,1.343-3,3v32"/>
				</g>
				<g>
					<polyline fill="none" stroke="#0069ff" stroke-width="2" stroke-miterlimit="10" points="53,74 77,74 81,70 81,68 57,68 55,70
						53,70 					"/>
					<path fill="none" stroke="#0069ff" stroke-width="2" stroke-miterlimit="10" d="M53,30h19c1.656,0,3,1.343,3,3v32"/>
				</g>
				<line fill="none" stroke="#0069ff" stroke-width="2" stroke-miterlimit="10" x1="50" y1="57" x2="50" y2="77"/>
				<line fill="none" stroke="#0069ff" stroke-width="2" stroke-miterlimit="10" x1="50" y1="43" x2="50" y2="51"/>
				<line fill="none" stroke="#0069ff" stroke-width="2" stroke-miterlimit="10" x1="50" y1="23" x2="50" y2="37"/>
			</g>
			<g>
				<path fill="none" stroke="#0069ff" stroke-width="2" stroke-miterlimit="10" d="M50,54c-3.866,0-7-3.134-7-7"/>
				<path fill="none" stroke="#0069ff" stroke-width="2" stroke-miterlimit="10" d="M50,40c3.866,0,7,3.134,7,7"/>
				<line fill="none" stroke="#0069ff" stroke-width="2" stroke-miterlimit="10" x1="50" y1="54" x2="58" y2="54"/>
				<line fill="none" stroke="#0069ff" stroke-width="2" stroke-miterlimit="10" x1="42" y1="40" x2="50" y2="40"/>
				<polyline fill="none" stroke="#0069ff" stroke-width="2" stroke-miterlimit="10" points="54,58 58,54 54,50 				"/>
				<polyline fill="none" stroke="#0069ff" stroke-width="2" stroke-miterlimit="10" points="46,44 42,40 46,36 				"/>
			</g>
			<polyline fill="none" stroke="#0069ff" stroke-width="2" stroke-miterlimit="10" points="47,60 29,60 29,30 47,30 			"/>
			<polyline fill="none" stroke="#0069ff" stroke-width="2" stroke-miterlimit="10" points="53,34 71,34 71,64 53,64 			"/>
		</g>
	</g>
</g>
</svg>
