<?xml version="1.0" encoding="utf-8"?>
<!-- Generator: Adobe Illustrator 16.0.0, SVG Export Plug-In . SVG Version: 6.00 Build 0)  -->
<!DOCTYPE svg PUBLIC "-//W3C//DTD SVG 1.1//EN" "http://www.w3.org/Graphics/SVG/1.1/DTD/svg11.dtd">
<svg version="1.1" id="Layer_1" xmlns="http://www.w3.org/2000/svg" xmlns:xlink="http://www.w3.org/1999/xlink" x="0px" y="0px"
	 width="256px" height="256px" viewBox="0 0 256 256" enable-background="new 0 0 256 256" xml:space="preserve">
<g>
	<g>
		
			<linearGradient id="SVGID_1_" gradientUnits="userSpaceOnUse" x1="-69.3037" y1="325.4531" x2="-69.3037" y2="324.4531" gradientTransform="matrix(256 0 0 -256 17869.75 83316)">
			<stop  offset="0" style="stop-color:#0091E6"/>
			<stop  offset="1" style="stop-color:#0079BF"/>
		</linearGradient>
		<path fill="url(#SVGID_1_)" d="M25,0h206c13.807,0,25,11.193,25,25v206c0,13.807-11.193,25-25,25H25c-13.807,0-25-11.193-25-25V25
			C0,11.193,11.193,0,25,0z"/>
		<path fill="#FFFFFF" d="M156.641,33.28h54.08c6.627,0,12,5.372,12,12v87.999c0,6.628-5.373,12-12,12h-54.08
			c-6.628,0-12-5.372-12-12V45.28C144.641,38.652,150.013,33.28,156.641,33.28z"/>
		<path fill="#FFFFFF" d="M45.28,33.28h54.08c6.627,0,12,5.372,12,12v151.999c0,6.628-5.373,12-12,12H45.28c-6.627,0-12-5.372-12-12
			V45.28C33.28,38.652,38.652,33.28,45.28,33.28z"/>
	</g>
</g>
</svg>
