<?xml version="1.0" encoding="utf-8"?>
<!-- Generator: Adobe Illustrator 19.0.0, SVG Export Plug-In . SVG Version: 6.00 Build 0)  -->
<svg version="1.1" id="Layer_1" xmlns:sketch="http://www.bohemiancoding.com/sketch/ns"
	 xmlns="http://www.w3.org/2000/svg" xmlns:xlink="http://www.w3.org/1999/xlink" x="0px" y="0px" viewBox="195 285.9 835.3 237"
	 style="enable-background:new 195 285.9 835.3 237;" xml:space="preserve">
<style type="text/css">
	.st0{fill:url(#Type_1_);}
	.st1{fill:url(#Board_1_);}
	.st2{fill:#FFFFFF;}
</style>
<title>trello-logo-blue</title>
<desc>Created with Sketch.</desc>
<g id="Page-1" sketch:type="MSPage">
	<g id="Original-Assets" transform="translate(-279.000000, -262.000000)" sketch:type="MSArtboardGroup">
		<g id="Group" transform="translate(229.000000, 198.000000)" sketch:type="MSLayerGroup">
			<g id="Trello-Logo" sketch:type="MSShapeGroup">
				<g id="Trello-Logo---Blue">
					<g id="Logo" transform="translate(50.000000, 64.000000)">
						<g transform="translate(50.000000, 1.000000)">
							
								<linearGradient id="Type_1_" gradientUnits="userSpaceOnUse" x1="212.1804" y1="410.1995" x2="212.1804" y2="411.1996" gradientTransform="matrix(600.336 0 0 236.9664 -126699.375 -96918.8828)">
								<stop  offset="0" style="stop-color:#0091E6"/>
								<stop  offset="1" style="stop-color:#0079BF"/>
							</linearGradient>
							<path id="Type" class="st0" d="M818.3,462.5c-12.8,5.2-22.8,23.2-38.2,33.4c-1,0.6-1.9,1-2.5,1c-1.3,0-2.9-1.3-2.9-7
								c0-19.6,6.3-29.1,11.7-43.1c18.7-48.5,50.7-90,79.2-135.3c2.2-3.5,3.5-7.3,3.5-11.4c0-3.5-1.3-6.3-2.9-9.8
								c-1.3-2.9-7-5.4-13.3-5.4c-3.5,0-6.7,0.3-10.8,0.3c-14.9,0-18.1,21.9-21.5,27.6c-23.8,40.2-51,90-64.9,125.1
								c-3.1,7.9-6.4,15.8-8.9,23.9c-13.8,4-24.1,23.4-40.2,34.1c-1,0.6-1.9,1-2.5,1c-1.3,0-2.9-1.3-2.9-7
								c0-19.6,6.3-29.1,11.7-43.1c18.7-48.5,50.7-90,79.2-135.3c2.2-3.5,3.5-7.3,3.5-11.4c0-3.5-1.3-6.3-2.9-9.8
								c-1.3-2.9-7-5.4-13.3-5.4c-3.5,0-6.7,0.3-10.8,0.3c-14.9,0-18.1,21.9-21.5,27.6c-23.8,40.2-51,90-64.9,125.1
								c-1.1,2.9-2.2,5.7-3.4,8.6c-0.3,0.2-0.7,0.4-1.1,0.6c-16.2,9.5-29.8,26.3-49.4,37.7c-3.8,2.2-15.5,10.5-25,10.5
								c-2.2,0-4.1-0.6-6-1.6c-2.9-1.3-5.7-7.3-5.7-9.2c0-1.6,0.3-1.9,3.5-3.8c27.9-16.8,50.7-40.9,70.3-64.9
								c7.3-8.9,16.8-26.3,16.8-39c0-8.2-2.9-17.7-12.7-21.2c-7-2.5-14.9-3.8-21.2-3.8c-16.8,0-29.1,7.6-36.1,14.9
								c-7.1,7.6-14,15.4-20.3,23.4c-6.7-5.8-16.1-8.2-25-8.2c-10.5,0-30.1,13-40.2,20.6c-1.6,1.3-2.5,1.9-3.2,1.9
								c-0.3,0-0.6-0.3-0.6-0.9c0-0.3,0.6-3.2,0.6-8.2c0-4.4-1-10.1-5.1-17.1c-1-1.6-6.7-5.1-13.6-5.1c-8.6,0-16.5,4.1-16.5,8.6
								c0,3.2,2.9,4.4,2.9,7.3c0,1.6-1.3,8.9-3.2,15.8c-5.4,20.3-12,40.2-19,60.2c-3.8,11.1-16.5,20.9-16.5,32.9
								c0,3.8,2.5,8.9,6,12.7c5.7,6.3,9.2,8.6,14.3,8.6c2.2,0,4.8-0.6,7-2.5c4.8-4.1,7.3-8.2,8.6-13.9c8.2-37.4,32-62.7,58.3-79.5
								c8.9-5.7,20.9-11.7,22.5-11.7c1.6,0,4.2,0.8,6.7,1.5c-7.4,12-13.3,24.6-17.2,38.1c-1.3,4.4-1.9,8.6-1.9,13
								c0,7.3,1.6,14.9,4.1,22.2c3.5,10.1,9.2,19,17.1,23.1c14.6,7.6,25,11.7,34.5,11.7c5.4,0,9.5-0.9,13.9-3.5
								c20.8-11.8,33.6-20.7,42.8-28.7c0.3,8,1.8,12.5,7.6,18.5c5.7,6,14.6,11.4,26.3,13.9c1.9,0.3,3.8,0.6,5.7,0.6
								c13.4,0,26.3-10.9,36.3-21.7c1.2,2.4,2.8,4.6,5.2,7.1c5.7,6,14.6,11.4,26.3,13.9c1.9,0.3,3.8,0.6,5.7,0.6
								c15.7,0,30.7-15,41.1-27.2c3.5,7.2,13.1,14.2,24.8,19.9c3.2,1.6,7,2.5,10.5,2.5c13.6,0,23.4-11.1,31-19.3
								c19.6-21.5,30.4-48.2,38.6-81.7c0.6-2.5,1.6-3.5,2.9-3.5c3.2,0,7.3,0,11.7-0.6c8.6-1.3,15.2-4.1,23.1-5.4
								c4.8-1,4.1-2.5,8.6-4.1c3.2-1.3,5.7-2.5,5.7-5.7c0-5.4-9.8-11.1-24.7-11.1c-11.7,0-18.7,1-23.4,1c-7.3,0-9.2-2.2-13.9-14.6
								c0,0,4.8,12.4,0,0c-1-2.5-1.9-3.8-4.8-6.3c-6.7-5.7-14.9-7.6-21.5-7.6c-15.8,0-29.5,16.2-39,29.8c-2.2,3.2-5.4,5.7-7.6,9.2
								C832.3,416.6,819.8,438.7,818.3,462.5z M413.3,354.6c7.9,0,12.4-0.6,13.3-0.6s1.6,0.3,1.6,1.3c0,0.6-0.3,1.6-2.5,6.3
								c-19.3,41.5-32.6,83.6-44.4,130.2c-0.3,1.3-1.3,6-1.3,10.8c0,4.4,1.3,9.2,5.7,11.7c8.6,5.1,15.5,7.3,20.3,7.3
								c7,0,10.5-4.4,10.5-11.7c0-6.3,0.3-13,1.3-18.1c8.9-46.6,22.2-83,42.8-121c9.8-18.1,11.1-19,11.1-20.6c0-0.6-0.3-1.6-1-2.5
								c12.7-2.9,27.9-4.8,41.8-4.8c1.6,0,7.9,2.2,8.9,3.2c2.2,2.2,4.4,4.4,8.2,4.4c3.2,0,8.6-2.2,10.5-3.5
								c4.4-3.2,6.7-6.7,6.7-12.4c0-5.4-20-18.7-33.9-18.7c-17.1,0-32.6,2.2-47.2,5.1c-6.3,1.3-29.1,4.8-45.6,4.8
								c-15.8,0-14.9-2.2-21.5-2.2c-3.8,0-5.7,1.9-7.3,3.5c-1.6,1.6-2.5,7.9-2.5,13.6c0,2.9,0,5.1,1.6,7
								C394.9,353.3,404.1,354.6,413.3,354.6C413.3,354.6,404.1,354.6,413.3,354.6z M648,380.2c0,2.9-1,4.8-4.8,10.8
								c-3.8,6-2.2,6-7,12.4c-9.2,12.4-20.6,24.7-35.5,38.3c-4.1,3.8-4.8,3.8-5.4,3.8c-0.3,0-1-0.3-1-1c0-0.9,0.3-2.2,3.5-8.9
								c9.8-20.6,21.9-34.2,35.2-47.5c7.3-7.3,11.7-9.8,13.3-9.8C647.4,378.3,648,378.7,648,380.2C648,380.2,648,378.7,648,380.2z
								 M891.6,388.5c0.3,0,0.6,0.3,1,1c0.3,1,1,1.9,2.5,3.2c1.3,1,1.3,5.4,1.3,8.9c0,30.7-17.4,56.1-34.5,81.7
								c-3.8,5.7-6,6.7-7.9,6.7c-1.6,0-4.1-4.1-5.1-6.7c-1.3-3.5-1.6-7.6-1.6-9.2c0-24.7,23.4-61.5,39-81.7
								C888.8,388.8,890.7,388.5,891.6,388.5C891.6,388.5,890.7,388.5,891.6,388.5z"/>
							<g id="Mark" transform="translate(0.000000, 35.000000)">
								
									<linearGradient id="Board_1_" gradientUnits="userSpaceOnUse" x1="211.5402" y1="410.5557" x2="211.5402" y2="411.5557" gradientTransform="matrix(200 0 0 200 -42063.0469 -81826.2422)">
									<stop  offset="0" style="stop-color:#0091E6"/>
									<stop  offset="1" style="stop-color:#0079BF"/>
								</linearGradient>
								<path id="Board" class="st1" d="M170,284.9h150c13.8,0,25,11.2,25,25v150c0,13.8-11.2,25-25,25H170c-13.8,0-25-11.2-25-25
									v-150C145,296.1,156.2,284.9,170,284.9z"/>
								<path id="Right-List" class="st2" d="M270,310.9h37c6.6,0,12,5.4,12,12v63.5c0,6.6-5.4,12-12,12h-37c-6.6,0-12-5.4-12-12
									v-63.5C258,316.3,263.4,310.9,270,310.9z"/>
								<path id="Left-List" class="st2" d="M183,310.9h37c6.6,0,12,5.4,12,12v113.5c0,6.6-5.4,12-12,12h-37c-6.6,0-12-5.4-12-12
									V322.9C171,316.3,176.4,310.9,183,310.9z"/>
							</g>
						</g>
					</g>
				</g>
			</g>
		</g>
	</g>
</g>
</svg>
