<?xml version="1.0" encoding="utf-8"?>
<!-- Generator: Adobe Illustrator 19.0.0, SVG Export Plug-In . SVG Version: 6.00 Build 0)  -->
<svg version="1.1" id="Layer_1" xmlns="http://www.w3.org/2000/svg" xmlns:xlink="http://www.w3.org/1999/xlink" x="0px" y="0px"
	 viewBox="10.6 271.7 384.8 280.6" style="enable-background:new 10.6 271.7 384.8 280.6;" xml:space="preserve">
<style type="text/css">
	.st0{fill:#4FD696;}
	.st1{fill:#4E8EF7;}
	.st2{fill:#C5EDF9;}
	.st3{fill:#FFFFFF;}
	.st4{fill:#231F20;}
	.st5{fill:#4E8EF7;stroke:#231F20;stroke-miterlimit:10;}
	.st6{fill:#DEF6FC;}
	.st7{fill:#231F20;stroke:#4E8EF7;stroke-miterlimit:10;}
	.st8{fill:#A2DFFF;}
	.st9{fill:#939598;}
</style>
<g>
	<g>
		<g>
			<path class="st0" d="M340.4,375.2c-0.4,0-0.8,0.3-0.8,0.8c0,1.8-1.5,3.3-3.3,3.3c-0.4,0-0.8,0.3-0.8,0.8s0.3,0.8,0.8,0.8
				c2.7,0,4.8-2.2,4.8-4.8C341.2,375.6,340.9,375.2,340.4,375.2z"/>
			<path class="st0" d="M344.5,379.3c-1.8,0-3.3-1.5-3.3-3.3c0-0.4-0.3-0.8-0.8-0.8s-0.8,0.3-0.8,0.8c0,2.7,2.2,4.8,4.8,4.8
				c0.4,0,0.8-0.3,0.8-0.8S344.9,379.3,344.5,379.3z"/>
		</g>
		<g>
			<path class="st0" d="M336.4,379.3c-0.4,0-0.8,0.3-0.8,0.8s0.3,0.8,0.8,0.8c1.8,0,3.3,1.5,3.3,3.3c0,0.4,0.3,0.8,0.8,0.8
				s0.8-0.3,0.8-0.8C341.2,381.5,339,379.3,336.4,379.3z"/>
			<path class="st0" d="M344.5,379.3c-2.7,0-4.8,2.2-4.8,4.8c0,0.4,0.3,0.8,0.8,0.8s0.8-0.3,0.8-0.8c0-1.8,1.5-3.3,3.3-3.3
				c0.4,0,0.8-0.3,0.8-0.8S344.9,379.3,344.5,379.3z"/>
		</g>
	</g>
	<g>
		<g>
			<path class="st0" d="M130.5,323.6c-0.4,0-0.8,0.3-0.8,0.8c0,1.8-1.5,3.3-3.3,3.3c-0.4,0-0.8,0.3-0.8,0.8c0,0.4,0.3,0.8,0.8,0.8
				c2.7,0,4.8-2.2,4.8-4.8C131.2,324,130.9,323.6,130.5,323.6z"/>
			<path class="st0" d="M134.6,327.7c-1.8,0-3.3-1.5-3.3-3.3c0-0.4-0.3-0.8-0.8-0.8s-0.8,0.3-0.8,0.8c0,2.7,2.2,4.8,4.8,4.8
				c0.4,0,0.8-0.3,0.8-0.8C135.3,328.1,135,327.7,134.6,327.7z"/>
		</g>
		<g>
			<path class="st0" d="M126.4,327.7c-0.4,0-0.8,0.3-0.8,0.8c0,0.4,0.3,0.8,0.8,0.8c1.8,0,3.3,1.5,3.3,3.3c0,0.4,0.3,0.8,0.8,0.8
				c0.4,0,0.8-0.3,0.8-0.8C131.2,329.9,129.1,327.7,126.4,327.7z"/>
			<path class="st0" d="M134.6,327.7c-2.7,0-4.8,2.2-4.8,4.8c0,0.4,0.3,0.8,0.8,0.8s0.8-0.3,0.8-0.8c0-1.8,1.5-3.3,3.3-3.3
				c0.4,0,0.8-0.3,0.8-0.8C135.3,328.1,135,327.7,134.6,327.7z"/>
		</g>
	</g>
	<g>
		<g>
			<path class="st0" d="M159.3,334.9c-0.4,0-0.8,0.3-0.8,0.8c0,1.8-1.5,3.3-3.3,3.3c-0.4,0-0.8,0.3-0.8,0.8c0,0.4,0.3,0.8,0.8,0.8
				c2.7,0,4.8-2.2,4.8-4.8C160,335.2,159.7,334.9,159.3,334.9z"/>
			<path class="st0" d="M163.3,339c-1.8,0-3.3-1.5-3.3-3.3c0-0.4-0.3-0.8-0.8-0.8c-0.4,0-0.8,0.3-0.8,0.8c0,2.7,2.2,4.8,4.8,4.8
				c0.4,0,0.8-0.3,0.8-0.8C164.1,339.3,163.7,339,163.3,339z"/>
		</g>
		<g>
			<path class="st0" d="M155.2,339c-0.4,0-0.8,0.3-0.8,0.8c0,0.4,0.3,0.8,0.8,0.8c1.8,0,3.3,1.5,3.3,3.3c0,0.4,0.3,0.8,0.8,0.8
				c0.4,0,0.8-0.3,0.8-0.8C160,341.2,157.8,339,155.2,339z"/>
			<path class="st0" d="M163.3,339c-2.7,0-4.8,2.2-4.8,4.8c0,0.4,0.3,0.8,0.8,0.8c0.4,0,0.8-0.3,0.8-0.8c0-1.8,1.5-3.3,3.3-3.3
				c0.4,0,0.8-0.3,0.8-0.8C164.1,339.3,163.7,339,163.3,339z"/>
		</g>
	</g>
	<g>
		<g>
			<path class="st1" d="M295.5,308.5c-0.4,0-0.8,0.3-0.8,0.8c0,1.8-1.5,3.3-3.3,3.3c-0.4,0-0.8,0.3-0.8,0.8c0,0.4,0.3,0.8,0.8,0.8
				c2.7,0,4.8-2.2,4.8-4.8C296.3,308.8,296,308.5,295.5,308.5z"/>
			<path class="st1" d="M299.6,312.6c-1.8,0-3.3-1.5-3.3-3.3c0-0.4-0.3-0.8-0.8-0.8s-0.8,0.3-0.8,0.8c0,2.7,2.2,4.8,4.8,4.8
				c0.4,0,0.8-0.3,0.8-0.8S300,312.6,299.6,312.6z"/>
		</g>
		<g>
			<path class="st1" d="M291.5,312.6c-0.4,0-0.8,0.3-0.8,0.8s0.3,0.8,0.8,0.8c1.8,0,3.3,1.5,3.3,3.3c0,0.4,0.3,0.8,0.8,0.8
				s0.8-0.3,0.8-0.8C296.3,314.7,294.1,312.6,291.5,312.6z"/>
			<path class="st1" d="M299.6,312.6c-2.7,0-4.8,2.2-4.8,4.8c0,0.4,0.3,0.8,0.8,0.8s0.8-0.3,0.8-0.8c0-1.8,1.5-3.3,3.3-3.3
				c0.4,0,0.8-0.3,0.8-0.8S300,312.6,299.6,312.6z"/>
		</g>
	</g>
	<g>
		<g>
			<path class="st1" d="M129.4,355.3c-0.4,0-0.8,0.3-0.8,0.8c0,1.8-1.5,3.3-3.3,3.3c-0.4,0-0.8,0.3-0.8,0.8c0,0.4,0.3,0.8,0.8,0.8
				c2.7,0,4.8-2.2,4.8-4.8C130.1,355.6,129.8,355.3,129.4,355.3z"/>
			<path class="st1" d="M133.5,359.4c-1.8,0-3.3-1.5-3.3-3.3c0-0.4-0.3-0.8-0.8-0.8c-0.4,0-0.8,0.3-0.8,0.8c0,2.7,2.2,4.8,4.8,4.8
				c0.4,0,0.8-0.3,0.8-0.8C134.2,359.7,133.9,359.4,133.5,359.4z"/>
		</g>
		<g>
			<path class="st1" d="M125.3,359.4c-0.4,0-0.8,0.3-0.8,0.8c0,0.4,0.3,0.8,0.8,0.8c1.8,0,3.3,1.5,3.3,3.3c0,0.4,0.3,0.8,0.8,0.8
				c0.4,0,0.8-0.3,0.8-0.8C130.1,361.5,128,359.4,125.3,359.4z"/>
			<path class="st1" d="M133.5,359.4c-2.7,0-4.8,2.2-4.8,4.8c0,0.4,0.3,0.8,0.8,0.8c0.4,0,0.8-0.3,0.8-0.8c0-1.8,1.5-3.3,3.3-3.3
				c0.4,0,0.8-0.3,0.8-0.8C134.2,359.7,133.9,359.4,133.5,359.4z"/>
		</g>
	</g>
	<g>
		<g>
			<path class="st1" d="M33.6,484.3c-1.6,1.6-4.2,1.6-5.8,0c-0.3-0.3-0.8-0.3-1.1,0c-0.3,0.3-0.3,0.8,0,1.1c1.1,1.1,2.5,1.6,3.9,1.6
				s2.9-0.5,3.9-1.6c0.3-0.3,0.3-0.8,0-1.1C34.4,484,33.9,484,33.6,484.3z"/>
			<path class="st1" d="M34.7,484.3c-0.3-0.3-0.8-0.3-1.1,0c-1.1,1.1-1.6,2.5-1.6,3.9c0,1.5,0.6,2.9,1.6,3.9
				c0.1,0.1,0.3,0.2,0.5,0.2c0.2,0,0.4-0.1,0.5-0.2c0.3-0.3,0.3-0.8,0-1.1c-0.8-0.8-1.2-1.8-1.2-2.9c0-1.1,0.4-2.1,1.2-2.9
				C34.9,485.1,34.9,484.6,34.7,484.3z"/>
		</g>
		<g>
			<path class="st1" d="M26.8,484.3c-0.3,0.3-0.3,0.8,0,1.1c0.8,0.8,1.2,1.8,1.2,2.9c0,1.1-0.4,2.1-1.2,2.9c-0.3,0.3-0.3,0.8,0,1.1
				c0.1,0.1,0.3,0.2,0.5,0.2s0.4-0.1,0.5-0.2c1.1-1.1,1.6-2.5,1.6-3.9s-0.6-2.9-1.6-3.9C27.5,484,27.1,484,26.8,484.3z"/>
			<path class="st1" d="M30.7,489.5c-1.5,0-2.9,0.6-3.9,1.6c-0.3,0.3-0.3,0.8,0,1.1c0.3,0.3,0.8,0.3,1.1,0c0.8-0.8,1.8-1.2,2.9-1.2
				s2.1,0.4,2.9,1.2c0.1,0.1,0.3,0.2,0.5,0.2c0.2,0,0.4-0.1,0.5-0.2c0.3-0.3,0.3-0.8,0-1.1C33.6,490.1,32.2,489.5,30.7,489.5z"/>
		</g>
	</g>
	<g>
		<g>
			<path class="st1" d="M187.4,272c-1.6,1.6-4.2,1.6-5.8,0c-0.3-0.3-0.8-0.3-1.1,0c-0.3,0.3-0.3,0.8,0,1.1c1.1,1.1,2.5,1.6,3.9,1.6
				s2.9-0.6,3.9-1.6c0.3-0.3,0.3-0.8,0-1.1C188.2,271.7,187.7,271.7,187.4,272z"/>
			<path class="st1" d="M188.5,272c-0.3-0.3-0.8-0.3-1.1,0c-1.1,1.1-1.6,2.5-1.6,3.9s0.6,2.9,1.6,3.9c0.1,0.1,0.3,0.2,0.5,0.2
				s0.4-0.1,0.5-0.2c0.3-0.3,0.3-0.8,0-1.1c-0.8-0.8-1.2-1.8-1.2-2.9c0-1.1,0.4-2.1,1.2-2.9C188.8,272.7,188.8,272.3,188.5,272z"/>
		</g>
		<g>
			<path class="st1" d="M180.6,272c-0.3,0.3-0.3,0.8,0,1.1c1.6,1.6,1.6,4.2,0,5.8c-0.3,0.3-0.3,0.8,0,1.1c0.1,0.1,0.3,0.2,0.5,0.2
				s0.4-0.1,0.5-0.2c2.2-2.2,2.2-5.7,0-7.9C181.4,271.7,180.9,271.7,180.6,272z"/>
			<path class="st1" d="M180.6,278.8c-0.3,0.3-0.3,0.8,0,1.1c0.3,0.3,0.8,0.3,1.1,0c1.6-1.6,4.2-1.6,5.8,0c0.1,0.1,0.3,0.2,0.5,0.2
				s0.4-0.1,0.5-0.2c0.3-0.3,0.3-0.8,0-1.1C186.3,276.6,182.8,276.6,180.6,278.8z"/>
		</g>
	</g>
	<g>
		<path class="st1" d="M356.7,325.3l-5.1-2.9c-0.2-0.1-0.5-0.1-0.8,0l-5.1,2.9c-0.2,0.1-0.4,0.4-0.4,0.6v5.8c0,0.3,0.1,0.5,0.4,0.6
			l5.1,2.9c0.1,0.1,0.2,0.1,0.4,0.1s0.3,0,0.4-0.1l5.1-2.9c0.2-0.1,0.4-0.4,0.4-0.6V326C357,325.7,356.9,325.5,356.7,325.3z
			 M355.5,331.4l-4.3,2.5l-4.3-2.5v-5l4.3-2.5l4.3,2.5V331.4z"/>
		<path class="st1" d="M356.7,325.3l-5.1-2.9c-0.2-0.1-0.5-0.1-0.8,0l-5.1,2.9c-0.2,0.1-0.4,0.4-0.4,0.6s0.1,0.5,0.4,0.6l5.1,2.9
			c0.1,0.1,0.2,0.1,0.4,0.1s0.3,0,0.4-0.1l5.1-2.9c0.2-0.1,0.4-0.4,0.4-0.6S356.9,325.5,356.7,325.3z M351.2,328.1l-3.6-2.1l3.6-2.1
			l3.6,2.1L351.2,328.1z"/>
		<path class="st1" d="M351.6,328.3l-5.1-2.9c-0.2-0.1-0.5-0.1-0.8,0c-0.2,0.1-0.4,0.4-0.4,0.6v5.8c0,0.3,0.1,0.5,0.4,0.6l5.1,2.9
			c0.1,0.1,0.2,0.1,0.4,0.1s0.3,0,0.4-0.1c0.2-0.1,0.4-0.4,0.4-0.6v-5.8C352,328.6,351.8,328.4,351.6,328.3z M350.5,333.5l-3.6-2.1
			v-4.1l3.6,2.1V333.5z"/>
	</g>
	<g>
		<path class="st1" d="M231.8,332.6l-5.1-2.9c-0.2-0.1-0.5-0.1-0.8,0l-5.1,2.9c-0.2,0.1-0.4,0.4-0.4,0.6v5.8c0,0.3,0.1,0.5,0.4,0.6
			l5.1,2.9c0.1,0.1,0.2,0.1,0.4,0.1s0.3,0,0.4-0.1l5.1-2.9c0.2-0.1,0.4-0.4,0.4-0.6v-5.8C232.2,332.9,232.1,332.7,231.8,332.6z
			 M230.7,338.6l-4.3,2.5l-4.3-2.5v-5l4.3-2.5l4.3,2.5V338.6z"/>
		<path class="st1" d="M231.8,338.4l-5.1-2.9c-0.2-0.1-0.5-0.1-0.8,0l-5.1,2.9c-0.2,0.1-0.4,0.4-0.4,0.6s0.1,0.5,0.4,0.6l5.1,2.9
			c0.1,0.1,0.2,0.1,0.4,0.1s0.3,0,0.4-0.1l5.1-2.9c0.2-0.1,0.4-0.4,0.4-0.6S232.1,338.5,231.8,338.4z M226.4,341.1l-3.6-2.1l3.6-2.1
			l3.6,2.1L226.4,341.1z"/>
		<path class="st1" d="M231.8,332.6l-5.1-2.9c-0.2-0.1-0.5-0.1-0.8,0c-0.2,0.1-0.4,0.4-0.4,0.6v5.8c0,0.3,0.1,0.5,0.4,0.6l5.1,2.9
			c0.1,0.1,0.2,0.1,0.4,0.1c0.1,0,0.3,0,0.4-0.1c0.2-0.1,0.4-0.4,0.4-0.6v-5.8C232.2,332.9,232.1,332.7,231.8,332.6z M230.7,337.7
			l-3.6-2.1v-4.1l3.6,2.1V337.7z"/>
	</g>
	<g>
		<g>
			<g>
				<path class="st1" d="M129.1,348.4C129.1,348.4,129.1,348.4,129.1,348.4C129.1,348.4,129.1,348.4,129.1,348.4z M130.6,352.5
					C130.6,352.5,130.6,352.5,130.6,352.5C130.6,352.5,130.6,352.5,130.6,352.5z"/>
				<path class="st1" d="M142,349.2C142,349.2,142,349.2,142,349.2C142,349.2,142,349.2,142,349.2z"/>
				<path class="st1" d="M117.8,348.6C117.8,348.6,117.8,348.6,117.8,348.6C117.8,348.6,117.8,348.6,117.8,348.6z M122.9,353.7
					C122.9,353.7,122.9,353.7,122.9,353.7C122.9,353.7,122.9,353.7,122.9,353.7z M120.5,351.1C120.5,351.1,120.5,351.1,120.5,351.1
					C120.5,351.1,120.5,351.1,120.5,351.1z"/>
			</g>
		</g>
	</g>
	<g>
		<path class="st1" d="M366.3,400.2h-4.9c-0.4,0-0.8,0.3-0.8,0.8c0,0.4,0.3,0.8,0.8,0.8h4.9c0.8,0,1.5,0.7,1.5,1.5v29.1
			c0,0.8-0.7,1.5-1.5,1.5h-24c-0.8,0-1.5-0.7-1.5-1.5v-29.1c0-0.8,0.7-1.5,1.5-1.5h4.5c0.4,0,0.8-0.3,0.8-0.8c0-0.4-0.3-0.8-0.8-0.8
			h-4.5c-1.6,0-3,1.3-3,3v29.1c0,1.6,1.3,3,3,3h24c1.6,0,3-1.3,3-3v-29.1C369.2,401.6,367.9,400.2,366.3,400.2z"/>
		<path class="st1" d="M364,402.4h-2.1c-0.4,0-0.8,0.3-0.8,0.8s0.3,0.8,0.8,0.8h2.1c0.2,0,0.4,0.2,0.4,0.4v25.8
			c0,0.2-0.2,0.4-0.4,0.4h-19.6c-0.2,0-0.4-0.2-0.4-0.4v-25.8c0-0.2,0.2-0.4,0.4-0.4h1.8c0.4,0,0.8-0.3,0.8-0.8s-0.3-0.8-0.8-0.8
			h-1.8c-1,0-1.9,0.8-1.9,1.9v25.8c0,1,0.8,1.9,1.9,1.9H364c1,0,1.9-0.8,1.9-1.9v-25.8C365.9,403.3,365.1,402.4,364,402.4z"/>
		<g>
			<path class="st1" d="M359.1,399.1H349c-1.9,0-3.4,1.6-3.4,3.5v1.3c0,0.4,0.3,0.8,0.8,0.8h15.5c0.4,0,0.8-0.3,0.8-0.8v-1.3
				C362.6,400.7,361,399.1,359.1,399.1z M361.1,403.2h-14v-0.6c0-1.1,0.9-2,1.9-2h10.1c1.1,0,1.9,0.9,1.9,2L361.1,403.2L361.1,403.2
				z"/>
			<path class="st1" d="M355.8,396.3h-3.5c-1.9,0-3.4,1.6-3.4,3.5c0,0.4,0.3,0.8,0.8,0.8s0.8-0.3,0.8-0.8c0-1.1,0.9-2,1.9-2h3.5
				c1.1,0,1.9,0.9,1.9,2c0,0.4,0.3,0.8,0.8,0.8s0.8-0.3,0.8-0.8C359.3,397.9,357.7,396.3,355.8,396.3z"/>
		</g>
		<g>
			<g>
				<g>
					<path class="st1" d="M362,409.5h-11.3c-0.4,0-0.8,0.3-0.8,0.8c0,0.4,0.3,0.8,0.8,0.8H362c0.4,0,0.8-0.3,0.8-0.8
						C362.8,409.8,362.4,409.5,362,409.5z"/>
				</g>
				<g>
					<g>
						<path class="st1" d="M348.4,408.7h-1.9c-0.4,0-0.8,0.3-0.8,0.8v1.5c0,0.4,0.3,0.8,0.8,0.8h1.9c0.4,0,0.8-0.3,0.8-0.8v-1.5
							C349.1,409.1,348.8,408.7,348.4,408.7z"/>
					</g>
				</g>
			</g>
			<g>
				<g>
					<path class="st1" d="M362,414h-11.3c-0.4,0-0.8,0.3-0.8,0.8s0.3,0.8,0.8,0.8H362c0.4,0,0.8-0.3,0.8-0.8S362.4,414,362,414z"/>
				</g>
				<g>
					<g>
						<path class="st1" d="M348.4,413.2h-1.9c-0.4,0-0.8,0.3-0.8,0.8v1.5c0,0.4,0.3,0.8,0.8,0.8h1.9c0.4,0,0.8-0.3,0.8-0.8V414
							C349.1,413.6,348.8,413.2,348.4,413.2z"/>
					</g>
				</g>
			</g>
			<g>
				<g>
					<path class="st1" d="M362,418.5h-11.3c-0.4,0-0.8,0.3-0.8,0.8c0,0.4,0.3,0.8,0.8,0.8H362c0.4,0,0.8-0.3,0.8-0.8
						C362.8,418.8,362.4,418.5,362,418.5z"/>
				</g>
				<g>
					<g>
						<path class="st1" d="M348.4,417.8h-1.9c-0.4,0-0.8,0.3-0.8,0.8v1.5c0,0.4,0.3,0.8,0.8,0.8h1.9c0.4,0,0.8-0.3,0.8-0.8v-1.5
							C349.1,418.1,348.8,417.8,348.4,417.8z"/>
					</g>
				</g>
			</g>
			<g>
				<g>
					<path class="st1" d="M358.3,423h-7.5c-0.4,0-0.8,0.3-0.8,0.8s0.3,0.8,0.8,0.8h7.5c0.4,0,0.8-0.3,0.8-0.8S358.7,423,358.3,423z"
						/>
				</g>
				<g>
					<g>
						<path class="st1" d="M348.4,422.3h-1.9c-0.4,0-0.8,0.3-0.8,0.8v1.5c0,0.4,0.3,0.8,0.8,0.8h1.9c0.4,0,0.8-0.3,0.8-0.8V423
							C349.1,422.6,348.8,422.3,348.4,422.3z"/>
					</g>
				</g>
			</g>
		</g>
	</g>
	<g>
		<path class="st1" d="M44.8,462.3c-3.5,0-6.3,2.8-6.3,6.3s2.8,6.3,6.3,6.3c3.5,0,6.3-2.8,6.3-6.3S48.3,462.3,44.8,462.3z
			 M44.8,473.4c-2.7,0-4.8-2.2-4.8-4.8c0-2.7,2.2-4.8,4.8-4.8c2.7,0,4.8,2.2,4.8,4.8C49.6,471.3,47.5,473.4,44.8,473.4z"/>
		<path class="st1" d="M44.8,466.3c-1.3,0-2.4,1.1-2.4,2.4c0,1.3,1.1,2.4,2.4,2.4c1.3,0,2.4-1.1,2.4-2.4
			C47.2,467.3,46.1,466.3,44.8,466.3z M44.8,469.5c-0.5,0-0.9-0.4-0.9-0.9s0.4-0.9,0.9-0.9c0.5,0,0.9,0.4,0.9,0.9
			S45.3,469.5,44.8,469.5z"/>
	</g>
	<g>
		<path class="st1" d="M147.2,294.2c-2.6,0-4.7,2.1-4.7,4.7c0,2.6,2.1,4.7,4.7,4.7c2.6,0,4.7-2.1,4.7-4.7
			C151.9,296.3,149.8,294.2,147.2,294.2z M147.2,302.2c-1.8,0-3.2-1.4-3.2-3.2s1.4-3.2,3.2-3.2c1.8,0,3.2,1.4,3.2,3.2
			S148.9,302.2,147.2,302.2z"/>
		<path class="st1" d="M147.2,297c-1.1,0-1.9,0.9-1.9,1.9c0,1.1,0.9,1.9,1.9,1.9c1.1,0,1.9-0.9,1.9-1.9
			C149.1,297.9,148.2,297,147.2,297z M147.2,299.3c-0.2,0-0.4-0.2-0.4-0.4c0-0.2,0.2-0.4,0.4-0.4c0.2,0,0.4,0.2,0.4,0.4
			C147.6,299.2,147.4,299.3,147.2,299.3z"/>
	</g>
	<g>
		<path class="st1" d="M334.5,349.9c-5,0-9.1,4.1-9.1,9.1s4.1,9.1,9.1,9.1c5,0,9.1-4.1,9.1-9.1S339.5,349.9,334.5,349.9z
			 M334.5,366.5c-4.2,0-7.6-3.4-7.6-7.6s3.4-7.6,7.6-7.6c4.2,0,7.6,3.4,7.6,7.6S338.6,366.5,334.5,366.5z"/>
		<path class="st1" d="M334.5,355.8c-1.7,0-3.2,1.4-3.2,3.2c0,1.7,1.4,3.2,3.2,3.2c1.7,0,3.2-1.4,3.2-3.2
			C337.6,357.2,336.2,355.8,334.5,355.8z M334.5,360.6c-0.9,0-1.7-0.8-1.7-1.7c0-0.9,0.8-1.7,1.7-1.7c0.9,0,1.7,0.8,1.7,1.7
			C336.1,359.9,335.4,360.6,334.5,360.6z"/>
	</g>
	<g>
		<path class="st0" d="M357.7,442c-5,0-9.1,4.1-9.1,9.1c0,5,4.1,9.1,9.1,9.1s9.1-4.1,9.1-9.1C366.7,446,362.7,442,357.7,442z
			 M357.7,458.6c-4.2,0-7.6-3.4-7.6-7.6c0-4.2,3.4-7.6,7.6-7.6c4.2,0,7.6,3.4,7.6,7.6C365.2,455.2,361.9,458.6,357.7,458.6z"/>
		<path class="st0" d="M357.7,447.8c-1.7,0-3.2,1.4-3.2,3.2c0,1.7,1.4,3.2,3.2,3.2c1.7,0,3.2-1.4,3.2-3.2
			C360.8,449.3,359.4,447.8,357.7,447.8z M357.7,452.7c-0.9,0-1.7-0.8-1.7-1.7s0.8-1.7,1.7-1.7c0.9,0,1.7,0.8,1.7,1.7
			S358.6,452.7,357.7,452.7z"/>
	</g>
	<g>
		<g>
			<path class="st1" d="M281.9,294.1h-7.3c-0.4,0-0.8,0.3-0.8,0.8c0,0.4,0.3,0.8,0.8,0.8h7.3c0.4,0,0.8-0.3,0.8-0.8
				C282.6,294.5,282.3,294.1,281.9,294.1z"/>
			<path class="st1" d="M271.7,294.1H269c-0.4,0-0.8,0.3-0.8,0.8c0,0.4,0.3,0.8,0.8,0.8h2.8c0.4,0,0.8-0.3,0.8-0.8
				C272.5,294.5,272.1,294.1,271.7,294.1z"/>
			<path class="st1" d="M266.1,294.1h-4.2c-0.4,0-0.8,0.3-0.8,0.8c0,0.4,0.3,0.8,0.8,0.8h4.2c0.4,0,0.8-0.3,0.8-0.8
				C266.8,294.5,266.5,294.1,266.1,294.1z"/>
		</g>
		<g>
			<path class="st1" d="M280.6,299.7h-9.2c-0.4,0-0.8,0.3-0.8,0.8c0,0.4,0.3,0.8,0.8,0.8h9.2c0.4,0,0.8-0.3,0.8-0.8
				C281.3,300.1,281,299.7,280.6,299.7z"/>
			<path class="st1" d="M268.5,299.7h-4.2c-0.4,0-0.8,0.3-0.8,0.8c0,0.4,0.3,0.8,0.8,0.8h4.2c0.4,0,0.8-0.3,0.8-0.8
				C269.3,300.1,269,299.7,268.5,299.7z"/>
		</g>
		<g>
			<path class="st1" d="M281.3,288.6h-8.1c-0.4,0-0.8,0.3-0.8,0.8c0,0.4,0.3,0.8,0.8,0.8h8.1c0.4,0,0.8-0.3,0.8-0.8
				C282,288.9,281.7,288.6,281.3,288.6z"/>
			<path class="st1" d="M273.2,288.6h-5.6c-0.4,0-0.8,0.3-0.8,0.8c0,0.4,0.3,0.8,0.8,0.8h5.6c0.4,0,0.8-0.3,0.8-0.8
				C274,288.9,273.6,288.6,273.2,288.6z"/>
			<path class="st1" d="M264.7,288.6h-7.4c-0.4,0-0.8,0.3-0.8,0.8c0,0.4,0.3,0.8,0.8,0.8h7.4c0.4,0,0.8-0.3,0.8-0.8
				C265.5,288.9,265.1,288.6,264.7,288.6z"/>
		</g>
	</g>
	<g>
		<g>
			<path class="st1" d="M361,376.7c-0.4,0-0.8,0.3-0.8,0.8v6.3c0,0.4,0.3,0.8,0.8,0.8s0.8-0.3,0.8-0.8v-6.3
				C361.7,377,361.4,376.7,361,376.7z"/>
			<path class="st1" d="M361,372.1c-0.4,0-0.8,0.3-0.8,0.8v1.5c0,0.4,0.3,0.8,0.8,0.8s0.8-0.3,0.8-0.8v-1.5
				C361.7,372.4,361.4,372.1,361,372.1z"/>
			<path class="st1" d="M361,365.5c-0.4,0-0.8,0.3-0.8,0.8v3.7c0,0.4,0.3,0.8,0.8,0.8s0.8-0.3,0.8-0.8v-3.7
				C361.7,365.9,361.4,365.5,361,365.5z"/>
		</g>
		<g>
			<path class="st1" d="M353.6,373.9c-0.4,0-0.8,0.3-0.8,0.8v8c0,0.4,0.3,0.8,0.8,0.8s0.8-0.3,0.8-0.8v-8
				C354.4,374.2,354.1,373.9,353.6,373.9z"/>
			<path class="st1" d="M353.6,367.7c-0.4,0-0.8,0.3-0.8,0.8v3.7c0,0.4,0.3,0.8,0.8,0.8s0.8-0.3,0.8-0.8v-3.7
				C354.4,368,354.1,367.7,353.6,367.7z"/>
		</g>
		<g>
			<path class="st1" d="M368.3,375.5c-0.4,0-0.8,0.3-0.8,0.8v7c0,0.4,0.3,0.8,0.8,0.8s0.8-0.3,0.8-0.8v-7
				C369,375.8,368.7,375.5,368.3,375.5z"/>
			<path class="st1" d="M368.3,371.2c-0.4,0-0.8,0.3-0.8,0.8v4.2c0,0.4,0.3,0.8,0.8,0.8s0.8-0.3,0.8-0.8V372
				C369,371.6,368.7,371.2,368.3,371.2z"/>
			<path class="st1" d="M368.3,361.6c-0.4,0-0.8,0.3-0.8,0.8v6.5c0,0.4,0.3,0.8,0.8,0.8s0.8-0.3,0.8-0.8v-6.5
				C369,361.9,368.7,361.6,368.3,361.6z"/>
		</g>
	</g>
	<g>
		<g>
			<path class="st1" d="M66.2,401h-7.3c-0.4,0-0.8,0.3-0.8,0.8c0,0.4,0.3,0.8,0.8,0.8h7.3c0.4,0,0.8-0.3,0.8-0.8
				C66.9,401.3,66.6,401,66.2,401z"/>
			<path class="st1" d="M56,401h-2.8c-0.4,0-0.8,0.3-0.8,0.8c0,0.4,0.3,0.8,0.8,0.8H56c0.4,0,0.8-0.3,0.8-0.8
				C56.8,401.3,56.5,401,56,401z"/>
			<path class="st1" d="M50.4,401h-4.2c-0.4,0-0.8,0.3-0.8,0.8c0,0.4,0.3,0.8,0.8,0.8h4.2c0.4,0,0.8-0.3,0.8-0.8
				C51.2,401.3,50.8,401,50.4,401z"/>
		</g>
		<g>
			<path class="st1" d="M64.9,407.1h-9.2c-0.4,0-0.8,0.3-0.8,0.8s0.3,0.8,0.8,0.8h9.2c0.4,0,0.8-0.3,0.8-0.8S65.3,407.1,64.9,407.1z
				"/>
			<path class="st1" d="M52.9,407.1h-4.2c-0.4,0-0.8,0.3-0.8,0.8s0.3,0.8,0.8,0.8h4.2c0.4,0,0.8-0.3,0.8-0.8S53.3,407.1,52.9,407.1z
				"/>
		</g>
		<g>
			<path class="st1" d="M65.6,394.9h-8.1c-0.4,0-0.8,0.3-0.8,0.8c0,0.4,0.3,0.8,0.8,0.8h8.1c0.4,0,0.8-0.3,0.8-0.8
				C66.3,395.2,66,394.9,65.6,394.9z"/>
			<path class="st1" d="M57.5,394.9h-5.6c-0.4,0-0.8,0.3-0.8,0.8c0,0.4,0.3,0.8,0.8,0.8h5.6c0.4,0,0.8-0.3,0.8-0.8
				C58.3,395.2,57.9,394.9,57.5,394.9z"/>
			<path class="st1" d="M49,394.9h-7.4c-0.4,0-0.8,0.3-0.8,0.8c0,0.4,0.3,0.8,0.8,0.8H49c0.4,0,0.8-0.3,0.8-0.8
				C49.8,395.2,49.4,394.9,49,394.9z"/>
		</g>
	</g>
	<g>
		<g>
			<g>
				<path class="st1" d="M380.3,432.3c-1.3,0-2.3,1-2.3,2.3s1,2.3,2.3,2.3s2.3-1,2.3-2.3S381.6,432.3,380.3,432.3z M380.3,435.3
					c-0.4,0-0.8-0.4-0.8-0.8s0.4-0.8,0.8-0.8c0.4,0,0.8,0.4,0.8,0.8S380.7,435.3,380.3,435.3z"/>
			</g>
		</g>
		<g>
			<g>
				<path class="st1" d="M380.3,438.3c-1.3,0-2.3,1-2.3,2.3c0,1.3,1,2.3,2.3,2.3s2.3-1,2.3-2.3C382.6,439.3,381.6,438.3,380.3,438.3
					z M380.3,441.4c-0.4,0-0.8-0.4-0.8-0.8c0-0.4,0.4-0.8,0.8-0.8c0.4,0,0.8,0.4,0.8,0.8C381.1,441,380.7,441.4,380.3,441.4z"/>
				<path class="st1" d="M380.3,444.4c-1.3,0-2.3,1-2.3,2.3c0,1.3,1,2.3,2.3,2.3s2.3-1,2.3-2.3C382.6,445.4,381.6,444.4,380.3,444.4
					z M380.3,447.4c-0.4,0-0.8-0.4-0.8-0.8s0.4-0.8,0.8-0.8c0.4,0,0.8,0.4,0.8,0.8S380.7,447.4,380.3,447.4z"/>
			</g>
		</g>
	</g>
	<g>
		<g>
			<g>
				<path class="st1" d="M57.1,365.3c-1.3,0-2.3,1-2.3,2.3c0,1.3,1,2.3,2.3,2.3c1.3,0,2.3-1,2.3-2.3
					C59.4,366.4,58.4,365.3,57.1,365.3z M57.1,368.4c-0.4,0-0.8-0.4-0.8-0.8s0.4-0.8,0.8-0.8c0.4,0,0.8,0.4,0.8,0.8
					C57.9,368.1,57.6,368.4,57.1,368.4z"/>
			</g>
		</g>
		<g>
			<g>
				<path class="st1" d="M57.1,371.4c-1.3,0-2.3,1-2.3,2.3c0,1.3,1,2.3,2.3,2.3c1.3,0,2.3-1,2.3-2.3
					C59.4,372.4,58.4,371.4,57.1,371.4z M57.1,374.5c-0.4,0-0.8-0.4-0.8-0.8s0.4-0.8,0.8-0.8c0.4,0,0.8,0.4,0.8,0.8
					S57.6,374.5,57.1,374.5z"/>
				<path class="st1" d="M57.1,377.4c-1.3,0-2.3,1-2.3,2.3c0,1.3,1,2.3,2.3,2.3c1.3,0,2.3-1,2.3-2.3
					C59.4,378.5,58.4,377.4,57.1,377.4z M57.1,380.5c-0.4,0-0.8-0.4-0.8-0.8c0-0.4,0.4-0.8,0.8-0.8c0.4,0,0.8,0.4,0.8,0.8
					C57.9,380.2,57.6,380.5,57.1,380.5z"/>
			</g>
		</g>
	</g>
	<g>
		<g>
			<path class="st1" d="M54.9,451.3c-8.3,2.8-17.4-1.8-20.1-10.1c-0.1-0.4-0.6-0.6-0.9-0.5c-0.4,0.1-0.6,0.6-0.5,0.9
				c2.4,7.3,9.2,12,16.6,12c1.8,0,3.6-0.3,5.5-0.9c0.4-0.1,0.6-0.6,0.5-0.9C55.7,451.4,55.3,451.2,54.9,451.3z"/>
			<g>
				<path class="st0" d="M66.6,435.6C66.6,435.6,66.6,435.6,66.6,435.6c-0.4,0-0.8,0.3-0.8,0.7c-0.1,6.8-4.4,12.9-10.9,15
					c-7.3,2.4-15.3-0.7-19-7.5c-0.2-0.4-0.7-0.5-1-0.3c-0.4,0.2-0.5,0.7-0.3,1c1.9,3.6,5.1,6.3,8.8,7.9c2.1,0.8,4.3,1.3,6.5,1.3
					c1.8,0,3.7-0.3,5.5-0.9c7.1-2.3,11.9-8.9,12-16.4C67.3,435.9,67,435.6,66.6,435.6z"/>
				<path class="st0" d="M67.2,435.9c-0.1-0.2-0.3-0.3-0.6-0.3c-0.2,0-0.5,0.1-0.6,0.2l-2.2,2.4c-0.3,0.3-0.3,0.8,0,1.1
					c0.3,0.3,0.8,0.3,1.1,0l1.6-1.7l1.2,1.9c0.1,0.2,0.4,0.4,0.6,0.4c0.1,0,0.3,0,0.4-0.1c0.4-0.2,0.5-0.7,0.2-1L67.2,435.9z"/>
			</g>
		</g>
		<g>
			<path class="st1" d="M49.9,431.8c-2.5,0-4.5,2-4.5,4.5s2,4.5,4.5,4.5c2.5,0,4.5-2,4.5-4.5S52.4,431.8,49.9,431.8z M49.9,439.2
				c-1.6,0-3-1.3-3-3c0-1.6,1.3-3,3-3s3,1.3,3,3C52.9,437.8,51.5,439.2,49.9,439.2z"/>
			<path class="st1" d="M60.4,433.2h-2.5c-0.1-0.2-0.2-0.4-0.3-0.7l1.8-1.8c0.8-0.8,0.8-2.1,0-2.9l-1.2-1.2c-0.8-0.8-2.1-0.8-2.9,0
				l-1.8,1.8c-0.2-0.1-0.4-0.2-0.7-0.3v-2.5c0-1.1-0.9-2.1-2.1-2.1H49c-1.1,0-2.1,0.9-2.1,2.1v2.5c-0.2,0.1-0.4,0.2-0.7,0.3
				l-1.8-1.8c-0.8-0.8-2.1-0.8-2.9,0l-1.2,1.2c-0.8,0.8-0.8,2.1,0,2.9l1.8,1.8c-0.1,0.2-0.2,0.4-0.3,0.7h-2.5
				c-1.1,0-2.1,0.9-2.1,2.1v1.7c0,1.1,0.9,2.1,2.1,2.1h2.5c0.1,0.2,0.2,0.4,0.3,0.7l-1.8,1.8c-0.8,0.8-0.8,2.1,0,2.9l1.2,1.2
				c0.8,0.8,2.1,0.8,2.9,0l1.8-1.8c0.2,0.1,0.4,0.2,0.7,0.3v2.5c0,1.1,0.9,2.1,2.1,2.1h1.7c1.1,0,2.1-0.9,2.1-2.1v-2.5
				c0.2-0.1,0.4-0.2,0.7-0.3l1.8,1.8c0.8,0.8,2.1,0.8,2.9,0l1.2-1.2c0.8-0.8,0.8-2.1,0-2.9l-1.8-1.8c0.1-0.2,0.2-0.4,0.3-0.7h2.5
				c1.1,0,2.1-0.9,2.1-2.1v-1.7C62.5,434.2,61.6,433.2,60.4,433.2z M61,437c0,0.3-0.3,0.6-0.6,0.6h-3.1c-0.3,0-0.6,0.2-0.7,0.5
				c-0.1,0.5-0.3,1-0.6,1.4c-0.2,0.3-0.1,0.7,0.1,0.9l2.2,2.2c0.2,0.2,0.2,0.6,0,0.8l-1.2,1.2c-0.1,0.1-0.3,0.2-0.4,0.2
				s-0.3-0.1-0.4-0.2l-2.2-2.2c-0.2-0.2-0.6-0.3-0.9-0.1c-0.4,0.2-0.9,0.4-1.4,0.6c-0.3,0.1-0.5,0.4-0.5,0.7v3.1
				c0,0.3-0.3,0.6-0.6,0.6H49c-0.3,0-0.6-0.3-0.6-0.6v-3.1c0-0.3-0.2-0.6-0.5-0.7c-0.5-0.1-1-0.3-1.4-0.6c-0.1-0.1-0.2-0.1-0.4-0.1
				c-0.2,0-0.4,0.1-0.5,0.2l-2.2,2.2c-0.2,0.2-0.6,0.2-0.8,0l-1.2-1.2c-0.2-0.2-0.2-0.6,0-0.8l2.2-2.2c0.2-0.2,0.3-0.6,0.1-0.9
				c-0.2-0.4-0.4-0.9-0.6-1.4c-0.1-0.3-0.4-0.5-0.7-0.5h-3.1c-0.3,0-0.6-0.3-0.6-0.6v-1.7c0-0.3,0.3-0.6,0.6-0.6h3.1
				c0.3,0,0.6-0.2,0.7-0.5c0.1-0.5,0.3-1,0.6-1.4c0.2-0.3,0.1-0.7-0.1-0.9l-2.2-2.2c-0.2-0.2-0.2-0.6,0-0.8l1.2-1.2
				c0.2-0.2,0.6-0.2,0.8,0l2.2,2.2c0.2,0.2,0.6,0.3,0.9,0.1c0.4-0.2,0.9-0.4,1.4-0.6c0.3-0.1,0.5-0.4,0.5-0.7v-3.1
				c0-0.3,0.3-0.6,0.6-0.6h1.7c0.3,0,0.6,0.3,0.6,0.6v3.1c0,0.3,0.2,0.6,0.5,0.7c0.5,0.1,1,0.3,1.4,0.6c0.3,0.2,0.7,0.1,0.9-0.1
				l2.2-2.2c0.1-0.1,0.3-0.2,0.4-0.2s0.3,0.1,0.4,0.2l1.2,1.2c0.2,0.2,0.2,0.6,0,0.8l-2.2,2.2c-0.2,0.2-0.3,0.6-0.1,0.9
				c0.2,0.4,0.4,0.9,0.6,1.4c0.1,0.3,0.4,0.5,0.7,0.5h3.1c0.3,0,0.6,0.3,0.6,0.6L61,437L61,437z"/>
			<path class="st1" d="M49.9,431.8c-2.5,0-4.5,2-4.5,4.5s2,4.5,4.5,4.5c2.5,0,4.5-2,4.5-4.5S52.4,431.8,49.9,431.8z M49.9,439.2
				c-1.6,0-3-1.3-3-3c0-1.6,1.3-3,3-3s3,1.3,3,3C52.9,437.8,51.5,439.2,49.9,439.2z"/>
		</g>
		<path class="st0" d="M66.2,440c-0.4-0.1-0.8,0.1-0.9,0.5c-1.4,5.1-5.3,9.1-10.3,10.8c-8.3,2.8-17.4-1.8-20.1-10.1
			c-0.1-0.4-0.6-0.6-0.9-0.5c-0.4,0.1-0.6,0.6-0.5,0.9c2.4,7.3,9.2,12,16.6,12c1.8,0,3.6-0.3,5.5-0.9c5.5-1.8,9.7-6.2,11.3-11.8
			C66.8,440.5,66.6,440.1,66.2,440z"/>
		<g>
			<path class="st0" d="M57.7,420.6c-4.2-2.1-8.9-2.4-13.3-1c-0.4,0.1-0.6,0.6-0.5,0.9c0.1,0.4,0.6,0.6,0.9,0.5
				c4-1.3,8.4-1,12.2,0.9c3.8,1.9,6.6,5.2,8,9.2c0.1,0.3,0.4,0.5,0.7,0.5c0.1,0,0.2,0,0.2,0c0.4-0.1,0.6-0.6,0.5-0.9
				C65,426.3,61.9,422.7,57.7,420.6z"/>
			<g>
				<path class="st0" d="M56.4,420c-3.8-1.5-8.1-1.7-12-0.4c-7.1,2.3-11.9,8.9-12,16.4c0,0.4,0.3,0.8,0.7,0.8c0,0,0,0,0,0
					c0.4,0,0.7-0.3,0.7-0.7c0.1-6.8,4.4-12.9,10.9-15c7.3-2.4,15.3,0.7,19,7.5c0.2,0.4,0.7,0.5,1,0.3c0.4-0.2,0.5-0.7,0.3-1
					C63.3,424.3,60.2,421.5,56.4,420z"/>
				<path class="st0" d="M34.9,433.2l-1.6,1.7l-1.2-1.9c-0.2-0.4-0.7-0.5-1-0.2c-0.4,0.2-0.5,0.7-0.2,1l1.7,2.7
					c0.1,0.2,0.3,0.3,0.6,0.3c0,0,0,0,0.1,0c0.2,0,0.4-0.1,0.5-0.2l2.2-2.4c0.3-0.3,0.3-0.8,0-1.1C35.7,432.8,35.2,432.9,34.9,433.2
					z"/>
			</g>
		</g>
	</g>
	<g>
		<g>
			<path class="st1" d="M111.1,364.7l-6.6-4.8c-0.3-0.2-0.8-0.2-1,0.2c-0.2,0.3-0.2,0.8,0.2,1l5.7,4.2l-5.7,3.8
				c-0.3,0.2-0.4,0.7-0.2,1c0.1,0.2,0.4,0.3,0.6,0.3c0.1,0,0.3,0,0.4-0.1l6.6-4.4c0.2-0.1,0.3-0.4,0.3-0.6
				C111.5,365.1,111.3,364.9,111.1,364.7z"/>
			<path class="st1" d="M111.1,364.7l-3.7-2.7c-0.3-0.2-0.8-0.2-1,0.2c-0.2,0.3-0.2,0.8,0.2,1l2.8,2.1l-2.8,1.9
				c-0.3,0.2-0.4,0.7-0.2,1c0.1,0.2,0.4,0.3,0.6,0.3c0.1,0,0.3,0,0.4-0.1l3.7-2.5c0.2-0.1,0.3-0.4,0.3-0.6
				C111.5,365.1,111.3,364.9,111.1,364.7z"/>
			<path class="st1" d="M104.1,359.8l-33.4,0c0,0,0,0,0,0c-0.6,0-1.1,0.3-1.4,0.9c-0.3,0.5-0.4,1.1-0.4,1.7l0,5.6
				c0,0.6,0.2,1.2,0.4,1.7c0.3,0.6,0.9,0.9,1.4,0.9c0,0,0,0,0,0l33.4,0c0.4,0,0.8-0.3,0.8-0.8v-9.3c0-0.2-0.1-0.4-0.2-0.5
				C104.5,359.8,104.3,359.8,104.1,359.8z M70.7,361.3L70.7,361.3L70.7,361.3z M70.7,369L70.7,369L70.7,369z M103.3,369l-32.6,0
				c-0.1-0.1-0.4-0.4-0.4-1.1l0-5.6c0-0.7,0.3-1.1,0.4-1.1l32.6,0V369z"/>
			<path class="st1" d="M104.1,359.8l-33.4,0c0,0,0,0,0,0c-0.6,0-1.1,0.3-1.4,0.9c-0.3,0.5-0.4,1.1-0.4,1.7l0,5.6
				c0,0.6,0.2,1.2,0.4,1.7c0.3,0.6,0.9,0.9,1.4,0.9c0,0,0,0,0,0l33.4,0c0.4,0,0.8-0.3,0.8-0.8v-9.3c0-0.2-0.1-0.4-0.2-0.5
				C104.5,359.8,104.3,359.8,104.1,359.8z M70.7,361.3L70.7,361.3L70.7,361.3z M70.7,369L70.7,369L70.7,369z M103.3,369l-32.6,0
				c-0.1-0.1-0.4-0.4-0.4-1.1l0-5.6c0-0.7,0.3-1.1,0.4-1.1l32.6,0V369z"/>
			<path class="st1" d="M104.1,365.9l-31.5,0c-0.4,0-0.8,0.3-0.8,0.8s0.3,0.8,0.8,0.8l30.8,0l0,1.6H72.6c-0.4,0-0.8,0.3-0.8,0.8
				c0,0.4,0.3,0.8,0.8,0.8h31.5c0.4,0,0.8-0.3,0.8-0.8l0-3.1c0-0.2-0.1-0.4-0.2-0.5C104.5,366,104.3,365.9,104.1,365.9z"/>
			<path class="st1" d="M104.1,359.8l-31.6,0c-0.4,0-0.8,0.3-0.8,0.8c0,0.4,0.3,0.8,0.8,0.8l30.8,0v1.6l-30.8,0
				c-0.4,0-0.8,0.3-0.8,0.8c0,0.4,0.3,0.8,0.8,0.8l31.5,0c0.4,0,0.8-0.3,0.8-0.8v-3.1c0-0.2-0.1-0.4-0.2-0.5
				C104.5,359.8,104.3,359.8,104.1,359.8z"/>
			<path class="st1" d="M72.5,359.8l-1.9,0c0,0,0,0,0,0c-0.6,0-1.1,0.3-1.4,0.9c-0.3,0.5-0.4,1.1-0.4,1.7l0,5.6
				c0,0.6,0.2,1.2,0.4,1.7c0.3,0.6,0.9,0.9,1.4,0.9c0,0,0,0,0,0l1.9,0l0,0c0.2,0,0.4-0.1,0.5-0.2c0.1-0.1,0.2-0.3,0.2-0.5v-9.3
				c0-0.2-0.1-0.4-0.2-0.5C72.9,359.8,72.7,359.8,72.5,359.8z M70.7,361.3L70.7,361.3L70.7,361.3L70.7,361.3L70.7,361.3z M70.7,369
				L70.7,369L70.7,369z M71.8,369l-1.1,0c-0.1-0.1-0.4-0.4-0.4-1.1l0-5.6c0-0.7,0.3-1.1,0.4-1.1l1.1,0V369z"/>
			<path class="st1" d="M107.4,362.2c-0.4,0-0.8,0.3-0.8,0.8v4.3c0,0.4,0.3,0.8,0.8,0.8c0.4,0,0.8-0.3,0.8-0.8V363
				C108.1,362.6,107.8,362.2,107.4,362.2z"/>
		</g>
	</g>
	<g>
		<path class="st1" d="M314.9,339h-18c-1.3,0-2.4,1.1-2.4,2.4v12.7c0,1.3,1.1,2.4,2.4,2.4h4.5v5c0,0.3,0.2,0.6,0.5,0.7
			c0.1,0,0.2,0.1,0.3,0.1c0.2,0,0.4-0.1,0.5-0.2l5.6-5.6h6.7c1.3,0,2.4-1.1,2.4-2.4v-12.7C317.3,340.1,316.2,339,314.9,339z
			 M315.8,354.1c0,0.5-0.4,0.9-0.9,0.9h-7c-0.2,0-0.4,0.1-0.5,0.2l-4.5,4.5v-4c0-0.4-0.3-0.8-0.8-0.8h-5.2c-0.5,0-0.9-0.4-0.9-0.9
			v-12.7c0-0.5,0.4-0.9,0.9-0.9h18c0.5,0,0.9,0.4,0.9,0.9L315.8,354.1L315.8,354.1z"/>
		<g>
			<g>
				<path class="st1" d="M311.6,343.5h-11.5c-0.4,0-0.8,0.3-0.8,0.8c0,0.4,0.3,0.8,0.8,0.8h11.5c0.4,0,0.8-0.3,0.8-0.8
					C312.4,343.9,312.1,343.5,311.6,343.5z"/>
				<path class="st1" d="M311.6,347.3h-11.5c-0.4,0-0.8,0.3-0.8,0.8s0.3,0.8,0.8,0.8h11.5c0.4,0,0.8-0.3,0.8-0.8
					S312.1,347.3,311.6,347.3z"/>
			</g>
			<g>
				<path class="st1" d="M311.6,347.3h-11.5c-0.4,0-0.8,0.3-0.8,0.8s0.3,0.8,0.8,0.8h11.5c0.4,0,0.8-0.3,0.8-0.8
					S312.1,347.3,311.6,347.3z"/>
			</g>
			<g>
				<path class="st1" d="M306.5,351.1h-6.3c-0.4,0-0.8,0.3-0.8,0.8c0,0.4,0.3,0.8,0.8,0.8h6.3c0.4,0,0.8-0.3,0.8-0.8
					C307.2,351.4,306.9,351.1,306.5,351.1z"/>
			</g>
		</g>
		<path class="st0" d="M324.5,325.2h-12c-1,0-1.8,0.8-1.8,1.8v8.5c0,1,0.8,1.8,1.8,1.8h4.4l3.6,3.6c0.1,0.1,0.3,0.2,0.5,0.2
			c0.1,0,0.2,0,0.3-0.1c0.3-0.1,0.5-0.4,0.5-0.7v-3.1h2.7c1,0,1.8-0.8,1.8-1.8v-8.5C326.4,326.1,325.5,325.2,324.5,325.2z
			 M324.9,335.6c0,0.2-0.2,0.3-0.3,0.3H321c-0.4,0-0.8,0.3-0.8,0.8v2l-2.6-2.6c-0.1-0.1-0.3-0.2-0.5-0.2h-4.7
			c-0.2,0-0.3-0.2-0.3-0.3v-8.5c0-0.2,0.2-0.3,0.3-0.3h12c0.2,0,0.3,0.2,0.3,0.3L324.9,335.6L324.9,335.6z"/>
		<path class="st0" d="M322.5,329h-8c-0.4,0-0.8,0.3-0.8,0.8c0,0.4,0.3,0.8,0.8,0.8h8c0.4,0,0.8-0.3,0.8-0.8
			C323.3,329.3,322.9,329,322.5,329z"/>
		<path class="st0" d="M319.5,332.4h-5c-0.4,0-0.8,0.3-0.8,0.8c0,0.4,0.3,0.8,0.8,0.8h5c0.4,0,0.8-0.3,0.8-0.8
			C320.2,332.7,319.9,332.4,319.5,332.4z"/>
	</g>
	<g>
		<g>
			<g>
				<g>
					<path class="st1" d="M363.3,478.8c0,6.6,6.5,8.3,6.5,8.3s6.6-1.7,6.6-8.3c0-6.6-6.5-15.7-6.5-15.7S363.4,472.2,363.3,478.8z"/>
					<path class="st1" d="M370,462.2C370,462.2,370,462.2,370,462.2c-0.3,0-0.6,0.1-0.8,0.4c-0.3,0.4-6.8,9.3-6.8,16.2
						c0,3,1.2,5.6,3.6,7.4c1.8,1.4,3.5,1.8,3.6,1.9c0.1,0,0.2,0,0.2,0c0.1,0,0.2,0,0.2,0c0.1,0,1.8-0.5,3.6-1.8
						c2.4-1.8,3.7-4.4,3.7-7.4c0-6.8-6.4-15.8-6.7-16.2C370.6,462.4,370.3,462.2,370,462.2z M372.6,484.7c-1.1,0.9-2.3,1.3-2.8,1.5
						c-0.5-0.2-1.6-0.6-2.7-1.4c-1.9-1.5-2.9-3.5-2.9-5.9c0-4.9,4-11.4,5.7-13.9c1.7,2.6,5.6,9.1,5.5,14
						C375.5,481.2,374.5,483.2,372.6,484.7z"/>
				</g>
				<path class="st1" d="M369.9,479.4C369.9,479.4,369.9,479.4,369.9,479.4c-0.5,0-1,0.4-1,0.9l-0.1,28.9c0,0.5,0.4,1,0.9,1
					c0,0,0,0,0,0c0.5,0,0.9-0.4,0.9-0.9l0.1-28.9C370.8,479.8,370.4,479.4,369.9,479.4z"/>
				<g>
					<g>
						<g>
							<path class="st1" d="M349.2,483.8c0,0,1.3,8.6,5,12.3c3.6,3.7,8.2,1,8.2,1s2.7-4.5-0.9-8.2
								C357.8,485.2,349.2,483.8,349.2,483.8z"/>
							<path class="st1" d="M349.3,482.9c-0.3,0-0.6,0-0.8,0.3c-0.2,0.2-0.3,0.5-0.3,0.8c0.1,0.4,1.4,9,5.2,12.8
								c1.5,1.5,3.2,2.2,5.2,2.2c0.3,0,0.7,0,1.1-0.1c1.8-0.2,3-1,3.1-1c0.1-0.1,0.3-0.2,0.3-0.3c0-0.1,0.8-1.3,1-3.1
								c0.3-2.4-0.4-4.6-2.1-6.3C358.3,484.4,349.7,482.9,349.3,482.9z M361.7,496.4c-0.9,0.4-4.2,1.7-6.8-1
								c-1.4-1.4-2.6-3.8-3.6-7.1c-0.4-1.3-0.7-2.5-0.8-3.3c0.9,0.2,2,0.5,3.3,0.9c3.3,1,5.7,2.3,7.1,3.7
								C363.4,492.3,362.1,495.5,361.7,496.4z"/>
						</g>
						<path class="st1" d="M363,496.5c-0.4-0.4-1-0.4-1.3,0c-0.4,0.4-0.4,1,0,1.3l7.4,7.5c0.2,0.2,0.4,0.3,0.7,0.3
							c0.2,0,0.5-0.1,0.7-0.3c0.4-0.4,0.4-1,0-1.3L363,496.5z"/>
					</g>
					<g>
						<g>
							<path class="st1" d="M377.3,497.2c0,0,4.5,2.7,8.2-0.9c3.7-3.6,5.1-12.2,5.1-12.2s-8.6,1.3-12.3,5
								C374.6,492.6,377.3,497.2,377.3,497.2z"/>
							<path class="st1" d="M390.4,483.1c-0.4,0.1-9,1.4-12.8,5.2c-1.7,1.7-2.5,3.9-2.2,6.3c0.2,1.8,1,3,1,3.1
								c0.1,0.1,0.2,0.3,0.3,0.3c0.1,0,1.3,0.8,3.1,1c0.4,0.1,0.8,0.1,1.1,0.1c2,0,3.7-0.7,5.2-2.2c3.8-3.8,5.3-12.4,5.3-12.8
								c0-0.3,0-0.6-0.3-0.8C391,483.1,390.7,483,390.4,483.1z M385.5,496.3L385.5,496.3L385.5,496.3z M388.5,488.5
								c-1,3.3-2.3,5.7-3.7,7.1c-2.7,2.7-6,1.3-6.8,0.9c-0.4-0.9-1.7-4.2,1-6.8c1.4-1.4,3.8-2.6,7.1-3.6c1.3-0.4,2.5-0.7,3.3-0.8
								C389.2,486,388.9,487.2,388.5,488.5z"/>
						</g>
						<path class="st1" d="M376.6,496.5l-7.5,7.4c-0.4,0.4-0.4,1,0,1.3c0.2,0.2,0.4,0.3,0.7,0.3c0.2,0,0.5-0.1,0.7-0.3l7.5-7.4
							c0.4-0.4,0.4-1,0-1.3C377.6,496.1,377,496.1,376.6,496.5z"/>
					</g>
				</g>
			</g>
			<g>
				<g>
					<g>
						<polygon class="st1" points="364.6,508.2 354,508.2 358.4,534.1 364.5,534.1 374.8,534.1 380.9,534.2 385.5,508.3 
							374.9,508.3 						"/>
						<path class="st1" d="M385.5,507.4l-31.5-0.2c0,0,0,0,0,0c-0.3,0-0.5,0.1-0.7,0.3c-0.2,0.2-0.3,0.5-0.2,0.8l4.4,25.9
							c0.1,0.5,0.5,0.8,0.9,0.8l22.5,0.1c0,0,0,0,0,0c0.5,0,0.9-0.3,0.9-0.8l4.6-25.9c0-0.3,0-0.6-0.2-0.8
							C386,507.5,385.8,507.4,385.5,507.4z M380.1,533.2l-20.9-0.1l-4.1-24l29.2,0.1L380.1,533.2z"/>
					</g>
				</g>
			</g>
		</g>
	</g>
	<g>
		<g>
			<g>
				<g>
					<path class="st2" d="M210.3,353.3h-37.2c-7.8,0-14,6.3-14,14v101.8h65.3V367.4C224.4,359.6,218.1,353.3,210.3,353.3z"/>
					<path class="st1" d="M210.3,352.4h-37.2c-8.3,0-15,6.7-15,15v101.8c0,0.5,0.4,0.9,0.9,0.9h65.3c0.5,0,1-0.4,1-0.9V367.4
						C225.3,359.1,218.6,352.4,210.3,352.4z M223.4,468.3h-63.4V367.4c0-7.2,5.9-13.1,13.1-13.1h37.2c7.2,0,13.1,5.9,13.1,13.1
						V468.3z"/>
				</g>
				<g>
					<rect x="183.1" y="338.1" class="st3" width="16.9" height="15.2"/>
					<path class="st1" d="M200,337.2h-16.9c-0.5,0-0.9,0.4-0.9,0.9v15.2c0,0.5,0.4,0.9,0.9,0.9H200c0.5,0,0.9-0.4,0.9-0.9v-15.2
						C201,337.6,200.6,337.2,200,337.2z M199.1,352.4h-15v-13.3h15V352.4z"/>
				</g>
				<g>
					<g>
						<path class="st3" d="M143,458.7c0,0,0.6,10.7,0.6,15.5l0,0c0,3.1,2.4,5.5,5.3,5.5h4c3.2,0,5.8-2.7,5.8-6v-15.2l0,0L143,458.7z
							"/>
						<path class="st1" d="M158.8,457.5C158.8,457.5,158.8,457.5,158.8,457.5l-15.8,0.2c-0.3,0-0.5,0.1-0.7,0.3
							c-0.2,0.2-0.3,0.4-0.3,0.7c0,0.1,0.6,10.7,0.6,15.4c0,3.6,2.8,6.5,6.3,6.5h4c3.7,0,6.8-3.1,6.8-6.9v-15.2
							c0-0.3-0.1-0.5-0.3-0.7C159.3,457.6,159,457.5,158.8,457.5z M157.8,473.7c0,2.8-2.2,5-4.9,5h-4c-2.4,0-4.4-2.1-4.4-4.6
							c0-3.9-0.4-11.8-0.6-14.5l13.8-0.2V473.7z"/>
					</g>
					<g>
						<path class="st3" d="M148.5,458.4L148.5,458.4c-2.7,0-4.9,2.3-4.9,5.1v11.8l9.5-2.9v-9.3C153.1,460.5,151,458.4,148.5,458.4z"
							/>
						<path class="st1" d="M148.5,457.4c-3.2,0-5.9,2.7-5.9,6v11.8c0,0.5,0.4,1,0.9,1c0.5,0,0.9-0.4,0.9-1v-11.8
							c0-2.3,1.8-4.1,4-4.1c2,0,3.6,1.7,3.6,3.8v9.3c0,0.5,0.4,0.9,0.9,0.9c0.5,0,0.9-0.4,0.9-0.9v-9.3
							C154,460,151.6,457.4,148.5,457.4z"/>
					</g>
				</g>
				<g>
					<path class="st2" d="M151.2,364.8l-29.4,42.6c-3.1,4.6-2.9,10-0.5,14.2l17,36.9h20.5l-18.4-43l21.2-30.6l21.7-31.4h-10.6
						C164.2,353.3,156.2,357.6,151.2,364.8z"/>
					<path class="st1" d="M183.3,352.4h-10.6c-8.8,0-17.2,4.4-22.3,11.8L121,406.8c-1.6,2.3-2.5,5-2.5,7.8c0,2.6,0.6,5.1,2,7.4
						l17,36.8c0.2,0.3,0.5,0.6,0.9,0.6h20.5c0.3,0,0.6-0.2,0.8-0.4c0.2-0.3,0.2-0.6,0.1-0.9l-18.2-42.5l20.9-30.2
						c0.3-0.4,0.2-1-0.2-1.3c-0.4-0.3-1-0.2-1.3,0.2l-21.2,30.6c-0.2,0.3-0.2,0.6-0.1,0.9l17.8,41.7h-18.4l-16.7-36.3
						c0,0,0-0.1,0-0.1c-1.2-2-1.7-4.2-1.7-6.4c0-2.4,0.8-4.7,2.2-6.7l29.4-42.6c4.8-6.9,12.5-11,20.7-11h10.6c0.5,0,0.9-0.4,0.9-1
						S183.8,352.4,183.3,352.4z"/>
				</g>
				<g>
					<g>
						<path class="st3" d="M225.9,458.4v15.2c0,3.3,2.6,6,5.8,6h4c3,0,5.3-2.5,5.3-5.5l0,0c0-4.8,0.6-15.5,0.6-15.5L225.9,458.4
							L225.9,458.4z"/>
						<path class="st1" d="M241.7,457.6l-15.8-0.2c-0.3,0-0.5,0.1-0.7,0.3c-0.2,0.2-0.3,0.4-0.3,0.7v15.2c0,3.8,3,6.9,6.8,6.9h4
							c3.5,0,6.3-2.9,6.3-6.5c0-4.7,0.6-15.3,0.6-15.4c0-0.3-0.1-0.5-0.3-0.7C242.2,457.8,241.9,457.6,241.7,457.6z M240.1,474.1
							c0,2.5-2,4.6-4.4,4.6h-4c-2.7,0-4.9-2.3-4.9-5v-14.2l13.8,0.2C240.5,462.3,240.1,470.2,240.1,474.1z"/>
					</g>
					<g>
						<path class="st3" d="M236.1,458.3L236.1,458.3c-2.5,0-4.6,2.1-4.6,4.7v9.3l9.5,2.9v-11.8C241,460.6,238.8,458.3,236.1,458.3z"
							/>
						<path class="st1" d="M236.1,457.4c-3,0-5.5,2.5-5.5,5.7v9.3c0,0.5,0.4,0.9,0.9,0.9c0.5,0,1-0.4,1-0.9V463
							c0-2.1,1.6-3.8,3.6-3.8c2.2,0,4,1.8,4,4.1v11.8c0,0.5,0.4,0.9,0.9,0.9s0.9-0.4,0.9-0.9v-11.8
							C242,460.1,239.4,457.4,236.1,457.4z"/>
					</g>
				</g>
				<g>
					<path class="st2" d="M230.5,364.8c-5-7.2-13-11.4-21.5-11.4h-10.6l25.4,37.8l17.5,24.2l-15.4,43h17.6l17-36.9
						c2.4-4.1,2.7-9.6-0.5-14.2L230.5,364.8z"/>
					<path class="st1" d="M231.3,364.2c-5.1-7.4-13.5-11.8-22.3-11.8h-10.6c-0.5,0-1,0.4-1,1c0,0.5,0.4,0.9,1,0.9H209
						c8.2,0,16,4.1,20.7,11l29.4,42.6c1.4,2,2.1,4.3,2.2,6.7c0,2.3-0.6,4.5-1.7,6.4c0,0,0,0.1,0,0.1l-16.7,36.3h-15.6l15-41.7
						c0.1-0.3,0.1-0.6-0.1-0.9l-17.5-24.2c-0.3-0.4-0.9-0.5-1.3-0.2c-0.4,0.3-0.5,0.9-0.2,1.3l17.2,23.8L225,458.1
						c-0.1,0.3-0.1,0.6,0.1,0.9c0.2,0.3,0.5,0.4,0.8,0.4h17.6c0.4,0,0.7-0.2,0.9-0.6l17-36.8c1.3-2.2,2-4.8,2-7.4
						c0-2.8-0.9-5.5-2.5-7.8L231.3,364.2z"/>
				</g>
				<g>
					<path class="st1" d="M191.6,287.7c0.2,0,0.4,0,0.6,0c1.5,0,3.9,0,4.1,0H191.6z"/>
					<path class="st1" d="M192.1,287.7c-0.6,0-1,0-1.1,0c-16.1,0.6-28.4,17.5-23,33.2l2.6,10.8c0.6,2.5,2.8,4.3,5.3,4.3h32l5.5-18.6
						c2.2-7.4,0.7-15.5-4.2-21.4C205.4,291,199.3,287.9,192.1,287.7z"/>
					<path class="st4" d="M210.1,295.4c-3.3-4.1-7.8-6.9-13-8c-0.1-0.4-0.5-0.6-0.9-0.6h-4.7c0,0-0.1,0-0.1,0c-0.2,0-0.3,0-0.4,0
						c-4.1,0.1-8.1,1.3-11.7,3.4c-3.4,2-6.5,4.8-8.8,8.2c-2.2,3.3-3.8,7-4.4,10.8c-0.7,4.1-0.3,8.1,1,12l2.6,10.8
						c0.7,2.9,3.3,5,6.2,5h32c0.4,0,0.8-0.3,0.9-0.7l5.5-18.6c1.1-3.8,1.3-7.8,0.6-11.7C214.3,302,212.6,298.4,210.1,295.4z
						 M212.7,317.1l-5.3,17.9h-31.3c-2.1,0-3.9-1.5-4.4-3.6l-2.6-10.8c0,0,0-0.1,0-0.1c-2.4-7-1.3-14.7,3.1-21.1
						c4.4-6.5,11.5-10.5,19-10.8c0.1,0,0.5,0,1.1,0c6.6,0.2,12.5,3,16.5,7.9c2.3,2.8,3.8,6.1,4.5,9.7
						C213.9,309.9,213.7,313.6,212.7,317.1z"/>
				</g>
				<g>
					<path class="st3" d="M199.7,298.3h-24l-1.2,16.7v12c0,10.3,8.1,18.7,18.1,18.7l0,0c10,0,18.1-8.4,18.1-18.7v-17.4l0,0
						C210.7,303.3,205.8,298.3,199.7,298.3z"/>
					<path class="st4" d="M199.7,297.3h-24c-0.5,0-0.9,0.4-0.9,1s0.4,1,0.9,1h24c5.5,0,10,4.7,10,10.4V327c0,9.8-7.7,17.7-17.1,17.7
						s-17.1-8-17.1-17.7v-12c0-0.5-0.4-1-0.9-1s-0.9,0.4-0.9,1v12c0,10.8,8.5,19.6,19,19.6s19-8.8,19-19.6v-17.4
						C211.7,302.8,206.3,297.3,199.7,297.3z"/>
				</g>
				<g>
					<path class="st3" d="M173.1,324.3L173.1,324.3c0,2.2,1.7,4,3.9,4v-8C174.8,320.3,173.1,322.1,173.1,324.3z"/>
					<path class="st4" d="M177,321.2c0.5,0,0.9-0.4,0.9-0.9s-0.4-1-0.9-1c-2.7,0-4.8,2.2-4.8,5c0,2.7,2.2,5,4.8,5
						c0.5,0,0.9-0.4,0.9-1c0-0.5-0.4-0.9-0.9-0.9c-1.6,0-2.9-1.4-2.9-3.1C174,322.6,175.3,321.2,177,321.2z"/>
				</g>
				<g>
					<path class="st1" d="M203.6,287.7h-13.7c-8.9,0-19.6,7.5-21.5,17.1l6.2,10.2c-0.2-3.7,1.8-6.2,3.9-7.8c2.3-1.8,5.2-2.7,8.1-2.7
						h8.6c7.7,0,11.8-3.1,14-6.6C211.8,293.5,208.7,287.7,203.6,287.7z"/>
					<path class="st4" d="M203.6,286.7h-13.7c-4.6,0-9.7,1.9-14,5.1c-4.5,3.5-7.5,8-8.5,12.7c-0.1,0.5,0.2,1,0.7,1.1
						c0.5,0.1,1-0.2,1.1-0.7c0.9-4.3,3.6-8.4,7.8-11.6c4-3,8.6-4.8,12.8-4.8h13.7c2,0,3.8,1.1,4.8,2.8c1,1.9,1,4.1-0.1,5.9
						c-2.5,4.1-6.9,6.2-13.1,6.2h-8.6c-3.1,0-6.2,1-8.6,2.9c-2.9,2.2-4.4,5.2-4.3,8.6c0,0.5,0.4,0.9,0.9,0.9c0,0,0,0,0,0
						c0.5,0,0.9-0.5,0.9-1c-0.1-2.8,1.1-5.1,3.5-7c2.1-1.6,4.8-2.5,7.5-2.5h8.6c3.7,0,6.9-0.7,9.5-2.1c2.2-1.2,4-2.9,5.3-5
						c1.5-2.4,1.5-5.3,0.1-7.8C208.7,288.2,206.3,286.7,203.6,286.7z"/>
				</g>
				<g>
					<polygon class="st1" points="159.1,520.8 179.4,520.8 189.2,469.2 159.1,469.2 					"/>
					<path class="st4" d="M189.2,468.3h-30.1c-0.5,0-0.9,0.4-0.9,1v51.6c0,0.5,0.4,1,0.9,1h20.2c0.5,0,0.8-0.3,0.9-0.8l9.8-51.6
						c0.1-0.3,0-0.6-0.2-0.8C189.8,468.4,189.5,468.3,189.2,468.3z M178.6,519.9h-18.5v-49.7h28L178.6,519.9z"/>
				</g>
				<g>
					<g>
						<polygon class="st1" points="202.3,520.8 222.5,520.8 222.5,469.2 192.4,469.2 						"/>
						<path class="st1" d="M222.5,468.3h-30.1c-0.3,0-0.6,0.1-0.7,0.3c-0.2,0.2-0.3,0.5-0.2,0.8l9.8,51.6c0.1,0.4,0.5,0.8,0.9,0.8
							h20.2c0.5,0,0.9-0.4,0.9-1v-51.6C223.5,468.7,223,468.3,222.5,468.3z M221.6,519.9h-18.5l-9.5-49.7h28L221.6,519.9
							L221.6,519.9z"/>
					</g>
				</g>
				<g>
					<polygon class="st1" points="159.1,520.8 179.4,520.8 188,487.2 201.3,487.2 222.5,469.2 159.1,469.2 					"/>
					<path class="st1" d="M222.5,468.3h-63.4c-0.5,0-0.9,0.4-0.9,1v51.6c0,0.5,0.4,1,0.9,1h20.2c0.4,0,0.8-0.3,0.9-0.7l8.5-32.9
						h12.5c0.5,0,0.9-0.4,0.9-1c0-0.5-0.4-0.9-0.9-0.9H188c-0.4,0-0.8,0.3-0.9,0.7l-8.5,32.9h-18.6v-49.7h62.5
						c0.5,0,0.9-0.4,0.9-0.9C223.5,468.7,223,468.3,222.5,468.3z"/>
				</g>
			</g>
			<g>
				<path class="st1" d="M194.1,355.9c-1.1-1.1-2.9-1.1-4,0l-3,3.1c-1.1,1.1-1.1,3,0,4.1l3,3.1c1.1,1.1,2.9,1.1,4,0l3-3.1
					c1.1-1.1,1.1-3,0-4.1L194.1,355.9z"/>
				<path class="st1" d="M194.1,368c-1.1-1.1-2.9-1.1-4,0l-3,3.1c-1.1,1.1,3,44.3,3,44.3c1.1,1.1,2.9,1.1,4,0c0,0,4.1-43.2,3-44.3
					L194.1,368z"/>
			</g>
		</g>
		<g>
			<g>
				<path class="st3" d="M193.4,336.7h0.4c1.5,0,2.9-0.1,4.2-0.3l-9.4-0.1C190.1,336.6,191.7,336.7,193.4,336.7z"/>
				<path class="st4" d="M198,335.5c-1.3,0.2-2.7,0.2-4.1,0.2h-0.4c-1.6,0-3.2-0.1-4.6-0.3c-0.5-0.1-1,0.3-1.1,0.8
					c-0.1,0.5,0.3,1,0.8,1.1c1.5,0.2,3.2,0.3,4.9,0.3h0.4c1.5,0,3-0.1,4.4-0.3c0.5-0.1,0.9-0.5,0.8-1.1S198.5,335.5,198,335.5z"/>
			</g>
			<g>
				<path class="st4" d="M184.7,318.4L184.7,318.4c-0.9,0-1.7,0.7-1.7,1.6v0.2c0,0.9,0.7,1.6,1.6,1.6h0c0.9,0,1.6-0.7,1.6-1.6V320
					C186.3,319.1,185.6,318.4,184.7,318.4z"/>
				<path class="st4" d="M202.6,318.4L202.6,318.4c-0.9,0-1.7,0.7-1.7,1.6v0.2c0,0.9,0.7,1.6,1.6,1.6h0c0.9,0,1.6-0.7,1.6-1.6V320
					C204.2,319.1,203.5,318.4,202.6,318.4z"/>
			</g>
			<g>
				<path class="st3" d="M193.6,329.8L193.6,329.8c1.4,0,2.5-1.1,2.5-2.5v-12.4l-4.9,12.4C191.2,328.6,192.3,329.8,193.6,329.8z"/>
				<path class="st4" d="M196.1,313.9c-0.5,0-0.9,0.4-0.9,0.9v12.4c0,0.9-0.7,1.6-1.5,1.6s-1.5-0.7-1.5-1.6c0-0.5-0.4-1-0.9-1
					s-0.9,0.4-0.9,1c0,1.9,1.5,3.5,3.4,3.5c1.9,0,3.4-1.6,3.4-3.5v-12.4C197,314.3,196.6,313.9,196.1,313.9z"/>
			</g>
			<g>
				<path class="st2" d="M187.2,312.3h-6c-0.5,0-0.9,0.4-0.9,0.9s0.4,1,0.9,1h6c0.5,0,0.9-0.4,0.9-1S187.7,312.3,187.2,312.3z"/>
				<path class="st2" d="M206,312.3h-6c-0.5,0-0.9,0.4-0.9,0.9s0.4,1,0.9,1h6c0.5,0,0.9-0.4,0.9-1S206.5,312.3,206,312.3z"/>
			</g>
		</g>
	</g>
	<g>
		<g>
			<path class="st3" d="M269.1,366.7V356h-8.8h-8.8v10.7c0,4.3-4.4,7.9-9.9,7.9h18.7H279C273.6,374.6,269.1,371,269.1,366.7z"/>
			<path class="st1" d="M279,373.6c-4.9,0-9-3.1-9-6.9V356c0-0.5-0.4-1-1-1h-17.6c-0.5,0-0.9,0.4-0.9,1v10.7c0,3.8-4,6.9-9,6.9
				c-0.5,0-1,0.4-1,1s0.4,1,1,1H279c0.5,0,0.9-0.4,0.9-1S279.6,373.6,279,373.6z M248.3,373.6c0.3-0.2,0.6-0.4,0.9-0.6
				c2.1-1.7,3.3-3.9,3.3-6.3v-9.7h15.7v9.7c0,2.4,1.2,4.6,3.3,6.3c0.3,0.2,0.6,0.4,0.9,0.6H248.3z"/>
		</g>
		<g>
			<path class="st5" d="M278.8,370.7h-37c-8.3,0-15.3,5.7-16.7,13.2c-0.2,0.9-0.3,1.9-0.3,2.9v81.5h36.2h34.7v-81.5
				C295.8,377.9,288.2,370.7,278.8,370.7z"/>
			<path class="st4" d="M278.8,369.8h-37c-8.7,0-16.1,5.9-17.6,13.9c-0.2,1-0.3,2-0.3,3v81.5c0,0.5,0.4,1,0.9,1h70.9
				c0.5,0,1-0.4,1-1v-81.5C296.7,377.4,288.7,369.8,278.8,369.8z M294.8,467.3h-69v-80.6c0-0.9,0.1-1.8,0.3-2.7
				c1.4-7.2,8-12.4,15.8-12.4h37c8.8,0,16,6.8,16,15.1L294.8,467.3L294.8,467.3z"/>
		</g>
		<g>
			<path class="st1" d="M295.5,383.9l-18.4,54.4c2,4.5,4.7,11.7,9.7,13.8c2.5,1,6.5,2,10.4,0.5h0c7-2.8,8.5-10.5,6.9-18.1
				L295.5,383.9z"/>
			<path class="st1" d="M296.4,383.7c-0.1-0.5-0.6-0.9-1.1-0.8c-0.5,0.1-0.9,0.6-0.8,1.1l8.6,50.5c0,0,0,0,0,0
				c0.8,3.9,0.8,7.5-0.2,10.4c-1,3.2-3.1,5.5-6.1,6.6c-3.8,1.4-7.7,0.3-9.8-0.5c-4.2-1.7-6.7-7.6-8.6-11.9c-0.2-0.5-0.4-0.9-0.6-1.4
				c-0.2-0.5-0.8-0.7-1.3-0.5c-0.5,0.2-0.7,0.8-0.5,1.3c0.2,0.4,0.4,0.9,0.6,1.4c2,4.6,4.7,10.9,9.6,12.9c1.5,0.6,3.8,1.3,6.5,1.3
				c1.5,0,3-0.2,4.6-0.8c3.5-1.4,6-4.1,7.2-7.8c1-3.2,1.1-7.2,0.2-11.4L296.4,383.7z"/>
		</g>
		<g>
			<path class="st3" d="M260.8,311.6L260.8,311.6c-10.8,0-19.5,6-19.5,16.2v35c0,5.6,4.8,11.5,10.8,11.5h0c15.6,0,28.2-8,28.2-22.7
				v-23.9C280.3,317.6,271.6,311.6,260.8,311.6z"/>
			<path class="st4" d="M275.2,315.1c-3.7-2.9-8.8-4.5-14.4-4.5c-5.6,0-10.7,1.6-14.4,4.5c-4,3.1-6.1,7.5-6.1,12.6v35
				c0,3,1.2,6.1,3.4,8.5c2.3,2.6,5.2,4,8.3,4c4,0,7.8-0.5,11.2-1.5c3.5-1,6.7-2.5,9.3-4.5c5.7-4.2,8.6-10.3,8.6-17.6v-23.9
				C281.3,322.6,279.2,318.2,275.2,315.1z M279.4,351.6c0,6.7-2.7,12.2-7.9,16.1c-4.8,3.6-11.7,5.6-19.4,5.6c-2.5,0-5-1.2-6.9-3.3
				c-1.8-2.1-2.9-4.7-2.9-7.2v-35c0-4.5,1.8-8.4,5.3-11.1c3.3-2.6,8-4.1,13.2-4.1c5.2,0,9.9,1.4,13.2,4.1c3.5,2.7,5.3,6.6,5.3,11.1
				L279.4,351.6L279.4,351.6z"/>
		</g>
		<path class="st6" d="M255.3,354.7h-4.3c-5.3,0-9.6-4.2-9.6-9.2v17.3c0,5.6,4.8,11.5,10.8,11.5c15.6,0,28.2-8,28.2-22.7v-20.7
			C280.3,343.9,275.6,354.7,255.3,354.7z"/>
		<path class="st4" d="M280.3,329.9c-0.5,0-1,0.4-1,0.9v20.7c0,6.7-2.7,12.2-7.9,16.1c-4.8,3.6-11.7,5.6-19.4,5.6
			c-2.5,0-5-1.2-6.9-3.3c-1.8-2.1-2.9-4.7-2.9-7.2v-17.3c0-0.5-0.4-0.9-0.9-0.9s-0.9,0.4-0.9,0.9v17.3c0,3,1.2,6.1,3.4,8.5
			c2.3,2.6,5.2,4,8.3,4c4,0,7.8-0.5,11.2-1.5c3.5-1,6.7-2.5,9.3-4.5c5.7-4.2,8.6-10.3,8.6-17.6v-20.7
			C281.3,330.3,280.9,329.9,280.3,329.9z"/>
		<g>
			<path class="st3" d="M278.3,337.5h-1.5l-0.9,9.2h2.4c2.7,0,4.9-2.1,4.9-4.6l0,0C283.2,339.5,281,337.5,278.3,337.5z"/>
			<path class="st4" d="M282.4,338.1c-1.1-1-2.6-1.6-4.1-1.6h-1.5c-0.5,0-0.9,0.4-0.9,0.9c0,0.5,0.4,1,0.9,1h1.5
				c1.1,0,2,0.4,2.8,1.1c0.7,0.7,1.1,1.6,1.1,2.6c0,2-1.8,3.7-3.9,3.7h-2.4c-0.5,0-1,0.4-1,0.9s0.4,1,1,1h2.4c0,0,0,0,0,0
				c3.2,0,5.8-2.5,5.8-5.6C284.1,340.6,283.5,339.2,282.4,338.1z"/>
		</g>
		<path class="st4" d="M260.6,354.8c-1.1,0.6-2.5,1-4,1.1c-1.1,0-2.2-0.1-3.2-0.4c-0.5-0.1-1,0.1-1.2,0.6c-0.1,0.5,0.1,1,0.6,1.2
			c1,0.3,2.1,0.5,3.3,0.5c0.2,0,0.4,0,0.5,0c1.8-0.1,3.5-0.5,4.9-1.3c0.5-0.3,0.6-0.8,0.4-1.3C261.6,354.7,261,354.5,260.6,354.8z"
			/>
		<g>
			<g>
				<path class="st3" d="M300.7,411.3h-9.1c-3.6,0-20.2,9.9-20.2,9.9l12.5,8.5l8-2.8h11.2l-0.4-14.2L300.7,411.3z"/>
				<path class="st1" d="M303.3,411.8l-2.1-1.3c-0.2-0.1-0.3-0.2-0.5-0.2h-9.1c-0.6,0-2.5,0-11.9,5c-4.6,2.4-8.8,4.9-8.8,4.9
					c-0.5,0.3-0.6,0.9-0.3,1.3c0.3,0.5,0.9,0.6,1.3,0.3c6.3-3.8,17.3-9.7,19.7-9.7h8.8l1.4,0.9l0.3,12.8h-10.3c-0.1,0-0.2,0-0.3,0.1
					l-8,2.8c-0.5,0.2-0.8,0.7-0.6,1.2c0.1,0.4,0.5,0.6,0.9,0.6c0.1,0,0.2,0,0.3-0.1l7.8-2.8h11.1c0.3,0,0.5-0.1,0.7-0.3
					c0.2-0.2,0.3-0.4,0.3-0.7l-0.4-14.2C303.7,412.3,303.5,412,303.3,411.8z"/>
			</g>
			<g>
				<g>
					<path class="st3" d="M304.2,411.3h-8.4l4.8,3.9h3.6c1.1,0,2.1-0.9,2.1-1.9l0,0C306.3,412.2,305.4,411.3,304.2,411.3z"/>
					<path class="st1" d="M304.2,410.3h-8.4c-0.5,0-0.9,0.4-0.9,1s0.4,1,0.9,1h8.4c0.6,0,1.1,0.4,1.1,1s-0.5,1-1.1,1h-3.6
						c-0.5,0-1,0.4-1,1s0.4,1,1,1h3.6c1.7,0,3-1.3,3-2.9S305.9,410.3,304.2,410.3z"/>
				</g>
				<g>
					<path class="st3" d="M304.2,419.1h-6.6v3.9h6.6c1.1,0,2.1-0.9,2.1-1.9C306.3,419.9,305.4,419.1,304.2,419.1z"/>
					<path class="st1" d="M304.2,418.1h-6.6c-0.5,0-1,0.4-1,1c0,0.5,0.4,0.9,1,0.9h6.6c0.6,0,1.1,0.4,1.1,1c0,0.5-0.5,1-1.1,1h-6.6
						c-0.5,0-1,0.4-1,1s0.4,1,1,1h6.6c1.7,0,3-1.3,3-2.9C307.2,419.4,305.9,418.1,304.2,418.1z"/>
				</g>
				<g>
					<path class="st3" d="M303.1,423h-5.5l-5.8,3.9h11.2c1.1,0,2.1-0.9,2.1-1.9l0,0C305.2,423.8,304.2,423,303.1,423z"/>
					<path class="st1" d="M303.1,422h-5.5c-0.5,0-0.9,0.4-0.9,1s0.4,1,0.9,1h5.5c0.6,0,1.1,0.4,1.1,1s-0.5,1-1.1,1h-11.2
						c-0.5,0-1,0.4-1,0.9c0,0.5,0.4,1,1,1h11.2c1.7,0,3-1.3,3-2.9C306.1,423.3,304.8,422,303.1,422z"/>
				</g>
				<g>
					<path class="st3" d="M305.2,415.2h-7.6v3.9h7.6c1,0,1.7-0.9,1.7-1.9S306.2,415.2,305.2,415.2z"/>
					<path class="st1" d="M305.2,414.2h-7.6c-0.5,0-1,0.4-1,0.9c0,0.5,0.4,1,1,1h7.6c0.4,0,0.8,0.5,0.8,1c0,0.5-0.4,1-0.8,1h-7.6
						c-0.5,0-1,0.4-1,0.9c0,0.5,0.4,1,1,1h7.6c1.5,0,2.7-1.3,2.7-2.9C307.9,415.5,306.7,414.2,305.2,414.2z"/>
				</g>
			</g>
		</g>
		<g>
			<path class="st1" d="M216.5,434.4c-1.6,7.7-0.1,15.4,6.9,18.1h0c3.9,1.5,7.9,0.5,10.4-0.5c5.1-2,7.7-9.2,9.7-13.8l-18.4-54.4
				L216.5,434.4z"/>
			<path class="st7" d="M243.9,437.4c-0.5-0.2-1,0-1.3,0.5c-0.2,0.4-0.4,0.9-0.6,1.4c-1.9,4.3-4.4,10.2-8.6,11.9
				c-2,0.8-6,1.9-9.7,0.5c-3-1.2-5.1-3.4-6.1-6.6c-0.9-2.9-1-6.5-0.2-10.4c0,0,0,0,0,0l8.6-50.5c0.1-0.5-0.3-1-0.8-1.1
				c-0.5-0.1-1,0.3-1.1,0.8l-8.6,50.5c-0.9,4.2-0.8,8.2,0.2,11.4c1.2,3.7,3.7,6.4,7.2,7.8c1.6,0.6,3.1,0.8,4.6,0.8
				c2.7,0,5.1-0.7,6.5-1.3c4.9-2,7.7-8.3,9.6-12.9c0.2-0.5,0.4-0.9,0.6-1.4C244.6,438.2,244.4,437.6,243.9,437.4z"/>
		</g>
		<g>
			<polygon class="st1" points="233.2,433.4 233.8,452.1 290.3,428.6 282.2,413.4 			"/>
			<path class="st1" d="M283.1,413c-0.2-0.4-0.7-0.6-1.2-0.4l-49.1,20c-0.5,0.2-0.7,0.8-0.5,1.2c0.2,0.5,0.8,0.7,1.2,0.5l48.3-19.7
				l7.1,13.5l-55.5,23c-0.5,0.2-0.7,0.8-0.5,1.2c0.2,0.4,0.5,0.6,0.9,0.6c0.1,0,0.2,0,0.4-0.1l56.5-23.4c0.2-0.1,0.4-0.3,0.5-0.6
				c0.1-0.3,0.1-0.5-0.1-0.8L283.1,413z"/>
		</g>
		<g>
			<g>
				<path class="st3" d="M222.8,411.3l-2.1,1.3l-0.4,14.2h11.2l8,2.8l12.5-8.5c0,0-16.6-9.9-20.2-9.9H222.8z"/>
				<path class="st4" d="M252.6,420.3c0,0-4.2-2.5-8.8-4.9c-9.4-5-11.3-5-11.9-5h-9.1c-0.2,0-0.4,0.1-0.5,0.2l-2.1,1.3
					c-0.3,0.2-0.4,0.5-0.4,0.8l-0.4,14.2c0,0.3,0.1,0.5,0.3,0.7c0.2,0.2,0.4,0.3,0.7,0.3h11.1l7.8,2.8c0.1,0,0.2,0.1,0.3,0.1
					c0.4,0,0.8-0.2,0.9-0.6c0.2-0.5-0.1-1-0.6-1.2l-8-2.8c-0.1,0-0.2-0.1-0.3-0.1h-10.3l0.3-12.8l1.4-0.9h8.8c2.4,0,13.4,6,19.7,9.7
					c0.5,0.3,1,0.1,1.3-0.3C253.2,421.2,253.1,420.6,252.6,420.3z"/>
			</g>
			<g>
				<g>
					<path class="st3" d="M217.2,413.2L217.2,413.2c0,1.1,0.9,1.9,2.1,1.9h3.6l4.8-3.9h-8.4C218.1,411.3,217.2,412.2,217.2,413.2z"
						/>
					<path class="st4" d="M227.7,410.3h-8.4c-1.7,0-3,1.3-3,2.9s1.4,2.9,3,2.9h3.6c0.5,0,0.9-0.4,0.9-1s-0.4-1-0.9-1h-3.6
						c-0.6,0-1.1-0.4-1.1-1s0.5-1,1.1-1h8.4c0.5,0,0.9-0.4,0.9-1S228.3,410.3,227.7,410.3z"/>
				</g>
				<g>
					<path class="st3" d="M217.2,421c0,1.1,0.9,1.9,2.1,1.9h6.6v-3.9h-6.6C218.1,419.1,217.2,419.9,217.2,421z"/>
					<path class="st4" d="M219.3,420h6.6c0.5,0,0.9-0.4,0.9-0.9c0-0.5-0.4-1-0.9-1h-6.6c-1.7,0-3,1.3-3,2.9s1.4,2.9,3,2.9h6.6
						c0.5,0,0.9-0.4,0.9-1s-0.4-1-0.9-1h-6.6c-0.6,0-1.1-0.4-1.1-1C218.2,420.5,218.7,420,219.3,420z"/>
				</g>
				<g>
					<path class="st3" d="M220.4,423c-1.1,0-2.1,0.9-2.1,1.9l0,0c0,1.1,0.9,1.9,2.1,1.9h11.2l-5.8-3.9L220.4,423L220.4,423z"/>
					<path class="st4" d="M231.6,425.9h-11.2c-0.6,0-1.1-0.4-1.1-1c0-0.5,0.5-1,1.1-1h5.5c0.5,0,0.9-0.4,0.9-1
						c0-0.5-0.4-0.9-0.9-0.9h-5.5c-1.7,0-3,1.3-3,2.9c0,1.6,1.4,2.9,3,2.9h11.2c0.5,0,0.9-0.4,0.9-1
						C232.6,426.3,232.2,425.9,231.6,425.9z"/>
				</g>
				<g>
					<path class="st3" d="M216.5,417.1c0,1.1,0.8,1.9,1.7,1.9h7.6v-3.9h-7.6C217.3,415.2,216.5,416.1,216.5,417.1z"/>
					<path class="st4" d="M218.3,416.1h7.6c0.5,0,0.9-0.4,0.9-1c0-0.5-0.4-0.9-0.9-0.9h-7.6c-1.5,0-2.7,1.3-2.7,2.9
						c0,1.6,1.2,2.9,2.7,2.9h7.6c0.5,0,0.9-0.4,0.9-1c0-0.5-0.4-0.9-0.9-0.9h-7.6c-0.4,0-0.8-0.5-0.8-1
						C217.5,416.6,217.8,416.1,218.3,416.1z"/>
				</g>
			</g>
		</g>
		<g>
			<polygon class="st1" points="235.8,430.2 286.8,452.1 287.5,433.4 243.9,415 			"/>
			<path class="st4" d="M287.8,432.5l-43.6-18.4c-0.5-0.2-1,0-1.2,0.4l-8,15.2c-0.1,0.2-0.1,0.5-0.1,0.8c0.1,0.3,0.3,0.5,0.5,0.6
				l51,21.9c0.1,0.1,0.2,0.1,0.4,0.1c0.4,0,0.7-0.2,0.9-0.6c0.2-0.5,0-1-0.5-1.2l-50.1-21.5l7.1-13.5l42.8,18.1c0.5,0.2,1,0,1.2-0.5
				C288.5,433.3,288.3,432.7,287.8,432.5z"/>
		</g>
		<path class="st4" d="M240.4,398c-0.5-0.1-1,0.2-1.1,0.8l-2.7,13.8c-0.1,0.5,0.2,1,0.8,1.1c0.1,0,0.1,0,0.2,0
			c0.4,0,0.8-0.3,0.9-0.8l2.7-13.8C241.3,398.6,240.9,398.1,240.4,398z"/>
		<path class="st1" d="M283,399c-0.1-0.5-0.6-0.9-1.1-0.8c-0.5,0.1-0.9,0.6-0.8,1.1l2.7,13.8c0.1,0.5,0.5,0.8,0.9,0.8
			c0.1,0,0.1,0,0.2,0c0.5-0.1,0.9-0.6,0.8-1.1L283,399z"/>
		<g>
			<g>
				<path class="st4" d="M246.7,337.3L246.7,337.3c-1,0-1.7,0.7-1.7,1.6c0,0.9,0.7,1.6,1.6,1.6h0.1c0.9,0,1.6-0.7,1.6-1.6
					C248.3,338,247.6,337.3,246.7,337.3z"/>
				<path class="st4" d="M265.1,337.3L265.1,337.3c-1,0-1.7,0.7-1.7,1.6c0,0.9,0.7,1.6,1.6,1.6h0.1c0.9,0,1.6-0.7,1.6-1.6
					C266.8,338,266,337.3,265.1,337.3z"/>
			</g>
			<g>
				<path class="st8" d="M251.5,332.4h-6.2c-0.5,0-0.9,0.4-0.9,0.9s0.4,1,0.9,1h6.2c0.5,0,0.9-0.4,0.9-1S252.1,332.4,251.5,332.4z"
					/>
				<path class="st8" d="M269.6,332.4h-6.1c-0.5,0-1,0.4-1,0.9s0.4,1,1,1h6.1c0.5,0,1-0.4,1-1S270.1,332.4,269.6,332.4z"/>
			</g>
		</g>
		<path class="st4" d="M257,348.5h-2c-1.4,0-2.5-1-2.5-2.3v-12.8c0-0.5-0.4-1-0.9-1s-0.9,0.4-0.9,1v12.8c0,2.3,2,4.2,4.4,4.2h2
			c0.5,0,1-0.4,1-1S257.5,348.5,257,348.5z"/>
	</g>
	<g>
		<g>
			<path class="st0" d="M106.6,377.7L106.6,377.7c-15.7,0-28.4,12.7-28.4,28.4v48h56.8v-48C134.9,390.4,122.2,377.7,106.6,377.7z"/>
			<path class="st4" d="M106.6,376.7c-7.8,0-15.2,3.1-20.7,8.6c-5.5,5.5-8.6,12.9-8.6,20.7v48c0,0.5,0.4,0.9,0.9,0.9h56.8
				c0.5,0,1-0.4,1-0.9v-48c0-7.8-3.1-15.2-8.6-20.7C121.8,379.8,114.4,376.7,106.6,376.7z M134,453.1H79.1v-47
				c0-7.3,2.9-14.2,8-19.4c5.2-5.2,12.1-8,19.4-8c7.3,0,14.2,2.9,19.4,8c5.2,5.2,8,12.1,8,19.4V453.1z"/>
		</g>
		<g>
			<path class="st1" d="M125.1,447.5H88.3c-7.8,0-14.1,6.3-14.1,14.1v72.6h65v-72.6C139.2,453.8,132.9,447.5,125.1,447.5z"/>
			<path class="st4" d="M125.1,446.5H88.3c-8.3,0-15,6.7-15,15v72.6c0,0.5,0.4,1,0.9,1h65c0.5,0,0.9-0.4,0.9-1v-72.6
				C140.1,453.3,133.4,446.5,125.1,446.5z M138.2,533.2H75.1v-71.7c0-7.2,5.9-13.1,13.1-13.1h36.8c7.2,0,13.1,5.9,13.1,13.1V533.2z"
				/>
		</g>
		<g>
			<rect x="98.1" y="432.1" class="st3" width="16.9" height="15.4"/>
			<path class="st4" d="M114.9,431.1H98.1c-0.5,0-0.9,0.4-0.9,0.9v15.4c0,0.5,0.4,0.9,0.9,0.9h16.9c0.5,0,1-0.4,1-0.9v-15.4
				C115.9,431.6,115.4,431.1,114.9,431.1z M114,446.5H99V433h15V446.5z"/>
		</g>
		<g>
			<path class="st1" d="M66.3,459l-37.2,54.6c-5.9,8.6,0,20.5,10.1,20.5l0,0L82.9,470l15.4-22.6H87.7
				C79.2,447.5,71.3,451.8,66.3,459z"/>
			<path class="st4" d="M98.3,446.5H87.7c-8.8,0-17.1,4.5-22.2,12l-37.2,54.6c-3,4.4-3.3,10.1-0.8,14.8c2.4,4.5,6.7,7.2,11.7,7.2
				c0.3,0,0.6-0.2,0.8-0.4l43.7-64.1c0.3-0.4,0.2-1-0.3-1.3c-0.4-0.3-1-0.2-1.3,0.3l-43.4,63.7c-4-0.2-7.5-2.5-9.5-6.2
				c-2.2-4.1-1.9-9.1,0.7-12.9l37.2-54.6c4.8-7,12.5-11.1,20.6-11.1h10.5c0.5,0,1-0.4,1-1C99.2,446.9,98.8,446.5,98.3,446.5z"/>
		</g>
		<path class="st1" d="M108.4,410.1H107c-0.5,0-0.9,0.4-0.9,0.9c0,0.5,0.4,1,0.9,1h1.5c0.5,0,0.9-0.4,0.9-1
			C109.4,410.5,109,410.1,108.4,410.1z"/>
		<path class="st1" d="M121.2,410.1h-1.5c-0.5,0-1,0.4-1,0.9c0,0.5,0.4,1,1,1h1.5c0.5,0,0.9-0.4,0.9-1
			C122.2,410.5,121.8,410.1,121.2,410.1z"/>
		<path class="st1" d="M116.6,434.3h-6.9c-0.5,0-0.9,0.4-0.9,1c0,0.5,0.4,0.9,0.9,0.9h6.9c0.5,0,1-0.4,1-0.9
			C117.5,434.7,117.1,434.3,116.6,434.3z"/>
		<g>
			<path class="st3" d="M89.2,421c0,10.4,8.1,18.9,18,18.9l0,0c9.9,0,18-8.5,18-18.9v-17.6l-36,5.4V421z"/>
			<path class="st4" d="M125.3,402.5c-0.5,0-1,0.4-1,1V421c0,9.9-7.7,17.9-17.1,17.9s-17.1-8-17.1-17.9v-12.2c0-0.5-0.4-0.9-0.9-0.9
				s-0.9,0.4-0.9,0.9V421c0,10.9,8.5,19.8,19,19.8s19-8.9,19-19.8v-17.6C126.2,402.9,125.8,402.5,125.3,402.5z"/>
		</g>
		<polygon class="st3" points="110.6,396.2 108,400.6 99.1,406.6 89.2,408.8 125.3,403.4 114.3,399.3 		"/>
		<g>
			<path class="st0" d="M90,408.8L90,408.8c9.6,0,17.7-6.3,20.9-15.2l-24,15C87.9,408.8,88.9,408.8,90,408.8z"/>
			<path class="st4" d="M111.2,392.7c-0.5-0.2-1,0.1-1.2,0.6c-1.5,4.2-4.2,7.9-7.7,10.5c-3.6,2.7-7.8,4.1-12.3,4.1c-1,0-2-0.1-3-0.2
				c-0.5-0.1-1,0.3-1.1,0.8c-0.1,0.5,0.3,1,0.8,1.1c1.1,0.2,2.2,0.2,3.2,0.2c4.8,0,9.5-1.5,13.4-4.5c3.8-2.8,6.7-6.8,8.4-11.4
				C111.9,393.5,111.7,392.9,111.2,392.7z"/>
		</g>
		<g>
			<path class="st0" d="M126.8,403.3l-18.2-14.8C110.8,397.3,118.3,403.3,126.8,403.3z"/>
			<path class="st4" d="M126.8,402.4C126.8,402.4,126.8,402.4,126.8,402.4c-3.9,0-7.8-1.4-10.9-3.9c-3.1-2.5-5.4-6.1-6.4-10.2
				c-0.1-0.5-0.6-0.8-1.1-0.7c-0.5,0.1-0.8,0.6-0.7,1.1c1.1,4.4,3.6,8.4,7,11.2c3.4,2.8,7.7,4.3,12,4.3c0,0,0,0,0,0
				c0.5,0,0.9-0.4,0.9-1C127.7,402.8,127.3,402.4,126.8,402.4z"/>
		</g>
		<g>
			<path class="st1" d="M146.9,459c-4.9-7.3-12.9-11.6-21.4-11.6h-10.5l24.1,35.4l34.9,51.3l0,0c10.1,0,15.9-11.9,10.1-20.5
				L146.9,459z"/>
			<path class="st4" d="M147.7,458.5c-5.1-7.5-13.4-12-22.2-12h-10.5c-0.5,0-1,0.4-1,1c0,0.5,0.4,0.9,1,0.9h10.5
				c8.2,0,15.9,4.2,20.6,11.1l37.2,54.6c2.6,3.8,2.9,8.8,0.7,12.9c-2,3.7-5.5,6-9.5,6.2l-34.6-50.8l-1.6,1.1l34.9,51.3
				c0.2,0.3,0.5,0.4,0.8,0.4c4.9,0,9.3-2.7,11.7-7.2c2.5-4.7,2.2-10.4-0.8-14.8L147.7,458.5z"/>
		</g>
		<g>
			<polygon class="st1" points="148.8,513.6 148.8,534.1 174.8,534.1 163.9,513.7 			"/>
			<path class="st4" d="M174.8,533.2h-25v-18.6l14.1,0.1c0,0,0,0,0,0c0.5,0,0.9-0.4,0.9-0.9c0-0.5-0.4-1-0.9-1l-15.1-0.1
				c-0.3,0-0.5,0.1-0.7,0.3c-0.2,0.2-0.3,0.4-0.3,0.7v20.5c0,0.5,0.4,1,1,1h25.9c0.5,0,0.9-0.4,0.9-1
				C175.7,533.6,175.3,533.2,174.8,533.2z"/>
		</g>
		<g>
			<g>
				<path class="st4" d="M110.1,413.6c-0.2-0.5-0.7-0.8-1.2-0.6c-0.5,0.2-0.8,0.7-0.6,1.2l3.1,9.6c0.2,0.6,0,1.2-0.2,1.5
					c0,0.1-0.2,0.2-0.3,0.2h-1.8c-0.5,0-0.9,0.4-0.9,1c0,0.5,0.4,0.9,0.9,0.9h1.8c0.7,0,1.4-0.4,1.8-1c0.6-0.9,0.8-2.1,0.4-3.2
					L110.1,413.6z"/>
			</g>
			<path class="st4" d="M110.2,430.8c-0.9,0.3-1.8,0.5-2.8,0.5c-1.3,0-2.6-0.3-3.7-0.8c-0.5-0.2-1-0.1-1.3,0.4
				c-0.2,0.5-0.1,1,0.4,1.3c1.3,0.7,2.9,1.1,4.6,1.1c1.2,0,2.4-0.2,3.5-0.6c0.5-0.2,0.7-0.7,0.6-1.2
				C111.3,430.9,110.7,430.6,110.2,430.8z"/>
		</g>
		<path class="st4" d="M117.7,409.6c-3.2,0-5.7,2.6-5.7,5.7s2.6,5.7,5.7,5.7s5.7-2.6,5.7-5.7S120.8,409.6,117.7,409.6z M117.7,419.2
			c-2.1,0-3.8-1.7-3.8-3.8s1.7-3.8,3.8-3.8c2.1,0,3.8,1.7,3.8,3.8S119.8,419.2,117.7,419.2z"/>
		<path class="st4" d="M100.2,409.6c-3.2,0-5.7,2.6-5.7,5.7s2.6,5.7,5.7,5.7s5.7-2.6,5.7-5.7S103.3,409.6,100.2,409.6z M100.2,419.2
			c-2.1,0-3.8-1.7-3.8-3.8s1.7-3.8,3.8-3.8c2.1,0,3.8,1.7,3.8,3.8S102.3,419.2,100.2,419.2z"/>
		<path class="st4" d="M95.4,414.4h-6.2c-0.5,0-0.9,0.4-0.9,1c0,0.5,0.4,0.9,0.9,0.9h6.2c0.5,0,1-0.4,1-0.9
			C96.3,414.8,95.9,414.4,95.4,414.4z"/>
		<path class="st4" d="M113.1,412.9H105c-0.5,0-0.9,0.4-0.9,1c0,0.5,0.4,0.9,0.9,0.9h8.1c0.5,0,1-0.4,1-0.9
			C114,413.3,113.6,412.9,113.1,412.9z"/>
		<g>
			<path class="st4" d="M102.3,414.4c-1.7-0.8-3.6-0.1-3.8,0c-0.5,0.2-0.7,0.8-0.5,1.2c0.1,0.4,0.5,0.6,0.9,0.6c0.1,0,0.2,0,0.4-0.1
				c0.3-0.1,1.5-0.5,2.3-0.1c0.5,0.2,1,0,1.3-0.4C103,415.2,102.8,414.7,102.3,414.4z"/>
			<path class="st4" d="M120.1,414.5c-0.2-0.1-2.2-0.8-3.8,0c-0.5,0.2-0.7,0.8-0.4,1.3c0.2,0.5,0.8,0.7,1.3,0.4
				c0.8-0.4,1.9-0.1,2.3,0.1c0.1,0,0.2,0.1,0.4,0.1c0.4,0,0.7-0.2,0.9-0.6C120.8,415.2,120.6,414.7,120.1,414.5z"/>
		</g>
		<g>
			<g>
				<polygon class="st3" points="90.8,534.1 107.4,534.1 110.5,501.5 87.8,501.5 				"/>
				<path class="st4" d="M110.5,500.6H87.8c-0.3,0-0.5,0.1-0.7,0.3c-0.2,0.2-0.3,0.5-0.2,0.7l3,32.6c0,0.5,0.5,0.9,0.9,0.9h16.6
					c0.5,0,0.9-0.4,0.9-0.9l3-32.6c0-0.3-0.1-0.5-0.2-0.7C111,500.7,110.7,500.6,110.5,500.6z M106.6,533.2H91.7l-2.9-30.7h20.6
					L106.6,533.2z"/>
			</g>
			<g>
				<polygon class="st3" points="90.7,497.4 87.8,501.5 110.5,501.5 108,497.4 				"/>
				<path class="st4" d="M108.8,496.9c-0.2-0.3-0.5-0.5-0.8-0.5H90.7c-0.3,0-0.6,0.1-0.8,0.4L87,501c-0.2,0.3-0.2,0.7-0.1,1
					c0.2,0.3,0.5,0.5,0.8,0.5h22.7c0.3,0,0.7-0.2,0.8-0.5c0.2-0.3,0.2-0.7,0-1L108.8,496.9z M89.6,500.6l1.6-2.2h16.2l1.3,2.2H89.6z
					"/>
			</g>
			<path class="st1" d="M99.1,509c-4,0-7.3,3.3-7.3,7.3s3.3,7.3,7.3,7.3c4,0,7.3-3.3,7.3-7.3S103.1,509,99.1,509z M99.1,521.6
				c-3,0-5.4-2.4-5.4-5.4s2.4-5.4,5.4-5.4c3,0,5.4,2.4,5.4,5.4S102.1,521.6,99.1,521.6z"/>
		</g>
		<g>
			<g>
				<path class="st3" d="M95.4,515.9H84.7c-4.2,0-15.1,1.4-15.1,1.4l5.4,16.8h10h13.2l-0.4-16.7L95.4,515.9z"/>
				<path class="st4" d="M98.3,516.7l-2.4-1.5c-0.2-0.1-0.3-0.2-0.5-0.2H84.7c-4.2,0-14.8,1.3-15.2,1.4c-0.5,0.1-0.9,0.5-0.8,1.1
					s0.5,0.9,1.1,0.8c0.1,0,10.9-1.4,15-1.4h10.4l1.8,1.1l0.4,15.2H75c-0.5,0-1,0.4-1,1c0,0.5,0.4,0.9,1,0.9h23.2
					c0.3,0,0.5-0.1,0.7-0.3c0.2-0.2,0.3-0.4,0.3-0.7l-0.4-16.7C98.7,517.1,98.6,516.8,98.3,516.7z"/>
			</g>
			<g>
				<g>
					<path class="st3" d="M99.5,515.9h-9.9l5.6,4.6h4.2c1.3,0,2.4-1,2.4-2.3l0,0C101.9,516.9,100.9,515.9,99.5,515.9z"/>
					<path class="st4" d="M99.5,515h-9.9c-0.5,0-0.9,0.4-0.9,1s0.4,1,0.9,1h9.9c0.8,0,1.5,0.6,1.5,1.3c0,0.7-0.7,1.3-1.5,1.3h-4.2
						c-0.5,0-0.9,0.4-0.9,1c0,0.5,0.4,0.9,0.9,0.9h4.2c1.9,0,3.4-1.4,3.4-3.2S101.4,515,99.5,515z"/>
				</g>
				<g>
					<path class="st3" d="M99.5,525h-7.7v4.6h7.7c1.3,0,2.4-1,2.4-2.3l0,0C101.9,526.1,100.9,525,99.5,525z"/>
					<path class="st4" d="M99.5,524.1h-7.7c-0.5,0-0.9,0.4-0.9,1s0.4,1,0.9,1h7.7c0.8,0,1.5,0.6,1.5,1.3c0,0.7-0.7,1.3-1.5,1.3h-7.7
						c-0.5,0-0.9,0.4-0.9,1c0,0.5,0.4,0.9,0.9,0.9h7.7c1.9,0,3.4-1.4,3.4-3.2C102.9,525.5,101.4,524.1,99.5,524.1z"/>
				</g>
				<g>
					<path class="st3" d="M98.2,529.6h-6.4l-6.8,4.6h13.2c1.3,0,2.4-1,2.4-2.3C100.6,530.6,99.5,529.6,98.2,529.6z"/>
					<path class="st4" d="M98.2,528.6h-6.4c-0.5,0-0.9,0.4-0.9,1s0.4,1,0.9,1h6.4c0.8,0,1.5,0.6,1.5,1.3s-0.7,1.3-1.5,1.3H85.1
						c-0.5,0-0.9,0.4-0.9,1s0.4,1,0.9,1h13.2c1.9,0,3.4-1.4,3.4-3.2C101.6,530.1,100.1,528.6,98.2,528.6z"/>
				</g>
				<g>
					<path class="st3" d="M100.7,520.5h-8.9v4.6h8.9c1.1,0,2-1,2-2.3l0,0C102.8,521.5,101.8,520.5,100.7,520.5z"/>
					<path class="st4" d="M100.7,519.5h-8.9c-0.5,0-0.9,0.4-0.9,1s0.4,1,0.9,1h8.9c0.6,0,1.1,0.6,1.1,1.3c0,0.7-0.5,1.3-1.1,1.3
						h-8.9c-0.5,0-0.9,0.4-0.9,0.9c0,0.5,0.4,1,0.9,1h8.9c1.6,0,3-1.4,3-3.2C103.7,521,102.4,519.5,100.7,519.5z"/>
				</g>
			</g>
		</g>
		<g>
			<polygon class="st1" points="36.3,534.1 83,534.1 83,513.6 49.3,513.7 			"/>
			<path class="st4" d="M83,512.7C83,512.7,83,512.7,83,512.7l-33.7,0.1c-0.5,0-0.9,0.4-0.9,1c0,0.5,0.4,0.9,0.9,0.9c0,0,0,0,0,0
				l32.7-0.1v18.6H36.3c-0.5,0-1,0.4-1,1c0,0.5,0.4,0.9,1,0.9H83c0.5,0,1-0.4,1-0.9v-20.5c0-0.3-0.1-0.5-0.3-0.7
				C83.5,512.8,83.2,512.7,83,512.7z"/>
		</g>
	</g>
	<path class="st4" d="M394.4,533.2H11.6c-0.5,0-0.9,0.4-0.9,0.9c0,0.5,0.4,1,0.9,1h382.9c0.5,0,0.9-0.4,0.9-1
		C395.4,533.6,395,533.2,394.4,533.2z"/>
	<g>
		<g>
			<path class="st3" d="M198.5,435.9v-12.1h-9.4h-9.4v12.1c0,4.9-4.7,8.9-10.5,8.9h19.9h19.9C203.2,444.8,198.5,440.8,198.5,435.9z"
				/>
			<path class="st4" d="M209.1,443.9c-5.3,0-9.6-3.6-9.6-7.9v-12.1c0-0.5-0.4-1-0.9-1h-18.8c-0.5,0-0.9,0.4-0.9,1v12.1
				c0,4.4-4.3,7.9-9.6,7.9c-0.5,0-0.9,0.4-0.9,0.9c0,0.5,0.4,1,0.9,1h39.9c0.5,0,0.9-0.4,0.9-1C210,444.3,209.6,443.9,209.1,443.9z
				 M176,443.9c2.9-1.8,4.7-4.7,4.7-7.9v-11.1h16.9v11.1c0,3.2,1.9,6.1,4.7,7.9H176z"/>
		</g>
		<g>
			<g>
				<path class="st2" d="M208.8,440.5h-39.4c-7.1,0-13.2,4.1-16.2,10c-1.2,2.4-1.9,5.2-1.9,8.1v75.6h75.5v-75.6c0-3-0.7-5.9-2-8.4
					C221.8,444.4,215.8,440.5,208.8,440.5z"/>
				<path class="st4" d="M208.8,439.6h-39.4c-3.6,0-7.1,1-10.1,2.9c-2.9,1.9-5.3,4.5-6.9,7.6c-1.3,2.6-2,5.5-2,8.5v75.6
					c0,0.5,0.4,1,0.9,1h75.5c0.5,0,0.9-0.4,0.9-1v-75.6c0-3.1-0.7-6.1-2.2-8.8C222.4,443.5,215.9,439.6,208.8,439.6z M225.9,533.2
					h-73.6v-74.6c0-2.7,0.6-5.3,1.8-7.6c1.4-2.8,3.5-5.2,6.2-6.8c2.7-1.7,5.9-2.6,9.1-2.6h39.4c6.4,0,12.2,3.5,15.2,9.2
					c1.3,2.4,1.9,5.2,1.9,7.9L225.9,533.2L225.9,533.2z"/>
			</g>
		</g>
		<g>
			<path class="st0" d="M203.4,371.6h-28.4c-5.1,0-9.2,4.1-9.2,9.2v28.6h46.8v-28.6C212.6,375.8,208.5,371.6,203.4,371.6z"/>
			<path class="st4" d="M203.4,370.7h-28.4c-5.6,0-10.1,4.6-10.1,10.1v28.6c0,0.5,0.4,0.9,0.9,0.9h46.8c0.5,0,0.9-0.4,0.9-0.9v-28.6
				C213.5,375.2,209,370.7,203.4,370.7z M211.6,408.5h-44.9v-27.7c0-4.5,3.7-8.2,8.2-8.2h28.4c4.5,0,8.2,3.7,8.2,8.2L211.6,408.5
				L211.6,408.5z"/>
		</g>
		<g>
			<g>
				<path class="st3" d="M173.8,397.6h-5.9c-2.4,0-4.6,1.9-4.3,4.4l1.1,6.9c0.4,2.6,1.9,4.4,4.3,4.4h5.9c0.3,0,0.5-0.2,0.5-0.5
					l-1.1-14.8C174.3,397.9,174.1,397.6,173.8,397.6z"/>
				<path class="st4" d="M175.2,398.1c0-0.8-0.6-1.4-1.4-1.4h-5.9c-1.6,0-3.1,0.7-4.1,1.8c-0.9,1-1.3,2.3-1.1,3.6c0,0,0,0,0,0
					l1.1,6.9c0.5,3.2,2.5,5.2,5.2,5.2h5.9c0.8,0,1.4-0.6,1.4-1.4c0,0,0,0,0-0.1L175.2,398.1z M169.1,412.4c-1.8,0-3-1.3-3.3-3.6
					c0,0,0,0,0,0l-1.1-6.9c-0.1-1,0.3-1.7,0.7-2.1c0.7-0.7,1.6-1.2,2.7-1.2h5.5l1.1,13.8H169.1z"/>
			</g>
			<g>
				<path class="st3" d="M210.4,397.6h-5.9c-0.3,0-0.5,0.2-0.5,0.5l-1.1,14.8c0,0.3,0.2,0.5,0.5,0.5h5.9c2.4,0,3.9-1.8,4.3-4.4
					l1.1-6.9C215,399.6,212.8,397.6,210.4,397.6z"/>
				<path class="st4" d="M210.4,396.7h-5.9c-0.8,0-1.4,0.6-1.4,1.4l-1.1,14.7c0,0,0,0,0,0.1c0,0.8,0.6,1.4,1.4,1.4h5.9
					c2.7,0,4.7-2,5.2-5.2l1.1-6.9c0,0,0,0,0,0c0.2-1.3-0.2-2.6-1.1-3.6C213.5,397.4,211.9,396.7,210.4,396.7z M213.7,401.9l-1.1,6.9
					c0,0,0,0,0,0c-0.3,2.2-1.6,3.6-3.3,3.6h-5.4l1.1-13.8h5.5c1,0,2,0.4,2.7,1.2C213.4,400.2,213.9,400.9,213.7,401.9z"/>
			</g>
		</g>
		<g>
			<path class="st3" d="M199.8,380.9h-13.3h-8c-5,0-9.1,4.1-9.1,9.1v20.6c0,12,8.7,22.9,19.3,22.9h0.8c10.6,0,19.3-10.9,19.3-22.9
				V390l0,0C208.9,385,204.8,380.9,199.8,380.9z"/>
			<path class="st4" d="M199.8,380h-21.3c-5.5,0-10,4.5-10,10v20.6c0,6,2.1,12.1,5.9,16.6c1.9,2.3,4,4,6.4,5.3c2.5,1.3,5.2,2,7.9,2
				h0.8c2.7,0,5.4-0.7,7.9-2c2.4-1.3,4.6-3,6.4-5.3c3.7-4.5,5.9-10.6,5.9-16.6V390C209.8,384.5,205.3,380,199.8,380z M207.9,410.6
				c0,5.6-2,11.2-5.5,15.4c-3.5,4.3-8.1,6.6-12.9,6.6h-0.8c-4.8,0-9.4-2.3-12.9-6.6c-3.5-4.2-5.5-9.8-5.5-15.4V390
				c0-4.5,3.6-8.1,8.1-8.1h21.3c4.5,0,8.1,3.6,8.1,8.1V410.6z"/>
		</g>
		<path class="st4" d="M193.8,422.2c-1.4,0.7-2.9,1.1-4.4,1.1h-0.5c-1.7,0-3.3-0.5-4.9-1.4c-0.5-0.3-1-0.1-1.3,0.3
			c-0.3,0.5-0.1,1,0.3,1.3c1.8,1.1,3.8,1.7,5.8,1.7h0.5c1.8,0,3.6-0.4,5.2-1.3c0.5-0.2,0.6-0.8,0.4-1.3
			C194.8,422.2,194.2,422,193.8,422.2z"/>
		<g>
			<path class="st4" d="M179.1,404.7c-1,0-1.8,0.8-1.8,1.8c0,1,0.8,1.8,1.8,1.8c1,0,1.8-0.8,1.8-1.8
				C180.9,405.6,180.1,404.7,179.1,404.7z"/>
			<path class="st4" d="M199.3,404.7L199.3,404.7c-1,0-1.8,0.8-1.8,1.8c0,1,0.8,1.8,1.8,1.8l0,0c1,0,1.8-0.8,1.8-1.8
				C201.1,405.6,200.3,404.7,199.3,404.7z"/>
		</g>
		<path class="st4" d="M191.9,399.9c-0.5,0-0.9,0.4-0.9,0.9v13.6c0,1-0.8,1.8-1.8,1.8s-1.8-0.8-1.8-1.8c0-0.5-0.4-0.9-0.9-0.9
			s-0.9,0.4-0.9,0.9c0,2,1.7,3.7,3.7,3.7c2,0,3.7-1.7,3.7-3.7v-13.6C192.9,400.3,192.5,399.9,191.9,399.9z"/>
		<g>
			<path class="st2" d="M182,398.2h-6.7c-0.5,0-0.9,0.4-0.9,0.9c0,0.5,0.4,1,0.9,1h6.7c0.5,0,0.9-0.4,0.9-1
				C182.9,398.6,182.5,398.2,182,398.2z"/>
			<path class="st2" d="M203.1,398.2h-6.7c-0.5,0-0.9,0.4-0.9,0.9c0,0.5,0.4,1,0.9,1h6.7c0.5,0,0.9-0.4,0.9-1
				C204,398.6,203.6,398.2,203.1,398.2z"/>
		</g>
		<g>
			<path class="st0" d="M200.7,368.8h-23.5c0,0-0.9,12.2,9.3,12.2H197c7,0,11.9,5.6,11.9,9.1l3.7,0.1v-9.2
				C212.6,373.3,205.7,368.8,200.7,368.8z"/>
			<path class="st4" d="M200.7,367.8h-23.5c-0.5,0-0.9,0.4-0.9,0.9c0,0.3-0.5,6.5,3.1,10.3c1.8,1.9,4.1,2.9,7.1,2.9H197
				c2.9,0,5.7,1.1,7.9,3c1.8,1.6,3,3.6,3,5.1c0,0.5,0.4,0.9,0.9,0.9s0.9-0.4,0.9-0.9c0-4-5.4-10-12.8-10h-10.6
				c-2.4,0-4.3-0.8-5.7-2.2c-2.3-2.4-2.6-6.3-2.6-8h22.6c2.7,0,5.7,1.3,7.8,3.5c1.5,1.5,3.2,4,3.2,7.6v9.2c0,0.5,0.4,0.9,0.9,0.9
				s0.9-0.4,0.9-0.9v-9.2c0-4.3-2-7.3-3.7-9C207.3,369.4,203.8,367.8,200.7,367.8z"/>
		</g>
		<g>
			<circle class="st2" cx="177.1" cy="415.5" r="2.6"/>
			<circle class="st2" cx="201.2" cy="415.5" r="2.6"/>
		</g>
		<g>
			<polygon class="st3" points="175.8,516.9 161.6,517 170.2,534 188.7,534 180.5,524.3 			"/>
			<path class="st4" d="M181.3,523.8l-4.7-7.4c-0.2-0.3-0.5-0.4-0.8-0.4l-14.2,0.1c-0.3,0-0.6,0.2-0.8,0.5c-0.2,0.3-0.2,0.6,0,0.9
				l8.6,17c0.2,0.3,0.5,0.5,0.8,0.5h18.5c0.4,0,0.7-0.2,0.9-0.6c0.2-0.3,0.1-0.7-0.1-1L181.3,523.8z M170.8,533l-7.6-15.1l12.1-0.1
				l4.5,7c0,0,0,0.1,0.1,0.1l6.8,8.1L170.8,533L170.8,533z"/>
		</g>
		<g>
			<path class="st3" d="M177.6,518.4c0,0,5.6,12.5,7.7,13.3c2.1,0.8,4.1-1.5,3.2-3.6C187.3,525.1,177.6,518.4,177.6,518.4z"/>
			<path class="st4" d="M178.1,517.7c-0.4-0.2-0.8-0.2-1.1,0.1c-0.3,0.3-0.4,0.7-0.3,1.1c0,0,1.4,3.2,3.1,6.4c3.1,6,4.4,7.1,5.2,7.4
				c0.4,0.1,0.8,0.2,1.2,0.2c0.9,0,1.8-0.4,2.5-1.1c1-1.1,1.3-2.6,0.8-4C188.1,524.5,179.1,518.4,178.1,517.7z M187.3,530.4
				c-0.4,0.5-1.1,0.6-1.6,0.4c-0.1,0-1.1-0.7-4.2-6.6c-0.5-1-1-2-1.5-2.9c0.6,0.5,1.3,1,2,1.5c4.3,3.4,5.4,4.9,5.6,5.5
				C188,529.3,187.7,530,187.3,530.4z"/>
		</g>
		<g>
			<path class="st3" d="M183.6,529.1h-6c-2.8,0-5,2.2-5,5l0,0h16l0,0C188.7,531.4,186.4,529.1,183.6,529.1z"/>
			<path class="st4" d="M183.6,528.2h-6c-3.3,0-6,2.7-6,6c0,0.5,0.4,1,0.9,1h16c0.5,0,1-0.4,1-1
				C189.6,530.9,186.9,528.2,183.6,528.2z M173.7,533.2c0.4-1.8,2-3.1,3.9-3.1h6c1.9,0,3.5,1.3,3.9,3.1H173.7z"/>
		</g>
		<g>
			<path class="st3" d="M178.7,518.4c-0.7-1-1.8-1.5-3-1.5h-10l11.9,7.7l5.2,6.1c0.6,0.7,1.6,0.9,2.4,0.5l0,0
				c1.1-0.5,1.4-1.9,0.7-2.9L178.7,518.4z"/>
			<path class="st4" d="M179.5,517.8c-0.9-1.2-2.3-1.9-3.7-1.9h-10c-0.5,0-0.9,0.4-0.9,1s0.4,1,0.9,1h10c0.9,0,1.7,0.4,2.2,1.1
				l7.1,9.9c0.2,0.2,0.2,0.5,0.2,0.8c-0.1,0.3-0.3,0.5-0.5,0.7c-0.4,0.2-0.9,0.1-1.2-0.3l-5.2-6.1c-0.3-0.4-0.9-0.5-1.3-0.1
				c-0.4,0.3-0.5,0.9-0.1,1.3l5.2,6.1c0.6,0.7,1.4,1,2.2,1c0.4,0,0.9-0.1,1.3-0.3c0.8-0.4,1.3-1.1,1.5-1.9s0-1.7-0.5-2.4
				L179.5,517.8z"/>
		</g>
		<g>
			<path class="st3" d="M175.9,521.9l-3.3,2.7l4.6,6.2c0.6,0.7,1.6,0.9,2.4,0.5l0,0c1.1-0.5,1.4-1.9,0.7-2.9L175.9,521.9z"/>
			<path class="st4" d="M176.7,521.3c-0.3-0.4-0.9-0.6-1.3-0.3c-0.4,0.3-0.6,0.9-0.3,1.3l4.3,6.5c0,0,0,0,0,0
				c0.2,0.2,0.2,0.5,0.2,0.8c-0.1,0.3-0.3,0.5-0.5,0.7c-0.4,0.2-0.9,0.1-1.2-0.2l-4.6-6.2c-0.3-0.4-0.9-0.5-1.3-0.2
				c-0.4,0.3-0.5,0.9-0.2,1.3l4.6,6.2c0,0,0,0,0,0c0.6,0.7,1.4,1,2.2,1c0.4,0,0.9-0.1,1.3-0.3c0.8-0.4,1.3-1.1,1.5-1.9
				c0.2-0.8,0-1.7-0.5-2.4L176.7,521.3z"/>
		</g>
		<g>
			<g>
				<path class="st2" d="M131.9,533.2L131.9,533.2c7.5,3.1,16.5-1.6,20.2-10.6l1.1-72l-28.1,60.7
					C121.5,520.3,124.5,530.1,131.9,533.2z"/>
				<path class="st4" d="M153.7,449.8c-0.5-0.2-1,0-1.3,0.5L124.3,511c0,0,0,0,0,0c-1.9,4.5-2.2,9.4-0.9,13.8
					c1.4,4.4,4.2,7.7,8.1,9.3c1.7,0.7,3.4,1,5.2,1c2.4,0,4.8-0.6,7.2-1.8c4-2.1,7.3-5.8,9.2-10.3c0.2-0.5,0-1-0.5-1.2
					c-0.5-0.2-1,0-1.2,0.5c-1.7,4.1-4.7,7.4-8.3,9.3c-3.6,1.9-7.4,2.1-10.7,0.7c-7-2.9-9.7-12.1-6.2-20.6l28.1-60.7
					C154.3,450.5,154.1,450,153.7,449.8z"/>
			</g>
			<g>
				<polygon class="st2" points="141.7,515 134.8,534.1 170.2,534 170.1,514.8 				"/>
				<path class="st4" d="M170.8,514.1c-0.2-0.2-0.4-0.3-0.7-0.3c0,0,0,0,0,0l-28.3,0.2c-0.5,0-0.9,0.4-0.9,1c0,0.5,0.4,0.9,0.9,0.9
					c0,0,0,0,0,0l27.4-0.2l0.1,17.3l-34.4,0.2c-0.5,0-0.9,0.4-0.9,1c0,0.5,0.4,0.9,0.9,0.9c0,0,0,0,0,0l35.4-0.2
					c0.3,0,0.5-0.1,0.7-0.3c0.2-0.2,0.3-0.4,0.3-0.7l-0.1-19.2C171,514.6,170.9,514.3,170.8,514.1z"/>
			</g>
		</g>
		<path class="st4" d="M165.1,477.9c-0.5-0.2-1,0-1.2,0.5l-15.1,36c-0.2,0.5,0,1,0.5,1.2c0.1,0.1,0.2,0.1,0.4,0.1
			c0.4,0,0.7-0.2,0.9-0.6l15.1-36C165.8,478.7,165.6,478.1,165.1,477.9z"/>
		<g>
			<g>
				<path class="st3" d="M228.5,520.2c-0.9-1.1-2.3-1.7-3.7-1.7h-8.6l-2,1.3l-0.3,14.3h10.6h12.3l5.4-10l-11.7-1.6L228.5,520.2z"/>
				<path class="st4" d="M242.4,523.3l-11.4-1.5l-1.8-2.1c-1.1-1.3-2.7-2-4.4-2h-8.6c-0.2,0-0.4,0.1-0.5,0.2l-2,1.3
					c-0.3,0.2-0.4,0.5-0.4,0.8l-0.3,14.3c0,0.3,0.1,0.5,0.3,0.7c0.2,0.2,0.4,0.3,0.7,0.3h23c0.5,0,1-0.4,1-1s-0.4-1-1-1h-22
					l0.3-12.8l1.3-0.9h8.3c1.1,0,2.2,0.5,3,1.4l2,2.4c0.2,0.2,0.4,0.3,0.6,0.3l11.7,1.6c0.5,0.1,1-0.3,1.1-0.8
					C243.3,523.8,242.9,523.3,242.4,523.3z"/>
			</g>
			<g>
				<g>
					<path class="st3" d="M210.9,520.5L210.9,520.5c0,1.1,0.9,2,2,2h3.4l4.6-3.9h-8C211.8,518.5,210.9,519.4,210.9,520.5z"/>
					<path class="st4" d="M220.9,517.6h-8c-1.6,0-2.9,1.3-2.9,2.9c0,1.6,1.3,2.9,2.9,2.9h3.4c0.5,0,0.9-0.4,0.9-1
						c0-0.5-0.4-0.9-0.9-0.9h-3.4c-0.6,0-1-0.4-1-1c0-0.6,0.4-1,1-1h8c0.5,0,0.9-0.4,0.9-1S221.4,517.6,220.9,517.6z"/>
				</g>
				<g>
					<path class="st3" d="M210.9,528.3L210.9,528.3c0,1.1,0.9,2,2,2h6.2v-3.9h-6.2C211.8,526.3,210.9,527.2,210.9,528.3z"/>
					<path class="st4" d="M212.9,527.3h6.2c0.5,0,0.9-0.4,0.9-0.9c0-0.5-0.4-1-0.9-1h-6.2c-1.6,0-2.9,1.3-2.9,2.9
						c0,1.6,1.3,2.9,2.9,2.9h6.2c0.5,0,0.9-0.4,0.9-1s-0.4-1-0.9-1h-6.2c-0.6,0-1-0.4-1-1C211.9,527.7,212.3,527.3,212.9,527.3z"/>
				</g>
				<g>
					<path class="st3" d="M213.9,530.2c-1.1,0-2,0.9-2,2l0,0c0,1.1,0.9,2,2,2h10.6l-5.5-3.9H213.9z"/>
					<path class="st4" d="M224.6,533.2h-10.6c-0.6,0-1-0.4-1-1c0-0.6,0.4-1,1-1h5.2c0.5,0,0.9-0.4,0.9-1s-0.4-1-0.9-1h-5.2
						c-1.6,0-2.9,1.3-2.9,2.9c0,1.6,1.3,2.9,2.9,2.9h10.6c0.5,0,0.9-0.4,0.9-1C225.5,533.6,225.1,533.2,224.6,533.2z"/>
				</g>
				<g>
					<path class="st3" d="M210.2,524.4L210.2,524.4c0,1.1,0.7,2,1.6,2h7.2v-3.9h-7.2C211,522.4,210.2,523.3,210.2,524.4z"/>
					<path class="st4" d="M211.9,523.4h7.2c0.5,0,0.9-0.4,0.9-1c0-0.5-0.4-0.9-0.9-0.9h-7.2c-1.4,0-2.6,1.3-2.6,2.9s1.2,2.9,2.6,2.9
						h7.2c0.5,0,0.9-0.4,0.9-0.9c0-0.5-0.4-1-0.9-1h-7.2c-0.4,0-0.7-0.5-0.7-1S211.5,523.4,211.9,523.4z"/>
				</g>
			</g>
		</g>
		<g>
			<g>
				<g>
					<path class="st2" d="M225,450.6l1.1,72c3.7,9,12.8,13.7,20.2,10.6l0,0c7.5-3.1,10.5-12.9,6.7-21.8L225,450.6z"/>
					<path class="st4" d="M253.9,511l-28.1-60.7c-0.2-0.5-0.8-0.7-1.3-0.5c-0.5,0.2-0.7,0.8-0.5,1.3l28.1,60.7
						c1.7,4.1,2,8.5,0.8,12.5c-1.2,3.9-3.7,6.7-7,8.1c-3.3,1.4-7.1,1.1-10.7-0.7c-3.6-1.9-6.6-5.2-8.3-9.3c-0.2-0.5-0.8-0.7-1.2-0.5
						c-0.5,0.2-0.7,0.8-0.5,1.2c1.9,4.5,5.1,8.2,9.2,10.3c2.3,1.2,4.8,1.8,7.2,1.8c1.8,0,3.5-0.3,5.2-1c3.9-1.6,6.7-4.9,8.1-9.3
						C256.1,520.4,255.8,515.5,253.9,511C253.9,511,253.9,511,253.9,511z"/>
				</g>
				<g>
					<polygon class="st2" points="221.3,514.8 221.2,534 243.4,534.1 236.5,515 					"/>
					<path class="st4" d="M243.4,533.2l-21.3-0.2l0.1-17.3l14.3,0.2c0,0,0,0,0,0c0.5,0,0.9-0.4,0.9-0.9c0-0.5-0.4-1-0.9-1l-15.2-0.2
						c-0.3,0-0.5,0.1-0.7,0.3c-0.2,0.2-0.3,0.4-0.3,0.7l-0.1,19.2c0,0.5,0.4,1,0.9,1l22.3,0.2c0,0,0,0,0,0c0.5,0,0.9-0.4,0.9-0.9
						C244.4,533.6,244,533.2,243.4,533.2z"/>
				</g>
			</g>
			<path class="st4" d="M214.4,478.4c-0.2-0.5-0.8-0.7-1.2-0.5c-0.5,0.2-0.7,0.8-0.5,1.2l15.1,36c0.2,0.4,0.5,0.6,0.9,0.6
				c0.1,0,0.2,0,0.4-0.1c0.5-0.2,0.7-0.8,0.5-1.2L214.4,478.4z"/>
		</g>
	</g>
	<g>
		<g>
			<g>
				<path class="st3" d="M312.1,435.4v-12.2h-9.5h-9.5v12.2c0,4.9-4.8,8.9-10.6,8.9h20.1h20.1C316.9,444.4,312.1,440.4,312.1,435.4z
					"/>
				<path class="st4" d="M322.8,443.4c-5.3,0-9.7-3.6-9.7-8v-12.2c0-0.5-0.4-0.9-1-0.9h-18.9c-0.5,0-1,0.4-1,0.9v12.2
					c0,4.4-4.3,8-9.7,8c-0.5,0-1,0.4-1,1c0,0.5,0.4,0.9,1,0.9h40.2c0.5,0,1-0.4,1-0.9C323.7,443.9,323.3,443.4,322.8,443.4z
					 M289.4,443.4c2.9-1.8,4.8-4.7,4.8-8v-11.2h17v11.2c0,3.3,1.9,6.2,4.8,8H289.4z"/>
			</g>
			<g>
				<path class="st0" d="M322.5,440h-39.7c-10.1,0-18.2,8.2-18.2,18.2v75.9h76.1v-75.9C340.7,448.2,332.6,440,322.5,440z"/>
				<path class="st4" d="M322.5,439.1h-39.7c-10.6,0-19.2,8.6-19.2,19.2v75.9c0,0.5,0.4,1,1,1h76.1c0.5,0,1-0.4,1-1v-75.9
					C341.7,447.7,333.1,439.1,322.5,439.1z M339.8,533.2h-74.2v-74.9c0-9.5,7.7-17.3,17.3-17.3h39.7c9.5,0,17.3,7.7,17.3,17.3
					L339.8,533.2L339.8,533.2z"/>
			</g>
			<g>
				<polygon class="st0" points="250.8,534.1 268.4,534.1 266.1,451.1 				"/>
				<path class="st4" d="M268.4,533.2h-16.5l15.1-81.9c0.1-0.5-0.2-1-0.8-1.1c-0.5-0.1-1,0.2-1.1,0.8l-15.3,83
					c-0.1,0.3,0,0.6,0.2,0.8c0.2,0.2,0.4,0.3,0.7,0.3h17.6c0.5,0,1-0.4,1-1C269.3,533.6,268.9,533.2,268.4,533.2z"/>
			</g>
			<g>
				<path class="st0" d="M339.2,451.1l-1.6,72.7c3.4,8.3,12.3,12.4,19.8,9.3h0c7.5-3.1,10.8-12.4,7.4-20.6L339.2,451.1z"/>
				<path class="st4" d="M340,450.8c-0.2-0.5-0.8-0.7-1.2-0.5c-0.5,0.2-0.7,0.8-0.5,1.2l25.6,61.3c3.2,7.8,0.2,16.5-6.9,19.4
					c-3.4,1.4-7.2,1.3-10.7-0.4c-3.5-1.7-6.3-4.6-7.9-8.4c-0.2-0.5-0.8-0.7-1.2-0.5c-0.5,0.2-0.7,0.8-0.5,1.2
					c1.8,4.2,4.9,7.6,8.9,9.4c2.1,1,4.4,1.5,6.6,1.5c1.9,0,3.8-0.4,5.6-1.1c8-3.3,11.5-13.1,7.9-21.9L340,450.8z"/>
			</g>
			<g>
				<g>
					<g>
						<path class="st3" d="M321.4,518.4c-1-1.2-2.6-1.9-4.2-1.9h-9.8l-2.2,1.5l-5.9,16.2h25.2l-0.8-13.1L321.4,518.4z"/>
						<path class="st4" d="M324.5,533.2h-23.8l5.3-14.6l1.7-1.2h9.5c1.3,0,2.6,0.6,3.5,1.6l2.3,2.7c0.3,0.4,0.9,0.4,1.3,0.1
							c0.4-0.3,0.4-0.9,0.1-1.3l-2.3-2.7c-1.2-1.4-3-2.3-4.9-2.3h-9.8c-0.2,0-0.4,0.1-0.5,0.2l-2.2,1.5c-0.2,0.1-0.3,0.3-0.4,0.5
							l-5.9,16.2c-0.1,0.3-0.1,0.6,0.1,0.9c0.2,0.3,0.5,0.4,0.8,0.4h25.2c0.5,0,0.9-0.4,0.9-1C325.5,533.6,325,533.2,324.5,533.2z"
							/>
					</g>
					<g>
						<g>
							<path class="st3" d="M291,518.7c0,1.2,1,2.2,2.2,2.2h14.3l5.2-4.4h-19.5C292,516.4,291,517.4,291,518.7z"/>
							<path class="st4" d="M312.7,515.5h-19.5c-1.7,0-3.2,1.4-3.2,3.2s1.4,3.2,3.2,3.2h14.3c0.5,0,1-0.4,1-1c0-0.5-0.4-0.9-1-0.9
								h-14.3c-0.7,0-1.3-0.6-1.3-1.3c0-0.7,0.6-1.3,1.3-1.3h19.5c0.5,0,1-0.4,1-0.9C313.6,515.9,313.2,515.5,312.7,515.5z"/>
						</g>
						<g>
							<path class="st3" d="M291,527.5c0,1.2,1,2.2,2.2,2.2h17.5v-4.4h-17.5C292,525.3,291,526.3,291,527.5z"/>
							<path class="st4" d="M293.2,526.2h17.5c0.5,0,0.9-0.4,0.9-1s-0.4-1-0.9-1h-17.5c-1.7,0-3.2,1.4-3.2,3.2s1.4,3.2,3.2,3.2h17.5
								c0.5,0,0.9-0.4,0.9-0.9c0-0.5-0.4-1-0.9-1h-17.5c-0.7,0-1.3-0.6-1.3-1.3S292.5,526.2,293.2,526.2z"/>
						</g>
						<g>
							<path class="st3" d="M299.4,529.7c-1.2,0-2.2,1-2.2,2.2c0,1.2,1,2.2,2.2,2.2h17.5l-6.2-4.4H299.4L299.4,529.7z"/>
							<path class="st4" d="M316.9,533.2h-17.5c-0.7,0-1.3-0.6-1.3-1.3c0-0.7,0.6-1.3,1.3-1.3h11.3c0.5,0,1-0.4,1-1s-0.4-1-1-1
								h-11.3c-1.7,0-3.2,1.4-3.2,3.2s1.4,3.2,3.2,3.2h17.5c0.5,0,0.9-0.4,0.9-1C317.8,533.6,317.4,533.2,316.9,533.2z"/>
						</g>
						<g>
							<path class="st3" d="M288.3,523.1c0,1.2,1,2.2,2.2,2.2h20.1v-4.4h-20.1C289.3,520.9,288.3,521.9,288.3,523.1z"/>
							<path class="st4" d="M290.6,521.8h20.1c0.5,0,1-0.4,1-1s-0.4-1-1-1h-20.1c-1.7,0-3.2,1.4-3.2,3.2c0,1.7,1.4,3.2,3.2,3.2h20.1
								c0.5,0,1-0.4,1-1s-0.4-1-1-1h-20.1c-0.7,0-1.3-0.6-1.3-1.3C289.3,522.4,289.9,521.8,290.6,521.8z"/>
						</g>
					</g>
				</g>
				<g>
					<polygon class="st0" points="317.4,515.2 317.7,534.1 352.1,534.1 351.9,514.8 					"/>
					<path class="st4" d="M352.1,533.2h-33.5l-0.2-17l33.5-0.4c0.5,0,0.9-0.4,0.9-1c0-0.5-0.4-0.9-0.9-0.9c0,0,0,0,0,0l-34.5,0.4
						c-0.3,0-0.5,0.1-0.7,0.3s-0.3,0.4-0.3,0.7l0.2,18.9c0,0.5,0.4,0.9,0.9,0.9h34.5c0.5,0,1-0.4,1-0.9
						C353.1,533.6,352.7,533.2,352.1,533.2z"/>
				</g>
			</g>
			<g>
				<g>
					<g>
						<g>
							<path class="st9" d="M302.5,368.8c0.1,0,0.1,0,0.2,0c0.1,0,0.2,0,0.3,0H302.5z"/>
							<path class="st9" d="M303.5,368.8c-0.3,0-0.6,0-0.8,0c-13.3,0.1-23.8,5.3-25.5,17.6c-0.6,4.3,0,8.6,1.7,12.6l10.4,25.4h32.1
								c3,0,5.6-2,6.3-4.9l3.1-12.4C337.3,389,322.7,369.5,303.5,368.8z"/>
							<path class="st4" d="M303.6,367.9c-0.2,0-0.3,0-0.5,0c0,0-0.1,0-0.1,0h-0.4c0,0,0,0-0.1,0c-7,0.1-12.8,1.5-17.3,4.3
								c-5.1,3.2-8.1,7.9-8.9,14.1c-0.6,4.4,0,8.9,1.7,13.1l10.4,25.4c0.1,0.4,0.5,0.6,0.9,0.6h32.1c3.4,0,6.4-2.3,7.2-5.6l3.1-12.4
								c3-8.5,1.7-17.8-3.6-25.6C322.5,373.3,313.3,368.2,303.6,367.9z M330,406.7C330,406.7,330,406.7,330,406.7l-3.2,12.5
								c-0.6,2.5-2.8,4.2-5.4,4.2h-31.5l-10.2-24.8c-1.6-3.9-2.2-8.1-1.6-12.1c0.9-6.2,5.2-16.7,24.6-16.8c0.3,0,0.5,0,0.8,0
								c9.1,0.3,17.8,5.2,23.1,13C331.6,390,332.8,398.8,330,406.7z"/>
						</g>
						<g>
							<path class="st3" d="M277.6,409.8L277.6,409.8c0,2.4,1.9,4.3,4.3,4.3h0.8v-8.5h-0.8C279.5,405.5,277.6,407.4,277.6,409.8z"/>
							<path class="st4" d="M281.9,406.5h0.8c0.5,0,1-0.4,1-0.9c0-0.5-0.4-1-1-1h-0.8c-2.9,0-5.2,2.3-5.2,5.2c0,2.9,2.3,5.2,5.2,5.2
								h0.8c0.5,0,1-0.4,1-0.9c0-0.5-0.4-1-1-1h-0.8c-1.8,0-3.3-1.5-3.3-3.3C278.6,408,280,406.5,281.9,406.5z"/>
						</g>
						<g>
							<path class="st3" d="M294.3,382.2c-6.7,0-12,5.4-12,12l0,0v18.5c0,10.9,8.9,19.8,19.8,19.8l0,0c10.9,0,19.8-8.9,19.8-19.8
								V400l-1.3-17.7L294.3,382.2L294.3,382.2z"/>
							<path class="st4" d="M321.8,399c-0.5,0-1,0.4-1,1v12.8c0,10.4-8.5,18.9-18.9,18.9s-18.9-8.5-18.9-18.9v-18.5
								c0-6.1,5-11.1,11.1-11.1h26.3c0.5,0,1-0.4,1-0.9c0-0.5-0.4-1-1-1h-26.3c-7.2,0-13,5.8-13,13v18.5c0,11.4,9.3,20.8,20.8,20.8
								s20.8-9.3,20.8-20.8V400C322.8,399.4,322.4,399,321.8,399z"/>
						</g>
						<g>
							<path class="st3" d="M319.2,405.5h-0.8v8.5h0.8c2.4,0,4.3-1.9,4.3-4.3l0,0C323.5,407.4,321.5,405.5,319.2,405.5z"/>
							<path class="st4" d="M319.2,404.6h-0.8c-0.5,0-0.9,0.4-0.9,1c0,0.5,0.4,0.9,0.9,0.9h0.8c1.8,0,3.3,1.5,3.3,3.3
								c0,1.8-1.5,3.3-3.3,3.3h-0.8c-0.5,0-0.9,0.4-0.9,1c0,0.5,0.4,0.9,0.9,0.9h0.8c2.9,0,5.2-2.3,5.2-5.2
								C324.4,406.9,322.1,404.6,319.2,404.6z"/>
						</g>
						<g>
							<path class="st9" d="M304.9,368.8h-25.6c0,0-2,19.4,19.4,19.4h10.2c3.5,0,6.9,1,9.7,3.1c2.5,1.9,3.3,5.9,3.2,8.7l8.7-11.5
								C328.3,377.4,315.6,368.8,304.9,368.8z"/>
							<path class="st4" d="M321.4,373.7c-5.1-3.7-11.1-5.9-16.5-5.9h-25.6c-0.5,0-0.9,0.4-0.9,0.9c0,0.3-0.8,8.6,4.6,14.5
								c3.5,3.9,8.8,5.9,15.7,5.9h10.2c3.4,0,6.6,1,9.2,2.9c2.2,1.6,2.9,5.3,2.8,7.9c0,0.5,0.4,1,0.9,1c0,0,0,0,0,0
								c0.5,0,0.9-0.4,0.9-0.9c0.1-3.2-0.8-7.4-3.6-9.4c-2.9-2.1-6.5-3.3-10.3-3.3h-10.2c-6.3,0-11.2-1.8-14.3-5.2
								c-3.9-4.3-4.2-10.1-4.2-12.2h24.7c5,0,10.6,2,15.4,5.5c5,3.7,8.3,8.4,9.3,13.4c0.1,0.5,0.6,0.8,1.1,0.7
								c0.5-0.1,0.8-0.6,0.7-1.1C330.3,382.9,326.8,377.7,321.4,373.7z"/>
						</g>
					</g>
				</g>
			</g>
			<g>
				<g>
					<path class="st4" d="M310.5,404L310.5,404c-1,0-1.9,0.8-1.9,1.9c0,1,0.8,1.9,1.9,1.9l0,0c1,0,1.9-0.8,1.9-1.9
						C312.3,404.8,311.5,404,310.5,404z"/>
					<path class="st4" d="M290.1,404L290.1,404c-1,0-1.9,0.8-1.9,1.9c0,1,0.8,1.9,1.9,1.9l0,0c1,0,1.9-0.8,1.9-1.9
						C292,404.8,291.1,404,290.1,404z"/>
				</g>
				<path class="st4" d="M303.1,412.8c-0.5,0-0.9,0.4-0.9,1c0,1-0.8,1.8-1.8,1.8s-1.8-0.8-1.8-1.8v-13.7c0-0.5-0.4-0.9-0.9-0.9
					c-0.5,0-1,0.4-1,0.9v13.7c0,2.1,1.7,3.7,3.7,3.7c2.1,0,3.7-1.7,3.7-3.7C304,413.2,303.6,412.8,303.1,412.8z"/>
				<g>
					<path class="st2" d="M314.7,397.5c-0.2-0.1-4-1.5-7.5,0c-0.5,0.2-0.7,0.8-0.5,1.2c0.2,0.5,0.8,0.7,1.2,0.5c2.8-1.2,6,0,6.1,0
						c0.1,0,0.2,0.1,0.3,0.1c0.4,0,0.7-0.2,0.9-0.6C315.4,398.2,315.2,397.6,314.7,397.5z"/>
					<path class="st2" d="M293.5,397.5c-4-2.1-7.5-0.1-7.7,0c-0.5,0.3-0.6,0.9-0.3,1.3c0.3,0.5,0.9,0.6,1.3,0.3c0,0,2.7-1.6,5.8,0
						c0.1,0.1,0.3,0.1,0.4,0.1c0.3,0,0.7-0.2,0.8-0.5C294.1,398.3,293.9,397.7,293.5,397.5z"/>
				</g>
				<path class="st4" d="M306,421.4h-9.4c-0.3,0-0.6,0.2-0.8,0.5s-0.2,0.6,0,0.9c1.1,2.1,3.2,3.4,5.5,3.4c2.4,0,4.5-1.3,5.5-3.4
					c0.2-0.3,0.1-0.6,0-0.9C306.6,421.6,306.3,421.4,306,421.4z M301.3,424.2c-1,0-1.9-0.3-2.7-0.9h5.4
					C303.2,423.9,302.3,424.2,301.3,424.2z"/>
			</g>
		</g>
		<path class="st4" d="M331.5,482.4c-0.1-0.5-0.6-0.8-1.1-0.7c-0.5,0.1-0.8,0.6-0.7,1.1l7.8,32.2c0.1,0.4,0.5,0.7,0.9,0.7
			c0.1,0,0.1,0,0.2,0c0.5-0.1,0.8-0.6,0.7-1.1L331.5,482.4z"/>
	</g>
	<g>
		<g>
			<g>
				<path class="st2" d="M274.6,445.7h-89.1c-4.7,0-8.5,3.8-8.5,8.5v53.6c0,4.7,3.8,8.5,8.5,8.5h89.1c4.7,0,8.5-3.8,8.5-8.5v-53.6
					C283,449.5,279.2,445.7,274.6,445.7z"/>
				<path class="st4" d="M274.6,444.7h-89.1c-5.2,0-9.4,4.2-9.4,9.4v53.6c0,5.2,4.2,9.4,9.4,9.4h89.1c5.2,0,9.4-4.2,9.4-9.4v-53.6
					C284,448.9,279.7,444.7,274.6,444.7z M282.1,507.7c0,4.1-3.4,7.5-7.5,7.5h-89.1c-4.1,0-7.5-3.4-7.5-7.5v-53.6
					c0-4.1,3.4-7.5,7.5-7.5h89.1c4.1,0,7.5,3.4,7.5,7.5V507.7z"/>
			</g>
			<g>
				<path class="st3" d="M278.2,445.7h-89.1c-4.7,0-8.5,3.8-8.5,8.5v53.6c0,4.7,3.8,8.5,8.5,8.5h89.1c4.7,0,8.5-3.8,8.5-8.5v-53.6
					C286.7,449.5,282.9,445.7,278.2,445.7z"/>
				<path class="st4" d="M278.2,444.7h-89.1c-5.2,0-9.4,4.2-9.4,9.4v53.6c0,5.2,4.2,9.4,9.4,9.4h89.1c5.2,0,9.4-4.2,9.4-9.4v-53.6
					C287.6,448.9,283.4,444.7,278.2,444.7z M285.7,507.7c0,4.1-3.4,7.5-7.5,7.5h-89.1c-4.1,0-7.5-3.4-7.5-7.5v-53.6
					c0-4.1,3.4-7.5,7.5-7.5h89.1c4.1,0,7.5,3.4,7.5,7.5V507.7z"/>
			</g>
			<g>
				<path class="st3" d="M251,525.7h-47.8c-4.7,0-8.5,3.8-8.5,8.5h64.7C259.5,529.5,255.7,525.7,251,525.7z"/>
				<path class="st4" d="M251,524.7h-47.8c-5.2,0-9.4,4.2-9.4,9.4c0,0.5,0.4,1,0.9,1h64.7c0.5,0,1-0.4,1-1
					C260.5,529,256.2,524.7,251,524.7z M195.8,533.2c0.5-3.7,3.6-6.6,7.5-6.6H251c3.8,0,7,2.9,7.5,6.6H195.8z"/>
			</g>
			<g>
				<rect x="210.1" y="516.2" class="st3" width="34.2" height="9.5"/>
				<path class="st4" d="M244.3,515.3h-34.2c-0.5,0-0.9,0.4-0.9,0.9v9.5c0,0.5,0.4,1,0.9,1h34.2c0.5,0,1-0.4,1-1v-9.5
					C245.2,515.7,244.8,515.3,244.3,515.3z M243.3,524.7H211v-7.6h32.3V524.7z"/>
			</g>
		</g>
		<path class="st1" d="M231.8,472.7c-4.2,0-7.6,3.4-7.6,7.5s3.4,7.5,7.6,7.5c4.2,0,7.6-3.4,7.6-7.5S236,472.7,231.8,472.7z
			 M231.8,485.9c-3.1,0-5.7-2.5-5.7-5.6s2.5-5.6,5.7-5.6s5.6,2.5,5.6,5.6S235,485.9,231.8,485.9z"/>
	</g>
	<g>
		<path class="st1" d="M365.9,542.1h-29.4c-0.4,0-0.8,0.3-0.8,0.8s0.3,0.8,0.8,0.8h29.4c0.4,0,0.8-0.3,0.8-0.8
			S366.3,542.1,365.9,542.1z"/>
		<path class="st1" d="M326.2,542.1h-10.7c-0.4,0-0.8,0.3-0.8,0.8s0.3,0.8,0.8,0.8h10.7c0.4,0,0.8-0.3,0.8-0.8
			S326.6,542.1,326.2,542.1z"/>
		<path class="st1" d="M304.3,542.1h-71.5c-0.4,0-0.8,0.3-0.8,0.8s0.3,0.8,0.8,0.8h71.5c0.4,0,0.8-0.3,0.8-0.8
			S304.8,542.1,304.3,542.1z"/>
		<path class="st1" d="M222.6,542.1h-79c-0.4,0-0.8,0.3-0.8,0.8s0.3,0.8,0.8,0.8h79c0.4,0,0.8-0.3,0.8-0.8S223,542.1,222.6,542.1z"
			/>
		<g>
			<path class="st1" d="M321,550.9h-32.9c-0.4,0-0.8,0.3-0.8,0.8s0.3,0.8,0.8,0.8H321c0.4,0,0.8-0.3,0.8-0.8S321.4,550.9,321,550.9z
				"/>
			<path class="st1" d="M275.8,550.9h-82.6c-0.4,0-0.8,0.3-0.8,0.8s0.3,0.8,0.8,0.8h82.6c0.4,0,0.8-0.3,0.8-0.8
				S276.2,550.9,275.8,550.9z"/>
			<path class="st1" d="M183.3,550.9h-10.7c-0.4,0-0.8,0.3-0.8,0.8s0.3,0.8,0.8,0.8h10.7c0.4,0,0.8-0.3,0.8-0.8
				S183.7,550.9,183.3,550.9z"/>
		</g>
		<path class="st1" d="M218.9,542.1h-17.6c-0.4,0-0.8,0.3-0.8,0.8s0.3,0.8,0.8,0.8h17.6c0.4,0,0.8-0.3,0.8-0.8
			S219.3,542.1,218.9,542.1z"/>
		<path class="st1" d="M191,542.1h-10.7c-0.4,0-0.8,0.3-0.8,0.8s0.3,0.8,0.8,0.8H191c0.4,0,0.8-0.3,0.8-0.8S191.4,542.1,191,542.1z"
			/>
		<path class="st1" d="M169.2,542.1H97.7c-0.4,0-0.8,0.3-0.8,0.8s0.3,0.8,0.8,0.8h71.5c0.4,0,0.8-0.3,0.8-0.8
			S169.6,542.1,169.2,542.1z"/>
		<path class="st1" d="M87.4,542.1H34.2c-0.4,0-0.8,0.3-0.8,0.8s0.3,0.8,0.8,0.8h53.2c0.4,0,0.8-0.3,0.8-0.8S87.8,542.1,87.4,542.1z
			"/>
		<g>
			<path class="st1" d="M185.9,550.9h-32.9c-0.4,0-0.8,0.3-0.8,0.8s0.3,0.8,0.8,0.8h32.9c0.4,0,0.8-0.3,0.8-0.8
				S186.3,550.9,185.9,550.9z"/>
			<path class="st1" d="M140.6,550.9H58c-0.4,0-0.8,0.3-0.8,0.8s0.3,0.8,0.8,0.8h82.6c0.4,0,0.8-0.3,0.8-0.8S141,550.9,140.6,550.9z
				"/>
			<path class="st1" d="M48.1,550.9H37.4c-0.4,0-0.8,0.3-0.8,0.8s0.3,0.8,0.8,0.8h10.7c0.4,0,0.8-0.3,0.8-0.8S48.5,550.9,48.1,550.9
				z"/>
		</g>
	</g>
</g>
</svg>
