<?xml version="1.0" encoding="utf-8"?>
<!-- Generator: Adobe Illustrator 16.0.0, SVG Export Plug-In . SVG Version: 6.00 Build 0)  -->
<!DOCTYPE svg PUBLIC "-//W3C//DTD SVG 1.1//EN" "http://www.w3.org/Graphics/SVG/1.1/DTD/svg11.dtd">
<svg version="1.1" id="Layer_1" xmlns="http://www.w3.org/2000/svg" xmlns:xlink="http://www.w3.org/1999/xlink" x="0px" y="0px"
	 width="70px" height="70px" viewBox="0 0 70 70" enable-background="new 0 0 70 70" xml:space="preserve">
<g>
	<path fill="#4E8EF7" d="M25.333,69.321c-1.015,0-2.026-0.389-2.803-1.162c-1.545-1.545-1.545-4.052,0-5.601l39.804-39.807
		c1.549-1.547,4.059-1.547,5.605,0c1.553,1.545,1.553,4.054,0.002,5.6L28.135,68.159C27.361,68.933,26.349,69.321,25.333,69.321z"/>
	<path fill="#4E8EF7" d="M45.252,69.224c-0.75,0-1.52-0.219-2.193-0.662l-0.238-0.166c-1.82-1.214-2.311-3.674-1.096-5.486
		c1.213-1.82,3.672-2.317,5.496-1.104l0.236,0.161c1.814,1.213,2.309,3.671,1.094,5.495C47.789,68.602,46.537,69.224,45.252,69.224z
		"/>
	<path fill="#4FD696" d="M13.073,61.78c-1.016,0-2.029-0.393-2.804-1.167c-1.542-1.546-1.542-4.059,0.004-5.604l10.951-10.928
		c1.552-1.548,4.06-1.548,5.606,0.004c1.541,1.55,1.541,4.057-0.006,5.591L15.868,60.616C15.1,61.388,14.086,61.78,13.073,61.78z"/>
	<path fill="#4E8EF7" d="M59.676,54.805c-1.016,0-2.031-0.385-2.801-1.158c-1.547-1.548-1.547-4.063,0-5.604l5.363-5.365
		c1.547-1.549,4.057-1.549,5.605,0c1.543,1.545,1.543,4.052,0,5.6l-5.367,5.37C61.701,54.42,60.688,54.805,59.676,54.805z"/>
	<path fill="#4FD696" d="M5.328,49.734c-1.01,0-2.024-0.387-2.794-1.156c-1.55-1.547-1.554-4.055-0.006-5.599l0.074-0.081
		c1.548-1.55,4.054-1.556,5.603-0.009c1.551,1.541,1.552,4.052,0.009,5.605l-0.081,0.07C7.356,49.342,6.345,49.734,5.328,49.734z"/>
	<path fill="#4E8EF7" d="M34.722,40.148c-1.018,0-2.032-0.385-2.802-1.155c-1.546-1.553-1.546-4.057,0-5.608l22.895-22.892
		c1.549-1.547,4.055-1.547,5.6,0c1.549,1.543,1.549,4.051,0,5.598L37.521,38.993C36.746,39.764,35.733,40.148,34.722,40.148z"/>
	<path fill="#4FD696" d="M16.105,38.958c-1.016,0-2.031-0.383-2.801-1.16c-1.545-1.542-1.549-4.052-0.001-5.599L42.752,2.73
		c1.547-1.55,4.053-1.551,5.605-0.005c1.545,1.546,1.547,4.054,0.002,5.605L18.904,37.798
		C18.132,38.575,17.117,38.958,16.105,38.958z"/>
	<path fill="#4FD696" d="M4.858,30.4c-1.018,0-2.031-0.384-2.803-1.158c-1.545-1.547-1.545-4.052,0-5.601L13.56,12.135
		c1.543-1.549,4.057-1.549,5.604,0c1.547,1.545,1.547,4.055-0.003,5.602L7.656,29.243C6.882,30.016,5.871,30.4,4.858,30.4z"/>
	<path fill="#4FD696" d="M26.244,8.995c-2.189,0-3.96-1.773-3.96-3.963V4.639c0-2.189,1.771-3.96,3.96-3.96
		c2.186,0,3.958,1.771,3.958,3.96v0.392C30.202,7.221,28.43,8.995,26.244,8.995z"/>
</g>
</svg>
